<svg xmlns="http://www.w3.org/2000/svg" width="1400" height="430" viewBox="0 0 1400 430">
<defs>
<linearGradient id="bg" x1="0" x2="1"><stop stop-color="#081018"/><stop offset=".58" stop-color="#121923"/><stop offset="1" stop-color="#2A1205"/></linearGradient>
<radialGradient id="orangeGlow" cx=".8" cy=".25" r=".55"><stop stop-color="#F97316" stop-opacity=".48"/><stop offset="1" stop-color="#F97316" stop-opacity="0"/></radialGradient>
<filter id="blur"><feGaussianBlur stdDeviation="24"/></filter>
</defs>
<rect width="1400" height="430" rx="32" fill="url(#bg)"/>
<rect width="1400" height="430" rx="32" fill="url(#orangeGlow)"/>
<circle cx="1120" cy="95" r="210" fill="#F97316" opacity=".16" filter="url(#blur)"/>
<g opacity=".35" fill="#0B1220">
<rect x="76" y="214" width="64" height="160"/><rect x="162" y="164" width="82" height="210"/><rect x="274" y="192" width="58" height="182"/><rect x="360" y="130" width="102" height="244"/>
<rect x="1110" y="174" width="74" height="200"/><rect x="1208" y="126" width="64" height="248"/>
</g>
<g transform="translate(888 118)">
<rect x="0" y="0" width="315" height="198" rx="24" fill="#070B11" stroke="#263241" stroke-width="3"/>
<rect x="24" y="30" width="76" height="20" rx="10" fill="#F97316" opacity=".75"/>
<rect x="24" y="72" width="264" height="15" rx="8" fill="#1F2937"/>
<rect x="24" y="105" width="210" height="15" rx="8" fill="#1F2937"/>
<rect x="24" y="138" width="245" height="15" rx="8" fill="#1F2937"/>
<circle cx="262" cy="42" r="26" fill="#22C55E" opacity=".85"/>
<path d="M250 42l9 9 16-20" stroke="#fff" stroke-width="6" fill="none" stroke-linecap="round" stroke-linejoin="round"/>
</g>
<g transform="translate(1038 238)">
<path d="M0 74h240l-31-50H62c-27 0-47 18-62 50z" fill="#0A0F16" stroke="#2D3748" stroke-width="4"/>
<rect x="58" y="30" width="64" height="34" rx="8" fill="#17202B"/><rect x="136" y="30" width="64" height="34" rx="8" fill="#17202B"/>
<text x="135" y="94" font-family="Inter, Arial" font-size="28" font-weight="900" fill="#F97316">FITDOG</text>
<circle cx="64" cy="80" r="23" fill="#080B10" stroke="#475569" stroke-width="7"/><circle cx="190" cy="80" r="23" fill="#080B10" stroke="#475569" stroke-width="7"/>
</g>
<g transform="translate(670 118)">
<circle cx="58" cy="40" r="32" fill="#111827" stroke="#263241" stroke-width="3"/>
<path d="M30 92c5-32 52-32 58 0l15 126H14z" fill="#111827" stroke="#263241" stroke-width="3"/>
<path d="M34 70h48v34H34z" fill="#1F2937"/>
<text x="38" y="92" font-family="Inter, Arial" font-size="13" font-weight="900" fill="#F97316">ADMIN</text>
<path d="M29 218h89" stroke="#020617" stroke-width="18" stroke-linecap="round"/>
</g>
<g transform="translate(565 220)">
<path d="M10 68c-4-38 60-43 74-13 18 4 30 17 29 37-3 43-91 48-103-24z" fill="#101820"/>
<circle cx="42" cy="35" r="15" fill="#101820"/><circle cx="80" cy="38" r="15" fill="#101820"/><circle cx="60" cy="75" r="6" fill="#F97316"/>
</g>
<text x="64" y="92" font-family="Inter, Arial" font-size="22" fill="#CBD5E1">Secure admin controls for Fitdog operations</text>
<text x="64" y="154" font-family="Inter, Arial" font-size="52" font-weight="900" fill="#F97316">Admin</text>
<text x="236" y="154" font-family="Inter, Arial" font-size="52" font-weight="900" fill="#F8FAFC">Center</text>
<text x="66" y="202" font-family="Inter, Arial" font-size="20" fill="#CBD5E1">Manage users, roles, passwords, maintenance, audit logs, system health, and app updates.</text>
<g transform="translate(66 250)">
<rect width="160" height="44" rx="15" fill="#F97316"/><text x="80" y="29" text-anchor="middle" font-family="Inter, Arial" font-size="15" font-weight="900" fill="#fff">Admin Only</text>
<rect x="176" width="190" height="44" rx="15" fill="#0E131B" stroke="#263241"/><text x="271" y="29" text-anchor="middle" font-family="Inter, Arial" font-size="15" font-weight="800" fill="#CBD5E1">Full Control Hub</text>
</g>
</svg>