<svg xmlns="http://www.w3.org/2000/svg" width="873" height="872" viewBox="0 0 873 872" role="img" aria-label="service overnight">
  <rect x="0" y="0" width="873" height="872" rx="95.9" ry="95.9" fill="#4197b4"/>
  <path d="M 699 691 L 698 692 L 698 702 L 699 703 L 719 703 L 720 704 L 720 712 L 721 713 L 720 715 L 721 717 L 721 763 L 736 763 L 736 705 L 738 703 L 757 703 L 758 702 L 758 693 L 757 691 Z M 621 691 L 621 763 L 636 763 L 636 734 L 638 732 L 670 732 L 672 734 L 672 763 L 687 763 L 687 691 L 672 691 L 672 719 L 671 720 L 638 720 L 636 718 L 636 691 Z M 508 691 L 508 763 L 523 763 L 523 691 Z M 425 691 L 425 763 L 440 763 L 440 718 L 441 717 L 444 719 L 446 723 L 476 763 L 491 763 L 491 691 L 477 691 L 476 692 L 476 735 L 475 736 L 473 735 L 469 728 L 465 724 L 463 720 L 441 691 Z M 351 691 L 351 763 L 366 763 L 366 739 L 368 737 L 378 737 L 380 739 L 386 751 L 390 756 L 390 758 L 392 760 L 393 763 L 410 763 L 409 759 L 405 754 L 404 751 L 402 749 L 401 746 L 395 737 L 396 735 L 401 733 L 406 729 L 409 724 L 409 722 L 411 718 L 411 710 L 407 700 L 400 694 L 392 691 Z M 366 705 L 368 703 L 386 703 L 390 705 L 394 709 L 395 711 L 395 717 L 389 724 L 384 724 L 383 725 L 369 725 L 366 723 Z M 285 691 L 285 763 L 337 763 L 337 751 L 302 751 L 300 749 L 300 734 L 301 733 L 335 733 L 336 732 L 336 721 L 335 720 L 301 720 L 299 716 L 300 705 L 302 703 L 337 703 L 337 691 Z M 200 691 L 200 694 L 202 697 L 204 705 L 208 712 L 208 714 L 210 717 L 210 719 L 216 732 L 218 740 L 220 743 L 220 745 L 222 748 L 222 750 L 224 753 L 224 755 L 226 758 L 227 762 L 228 763 L 247 763 L 248 762 L 249 757 L 251 754 L 251 752 L 253 749 L 253 747 L 255 744 L 255 742 L 257 739 L 257 737 L 259 734 L 259 732 L 261 729 L 261 727 L 263 724 L 263 722 L 265 719 L 265 717 L 267 714 L 267 712 L 269 709 L 269 707 L 271 704 L 271 702 L 273 699 L 273 697 L 275 694 L 275 691 L 259 691 L 258 692 L 258 694 L 254 702 L 254 705 L 250 713 L 248 721 L 244 729 L 242 737 L 238 745 L 236 744 L 235 740 L 233 737 L 233 735 L 231 732 L 229 724 L 223 711 L 223 708 L 219 700 L 219 697 L 217 694 L 217 692 L 216 691 Z M 555 694 L 549 698 L 543 704 L 538 713 L 538 715 L 536 719 L 536 735 L 538 739 L 538 742 L 540 744 L 540 746 L 542 749 L 550 757 L 556 761 L 558 761 L 561 763 L 564 763 L 565 764 L 569 764 L 570 765 L 581 765 L 586 763 L 590 763 L 604 755 L 607 751 L 607 724 L 572 724 L 572 735 L 573 736 L 590 736 L 592 738 L 592 745 L 588 749 L 583 751 L 580 751 L 579 752 L 571 752 L 570 751 L 565 750 L 562 748 L 553 738 L 553 735 L 551 730 L 551 724 L 555 713 L 564 705 L 566 705 L 569 703 L 581 703 L 584 705 L 586 705 L 590 709 L 591 709 L 592 711 L 596 711 L 605 705 L 602 700 L 594 694 L 584 690 L 566 690 L 565 691 L 560 692 L 557 694 Z M 142 692 L 132 698 L 126 704 L 120 716 L 120 720 L 119 721 L 119 733 L 120 734 L 120 739 L 122 742 L 122 744 L 130 755 L 131 755 L 135 759 L 139 761 L 141 761 L 144 763 L 147 763 L 152 765 L 163 765 L 168 763 L 172 763 L 180 759 L 187 753 L 193 744 L 193 742 L 195 739 L 195 735 L 196 734 L 196 721 L 195 720 L 195 715 L 193 712 L 193 710 L 189 704 L 182 697 L 173 692 L 170 692 L 166 690 L 149 690 L 145 692 Z M 151 703 L 164 703 L 169 705 L 176 711 L 180 718 L 180 722 L 181 723 L 181 731 L 180 732 L 180 736 L 178 738 L 178 740 L 171 748 L 161 752 L 153 752 L 146 749 L 139 743 L 135 735 L 134 726 L 135 725 L 135 719 L 137 716 L 137 714 L 146 705 L 148 705 Z M 662 588 L 655 588 L 652 590 L 649 590 L 646 592 L 642 592 L 639 589 L 639 587 L 635 579 L 635 575 L 634 573 L 632 573 L 631 575 L 631 584 L 630 585 L 630 593 L 629 594 L 629 596 L 627 598 L 622 598 L 617 600 L 608 600 L 607 601 L 607 603 L 609 605 L 613 605 L 617 607 L 620 607 L 625 610 L 625 613 L 624 614 L 622 622 L 620 625 L 620 629 L 621 630 L 623 630 L 629 620 L 635 613 L 644 617 L 652 623 L 655 623 L 655 619 L 647 607 L 646 602 L 662 591 Z M 639 608 L 640 607 L 642 607 L 644 609 L 644 611 L 642 612 Z M 639 599 L 640 600 L 640 602 L 637 606 L 633 608 L 631 606 L 632 601 L 634 599 Z M 633 592 L 635 591 L 636 592 L 636 594 L 634 595 L 633 594 Z M 542 552 L 540 552 L 531 558 L 529 558 L 522 562 L 520 562 L 517 564 L 514 564 L 511 566 L 508 566 L 508 567 L 510 567 L 514 565 L 517 565 L 518 564 L 523 563 L 526 561 L 528 561 L 530 559 L 532 559 L 534 557 L 536 557 L 542 553 Z M 367 552 L 367 553 L 371 555 L 373 555 L 380 559 L 382 559 L 390 563 L 393 563 L 396 565 L 399 565 L 402 567 L 406 567 L 410 569 L 415 569 L 420 571 L 427 571 L 428 572 L 435 572 L 436 573 L 468 574 L 468 573 L 466 573 L 465 572 L 449 572 L 448 571 L 429 570 L 428 569 L 424 569 L 423 568 L 417 568 L 413 566 L 409 566 L 405 564 L 401 564 L 397 562 L 394 562 L 393 561 L 388 560 L 385 558 L 383 558 L 380 556 L 378 556 L 375 554 L 372 554 L 370 552 Z M 214 584 L 214 586 L 215 587 L 217 587 L 220 589 L 227 590 L 228 591 L 232 591 L 235 593 L 235 597 L 234 598 L 234 602 L 232 606 L 232 610 L 228 617 L 228 620 L 229 621 L 232 621 L 234 619 L 235 616 L 251 599 L 254 601 L 256 601 L 261 605 L 263 605 L 268 609 L 271 610 L 274 613 L 279 614 L 279 610 L 277 606 L 267 593 L 265 589 L 265 586 L 273 579 L 282 573 L 285 569 L 283 567 L 280 567 L 279 568 L 275 568 L 271 570 L 267 570 L 266 571 L 258 573 L 253 567 L 249 559 L 248 553 L 247 552 L 244 552 L 242 556 L 242 561 L 240 566 L 240 573 L 239 574 L 239 577 L 232 580 L 228 580 L 225 582 L 215 583 Z M 243 595 L 245 597 L 245 599 L 242 603 L 238 606 L 237 605 L 237 602 L 238 601 L 239 596 L 240 595 Z M 259 591 L 261 591 L 266 599 L 265 601 L 258 598 L 256 596 L 256 594 Z M 231 584 L 232 583 L 237 582 L 238 583 L 238 587 L 237 588 L 233 588 L 231 586 Z M 254 578 L 258 584 L 258 587 L 253 592 L 252 592 L 251 594 L 248 594 L 241 590 L 241 584 L 242 582 L 246 579 Z M 269 574 L 270 576 L 266 580 L 262 582 L 260 579 L 260 576 L 265 574 Z M 246 565 L 248 565 L 252 572 L 252 574 L 249 576 L 245 576 L 244 575 L 244 571 L 245 570 L 245 566 Z M 288 494 L 294 503 L 310 519 L 311 519 L 312 521 L 313 521 L 322 529 L 340 541 L 345 543 L 345 542 L 326 530 L 322 526 L 318 524 L 313 519 L 312 519 L 295 502 L 291 496 Z M 278 478 L 278 480 L 280 482 L 281 485 L 285 491 L 287 492 L 281 483 L 279 478 Z M 282 436 L 284 446 L 286 449 L 286 451 L 288 454 L 290 461 L 294 468 L 294 470 L 296 472 L 296 474 L 298 476 L 304 488 L 318 507 L 330 519 L 331 519 L 332 521 L 340 527 L 340 526 L 318 505 L 309 493 L 308 490 L 297 473 L 297 471 L 295 469 L 295 467 L 293 465 L 291 458 L 289 456 L 289 453 L 287 450 L 287 447 L 285 444 L 285 441 L 283 438 L 283 436 Z M 603 392 L 595 392 L 590 394 L 586 394 L 582 396 L 578 396 L 576 394 L 575 390 L 571 382 L 568 379 L 566 379 L 565 384 L 564 385 L 564 391 L 562 396 L 562 400 L 559 402 L 556 402 L 552 404 L 549 404 L 548 405 L 540 407 L 540 409 L 542 411 L 546 411 L 550 413 L 553 413 L 558 416 L 558 422 L 556 426 L 556 430 L 553 437 L 551 439 L 551 442 L 556 441 L 574 422 L 585 427 L 587 429 L 593 432 L 595 432 L 596 430 L 587 417 L 585 413 L 585 411 L 593 403 L 594 403 L 603 395 Z M 566 418 L 568 421 L 566 422 L 563 426 L 562 426 L 561 425 L 561 421 L 563 418 Z M 580 415 L 581 415 L 583 418 L 582 420 L 579 420 L 578 419 L 578 417 Z M 553 408 L 555 406 L 557 406 L 558 405 L 560 405 L 561 406 L 561 408 L 559 411 L 554 410 Z M 566 403 L 570 403 L 571 402 L 575 402 L 576 403 L 576 405 L 578 408 L 578 411 L 575 415 L 570 416 L 565 414 L 563 412 L 563 410 Z M 591 399 L 591 400 L 584 406 L 582 406 L 580 403 L 580 400 L 581 399 L 586 399 L 587 398 L 590 398 Z M 568 391 L 570 391 L 573 396 L 571 399 L 567 399 L 566 398 L 567 392 Z M 680 314 L 679 313 L 676 313 L 675 314 L 670 314 L 667 316 L 659 317 L 657 314 L 657 311 L 655 308 L 654 302 L 653 300 L 651 300 L 650 301 L 650 314 L 649 315 L 648 321 L 647 322 L 643 322 L 639 324 L 630 324 L 628 325 L 627 327 L 629 329 L 633 329 L 637 331 L 641 331 L 645 334 L 644 338 L 642 341 L 642 343 L 640 346 L 640 351 L 643 351 L 653 337 L 657 337 L 669 345 L 673 345 L 673 342 L 665 330 L 664 327 L 667 324 L 676 319 L 680 315 Z M 658 331 L 659 330 L 661 330 L 662 331 L 662 333 L 661 334 L 659 334 L 658 333 Z M 657 323 L 658 324 L 658 326 L 653 331 L 652 331 L 650 329 L 651 325 L 653 323 Z M 282 292 L 281 292 L 278 296 L 278 298 L 276 300 L 270 313 L 270 316 L 266 327 L 266 332 L 265 333 L 264 342 L 263 343 L 263 347 L 262 348 L 262 357 L 261 358 L 261 381 L 262 382 L 262 402 L 263 403 L 263 410 L 264 411 L 264 421 L 265 422 L 266 433 L 268 438 L 268 442 L 270 447 L 270 451 L 272 454 L 272 457 L 273 458 L 274 463 L 276 466 L 276 468 L 275 469 L 273 468 L 273 466 L 269 460 L 269 458 L 267 455 L 267 453 L 265 451 L 265 449 L 264 449 L 264 451 L 270 463 L 270 465 L 272 467 L 276 476 L 277 476 L 277 473 L 279 472 L 279 469 L 277 466 L 277 463 L 275 460 L 273 450 L 271 447 L 271 443 L 269 439 L 269 435 L 268 434 L 268 430 L 267 429 L 267 423 L 266 422 L 266 418 L 265 417 L 265 405 L 264 404 L 264 392 L 263 391 L 263 354 L 264 353 L 265 340 L 267 335 L 267 330 L 269 326 L 271 316 L 273 313 L 273 310 Z M 561 257 L 559 257 L 558 258 L 554 258 L 553 257 L 551 258 L 544 258 L 543 259 L 536 260 L 532 262 L 529 262 L 526 264 L 518 265 L 515 260 L 515 258 L 511 250 L 507 245 L 507 243 L 505 241 L 499 229 L 497 229 L 496 231 L 494 231 L 492 233 L 492 239 L 490 244 L 490 249 L 488 253 L 487 272 L 486 274 L 483 276 L 480 276 L 476 278 L 470 278 L 469 279 L 466 279 L 465 280 L 462 280 L 458 282 L 455 282 L 454 283 L 449 284 L 448 285 L 448 287 L 446 288 L 446 290 L 451 293 L 453 293 L 456 295 L 459 295 L 462 297 L 465 297 L 468 299 L 475 301 L 482 305 L 482 309 L 480 313 L 480 317 L 478 322 L 478 329 L 477 330 L 477 334 L 476 335 L 476 342 L 475 343 L 475 345 L 476 346 L 478 346 L 485 336 L 487 335 L 488 333 L 490 333 L 491 335 L 484 343 L 483 345 L 483 347 L 484 347 L 512 315 L 515 315 L 519 317 L 526 323 L 542 331 L 544 331 L 547 333 L 550 333 L 551 334 L 553 333 L 551 329 L 551 327 L 552 326 L 551 322 L 538 304 L 532 292 L 533 290 L 535 289 L 535 288 L 537 287 L 537 286 L 539 285 L 539 284 L 541 283 L 541 282 L 555 268 L 561 260 Z M 548 260 L 549 259 L 551 259 L 552 261 L 551 262 L 549 262 Z M 496 243 L 500 246 L 502 251 L 513 266 L 513 271 L 517 271 L 519 272 L 519 271 L 522 269 L 525 269 L 529 267 L 542 266 L 543 265 L 548 265 L 549 267 L 542 274 L 542 275 L 538 278 L 532 286 L 526 291 L 526 296 L 530 299 L 541 321 L 540 322 L 537 322 L 534 320 L 532 320 L 521 314 L 517 313 L 515 311 L 515 309 L 513 310 L 507 309 L 490 327 L 490 328 L 485 333 L 484 333 L 483 332 L 483 325 L 485 320 L 486 308 L 488 305 L 487 299 L 482 299 L 476 296 L 474 296 L 472 294 L 470 294 L 467 292 L 460 290 L 459 289 L 459 287 L 462 285 L 466 285 L 467 284 L 472 283 L 475 281 L 478 281 L 481 279 L 486 279 L 487 281 L 489 281 L 489 279 L 491 277 L 491 272 L 493 267 L 494 253 L 495 252 L 495 244 Z M 498 233 L 500 234 L 504 242 L 506 244 L 506 246 L 505 247 L 503 246 L 497 237 L 497 234 Z M 361 202 L 358 203 L 344 213 L 341 214 L 317 230 L 306 240 L 305 240 L 290 255 L 274 277 L 266 292 L 266 294 L 260 306 L 260 308 L 258 312 L 258 315 L 256 318 L 256 323 L 254 327 L 254 333 L 255 333 L 255 327 L 257 323 L 259 313 L 261 310 L 261 308 L 263 305 L 265 298 L 267 296 L 267 294 L 277 275 L 291 256 L 293 255 L 293 254 L 306 241 L 307 241 L 316 233 L 356 207 L 360 203 L 361 203 Z M 635 174 L 632 174 L 632 179 L 630 183 L 630 189 L 629 190 L 628 200 L 626 202 L 620 202 L 615 204 L 609 204 L 601 207 L 601 209 L 603 211 L 605 211 L 608 213 L 610 213 L 613 215 L 620 217 L 624 220 L 624 225 L 622 229 L 622 232 L 620 236 L 620 241 L 619 242 L 619 248 L 620 249 L 622 249 L 625 246 L 627 242 L 639 230 L 641 230 L 647 235 L 652 237 L 661 243 L 663 243 L 664 242 L 664 239 L 661 233 L 661 231 L 659 229 L 657 222 L 655 220 L 654 215 L 658 211 L 662 209 L 673 200 L 673 196 L 668 196 L 667 197 L 661 197 L 660 198 L 652 198 L 651 199 L 649 199 L 647 197 L 641 183 Z M 635 185 L 638 187 L 638 189 L 642 197 L 642 203 L 644 204 L 657 203 L 658 202 L 660 203 L 660 205 L 654 209 L 649 214 L 649 217 L 656 231 L 656 233 L 655 234 L 653 234 L 644 228 L 640 224 L 636 225 L 636 226 L 628 234 L 627 234 L 626 233 L 626 231 L 627 230 L 627 225 L 630 218 L 627 216 L 625 216 L 623 214 L 621 214 L 619 212 L 617 212 L 615 210 L 615 209 L 618 207 L 626 206 L 627 205 L 629 205 L 631 203 L 631 198 L 633 193 L 633 188 Z M 218 160 L 216 161 L 216 176 L 215 177 L 214 185 L 206 188 L 197 189 L 195 191 L 196 193 L 198 193 L 211 199 L 211 203 L 210 204 L 210 208 L 208 212 L 208 216 L 209 216 L 209 213 L 210 212 L 211 207 L 213 204 L 213 202 L 215 201 L 219 204 L 210 220 L 210 223 L 213 223 L 219 212 L 223 207 L 225 207 L 239 217 L 242 217 L 243 216 L 243 214 L 241 212 L 241 210 L 233 199 L 232 194 L 246 181 L 247 181 L 250 177 L 249 175 L 247 175 L 239 178 L 236 178 L 230 181 L 226 181 L 221 170 L 221 167 Z M 228 200 L 230 201 L 230 204 L 229 205 L 226 203 Z M 209 192 L 210 191 L 212 191 L 213 193 L 212 194 L 210 194 Z M 221 187 L 222 187 L 226 192 L 226 196 L 223 200 L 221 200 L 215 196 L 216 191 Z M 236 183 L 237 185 L 231 190 L 228 188 L 228 186 L 233 183 Z M 446 147 L 445 148 L 438 148 L 437 149 L 430 150 L 426 152 L 415 152 L 414 153 L 407 153 L 406 154 L 399 154 L 394 156 L 390 156 L 386 158 L 382 158 L 379 160 L 376 160 L 375 161 L 370 162 L 367 164 L 365 164 L 362 166 L 355 168 L 353 170 L 351 170 L 349 172 L 339 177 L 329 184 L 325 188 L 319 192 L 300 211 L 300 212 L 288 226 L 284 233 L 281 236 L 273 248 L 272 251 L 268 256 L 266 261 L 258 272 L 256 277 L 250 286 L 250 288 L 248 290 L 246 297 L 244 299 L 244 302 L 242 305 L 242 307 L 240 310 L 240 313 L 238 317 L 238 321 L 236 326 L 235 338 L 234 339 L 234 352 L 233 353 L 233 381 L 234 382 L 234 402 L 235 403 L 236 423 L 238 428 L 238 434 L 240 439 L 240 443 L 241 444 L 242 451 L 244 455 L 244 458 L 245 459 L 246 465 L 248 468 L 250 476 L 262 501 L 264 503 L 266 508 L 270 514 L 274 518 L 276 522 L 282 528 L 282 529 L 298 545 L 299 545 L 308 553 L 320 561 L 325 563 L 327 565 L 335 569 L 337 569 L 339 571 L 341 571 L 344 573 L 346 573 L 359 579 L 362 579 L 364 581 L 366 581 L 369 583 L 371 583 L 384 589 L 387 589 L 390 591 L 393 591 L 396 593 L 400 593 L 404 595 L 408 595 L 412 597 L 417 597 L 418 598 L 422 598 L 423 599 L 431 599 L 432 600 L 438 600 L 439 601 L 466 601 L 467 600 L 475 600 L 476 599 L 482 599 L 483 598 L 492 597 L 496 595 L 500 595 L 504 593 L 507 593 L 510 591 L 513 591 L 516 589 L 519 589 L 522 587 L 524 587 L 527 585 L 534 583 L 554 573 L 556 571 L 561 569 L 582 555 L 598 541 L 599 541 L 620 519 L 641 489 L 649 473 L 647 473 L 646 474 L 646 476 L 644 478 L 642 483 L 625 508 L 623 507 L 625 502 L 637 484 L 641 475 L 646 469 L 645 464 L 647 462 L 647 459 L 646 459 L 637 468 L 626 474 L 618 480 L 616 480 L 610 484 L 608 484 L 595 490 L 592 490 L 591 488 L 592 487 L 595 487 L 597 485 L 599 485 L 615 477 L 636 462 L 636 460 L 634 460 L 622 470 L 614 474 L 612 476 L 600 482 L 598 482 L 596 484 L 594 484 L 591 486 L 589 486 L 586 488 L 584 488 L 574 492 L 571 492 L 570 493 L 560 495 L 559 496 L 555 496 L 554 497 L 550 497 L 549 498 L 540 498 L 539 499 L 513 499 L 512 498 L 506 498 L 505 497 L 498 496 L 497 495 L 486 492 L 478 488 L 476 488 L 474 486 L 472 486 L 470 484 L 468 484 L 463 480 L 460 479 L 445 469 L 432 458 L 431 458 L 415 442 L 415 441 L 409 435 L 407 431 L 395 415 L 393 410 L 387 401 L 387 399 L 381 387 L 381 385 L 379 381 L 379 377 L 377 373 L 376 363 L 375 362 L 375 353 L 374 352 L 374 347 L 373 346 L 373 335 L 372 334 L 372 321 L 371 320 L 371 304 L 372 303 L 373 281 L 374 280 L 375 270 L 376 269 L 376 268 L 374 267 L 374 265 L 375 264 L 375 261 L 376 260 L 377 255 L 381 247 L 381 245 L 385 237 L 387 235 L 387 233 L 404 207 L 415 195 L 415 194 L 428 181 L 429 181 L 438 173 L 459 159 L 459 158 L 457 158 L 454 160 L 452 160 L 451 159 L 451 158 L 455 155 L 454 153 L 439 153 L 438 152 L 439 150 L 449 149 L 449 147 Z M 399 589 L 400 588 L 402 588 L 403 589 L 408 589 L 413 591 L 420 591 L 421 592 L 425 592 L 426 593 L 446 594 L 447 595 L 471 595 L 472 597 L 471 598 L 435 598 L 434 597 L 428 597 L 427 596 L 420 596 L 415 594 L 410 594 L 406 592 L 402 592 L 400 591 Z M 395 588 L 396 587 L 398 587 L 399 589 L 398 590 L 396 590 Z M 484 584 L 485 583 L 488 583 L 489 585 L 488 586 L 485 586 Z M 575 504 L 574 506 L 571 506 L 570 507 L 563 508 L 562 509 L 557 509 L 556 510 L 542 510 L 541 509 L 542 507 L 550 507 L 551 506 L 555 506 L 556 505 L 563 505 L 568 503 L 574 503 Z M 395 434 L 397 433 L 404 441 L 404 442 L 414 452 L 414 453 L 415 453 L 416 455 L 417 455 L 418 457 L 419 457 L 420 459 L 421 459 L 422 461 L 423 461 L 424 463 L 428 466 L 428 467 L 429 467 L 435 473 L 441 477 L 443 480 L 441 481 L 437 478 L 434 477 L 428 472 L 424 470 L 417 463 L 416 463 L 403 448 L 395 436 Z M 240 419 L 242 420 L 242 425 L 244 429 L 246 439 L 247 440 L 250 451 L 252 454 L 252 457 L 254 460 L 254 462 L 256 464 L 256 466 L 266 486 L 270 491 L 271 494 L 276 500 L 280 507 L 292 521 L 294 525 L 296 526 L 299 531 L 308 540 L 308 541 L 309 541 L 310 543 L 311 543 L 319 551 L 334 562 L 333 564 L 330 564 L 321 559 L 319 557 L 316 556 L 312 552 L 308 550 L 304 546 L 298 542 L 297 540 L 296 540 L 283 527 L 267 505 L 255 482 L 255 480 L 249 467 L 249 464 L 247 461 L 247 458 L 245 455 L 245 451 L 243 447 L 243 443 L 241 438 L 241 433 L 239 428 L 239 420 Z M 255 286 L 256 287 L 256 289 L 254 292 L 254 295 L 250 306 L 248 317 L 246 320 L 246 323 L 244 327 L 244 331 L 242 335 L 242 339 L 240 344 L 240 349 L 238 350 L 237 349 L 237 337 L 238 336 L 238 331 L 239 330 L 239 325 L 241 321 L 241 317 L 242 316 L 243 310 L 245 307 L 245 304 L 247 301 L 247 299 L 249 297 L 249 295 L 253 287 Z M 360 283 L 362 284 L 362 290 L 361 291 L 361 297 L 360 298 L 360 330 L 361 331 L 361 337 L 362 338 L 362 345 L 363 346 L 363 350 L 364 351 L 364 356 L 366 360 L 366 364 L 368 368 L 370 378 L 372 381 L 372 385 L 374 388 L 374 391 L 373 392 L 371 391 L 361 371 L 361 368 L 359 365 L 359 362 L 357 359 L 357 355 L 355 350 L 355 344 L 354 343 L 354 337 L 353 336 L 353 317 L 354 316 L 354 309 L 355 308 L 355 302 L 357 297 L 357 292 L 358 291 L 359 284 Z M 401 197 L 402 199 L 400 202 L 396 205 L 395 203 L 397 200 Z M 406 191 L 407 193 L 404 197 L 402 198 L 401 197 L 401 195 L 405 191 Z M 432 161 L 434 161 L 435 162 L 432 166 L 426 170 L 425 172 L 409 182 L 402 189 L 402 190 L 395 198 L 389 207 L 388 210 L 384 215 L 384 217 L 382 219 L 380 223 L 380 225 L 378 227 L 378 229 L 376 232 L 376 235 L 372 243 L 370 251 L 362 267 L 362 270 L 360 273 L 360 275 L 358 279 L 358 282 L 356 286 L 356 290 L 354 294 L 354 299 L 353 300 L 353 304 L 352 305 L 352 315 L 351 316 L 351 339 L 352 340 L 352 347 L 354 352 L 354 357 L 356 361 L 356 364 L 358 367 L 358 370 L 360 373 L 360 375 L 368 391 L 372 396 L 372 398 L 378 406 L 380 410 L 380 412 L 382 414 L 382 416 L 390 432 L 392 434 L 392 436 L 396 441 L 399 447 L 405 455 L 412 462 L 412 463 L 413 463 L 414 465 L 415 465 L 421 471 L 432 479 L 447 487 L 449 487 L 451 489 L 453 489 L 456 491 L 459 491 L 462 493 L 464 493 L 467 495 L 469 495 L 482 501 L 485 501 L 488 503 L 491 503 L 507 509 L 512 509 L 517 511 L 531 512 L 532 513 L 555 513 L 556 512 L 567 511 L 571 509 L 574 509 L 577 507 L 580 507 L 592 501 L 599 499 L 601 497 L 610 493 L 619 487 L 625 484 L 627 485 L 627 487 L 623 492 L 622 495 L 614 507 L 610 511 L 608 515 L 596 528 L 596 529 L 594 530 L 594 531 L 592 532 L 592 533 L 590 534 L 587 538 L 576 546 L 575 548 L 571 550 L 559 559 L 549 564 L 547 566 L 545 566 L 543 568 L 541 568 L 539 570 L 537 570 L 534 572 L 532 572 L 519 578 L 516 578 L 513 580 L 510 580 L 506 582 L 502 582 L 498 584 L 494 584 L 493 582 L 494 581 L 497 581 L 500 579 L 503 579 L 504 578 L 509 577 L 512 575 L 514 575 L 534 565 L 558 549 L 568 540 L 569 540 L 571 538 L 571 536 L 570 536 L 551 552 L 539 560 L 527 566 L 525 568 L 523 568 L 521 570 L 519 570 L 506 576 L 503 576 L 500 578 L 497 578 L 493 580 L 489 580 L 484 582 L 478 582 L 477 583 L 472 583 L 471 584 L 457 584 L 456 585 L 435 585 L 434 584 L 421 584 L 420 583 L 415 583 L 414 582 L 407 582 L 406 581 L 398 580 L 397 579 L 390 578 L 386 576 L 383 576 L 380 574 L 378 574 L 375 572 L 368 570 L 362 566 L 360 566 L 336 550 L 319 536 L 318 536 L 313 531 L 312 531 L 305 524 L 304 524 L 303 522 L 302 522 L 301 520 L 297 517 L 297 516 L 295 515 L 283 497 L 281 492 L 279 490 L 277 485 L 271 476 L 271 474 L 269 472 L 267 468 L 267 466 L 265 464 L 265 462 L 263 459 L 263 457 L 257 444 L 257 441 L 253 430 L 253 425 L 251 421 L 251 415 L 250 414 L 250 410 L 249 409 L 249 402 L 248 401 L 248 394 L 247 393 L 247 354 L 248 353 L 248 345 L 249 344 L 249 335 L 251 330 L 251 323 L 253 319 L 253 315 L 255 311 L 255 308 L 256 307 L 257 302 L 259 299 L 259 297 L 261 294 L 261 292 L 267 280 L 271 275 L 273 270 L 276 267 L 283 256 L 288 251 L 293 244 L 318 219 L 319 219 L 335 205 L 339 203 L 348 196 L 351 195 L 356 191 L 361 189 L 366 185 L 368 185 L 370 183 L 382 177 L 384 177 L 386 175 L 388 175 L 401 169 L 404 169 L 407 167 L 410 167 L 413 165 L 417 165 L 422 163 L 427 163 Z M 409 156 L 408 158 L 405 158 L 403 160 L 400 160 L 397 162 L 395 162 L 393 164 L 386 166 L 351 184 L 346 188 L 341 190 L 326 200 L 310 212 L 301 220 L 300 220 L 300 221 L 298 222 L 295 226 L 293 226 L 292 225 L 295 220 L 297 219 L 303 211 L 319 195 L 343 177 L 358 169 L 360 169 L 362 167 L 370 165 L 373 163 L 376 163 L 379 161 L 382 161 L 386 159 L 390 159 L 394 157 L 399 157 L 404 155 L 408 155 Z" fill="#e89633" fill-rule="evenodd"/>
</svg>
