<svg xmlns="http://www.w3.org/2000/svg" width="878" height="899" viewBox="0 0 878 899" role="img" aria-label="service taxi">
  <rect x="0" y="0" width="878" height="899" rx="96.6" ry="96.6" fill="#4096b2"/>
  <path d="M 740 700 L 739 701 L 739 789 L 741 790 L 788 790 L 790 788 L 790 775 L 788 773 L 760 773 L 759 772 L 759 752 L 760 751 L 782 751 L 783 749 L 783 738 L 781 735 L 760 735 L 759 734 L 759 718 L 760 717 L 787 717 L 789 715 L 789 703 L 787 700 Z M 634 700 L 633 701 L 633 789 L 635 790 L 650 790 L 652 789 L 652 701 L 651 700 Z M 556 700 L 555 701 L 555 704 L 556 705 L 557 712 L 559 716 L 559 720 L 561 724 L 561 727 L 563 731 L 563 735 L 565 739 L 565 743 L 567 747 L 567 751 L 569 755 L 569 758 L 570 759 L 570 762 L 571 763 L 571 766 L 572 767 L 572 770 L 575 778 L 575 782 L 576 783 L 577 788 L 579 790 L 599 790 L 602 784 L 602 780 L 604 776 L 604 772 L 608 761 L 608 757 L 610 753 L 610 749 L 612 745 L 612 741 L 614 737 L 614 733 L 618 722 L 618 718 L 619 717 L 619 714 L 620 713 L 620 710 L 622 705 L 622 701 L 621 700 L 604 700 L 603 701 L 602 706 L 601 707 L 600 715 L 599 716 L 599 721 L 597 726 L 597 731 L 595 736 L 595 741 L 593 746 L 593 751 L 591 756 L 591 760 L 589 761 L 587 758 L 587 755 L 586 754 L 586 749 L 584 744 L 584 739 L 582 734 L 580 720 L 578 715 L 578 710 L 577 709 L 577 706 L 576 705 L 575 700 Z M 493 700 L 491 702 L 491 788 L 494 790 L 509 790 L 511 789 L 511 756 L 514 754 L 516 754 L 518 755 L 521 759 L 521 762 L 523 765 L 523 768 L 525 771 L 525 774 L 527 777 L 527 780 L 529 783 L 530 788 L 532 790 L 551 790 L 552 789 L 552 787 L 550 784 L 550 782 L 548 779 L 548 777 L 542 764 L 540 756 L 538 753 L 538 750 L 545 743 L 549 733 L 549 721 L 548 720 L 548 716 L 546 712 L 540 705 L 537 704 L 535 702 L 532 702 L 527 700 Z M 513 715 L 520 715 L 521 716 L 523 716 L 527 719 L 529 723 L 529 732 L 528 734 L 522 739 L 516 739 L 514 740 L 511 738 L 511 717 Z M 430 700 L 429 701 L 429 789 L 431 789 L 432 790 L 478 790 L 480 788 L 480 775 L 478 773 L 450 773 L 448 770 L 448 754 L 450 751 L 472 751 L 473 749 L 473 739 L 471 735 L 450 735 L 448 732 L 448 719 L 450 717 L 476 717 L 478 716 L 478 701 L 477 700 Z M 301 700 L 299 703 L 299 788 L 302 790 L 317 790 L 319 789 L 319 787 L 320 786 L 320 763 L 319 762 L 319 701 L 318 700 Z M 224 700 L 224 704 L 227 709 L 227 711 L 231 717 L 231 719 L 235 726 L 235 728 L 237 730 L 237 732 L 243 744 L 237 755 L 237 757 L 235 759 L 235 761 L 229 772 L 229 774 L 227 776 L 227 778 L 223 784 L 222 789 L 223 790 L 241 790 L 244 786 L 244 784 L 246 781 L 248 774 L 251 769 L 253 762 L 256 760 L 259 766 L 259 768 L 263 775 L 263 777 L 265 780 L 265 782 L 267 785 L 268 789 L 270 790 L 289 790 L 290 789 L 290 787 L 288 785 L 288 783 L 269 745 L 269 741 L 272 736 L 272 734 L 274 732 L 274 730 L 282 715 L 282 713 L 284 711 L 284 709 L 288 701 L 287 700 L 269 700 L 267 702 L 267 704 L 265 707 L 265 709 L 263 712 L 263 714 L 261 717 L 258 726 L 256 727 L 254 725 L 254 723 L 250 715 L 249 710 L 244 700 Z M 171 700 L 169 702 L 169 705 L 167 709 L 167 713 L 165 717 L 165 721 L 163 725 L 163 729 L 161 733 L 161 737 L 159 741 L 159 745 L 157 749 L 157 753 L 155 757 L 155 761 L 154 762 L 153 769 L 151 773 L 151 777 L 150 778 L 148 789 L 150 790 L 166 790 L 168 788 L 168 784 L 170 779 L 170 774 L 173 770 L 191 770 L 194 774 L 197 789 L 199 790 L 217 790 L 217 784 L 214 776 L 212 765 L 210 761 L 210 757 L 208 753 L 208 749 L 206 745 L 206 741 L 204 737 L 204 734 L 203 733 L 203 730 L 200 722 L 200 718 L 198 714 L 198 710 L 197 709 L 195 701 L 194 700 Z M 181 722 L 184 724 L 184 726 L 185 727 L 185 732 L 186 733 L 187 742 L 188 743 L 188 747 L 189 748 L 189 753 L 186 755 L 179 755 L 175 753 L 176 743 L 178 738 L 178 733 L 179 732 L 180 723 Z M 93 700 L 91 702 L 91 716 L 92 717 L 108 717 L 110 719 L 110 789 L 112 790 L 128 790 L 130 789 L 130 718 L 131 717 L 148 717 L 149 715 L 149 703 L 147 700 Z M 691 699 L 690 700 L 687 700 L 677 706 L 677 707 L 673 711 L 669 719 L 668 725 L 667 726 L 667 730 L 666 731 L 666 737 L 665 738 L 665 753 L 666 754 L 666 760 L 667 761 L 667 766 L 668 767 L 669 772 L 674 781 L 679 786 L 684 789 L 686 789 L 690 791 L 705 791 L 713 788 L 720 782 L 724 775 L 724 773 L 726 769 L 727 760 L 722 758 L 714 758 L 713 757 L 709 757 L 708 758 L 707 766 L 705 771 L 703 772 L 702 774 L 700 774 L 699 775 L 693 774 L 689 769 L 688 763 L 687 762 L 687 757 L 686 756 L 686 734 L 687 733 L 688 723 L 692 717 L 696 715 L 700 715 L 705 719 L 707 724 L 707 730 L 708 731 L 718 731 L 719 730 L 724 730 L 727 728 L 726 726 L 726 720 L 725 719 L 724 714 L 720 708 L 715 703 L 705 699 Z M 381 699 L 380 700 L 376 700 L 372 702 L 363 710 L 363 712 L 361 714 L 361 717 L 360 718 L 360 730 L 363 738 L 370 745 L 378 749 L 380 751 L 382 751 L 384 753 L 389 755 L 395 760 L 397 764 L 397 769 L 393 774 L 391 775 L 385 775 L 384 774 L 382 774 L 379 771 L 376 762 L 369 762 L 368 763 L 359 764 L 358 765 L 358 768 L 359 769 L 359 773 L 363 781 L 370 787 L 380 791 L 396 791 L 406 787 L 413 780 L 416 774 L 416 769 L 417 768 L 417 760 L 416 759 L 416 755 L 412 748 L 404 741 L 386 732 L 380 726 L 380 718 L 383 715 L 385 715 L 386 714 L 392 715 L 396 719 L 398 725 L 407 725 L 408 724 L 415 723 L 415 718 L 412 710 L 404 702 L 402 702 L 399 700 L 396 700 L 395 699 Z M 261 550 L 254 555 L 248 558 L 246 558 L 246 559 L 253 557 L 255 555 L 258 554 Z M 555 514 L 552 514 L 550 517 L 554 516 Z M 154 503 L 151 505 L 149 508 L 149 510 L 152 508 L 154 505 Z M 644 490 L 636 494 L 632 498 L 631 498 L 628 502 L 627 505 L 625 507 L 624 515 L 623 516 L 624 523 L 629 533 L 638 541 L 640 541 L 643 543 L 649 543 L 650 544 L 652 544 L 653 543 L 659 543 L 668 538 L 674 531 L 674 529 L 676 526 L 676 522 L 677 521 L 676 508 L 674 504 L 662 493 L 655 490 Z M 645 493 L 656 493 L 657 495 L 656 496 L 647 496 L 644 498 L 640 499 L 636 502 L 633 506 L 632 510 L 634 509 L 635 506 L 639 502 L 645 499 L 657 499 L 664 503 L 667 506 L 671 513 L 671 516 L 672 517 L 672 524 L 671 525 L 671 528 L 669 531 L 664 536 L 656 540 L 645 540 L 638 537 L 632 531 L 627 521 L 627 512 L 628 511 L 628 508 L 632 502 L 637 497 Z M 247 490 L 237 489 L 233 491 L 230 491 L 221 497 L 213 505 L 209 514 L 209 527 L 212 533 L 217 538 L 223 541 L 229 542 L 230 543 L 240 543 L 241 542 L 244 542 L 250 539 L 252 539 L 258 535 L 263 529 L 266 522 L 266 512 L 264 509 L 264 507 L 261 502 L 252 493 L 249 492 Z M 212 517 L 214 518 L 215 525 L 217 527 L 218 530 L 225 536 L 224 538 L 221 538 L 217 535 L 212 529 L 212 527 L 210 523 L 210 519 Z M 234 494 L 243 494 L 250 497 L 257 504 L 260 512 L 260 520 L 259 521 L 259 524 L 257 526 L 256 529 L 252 533 L 244 537 L 234 537 L 226 534 L 222 531 L 218 525 L 218 522 L 217 521 L 217 511 L 220 503 L 225 498 Z M 584 475 L 583 475 L 581 479 L 581 481 L 579 484 L 579 488 L 578 489 L 577 497 L 578 497 L 578 494 L 580 490 L 580 486 L 582 483 L 582 480 L 584 477 Z M 644 458 L 643 459 L 635 460 L 624 465 L 617 470 L 608 479 L 602 488 L 601 491 L 599 493 L 599 495 L 595 502 L 595 505 L 593 509 L 593 516 L 592 517 L 592 527 L 593 528 L 593 533 L 594 534 L 595 539 L 599 547 L 605 556 L 612 563 L 624 571 L 626 571 L 629 573 L 632 573 L 633 574 L 640 575 L 641 576 L 657 576 L 658 575 L 663 575 L 666 573 L 669 573 L 672 571 L 674 571 L 683 565 L 696 552 L 702 543 L 702 541 L 704 539 L 704 537 L 706 534 L 706 531 L 708 527 L 708 522 L 709 521 L 709 507 L 708 506 L 708 502 L 707 501 L 706 496 L 702 488 L 698 482 L 697 482 L 696 480 L 685 470 L 676 464 L 674 464 L 666 460 L 662 460 L 661 459 L 657 459 L 656 458 Z M 599 500 L 601 501 L 601 504 L 599 508 L 599 528 L 601 532 L 601 535 L 606 545 L 618 558 L 617 560 L 613 558 L 604 548 L 598 537 L 598 534 L 596 531 L 595 516 L 596 515 L 596 507 L 598 504 L 598 501 Z M 634 475 L 637 475 L 638 476 L 646 475 L 650 477 L 650 475 L 651 474 L 667 474 L 677 479 L 681 483 L 682 483 L 690 492 L 688 495 L 691 499 L 691 501 L 693 504 L 693 507 L 695 511 L 695 528 L 693 532 L 693 535 L 686 547 L 675 558 L 667 562 L 665 564 L 663 564 L 659 566 L 655 566 L 654 565 L 654 563 L 638 563 L 637 562 L 631 561 L 625 558 L 619 554 L 610 545 L 604 533 L 604 530 L 606 529 L 609 535 L 612 537 L 608 531 L 608 529 L 606 526 L 605 515 L 606 514 L 606 510 L 608 507 L 608 505 L 610 501 L 618 490 L 620 489 L 620 488 L 619 488 L 619 489 L 613 494 L 609 501 L 606 503 L 605 501 L 608 494 L 619 482 L 628 477 L 631 477 Z M 616 476 L 621 471 L 630 465 L 632 465 L 635 463 L 637 463 L 641 461 L 648 461 L 649 460 L 661 461 L 662 462 L 667 463 L 670 465 L 672 465 L 674 467 L 676 467 L 682 471 L 686 475 L 687 475 L 698 487 L 703 496 L 703 498 L 705 502 L 705 506 L 706 507 L 706 522 L 705 523 L 705 528 L 703 531 L 703 534 L 700 539 L 698 538 L 698 536 L 700 533 L 701 525 L 702 524 L 702 507 L 701 506 L 700 499 L 692 485 L 681 474 L 678 472 L 676 472 L 674 470 L 672 470 L 669 468 L 666 468 L 663 466 L 646 464 L 645 465 L 636 466 L 633 468 L 631 468 L 629 470 L 629 472 L 628 473 L 624 474 L 618 478 L 617 478 Z M 232 458 L 228 460 L 225 460 L 222 462 L 220 462 L 207 468 L 197 475 L 189 484 L 183 496 L 183 498 L 181 502 L 180 511 L 179 512 L 179 524 L 180 525 L 181 534 L 186 545 L 191 552 L 198 559 L 213 568 L 215 568 L 222 571 L 234 572 L 235 573 L 256 571 L 257 570 L 265 568 L 274 563 L 283 555 L 288 548 L 294 532 L 294 525 L 295 524 L 294 507 L 292 503 L 292 499 L 290 496 L 290 494 L 286 486 L 286 484 L 278 473 L 272 468 L 259 461 L 253 460 L 249 458 Z M 245 566 L 246 565 L 250 565 L 251 567 L 250 568 L 246 568 Z M 291 523 L 292 524 L 291 534 L 289 537 L 287 544 L 285 546 L 284 549 L 276 558 L 267 564 L 265 564 L 264 562 L 278 549 L 286 536 L 286 534 L 288 531 L 289 524 Z M 183 510 L 185 511 L 185 525 L 187 529 L 187 534 L 189 536 L 189 539 L 188 540 L 186 539 L 186 537 L 184 534 L 183 527 L 182 526 L 182 511 Z M 230 469 L 236 469 L 237 470 L 246 471 L 250 473 L 253 473 L 261 477 L 263 477 L 269 481 L 279 491 L 283 499 L 283 504 L 284 505 L 284 513 L 283 514 L 281 514 L 281 515 L 283 516 L 283 524 L 282 525 L 282 528 L 281 529 L 279 537 L 277 539 L 277 541 L 273 547 L 265 555 L 259 558 L 257 560 L 255 560 L 252 562 L 246 563 L 245 564 L 240 564 L 239 563 L 239 562 L 240 561 L 242 561 L 242 560 L 237 560 L 236 561 L 225 561 L 224 560 L 218 560 L 215 558 L 213 558 L 211 556 L 208 555 L 203 550 L 203 548 L 200 544 L 200 542 L 198 539 L 198 537 L 196 533 L 195 516 L 196 515 L 196 508 L 198 504 L 198 501 L 200 498 L 200 496 L 206 483 L 205 483 L 203 488 L 201 490 L 201 492 L 197 500 L 197 503 L 195 508 L 195 515 L 194 516 L 195 533 L 194 534 L 192 533 L 192 530 L 190 526 L 190 508 L 191 507 L 191 504 L 192 503 L 192 500 L 194 497 L 194 495 L 200 484 L 205 479 L 208 481 L 215 474 L 219 472 L 221 472 L 225 470 L 229 470 Z M 232 464 L 233 463 L 247 463 L 248 464 L 251 464 L 257 467 L 259 467 L 261 469 L 266 471 L 271 476 L 271 477 L 269 478 L 264 474 L 260 472 L 258 472 L 255 470 L 253 470 L 249 468 L 246 468 L 245 467 L 242 467 L 241 466 L 233 466 Z M 337 459 L 337 462 L 336 463 L 336 472 L 337 473 L 337 475 L 343 483 L 350 486 L 360 486 L 361 485 L 364 485 L 367 483 L 369 483 L 372 481 L 384 481 L 387 483 L 390 483 L 395 485 L 401 485 L 409 482 L 415 476 L 417 471 L 417 462 L 416 461 L 416 458 L 414 456 L 413 453 L 402 443 L 402 442 L 398 438 L 396 433 L 391 427 L 381 422 L 371 422 L 363 426 L 359 430 L 351 443 L 340 454 L 339 457 Z M 341 460 L 349 451 L 360 443 L 358 440 L 363 435 L 363 432 L 366 429 L 371 426 L 378 425 L 379 426 L 384 427 L 387 429 L 392 434 L 398 445 L 410 456 L 413 463 L 413 470 L 409 477 L 404 480 L 400 480 L 399 479 L 400 475 L 399 475 L 397 480 L 395 480 L 394 479 L 394 477 L 391 479 L 390 478 L 390 475 L 389 475 L 389 477 L 387 478 L 386 477 L 386 474 L 382 477 L 381 476 L 382 473 L 381 473 L 381 474 L 377 477 L 376 476 L 376 474 L 378 473 L 378 471 L 377 471 L 377 473 L 373 476 L 372 475 L 374 470 L 373 470 L 370 476 L 368 478 L 365 476 L 362 480 L 359 479 L 357 482 L 354 482 L 353 481 L 354 478 L 353 478 L 351 481 L 349 481 L 348 480 L 348 478 L 345 478 L 344 477 L 344 474 L 342 474 L 341 473 L 342 470 L 340 469 L 340 466 L 343 463 Z M 327 407 L 322 409 L 319 412 L 319 414 L 317 418 L 317 425 L 318 426 L 318 429 L 321 436 L 325 440 L 325 441 L 332 445 L 338 445 L 342 443 L 346 436 L 346 425 L 345 424 L 344 419 L 342 416 L 335 409 Z M 325 411 L 331 411 L 333 412 L 341 421 L 341 423 L 343 426 L 343 434 L 340 439 L 338 438 L 338 436 L 337 436 L 337 439 L 336 440 L 333 438 L 331 438 L 330 437 L 330 431 L 329 431 L 329 435 L 328 436 L 326 435 L 326 430 L 324 430 L 323 429 L 324 424 L 322 423 L 322 420 L 323 419 L 326 420 L 326 419 L 324 418 L 324 416 L 323 415 L 323 413 Z M 427 404 L 421 404 L 415 407 L 407 419 L 407 423 L 406 424 L 407 436 L 409 439 L 412 441 L 421 441 L 423 440 L 430 434 L 433 429 L 434 422 L 435 421 L 434 411 L 432 408 Z M 426 408 L 429 410 L 431 415 L 431 421 L 430 422 L 429 427 L 423 435 L 420 436 L 419 435 L 419 433 L 418 433 L 414 436 L 411 434 L 412 431 L 410 430 L 410 428 L 412 425 L 410 424 L 410 422 L 414 419 L 414 416 L 417 413 L 420 412 L 422 408 Z M 497 386 L 497 387 L 525 387 L 527 389 L 527 390 L 524 392 L 519 392 L 518 393 L 510 393 L 509 392 L 503 392 L 502 391 L 497 390 L 497 392 L 501 394 L 505 394 L 506 395 L 524 395 L 525 394 L 530 393 L 528 390 L 529 387 L 524 384 L 510 383 L 509 384 L 502 384 Z M 353 377 L 352 378 L 350 378 L 345 383 L 343 387 L 343 390 L 342 391 L 342 400 L 343 401 L 343 405 L 347 413 L 353 419 L 360 420 L 361 419 L 363 419 L 368 415 L 371 408 L 372 399 L 371 398 L 370 391 L 365 382 L 360 378 Z M 353 381 L 358 381 L 360 382 L 363 385 L 367 392 L 367 395 L 368 396 L 368 407 L 365 413 L 362 415 L 360 414 L 360 412 L 359 412 L 359 414 L 357 415 L 356 414 L 356 411 L 353 413 L 352 412 L 352 409 L 350 408 L 350 405 L 348 404 L 348 400 L 346 399 L 347 397 L 350 398 L 350 397 L 348 396 L 348 394 L 346 393 L 346 390 Z M 398 376 L 392 376 L 389 378 L 383 384 L 379 394 L 379 408 L 381 411 L 381 413 L 388 419 L 394 419 L 401 415 L 405 410 L 406 406 L 408 403 L 408 398 L 409 397 L 408 387 L 406 384 L 406 382 L 402 378 Z M 398 380 L 400 381 L 403 385 L 403 387 L 405 391 L 405 399 L 404 400 L 403 405 L 398 412 L 395 414 L 393 414 L 392 413 L 393 410 L 392 410 L 391 412 L 388 414 L 387 413 L 388 409 L 386 410 L 384 409 L 386 405 L 384 406 L 382 405 L 384 401 L 383 397 L 385 394 L 389 391 L 389 388 L 392 385 L 391 382 L 392 381 L 396 381 Z M 325 352 L 325 353 L 360 353 L 361 354 L 400 355 L 401 356 L 430 356 L 431 355 L 438 355 L 440 354 L 440 353 L 426 353 L 425 354 L 402 354 L 401 353 L 375 353 L 374 352 Z M 133 323 L 131 324 L 127 330 L 125 335 L 126 335 L 132 326 Z M 477 309 L 477 442 L 478 443 L 478 448 L 479 448 L 479 409 L 478 408 L 478 309 Z M 135 308 L 133 309 L 129 316 L 131 315 Z M 478 290 L 478 305 L 479 305 L 479 290 Z M 170 271 L 169 271 L 167 275 L 167 278 L 165 282 L 165 287 L 166 287 L 166 282 L 168 278 L 168 275 L 170 273 Z M 303 265 L 303 282 L 302 283 L 302 315 L 303 316 L 303 341 L 304 341 L 305 339 L 305 313 L 304 312 L 304 265 Z M 283 261 L 283 295 L 282 296 L 282 305 L 281 306 L 281 342 L 283 346 L 283 349 L 284 349 L 284 261 Z M 479 260 L 479 281 L 480 281 L 480 260 Z M 496 259 L 491 267 L 491 294 L 492 295 L 492 304 L 493 305 L 493 318 L 494 319 L 495 335 L 497 340 L 497 344 L 501 352 L 506 357 L 516 362 L 525 363 L 526 364 L 530 364 L 531 365 L 538 365 L 539 366 L 544 366 L 545 367 L 553 367 L 554 368 L 559 368 L 560 369 L 568 369 L 569 370 L 577 370 L 578 371 L 595 371 L 596 372 L 605 372 L 613 379 L 619 379 L 626 376 L 633 376 L 634 377 L 634 395 L 635 396 L 635 434 L 633 436 L 630 436 L 629 437 L 624 438 L 617 442 L 615 442 L 603 450 L 603 451 L 601 452 L 599 455 L 600 455 L 603 451 L 605 451 L 610 447 L 622 441 L 624 441 L 627 439 L 629 439 L 633 437 L 640 436 L 641 435 L 652 435 L 653 434 L 658 434 L 659 435 L 669 435 L 670 436 L 673 436 L 674 437 L 677 437 L 680 439 L 682 439 L 695 447 L 692 443 L 686 440 L 684 438 L 682 438 L 679 436 L 677 436 L 673 434 L 667 434 L 666 433 L 644 433 L 643 434 L 638 434 L 637 433 L 637 426 L 638 425 L 638 401 L 637 400 L 637 385 L 636 384 L 636 378 L 638 376 L 649 376 L 650 375 L 652 375 L 655 372 L 655 366 L 654 365 L 654 363 L 649 354 L 634 337 L 633 335 L 633 331 L 631 326 L 625 320 L 623 320 L 619 318 L 618 316 L 617 316 L 616 314 L 615 314 L 614 312 L 604 302 L 598 294 L 596 293 L 596 292 L 589 285 L 589 284 L 577 272 L 562 262 L 560 262 L 556 260 L 548 259 L 547 258 L 539 258 L 538 257 L 532 257 L 531 256 L 500 256 Z M 635 346 L 638 348 L 638 349 L 643 354 L 651 365 L 652 369 L 649 372 L 637 372 L 636 371 L 632 372 L 631 371 L 632 365 L 634 362 L 634 347 Z M 596 330 L 597 331 L 597 334 L 595 337 L 595 339 L 593 341 L 590 347 L 590 349 L 606 362 L 607 367 L 606 368 L 596 368 L 595 367 L 590 367 L 585 365 L 573 364 L 572 362 L 580 352 L 590 336 L 594 332 L 594 331 Z M 621 324 L 624 326 L 628 333 L 629 340 L 630 341 L 631 353 L 630 354 L 629 361 L 628 362 L 625 362 L 624 360 L 623 360 L 623 361 L 625 362 L 625 366 L 623 367 L 622 366 L 622 364 L 621 364 L 621 367 L 619 371 L 617 372 L 616 371 L 616 368 L 618 364 L 617 364 L 615 368 L 613 367 L 614 360 L 612 359 L 612 356 L 614 353 L 614 351 L 612 350 L 612 346 L 613 345 L 612 343 L 612 340 L 613 339 L 612 337 L 612 332 L 615 326 L 617 324 Z M 496 264 L 499 261 L 503 259 L 518 259 L 519 260 L 523 260 L 524 261 L 531 261 L 536 263 L 543 263 L 548 265 L 552 265 L 553 266 L 558 267 L 561 269 L 563 269 L 574 276 L 596 298 L 596 299 L 607 310 L 607 311 L 614 319 L 614 321 L 611 323 L 609 327 L 609 331 L 608 332 L 608 340 L 607 341 L 607 358 L 605 359 L 592 348 L 594 343 L 596 341 L 596 339 L 598 336 L 598 334 L 600 330 L 598 326 L 596 326 L 589 333 L 569 363 L 567 363 L 566 362 L 559 362 L 554 360 L 549 360 L 548 359 L 539 358 L 534 356 L 530 356 L 526 354 L 522 354 L 518 352 L 514 352 L 514 353 L 516 353 L 519 355 L 522 355 L 526 357 L 529 357 L 532 359 L 536 359 L 537 361 L 536 362 L 531 362 L 526 360 L 521 360 L 510 356 L 502 348 L 500 343 L 499 334 L 498 333 L 498 324 L 500 323 L 501 324 L 501 329 L 503 334 L 504 342 L 506 347 L 508 348 L 508 345 L 506 340 L 506 336 L 505 335 L 504 328 L 502 324 L 502 319 L 500 314 L 500 309 L 498 304 L 498 297 L 497 296 L 497 291 L 496 290 L 496 275 L 495 274 L 495 267 L 496 266 Z M 464 260 L 463 259 L 463 257 L 459 254 L 451 251 L 446 251 L 445 250 L 354 250 L 353 251 L 253 252 L 252 253 L 193 253 L 192 254 L 189 254 L 187 252 L 180 252 L 177 254 L 175 254 L 167 260 L 163 266 L 163 268 L 161 271 L 161 273 L 159 277 L 159 281 L 158 282 L 158 286 L 157 287 L 156 301 L 155 302 L 155 311 L 154 312 L 153 323 L 152 324 L 150 334 L 149 335 L 149 346 L 152 353 L 155 356 L 160 358 L 171 359 L 172 360 L 177 360 L 178 361 L 338 361 L 339 362 L 391 362 L 392 363 L 447 363 L 450 361 L 454 360 L 458 357 L 462 350 L 462 348 L 464 344 L 464 336 L 465 335 Z M 160 282 L 162 278 L 162 274 L 167 264 L 174 257 L 180 254 L 187 254 L 188 255 L 241 255 L 242 256 L 241 258 L 217 258 L 216 259 L 201 259 L 201 260 L 258 258 L 259 257 L 262 257 L 265 255 L 284 255 L 285 254 L 376 254 L 377 255 L 376 257 L 369 257 L 368 258 L 339 258 L 338 259 L 336 258 L 319 258 L 319 259 L 322 259 L 323 260 L 364 260 L 365 259 L 380 259 L 381 258 L 388 258 L 389 257 L 399 257 L 400 256 L 407 256 L 408 255 L 431 255 L 432 256 L 437 256 L 438 257 L 447 257 L 450 255 L 455 258 L 457 258 L 460 261 L 462 266 L 462 270 L 463 271 L 463 295 L 462 296 L 462 310 L 461 311 L 459 310 L 459 308 L 458 307 L 458 287 L 457 287 L 458 340 L 457 341 L 457 344 L 454 348 L 456 351 L 448 358 L 442 359 L 441 360 L 433 360 L 432 361 L 400 361 L 399 360 L 384 360 L 383 359 L 345 359 L 344 358 L 293 358 L 292 357 L 292 316 L 291 316 L 291 326 L 290 327 L 290 357 L 289 358 L 220 358 L 219 357 L 220 355 L 231 355 L 232 354 L 242 354 L 243 353 L 258 353 L 258 352 L 236 352 L 235 353 L 227 353 L 226 354 L 212 354 L 211 355 L 203 355 L 202 356 L 181 356 L 180 355 L 170 354 L 170 356 L 169 357 L 165 357 L 164 356 L 159 355 L 156 352 L 153 346 L 153 335 L 154 334 L 154 329 L 156 324 L 156 313 L 157 312 L 157 306 L 158 305 L 158 295 L 159 294 L 159 289 L 160 288 Z M 121 252 L 121 256 L 124 256 L 125 257 L 125 259 L 123 264 L 123 269 L 121 273 L 121 277 L 120 278 L 119 286 L 118 287 L 118 291 L 117 292 L 117 299 L 116 300 L 116 306 L 115 307 L 115 318 L 114 319 L 114 327 L 113 328 L 113 342 L 112 343 L 112 356 L 111 357 L 111 375 L 110 376 L 110 390 L 109 391 L 109 456 L 107 458 L 105 458 L 102 461 L 102 463 L 100 467 L 100 472 L 99 473 L 99 483 L 100 484 L 100 489 L 101 490 L 101 496 L 103 500 L 101 503 L 101 505 L 103 507 L 104 511 L 108 514 L 108 517 L 110 517 L 114 519 L 123 519 L 124 520 L 161 521 L 162 522 L 166 522 L 167 524 L 168 524 L 172 521 L 172 519 L 170 517 L 170 515 L 171 514 L 172 503 L 174 499 L 174 495 L 176 492 L 178 485 L 188 467 L 195 459 L 207 450 L 210 449 L 212 447 L 214 447 L 222 443 L 225 443 L 230 441 L 247 441 L 248 442 L 251 442 L 252 443 L 255 443 L 256 444 L 261 445 L 274 453 L 287 466 L 293 475 L 299 487 L 299 490 L 301 493 L 301 496 L 303 501 L 303 506 L 305 511 L 305 517 L 306 518 L 306 521 L 305 522 L 301 522 L 301 523 L 302 524 L 305 524 L 307 527 L 312 527 L 313 526 L 315 526 L 316 527 L 508 527 L 509 528 L 578 527 L 579 529 L 580 529 L 580 527 L 582 525 L 584 525 L 581 520 L 582 519 L 582 515 L 586 505 L 586 502 L 588 499 L 588 496 L 589 495 L 590 490 L 596 477 L 598 475 L 601 469 L 613 457 L 620 452 L 631 447 L 633 447 L 636 445 L 639 445 L 644 443 L 661 443 L 662 444 L 670 445 L 671 446 L 676 447 L 689 455 L 698 464 L 705 474 L 713 490 L 713 493 L 715 497 L 715 502 L 717 507 L 717 516 L 718 517 L 718 522 L 716 525 L 718 526 L 719 529 L 722 529 L 724 527 L 733 527 L 734 526 L 750 525 L 751 524 L 754 524 L 759 522 L 764 523 L 770 519 L 774 513 L 774 511 L 776 508 L 776 505 L 778 501 L 778 497 L 780 493 L 781 483 L 782 482 L 782 473 L 780 468 L 776 465 L 774 462 L 774 451 L 773 450 L 772 441 L 770 437 L 770 432 L 769 431 L 768 424 L 766 421 L 766 418 L 762 413 L 763 411 L 764 411 L 765 413 L 766 413 L 766 412 L 764 411 L 760 405 L 759 405 L 753 399 L 745 394 L 742 391 L 739 390 L 724 380 L 719 378 L 714 374 L 709 372 L 701 366 L 686 358 L 684 356 L 676 352 L 672 352 L 658 333 L 650 325 L 650 324 L 642 316 L 642 315 L 634 307 L 634 306 L 633 306 L 632 304 L 622 294 L 622 293 L 582 252 L 581 252 L 575 246 L 572 244 L 570 244 L 568 242 L 568 240 L 563 241 L 557 238 L 555 238 L 551 236 L 547 236 L 543 234 L 537 234 L 536 233 L 531 233 L 530 232 L 510 231 L 509 230 L 426 230 L 425 229 L 393 229 L 392 228 L 287 228 L 286 229 L 226 229 L 225 230 L 193 230 L 192 229 L 163 229 L 162 230 L 152 230 L 151 229 L 149 229 L 146 232 L 142 232 L 135 235 L 130 240 Z M 482 510 L 482 511 L 478 515 L 471 520 L 465 520 L 464 519 L 464 518 L 466 517 L 473 509 L 481 509 Z M 709 468 L 710 467 L 767 468 L 768 469 L 773 468 L 775 470 L 776 478 L 775 479 L 775 482 L 773 485 L 773 492 L 772 493 L 771 501 L 767 511 L 763 515 L 761 514 L 761 512 L 767 502 L 767 501 L 766 501 L 759 511 L 758 515 L 755 518 L 752 516 L 756 508 L 758 506 L 758 504 L 760 503 L 760 502 L 759 502 L 759 503 L 757 504 L 754 508 L 749 517 L 747 519 L 745 519 L 744 518 L 744 516 L 746 514 L 748 509 L 753 503 L 753 502 L 752 502 L 741 516 L 741 519 L 740 520 L 737 520 L 736 518 L 740 510 L 744 505 L 744 504 L 743 504 L 737 512 L 735 516 L 735 519 L 732 521 L 729 521 L 728 520 L 728 518 L 734 510 L 738 502 L 737 502 L 727 517 L 725 518 L 724 517 L 724 513 L 726 509 L 724 509 L 723 508 L 723 505 L 724 504 L 724 502 L 726 501 L 726 500 L 725 500 L 724 502 L 722 501 L 722 497 L 724 493 L 722 494 L 720 493 L 720 488 L 719 488 L 717 485 L 718 481 L 716 481 L 714 479 L 715 474 L 712 474 Z M 106 464 L 109 462 L 112 462 L 113 463 L 115 462 L 181 462 L 182 463 L 182 465 L 177 471 L 175 475 L 175 477 L 173 479 L 173 481 L 171 484 L 171 487 L 169 490 L 169 494 L 167 498 L 167 505 L 166 506 L 166 509 L 167 510 L 166 515 L 165 516 L 157 516 L 156 515 L 156 514 L 158 513 L 158 510 L 164 499 L 162 500 L 159 506 L 157 508 L 154 516 L 150 516 L 149 515 L 145 515 L 144 514 L 146 511 L 146 506 L 152 497 L 150 498 L 145 505 L 144 508 L 142 510 L 142 513 L 141 514 L 137 514 L 136 513 L 136 511 L 142 503 L 146 495 L 143 497 L 135 509 L 135 512 L 133 514 L 129 514 L 128 512 L 130 511 L 133 507 L 132 504 L 138 495 L 139 492 L 137 493 L 129 505 L 128 510 L 125 513 L 121 513 L 120 512 L 120 510 L 122 508 L 122 506 L 128 498 L 131 492 L 130 492 L 125 498 L 119 507 L 118 510 L 116 512 L 114 512 L 113 511 L 113 509 L 115 507 L 115 504 L 126 487 L 123 489 L 118 497 L 115 500 L 114 503 L 111 505 L 110 504 L 109 499 L 116 490 L 122 480 L 119 482 L 110 496 L 108 496 L 106 493 L 106 491 L 110 485 L 107 487 L 106 486 L 106 483 L 108 480 L 108 478 L 110 477 L 110 476 L 106 479 L 104 478 L 106 474 L 106 472 L 105 471 L 105 466 Z M 120 443 L 121 444 L 121 446 L 119 449 L 119 451 L 117 452 L 116 451 L 116 444 L 117 443 Z M 725 406 L 726 405 L 732 405 L 736 407 L 739 407 L 757 416 L 761 422 L 761 425 L 763 428 L 763 430 L 765 434 L 766 444 L 765 445 L 760 444 L 756 440 L 753 440 L 750 438 L 742 430 L 741 430 L 740 428 L 736 425 L 727 413 L 725 409 Z M 123 370 L 127 374 L 129 379 L 129 392 L 128 393 L 128 433 L 126 436 L 118 437 L 116 435 L 116 427 L 118 423 L 118 420 L 117 420 L 116 418 L 120 407 L 117 409 L 116 408 L 116 403 L 122 389 L 121 389 L 118 395 L 116 394 L 116 389 L 117 388 L 117 383 L 118 382 L 117 380 L 118 375 L 121 370 Z M 119 308 L 121 309 L 121 312 L 120 313 L 118 312 L 118 309 Z M 126 270 L 127 271 L 127 276 L 125 281 L 125 289 L 123 293 L 123 301 L 121 302 L 120 301 L 120 292 L 121 291 L 121 287 L 122 286 L 122 279 L 124 275 L 124 271 Z M 471 234 L 472 233 L 500 233 L 501 234 L 521 235 L 526 237 L 532 237 L 533 239 L 532 240 L 522 240 L 521 239 L 500 238 L 499 237 L 491 237 L 490 236 L 472 236 Z M 130 256 L 135 244 L 139 240 L 152 236 L 153 235 L 161 235 L 162 234 L 167 234 L 168 233 L 198 233 L 200 235 L 199 237 L 193 237 L 192 238 L 179 238 L 179 239 L 193 239 L 194 238 L 201 238 L 202 237 L 256 237 L 257 238 L 279 238 L 280 239 L 334 239 L 335 238 L 344 238 L 345 237 L 362 237 L 363 236 L 414 235 L 415 236 L 427 236 L 428 237 L 453 237 L 454 238 L 470 238 L 471 239 L 496 239 L 497 240 L 522 241 L 523 242 L 533 242 L 534 243 L 555 243 L 558 245 L 565 247 L 567 249 L 569 249 L 572 251 L 597 276 L 597 277 L 615 296 L 615 297 L 623 305 L 623 306 L 663 348 L 663 349 L 667 352 L 669 356 L 672 359 L 676 360 L 678 362 L 685 365 L 687 367 L 689 367 L 691 369 L 700 373 L 702 375 L 704 375 L 706 377 L 708 377 L 710 379 L 715 381 L 730 391 L 737 397 L 744 401 L 747 404 L 746 406 L 744 406 L 741 404 L 739 404 L 735 402 L 732 402 L 731 401 L 724 402 L 721 405 L 721 414 L 727 424 L 737 434 L 742 436 L 743 437 L 743 439 L 745 441 L 747 441 L 759 447 L 766 447 L 767 448 L 767 460 L 765 462 L 744 463 L 743 464 L 711 464 L 710 465 L 706 465 L 694 453 L 688 449 L 677 444 L 671 443 L 670 442 L 666 442 L 665 441 L 661 441 L 660 440 L 642 440 L 641 441 L 632 442 L 629 444 L 626 444 L 623 446 L 621 446 L 605 456 L 599 462 L 590 474 L 587 480 L 587 482 L 583 489 L 583 492 L 581 495 L 581 499 L 580 500 L 579 505 L 577 508 L 577 520 L 576 521 L 573 521 L 571 519 L 569 520 L 550 520 L 549 519 L 547 520 L 538 520 L 537 519 L 535 519 L 534 520 L 526 520 L 524 518 L 520 520 L 516 520 L 515 519 L 515 516 L 514 516 L 510 520 L 503 520 L 502 519 L 502 517 L 504 514 L 496 520 L 491 520 L 490 519 L 493 514 L 492 514 L 486 520 L 478 520 L 477 518 L 483 512 L 484 512 L 485 513 L 485 515 L 486 515 L 486 510 L 487 509 L 495 509 L 496 510 L 498 509 L 570 509 L 570 507 L 487 507 L 485 504 L 485 497 L 484 496 L 484 485 L 483 484 L 483 477 L 482 476 L 482 463 L 480 463 L 480 471 L 481 472 L 481 489 L 482 490 L 482 498 L 483 499 L 483 506 L 482 507 L 470 507 L 469 508 L 434 508 L 434 509 L 446 509 L 447 510 L 449 509 L 470 509 L 471 511 L 465 515 L 460 520 L 453 521 L 451 519 L 452 516 L 451 516 L 447 520 L 445 521 L 441 521 L 439 519 L 441 516 L 441 515 L 440 515 L 433 521 L 429 521 L 428 520 L 429 516 L 422 521 L 418 521 L 417 520 L 418 516 L 417 516 L 412 521 L 406 521 L 405 520 L 406 517 L 403 518 L 400 522 L 394 522 L 393 520 L 396 516 L 396 515 L 395 515 L 390 521 L 388 522 L 384 522 L 383 521 L 383 519 L 387 515 L 387 514 L 386 514 L 379 521 L 375 521 L 374 520 L 374 518 L 377 515 L 377 514 L 376 514 L 369 521 L 367 522 L 363 521 L 362 519 L 364 516 L 372 509 L 372 508 L 371 508 L 369 511 L 367 512 L 366 514 L 363 515 L 363 516 L 361 517 L 361 518 L 357 522 L 352 522 L 350 519 L 346 521 L 344 521 L 343 520 L 344 516 L 343 516 L 343 517 L 339 521 L 331 521 L 330 519 L 329 519 L 328 521 L 324 521 L 323 520 L 323 518 L 326 513 L 325 513 L 320 518 L 320 520 L 318 522 L 316 522 L 313 520 L 313 515 L 312 514 L 313 510 L 310 504 L 310 501 L 308 497 L 308 494 L 307 493 L 306 488 L 298 471 L 291 461 L 280 450 L 271 444 L 263 440 L 261 440 L 257 438 L 244 437 L 243 436 L 231 436 L 230 437 L 221 438 L 220 439 L 214 440 L 211 442 L 209 442 L 207 444 L 205 444 L 196 450 L 192 454 L 191 454 L 190 456 L 168 456 L 167 457 L 127 457 L 125 455 L 122 457 L 120 457 L 119 456 L 119 452 L 123 443 L 125 441 L 130 439 L 132 437 L 132 434 L 133 433 L 133 429 L 132 428 L 132 425 L 133 424 L 133 395 L 132 394 L 132 379 L 129 372 L 123 368 L 121 368 L 120 370 L 118 369 L 118 363 L 122 355 L 122 353 L 124 351 L 126 346 L 130 341 L 131 338 L 136 332 L 136 331 L 135 331 L 133 333 L 123 348 L 123 350 L 121 351 L 120 350 L 120 346 L 122 343 L 122 341 L 124 339 L 124 337 L 122 337 L 121 336 L 121 332 L 124 325 L 128 319 L 128 318 L 127 318 L 124 323 L 122 322 L 122 318 L 125 312 L 125 310 L 124 309 L 124 302 L 128 296 L 128 295 L 126 295 L 125 293 L 126 292 L 126 289 L 130 284 L 130 283 L 128 283 L 127 282 L 128 280 L 128 275 L 130 273 L 130 272 L 128 271 L 128 268 L 138 253 L 137 253 L 132 259 L 130 258 Z M 353 234 L 352 236 L 330 237 L 329 238 L 292 238 L 291 237 L 256 236 L 255 235 L 256 233 L 312 233 L 313 232 L 352 233 Z M 82 60 L 63 79 L 49 100 L 45 108 L 45 110 L 43 113 L 41 120 L 39 123 L 39 126 L 38 127 L 36 137 L 35 138 L 35 143 L 34 144 L 34 148 L 33 149 L 33 158 L 32 159 L 32 219 L 31 220 L 31 226 L 32 227 L 32 236 L 31 237 L 31 384 L 32 385 L 32 388 L 31 389 L 31 614 L 32 615 L 32 618 L 31 619 L 31 647 L 32 648 L 31 694 L 32 695 L 32 723 L 33 724 L 33 734 L 35 739 L 35 744 L 36 745 L 36 748 L 37 749 L 37 752 L 39 756 L 39 759 L 40 760 L 41 765 L 43 768 L 45 775 L 53 790 L 65 806 L 78 819 L 79 819 L 88 827 L 100 835 L 116 843 L 118 843 L 128 847 L 131 847 L 135 849 L 140 849 L 145 851 L 153 851 L 154 852 L 165 852 L 166 853 L 719 853 L 720 852 L 737 851 L 742 849 L 746 849 L 750 847 L 754 847 L 757 845 L 760 845 L 763 843 L 765 843 L 772 839 L 774 839 L 776 837 L 778 837 L 783 833 L 786 832 L 800 822 L 809 813 L 810 813 L 810 812 L 818 804 L 827 792 L 832 782 L 834 780 L 834 778 L 836 776 L 836 774 L 842 761 L 842 758 L 844 754 L 844 750 L 846 746 L 846 741 L 847 740 L 847 735 L 848 734 L 848 723 L 849 722 L 849 159 L 848 158 L 848 149 L 847 148 L 847 144 L 846 143 L 846 138 L 845 137 L 844 130 L 842 126 L 842 123 L 840 120 L 840 117 L 828 93 L 818 79 L 810 71 L 810 70 L 809 70 L 806 66 L 805 66 L 794 56 L 785 50 L 770 42 L 768 42 L 760 38 L 758 38 L 754 36 L 751 36 L 747 34 L 743 34 L 739 32 L 726 31 L 725 30 L 156 30 L 155 31 L 149 31 L 148 32 L 143 32 L 138 34 L 134 34 L 130 36 L 127 36 L 126 37 L 121 38 L 113 42 L 111 42 L 96 50 Z M 83 75 L 84 75 L 95 65 L 107 57 L 123 49 L 125 49 L 128 47 L 130 47 L 137 44 L 140 44 L 141 43 L 145 43 L 150 41 L 156 41 L 157 40 L 164 40 L 165 39 L 184 39 L 185 38 L 698 38 L 699 39 L 718 39 L 719 40 L 732 41 L 737 43 L 741 43 L 742 44 L 753 47 L 756 49 L 758 49 L 774 57 L 786 65 L 795 73 L 796 73 L 797 75 L 798 75 L 805 82 L 821 104 L 831 125 L 831 128 L 833 131 L 833 134 L 834 135 L 836 145 L 837 146 L 837 151 L 838 152 L 838 157 L 839 158 L 839 170 L 840 171 L 840 713 L 839 714 L 839 726 L 838 727 L 838 731 L 837 732 L 837 738 L 835 742 L 835 746 L 833 750 L 833 753 L 831 756 L 831 758 L 829 761 L 827 768 L 825 770 L 825 772 L 823 774 L 821 779 L 813 791 L 793 812 L 777 824 L 772 826 L 770 828 L 768 828 L 766 830 L 764 830 L 762 832 L 760 832 L 752 836 L 750 836 L 746 838 L 743 838 L 739 840 L 730 841 L 729 842 L 721 842 L 720 843 L 712 843 L 711 844 L 172 844 L 171 843 L 161 843 L 160 842 L 152 842 L 147 840 L 143 840 L 142 839 L 135 838 L 134 837 L 129 836 L 126 834 L 124 834 L 121 832 L 119 832 L 117 830 L 115 830 L 113 828 L 111 828 L 109 826 L 101 822 L 93 816 L 74 798 L 74 797 L 68 791 L 60 779 L 50 758 L 50 755 L 48 752 L 48 749 L 47 748 L 45 738 L 44 737 L 44 731 L 43 730 L 43 725 L 42 724 L 42 708 L 41 707 L 41 666 L 40 665 L 40 204 L 41 203 L 41 173 L 42 172 L 42 159 L 43 158 L 44 146 L 46 142 L 46 138 L 48 134 L 48 131 L 50 128 L 50 125 L 52 122 L 52 120 L 62 101 L 76 82 L 78 81 L 78 80 L 82 77 Z" fill="#e99629" fill-rule="evenodd"/>
</svg>
