<svg xmlns="http://www.w3.org/2000/svg" width="820" height="820" viewBox="0 0 820 820" role="img" aria-label="service grooming">
  <rect x="0" y="0" width="820" height="820" rx="90.2" ry="90.2" fill="#4b9cb8"/>
  <path d="M 560 646 L 557 650 L 557 714 L 558 715 L 558 717 L 562 719 L 569 719 L 570 718 L 572 718 L 574 715 L 574 679 L 576 678 L 588 693 L 590 697 L 594 701 L 602 713 L 607 718 L 609 719 L 616 719 L 617 718 L 619 718 L 621 716 L 621 712 L 622 711 L 622 651 L 621 650 L 621 648 L 619 646 L 607 646 L 605 648 L 605 651 L 604 652 L 604 672 L 605 673 L 605 683 L 604 685 L 602 686 L 587 666 L 585 662 L 579 655 L 577 651 L 572 646 Z M 529 646 L 527 649 L 527 715 L 529 718 L 531 718 L 532 719 L 539 719 L 543 717 L 544 715 L 544 649 L 543 647 L 541 646 Z M 435 647 L 434 649 L 434 715 L 435 717 L 439 719 L 446 719 L 450 717 L 451 715 L 451 678 L 452 677 L 454 678 L 466 696 L 470 699 L 478 699 L 483 694 L 492 680 L 495 678 L 496 679 L 496 712 L 497 713 L 497 716 L 499 718 L 501 718 L 502 719 L 508 719 L 509 718 L 511 718 L 513 716 L 513 712 L 514 711 L 514 654 L 513 653 L 513 648 L 511 646 L 499 646 L 494 651 L 475 678 L 473 678 L 471 676 L 459 658 L 449 646 L 437 646 Z M 205 646 L 202 650 L 202 714 L 205 718 L 207 718 L 208 719 L 215 719 L 219 716 L 219 699 L 220 698 L 235 698 L 238 701 L 238 703 L 240 706 L 242 713 L 246 719 L 254 719 L 258 717 L 261 714 L 261 711 L 253 695 L 252 690 L 258 682 L 259 675 L 260 674 L 260 668 L 259 667 L 259 663 L 254 654 L 246 648 L 244 648 L 241 646 L 231 646 L 230 645 L 228 646 Z M 219 664 L 221 662 L 236 662 L 238 663 L 242 667 L 242 669 L 243 670 L 241 677 L 236 681 L 221 681 L 219 679 Z M 661 645 L 655 648 L 653 648 L 651 650 L 648 651 L 643 656 L 642 656 L 636 665 L 636 667 L 634 670 L 634 673 L 633 674 L 633 689 L 634 690 L 634 694 L 636 697 L 636 699 L 640 705 L 651 715 L 655 717 L 657 717 L 660 719 L 666 719 L 667 720 L 682 719 L 683 718 L 688 717 L 690 715 L 692 715 L 698 708 L 698 679 L 697 677 L 692 675 L 671 675 L 667 677 L 666 679 L 666 685 L 668 688 L 670 689 L 680 689 L 681 690 L 681 700 L 679 702 L 677 702 L 676 703 L 666 703 L 659 700 L 653 694 L 651 690 L 651 688 L 650 687 L 650 677 L 651 676 L 651 673 L 653 670 L 660 663 L 662 663 L 665 661 L 675 661 L 678 663 L 680 663 L 686 667 L 691 665 L 695 659 L 695 654 L 691 650 L 683 646 L 680 646 L 675 644 L 666 644 L 665 645 Z M 384 644 L 383 645 L 375 646 L 367 650 L 358 658 L 352 669 L 351 677 L 350 678 L 350 687 L 351 688 L 352 696 L 354 698 L 354 700 L 358 706 L 365 713 L 377 719 L 391 720 L 392 719 L 397 719 L 400 717 L 402 717 L 406 715 L 415 707 L 419 701 L 419 699 L 422 693 L 422 690 L 423 689 L 423 675 L 421 671 L 421 668 L 416 659 L 409 652 L 403 648 L 401 648 L 398 646 L 395 646 L 390 644 Z M 383 661 L 391 661 L 397 664 L 402 669 L 406 677 L 406 687 L 403 694 L 396 701 L 391 703 L 383 703 L 382 702 L 379 702 L 376 700 L 369 692 L 368 686 L 367 685 L 367 679 L 370 671 L 375 665 Z M 303 644 L 302 645 L 293 646 L 285 650 L 278 656 L 273 663 L 272 667 L 270 670 L 268 684 L 269 685 L 270 695 L 274 703 L 283 713 L 295 719 L 309 720 L 310 719 L 315 719 L 324 715 L 327 713 L 336 703 L 339 697 L 339 694 L 341 690 L 341 674 L 339 670 L 339 667 L 337 665 L 337 663 L 333 657 L 329 653 L 317 646 Z M 301 661 L 309 661 L 312 663 L 314 663 L 321 670 L 324 677 L 324 688 L 322 691 L 322 693 L 316 700 L 309 703 L 301 703 L 294 700 L 289 695 L 287 691 L 286 684 L 285 683 L 286 676 L 288 671 L 292 666 L 296 663 Z M 149 646 L 138 652 L 132 658 L 128 664 L 128 666 L 126 669 L 125 676 L 124 677 L 124 687 L 125 688 L 125 691 L 126 692 L 126 695 L 128 698 L 128 700 L 132 706 L 138 712 L 144 715 L 146 717 L 148 717 L 152 719 L 159 719 L 160 720 L 173 719 L 174 718 L 179 717 L 186 713 L 189 709 L 189 705 L 190 704 L 190 682 L 189 681 L 189 678 L 187 676 L 184 676 L 183 675 L 162 675 L 158 677 L 158 687 L 161 689 L 171 689 L 172 690 L 172 700 L 170 702 L 168 702 L 167 703 L 158 703 L 157 702 L 154 702 L 148 698 L 143 691 L 143 689 L 141 685 L 141 679 L 142 678 L 143 672 L 145 669 L 152 663 L 157 661 L 167 661 L 175 665 L 177 667 L 179 667 L 185 662 L 187 658 L 187 654 L 179 648 L 177 648 L 174 646 L 168 645 L 167 644 L 158 644 L 157 645 Z M 445 506 L 443 506 L 442 507 L 437 506 L 432 512 L 432 522 L 431 523 L 432 531 L 437 537 L 439 537 L 440 538 L 444 537 L 447 535 L 451 529 L 452 523 L 453 522 L 452 513 L 450 509 Z M 447 514 L 449 517 L 449 522 L 448 523 L 448 527 L 446 530 L 444 531 L 442 527 L 442 523 L 443 522 L 443 518 L 445 515 Z M 441 514 L 442 516 L 440 519 L 440 532 L 438 533 L 437 532 L 436 525 L 437 524 L 437 519 L 439 515 Z M 483 505 L 480 507 L 478 511 L 481 509 Z M 285 500 L 284 500 L 284 501 L 274 511 L 265 516 L 263 516 L 263 517 L 266 517 L 269 515 L 271 515 L 277 511 L 283 505 Z M 376 471 L 380 478 L 380 480 L 382 483 L 382 488 L 383 488 L 383 483 L 381 480 L 381 477 L 379 475 L 378 472 Z M 348 458 L 347 459 L 340 460 L 334 463 L 327 470 L 322 479 L 322 482 L 320 485 L 319 499 L 320 500 L 320 506 L 321 507 L 322 512 L 324 514 L 324 516 L 328 522 L 332 526 L 342 531 L 345 531 L 346 532 L 354 532 L 355 531 L 358 531 L 365 527 L 372 519 L 375 513 L 375 510 L 377 507 L 378 491 L 377 490 L 377 484 L 376 483 L 375 478 L 369 468 L 368 468 L 364 463 L 358 460 Z M 345 464 L 354 464 L 359 466 L 363 469 L 370 478 L 370 480 L 372 484 L 372 489 L 373 490 L 373 502 L 372 503 L 372 507 L 371 508 L 370 513 L 368 515 L 367 518 L 361 524 L 355 528 L 352 528 L 351 529 L 342 528 L 336 525 L 328 516 L 325 510 L 324 504 L 323 503 L 323 490 L 324 489 L 325 482 L 328 476 L 336 467 L 340 465 L 344 465 Z M 272 437 L 263 436 L 262 437 L 255 438 L 245 444 L 238 451 L 230 464 L 230 466 L 228 470 L 228 474 L 227 475 L 227 488 L 228 489 L 228 492 L 233 501 L 237 505 L 246 510 L 256 511 L 257 510 L 263 509 L 269 506 L 281 495 L 285 487 L 285 485 L 287 481 L 287 476 L 288 475 L 288 466 L 287 465 L 287 460 L 285 457 L 285 455 L 283 452 L 281 451 L 282 449 L 285 450 L 283 445 L 278 440 Z M 271 441 L 274 443 L 278 444 L 282 448 L 281 450 L 279 450 L 284 460 L 284 475 L 283 476 L 282 483 L 278 491 L 273 496 L 273 497 L 264 504 L 257 507 L 249 507 L 248 506 L 246 506 L 242 504 L 234 496 L 231 490 L 231 484 L 230 483 L 230 481 L 231 480 L 231 473 L 232 472 L 233 467 L 239 456 L 248 447 L 260 441 Z M 492 401 L 491 416 L 490 417 L 490 420 L 491 421 L 491 436 L 490 437 L 490 467 L 489 468 L 490 473 L 489 474 L 488 479 L 481 489 L 481 490 L 482 490 L 485 488 L 486 490 L 484 492 L 482 497 L 478 503 L 472 510 L 471 513 L 475 510 L 481 500 L 485 496 L 485 493 L 487 490 L 487 489 L 485 488 L 485 485 L 491 477 L 491 465 L 493 462 L 493 460 L 491 459 L 491 453 L 492 452 L 492 448 L 493 447 L 493 443 L 492 442 L 493 414 L 495 411 L 495 409 L 498 405 L 498 404 L 496 404 L 495 402 Z M 475 392 L 474 392 L 474 395 L 472 399 L 472 402 L 470 405 L 470 408 L 468 410 L 468 413 L 466 416 L 466 418 L 464 421 L 462 428 L 460 430 L 460 432 L 458 435 L 458 437 L 456 441 L 457 441 L 459 437 L 459 435 L 461 433 L 461 431 L 463 428 L 465 421 L 467 419 L 467 417 L 469 414 L 469 411 L 471 408 L 471 405 L 473 402 L 473 398 L 475 395 Z M 501 371 L 498 373 L 496 377 L 499 375 Z M 328 317 L 322 322 L 322 330 L 326 334 L 332 335 L 333 334 L 335 334 L 338 331 L 339 329 L 339 323 L 335 318 Z M 335 322 L 336 323 L 336 327 L 333 331 L 330 332 L 329 331 L 329 328 L 331 327 L 333 323 Z M 331 320 L 332 321 L 332 323 L 329 328 L 326 328 L 325 327 L 326 323 L 329 320 Z M 514 314 L 504 320 L 504 321 L 513 316 Z M 464 300 L 464 302 L 465 303 L 468 303 L 472 305 L 483 306 L 482 304 L 479 304 L 476 302 L 473 302 L 468 300 Z M 481 293 L 481 295 L 483 295 L 487 297 L 499 298 L 498 296 L 496 296 L 492 294 Z M 441 287 L 442 289 L 455 289 L 456 288 L 456 287 L 452 287 L 451 286 L 443 286 Z M 493 284 L 493 285 L 495 285 L 499 287 L 510 287 L 510 286 L 504 285 L 503 284 Z M 458 281 L 458 283 L 475 284 L 475 282 L 471 282 L 470 281 Z M 499 272 L 499 273 L 502 273 L 503 274 L 513 274 L 515 273 L 515 272 Z M 473 271 L 474 273 L 484 274 L 483 272 L 480 272 L 476 270 L 474 270 Z M 438 268 L 439 270 L 443 270 L 444 271 L 454 271 L 454 269 L 452 268 L 441 268 L 440 267 Z M 508 258 L 508 259 L 513 261 L 522 261 L 522 260 L 519 258 Z M 456 258 L 456 260 L 458 261 L 471 262 L 470 260 L 467 260 L 462 258 Z M 484 255 L 484 257 L 486 258 L 491 258 L 491 256 Z M 439 246 L 439 247 L 441 247 L 442 248 L 453 248 L 453 247 L 451 247 L 450 246 Z M 516 242 L 516 244 L 518 245 L 521 245 L 524 247 L 530 248 L 530 246 L 527 244 L 524 244 L 521 242 Z M 488 238 L 489 240 L 495 243 L 497 243 L 495 240 Z M 464 238 L 464 239 L 466 239 L 467 240 L 476 241 L 476 240 L 473 240 L 469 238 Z M 337 233 L 336 233 L 336 240 L 334 245 L 334 251 L 335 251 L 335 244 L 337 239 Z M 519 222 L 519 224 L 522 227 L 523 227 L 531 234 L 533 234 L 533 233 L 528 228 Z M 493 218 L 496 222 L 504 226 L 504 224 L 499 220 L 497 220 L 495 218 Z M 470 218 L 472 221 L 474 221 L 476 223 L 483 225 L 483 223 L 473 218 Z M 522 206 L 522 207 L 533 218 L 537 219 L 537 218 L 525 206 Z M 500 202 L 500 203 L 506 208 L 510 209 L 508 206 L 502 202 Z M 458 198 L 460 201 L 465 203 L 471 207 L 473 207 L 473 206 L 469 203 L 462 200 L 460 198 Z M 482 195 L 482 197 L 492 203 L 494 203 L 492 200 Z M 528 187 L 528 190 L 532 196 L 536 200 L 536 201 L 540 205 L 541 205 L 541 202 L 531 190 L 531 189 Z M 508 186 L 510 190 L 515 195 L 516 195 L 513 189 L 510 186 Z M 470 182 L 470 183 L 474 187 L 477 189 L 479 189 L 479 188 L 475 184 L 472 182 Z M 491 174 L 493 179 L 496 183 L 497 183 L 497 181 L 492 174 Z M 534 164 L 534 168 L 538 176 L 540 178 L 544 186 L 546 187 L 545 182 L 543 178 L 541 176 L 535 164 Z M 474 164 L 474 166 L 476 169 L 484 177 L 485 177 L 479 168 L 475 164 Z M 511 160 L 512 165 L 520 177 L 522 177 L 519 169 L 514 162 Z M 495 152 L 496 155 L 502 164 L 504 166 L 507 167 L 500 156 L 496 152 Z M 541 148 L 542 154 L 544 157 L 544 160 L 546 163 L 546 165 L 548 166 L 547 158 L 545 155 L 545 153 L 543 149 Z M 480 148 L 480 150 L 482 153 L 486 157 L 486 158 L 491 163 L 492 163 L 491 160 L 483 151 L 483 150 Z M 511 137 L 516 147 L 519 150 L 521 154 L 524 156 L 524 154 L 515 140 Z M 365 112 L 360 118 L 358 122 L 358 124 L 356 126 L 356 128 L 354 131 L 354 134 L 350 142 L 350 145 L 348 148 L 348 151 L 346 154 L 344 164 L 342 167 L 342 170 L 338 181 L 338 185 L 336 188 L 336 192 L 334 196 L 334 200 L 332 204 L 332 208 L 330 212 L 330 216 L 328 220 L 328 225 L 326 229 L 326 234 L 324 238 L 324 243 L 322 248 L 322 254 L 321 255 L 320 265 L 318 270 L 318 277 L 316 282 L 316 288 L 315 289 L 315 293 L 314 294 L 314 300 L 312 305 L 312 311 L 311 312 L 311 316 L 310 317 L 310 323 L 309 324 L 309 328 L 308 329 L 308 335 L 306 340 L 306 344 L 304 348 L 304 352 L 302 356 L 302 359 L 301 360 L 300 366 L 298 369 L 298 372 L 296 375 L 296 377 L 284 401 L 280 407 L 271 416 L 265 420 L 263 420 L 260 422 L 258 422 L 255 424 L 253 424 L 250 426 L 248 426 L 244 428 L 234 435 L 227 442 L 220 452 L 214 465 L 214 468 L 212 473 L 212 489 L 213 490 L 214 496 L 216 499 L 216 501 L 222 510 L 229 517 L 239 523 L 241 523 L 244 525 L 255 526 L 256 527 L 269 525 L 279 520 L 289 511 L 293 505 L 297 496 L 299 494 L 304 494 L 306 497 L 306 509 L 308 514 L 308 518 L 315 531 L 323 539 L 329 543 L 342 548 L 344 552 L 344 556 L 346 559 L 347 565 L 352 575 L 355 579 L 368 591 L 373 593 L 378 593 L 383 589 L 385 583 L 384 582 L 384 580 L 379 575 L 375 573 L 367 564 L 367 562 L 365 558 L 365 548 L 367 544 L 382 529 L 385 525 L 387 520 L 389 518 L 389 516 L 391 513 L 392 505 L 393 504 L 393 486 L 392 485 L 392 482 L 391 481 L 391 478 L 389 475 L 389 473 L 381 460 L 371 450 L 359 444 L 355 439 L 355 435 L 353 430 L 353 424 L 352 423 L 352 419 L 351 418 L 350 405 L 349 404 L 349 389 L 348 388 L 348 356 L 349 355 L 349 339 L 351 337 L 351 327 L 352 326 L 352 321 L 353 320 L 353 312 L 354 311 L 354 307 L 355 306 L 355 299 L 356 298 L 356 293 L 357 292 L 357 285 L 358 284 L 358 279 L 359 278 L 359 271 L 360 270 L 360 266 L 361 265 L 361 258 L 362 257 L 362 253 L 363 252 L 363 244 L 364 243 L 364 239 L 365 238 L 365 230 L 366 229 L 366 224 L 367 223 L 367 215 L 368 214 L 368 209 L 369 208 L 369 200 L 370 199 L 370 192 L 371 191 L 371 181 L 372 180 L 372 172 L 373 171 L 373 153 L 374 152 L 374 133 L 373 132 L 373 123 L 370 115 L 367 112 Z M 302 483 L 304 483 L 306 485 L 306 487 L 303 491 L 300 489 L 300 487 Z M 323 376 L 328 388 L 328 392 L 329 393 L 330 402 L 331 403 L 331 408 L 332 409 L 332 440 L 330 445 L 326 451 L 320 457 L 314 465 L 310 473 L 309 478 L 307 480 L 304 480 L 303 479 L 303 456 L 302 455 L 301 444 L 297 433 L 297 418 L 298 417 L 300 409 L 303 404 L 303 402 L 305 400 L 307 395 L 317 381 L 322 376 Z M 311 360 L 312 361 L 312 364 L 310 365 L 310 369 L 311 369 L 311 366 L 313 365 L 314 366 L 314 369 L 316 372 L 316 375 L 314 376 L 313 375 L 313 372 L 312 372 L 312 377 L 310 378 L 307 374 L 307 371 L 306 371 L 305 375 L 309 381 L 309 384 L 302 394 L 296 406 L 296 408 L 294 411 L 293 418 L 292 419 L 292 434 L 294 438 L 294 442 L 295 443 L 297 453 L 298 454 L 298 478 L 297 479 L 296 486 L 295 487 L 294 492 L 292 495 L 292 497 L 284 509 L 282 510 L 279 514 L 269 520 L 261 521 L 260 522 L 254 522 L 253 521 L 248 521 L 247 520 L 244 520 L 241 518 L 239 518 L 233 514 L 223 503 L 223 501 L 221 497 L 220 487 L 218 487 L 217 486 L 217 483 L 216 482 L 217 471 L 219 468 L 219 465 L 221 463 L 221 461 L 229 448 L 241 436 L 247 432 L 261 425 L 268 423 L 277 417 L 281 413 L 289 401 L 298 383 L 298 381 L 301 376 L 301 374 L 303 373 L 305 360 L 307 359 L 308 360 L 308 362 Z M 356 256 L 358 257 L 358 262 L 357 263 L 355 262 L 355 257 Z M 369 130 L 371 135 L 370 171 L 369 172 L 368 190 L 367 191 L 367 197 L 366 198 L 366 208 L 365 209 L 365 213 L 364 214 L 364 221 L 363 222 L 363 227 L 362 228 L 362 236 L 361 237 L 361 241 L 360 242 L 360 250 L 359 251 L 359 254 L 357 255 L 356 254 L 356 251 L 357 250 L 357 238 L 358 237 L 358 231 L 359 230 L 359 218 L 360 217 L 361 196 L 362 195 L 362 188 L 363 187 L 363 174 L 364 173 L 364 166 L 365 165 L 365 153 L 366 152 L 366 144 L 367 143 L 367 131 Z M 364 121 L 365 121 L 366 123 L 365 124 L 364 140 L 363 141 L 363 148 L 362 149 L 362 158 L 361 159 L 361 165 L 360 166 L 360 178 L 359 179 L 359 185 L 358 186 L 358 197 L 357 198 L 357 205 L 356 206 L 356 219 L 355 220 L 355 227 L 354 228 L 354 239 L 353 240 L 353 247 L 352 248 L 352 258 L 351 259 L 351 266 L 350 267 L 350 277 L 349 278 L 349 285 L 348 286 L 348 298 L 347 299 L 347 303 L 346 304 L 342 304 L 335 298 L 333 294 L 332 294 L 332 297 L 334 301 L 338 305 L 346 309 L 348 311 L 348 318 L 347 319 L 347 325 L 346 326 L 345 349 L 344 350 L 344 397 L 345 398 L 345 405 L 346 406 L 346 415 L 347 416 L 347 420 L 348 421 L 348 426 L 349 427 L 350 434 L 352 438 L 352 442 L 355 447 L 365 451 L 379 464 L 386 477 L 386 480 L 388 484 L 389 496 L 388 497 L 388 505 L 386 509 L 386 512 L 382 520 L 377 527 L 364 540 L 361 548 L 361 560 L 362 561 L 362 564 L 366 571 L 372 577 L 376 579 L 380 583 L 380 585 L 377 588 L 374 588 L 368 585 L 364 582 L 357 574 L 351 564 L 345 544 L 330 538 L 318 527 L 313 518 L 313 515 L 311 511 L 311 505 L 310 504 L 310 490 L 311 489 L 311 483 L 312 482 L 313 477 L 315 474 L 315 472 L 321 462 L 329 453 L 331 445 L 332 444 L 336 444 L 336 439 L 337 438 L 337 412 L 336 411 L 336 404 L 335 403 L 335 397 L 333 392 L 333 388 L 332 387 L 331 382 L 329 379 L 329 377 L 324 367 L 315 356 L 311 348 L 311 336 L 313 331 L 313 325 L 314 324 L 315 315 L 316 314 L 316 310 L 317 309 L 317 303 L 318 302 L 318 298 L 319 297 L 319 291 L 320 290 L 320 286 L 321 285 L 321 279 L 323 274 L 323 268 L 325 263 L 325 257 L 326 256 L 327 246 L 329 241 L 329 236 L 331 232 L 331 228 L 333 223 L 333 219 L 334 218 L 337 203 L 339 199 L 339 195 L 341 191 L 341 187 L 343 183 L 343 180 L 345 176 L 347 166 L 349 163 L 349 160 L 351 156 L 351 153 L 353 150 L 353 147 L 355 144 L 355 141 L 357 138 L 357 135 L 359 132 L 361 125 Z M 540 108 L 516 108 L 512 110 L 507 110 L 505 106 L 504 106 L 504 111 L 503 112 L 490 118 L 485 112 L 482 107 L 480 107 L 482 112 L 484 114 L 487 120 L 475 129 L 473 129 L 464 120 L 462 120 L 462 122 L 466 126 L 466 127 L 467 127 L 471 131 L 471 133 L 463 141 L 459 140 L 453 134 L 449 132 L 449 134 L 460 144 L 458 148 L 454 152 L 452 152 L 445 146 L 441 144 L 441 145 L 451 155 L 451 157 L 445 165 L 434 159 L 434 161 L 438 165 L 443 168 L 437 179 L 434 179 L 430 176 L 428 176 L 423 172 L 419 172 L 421 175 L 429 179 L 434 183 L 434 187 L 432 190 L 432 192 L 430 194 L 426 194 L 420 190 L 417 190 L 419 193 L 428 198 L 428 202 L 427 203 L 426 208 L 424 211 L 424 213 L 422 214 L 413 208 L 407 205 L 405 205 L 406 207 L 415 213 L 417 213 L 422 217 L 422 221 L 421 222 L 421 224 L 419 226 L 409 222 L 406 222 L 406 223 L 409 225 L 411 225 L 414 227 L 418 228 L 419 229 L 419 234 L 418 235 L 418 242 L 416 245 L 406 244 L 406 245 L 410 247 L 414 247 L 416 249 L 416 261 L 415 262 L 410 262 L 409 261 L 400 260 L 400 261 L 403 263 L 408 263 L 409 264 L 415 265 L 416 266 L 416 275 L 415 276 L 402 276 L 402 277 L 403 278 L 416 279 L 417 280 L 418 287 L 417 288 L 410 288 L 409 289 L 409 290 L 411 291 L 418 291 L 419 292 L 421 300 L 419 302 L 416 302 L 416 303 L 417 304 L 420 304 L 424 307 L 426 314 L 435 329 L 445 339 L 452 344 L 460 348 L 466 354 L 468 357 L 468 359 L 470 363 L 470 376 L 468 381 L 468 385 L 467 386 L 466 391 L 464 394 L 464 396 L 462 399 L 462 401 L 460 404 L 460 406 L 458 408 L 458 410 L 448 430 L 448 432 L 444 439 L 444 441 L 440 448 L 440 450 L 438 452 L 438 454 L 432 467 L 430 475 L 428 478 L 428 481 L 426 484 L 426 486 L 424 490 L 424 493 L 422 496 L 422 500 L 420 504 L 420 508 L 418 513 L 417 525 L 416 526 L 416 539 L 417 540 L 418 548 L 421 555 L 428 563 L 434 567 L 437 567 L 441 569 L 449 569 L 450 568 L 453 568 L 464 563 L 473 555 L 483 539 L 483 537 L 487 530 L 487 528 L 493 512 L 493 508 L 495 504 L 495 500 L 497 495 L 497 490 L 498 489 L 498 485 L 499 484 L 499 477 L 500 476 L 500 472 L 501 471 L 501 462 L 502 461 L 502 455 L 503 454 L 503 445 L 504 444 L 504 437 L 505 436 L 505 427 L 506 426 L 506 420 L 507 419 L 507 412 L 508 411 L 508 407 L 509 406 L 509 399 L 511 394 L 512 385 L 517 374 L 517 372 L 524 362 L 538 349 L 549 341 L 565 325 L 565 324 L 573 315 L 579 306 L 580 303 L 582 301 L 583 298 L 585 296 L 585 294 L 587 292 L 593 280 L 593 278 L 599 265 L 599 262 L 601 259 L 601 256 L 603 253 L 603 249 L 604 248 L 605 241 L 607 237 L 607 231 L 609 226 L 609 219 L 610 218 L 610 211 L 611 210 L 611 187 L 610 186 L 610 181 L 609 180 L 609 175 L 608 174 L 607 167 L 600 150 L 593 140 L 585 132 L 584 132 L 575 124 L 567 120 L 559 114 L 552 113 L 551 112 L 549 112 L 547 110 L 544 110 Z M 484 516 L 485 518 L 484 519 L 484 522 L 482 525 L 482 527 L 479 530 L 476 530 L 475 528 L 481 520 L 481 518 Z M 507 357 L 509 358 L 509 360 L 510 361 L 509 363 L 505 363 L 504 362 L 505 359 Z M 517 354 L 518 355 L 518 357 L 516 360 L 514 361 L 513 359 L 515 355 Z M 531 338 L 535 344 L 527 351 L 526 351 L 525 350 L 525 347 L 527 345 L 529 341 L 529 339 Z M 425 291 L 427 291 L 428 292 L 428 294 L 430 297 L 430 299 L 429 300 L 427 300 L 425 297 L 425 294 L 424 293 Z M 424 233 L 427 231 L 429 232 L 430 234 L 429 235 L 425 235 Z M 579 132 L 590 143 L 594 149 L 596 154 L 598 156 L 598 157 L 596 158 L 593 154 L 590 152 L 596 161 L 600 165 L 602 169 L 602 173 L 600 174 L 600 175 L 604 181 L 604 183 L 602 184 L 602 186 L 604 188 L 604 190 L 605 191 L 605 194 L 604 195 L 602 195 L 603 198 L 605 200 L 605 205 L 603 208 L 604 210 L 604 217 L 603 218 L 603 223 L 602 224 L 602 230 L 600 235 L 600 239 L 598 243 L 598 247 L 596 250 L 594 260 L 592 263 L 592 265 L 590 268 L 588 275 L 584 282 L 584 284 L 580 292 L 578 294 L 578 296 L 569 308 L 567 307 L 567 300 L 566 300 L 566 308 L 567 309 L 567 312 L 563 317 L 561 316 L 561 301 L 560 301 L 560 316 L 562 317 L 561 320 L 543 338 L 542 338 L 538 342 L 536 342 L 535 341 L 535 338 L 538 334 L 540 334 L 540 326 L 539 326 L 539 329 L 537 333 L 533 336 L 530 336 L 530 338 L 528 339 L 527 341 L 524 340 L 524 342 L 522 344 L 522 346 L 521 347 L 519 346 L 519 343 L 518 343 L 518 348 L 514 353 L 512 352 L 512 350 L 514 347 L 514 346 L 513 346 L 509 350 L 510 352 L 510 355 L 509 356 L 506 354 L 506 355 L 502 359 L 498 360 L 496 362 L 496 364 L 498 364 L 499 363 L 501 363 L 502 364 L 502 369 L 506 366 L 508 367 L 508 369 L 501 378 L 500 381 L 498 383 L 496 388 L 493 392 L 494 396 L 495 396 L 497 389 L 499 388 L 500 389 L 500 391 L 498 394 L 498 396 L 499 396 L 499 394 L 503 388 L 503 386 L 502 386 L 501 388 L 500 388 L 499 386 L 503 379 L 506 377 L 507 379 L 504 383 L 504 384 L 506 385 L 506 390 L 505 391 L 505 394 L 503 397 L 504 402 L 503 403 L 503 407 L 502 408 L 502 416 L 501 417 L 501 423 L 500 424 L 500 433 L 499 434 L 499 440 L 498 441 L 498 450 L 495 456 L 496 458 L 496 466 L 495 467 L 495 471 L 494 472 L 494 480 L 493 481 L 493 486 L 492 487 L 492 491 L 490 496 L 490 500 L 488 504 L 488 508 L 475 520 L 474 520 L 473 518 L 470 520 L 465 527 L 465 529 L 467 529 L 471 525 L 473 525 L 474 527 L 472 528 L 472 529 L 461 540 L 462 543 L 455 550 L 451 552 L 442 552 L 442 553 L 451 553 L 459 549 L 477 532 L 478 532 L 479 534 L 472 546 L 470 548 L 466 548 L 463 550 L 461 553 L 464 552 L 465 554 L 460 558 L 458 558 L 456 560 L 453 560 L 452 561 L 451 561 L 450 560 L 450 558 L 449 558 L 450 560 L 449 562 L 440 563 L 433 560 L 427 554 L 423 547 L 422 535 L 421 534 L 421 531 L 422 530 L 422 522 L 423 521 L 423 515 L 425 511 L 425 506 L 427 502 L 429 492 L 431 489 L 431 486 L 433 483 L 435 475 L 437 472 L 437 470 L 439 467 L 439 465 L 441 462 L 441 460 L 443 457 L 445 450 L 447 448 L 449 441 L 453 434 L 453 432 L 455 430 L 457 423 L 459 421 L 459 419 L 463 412 L 463 410 L 469 397 L 469 395 L 471 391 L 471 388 L 473 384 L 473 378 L 474 377 L 475 367 L 474 366 L 473 358 L 471 356 L 470 352 L 471 351 L 473 351 L 474 352 L 478 352 L 479 353 L 485 353 L 489 351 L 496 350 L 497 352 L 495 355 L 485 356 L 485 357 L 487 358 L 486 361 L 487 361 L 488 359 L 491 358 L 492 359 L 492 362 L 493 362 L 495 358 L 495 355 L 497 354 L 499 350 L 502 347 L 504 348 L 502 351 L 502 353 L 503 353 L 507 348 L 507 346 L 510 343 L 514 342 L 517 339 L 519 339 L 523 334 L 526 334 L 526 332 L 528 330 L 531 329 L 532 330 L 532 333 L 533 333 L 533 325 L 537 321 L 538 321 L 542 316 L 544 317 L 544 330 L 545 330 L 545 317 L 544 316 L 544 313 L 551 305 L 561 290 L 563 285 L 565 283 L 575 263 L 575 261 L 579 253 L 579 250 L 581 247 L 581 244 L 583 241 L 583 237 L 585 233 L 585 229 L 587 224 L 588 212 L 589 211 L 590 184 L 591 183 L 590 171 L 591 170 L 593 170 L 594 171 L 594 173 L 596 176 L 597 176 L 597 173 L 599 172 L 599 170 L 598 170 L 598 172 L 596 173 L 589 165 L 589 162 L 590 161 L 593 162 L 593 161 L 585 151 L 585 148 L 587 147 L 587 146 L 585 146 L 583 144 L 577 135 L 577 133 Z M 527 125 L 530 129 L 534 143 L 536 143 L 536 141 L 532 130 L 533 128 L 535 128 L 542 133 L 551 143 L 558 157 L 558 159 L 560 163 L 561 172 L 562 173 L 562 190 L 561 191 L 560 204 L 559 205 L 559 209 L 558 210 L 558 215 L 556 220 L 556 224 L 554 228 L 554 232 L 552 236 L 552 239 L 550 242 L 550 245 L 548 248 L 548 250 L 546 253 L 544 260 L 538 272 L 528 287 L 524 291 L 524 292 L 505 310 L 499 314 L 497 314 L 495 316 L 493 316 L 490 318 L 488 318 L 484 320 L 465 320 L 464 319 L 458 318 L 450 314 L 448 311 L 449 310 L 460 309 L 461 308 L 461 306 L 456 306 L 455 307 L 451 307 L 450 308 L 442 308 L 439 305 L 438 302 L 439 301 L 445 300 L 446 298 L 434 298 L 431 293 L 431 291 L 432 290 L 434 290 L 435 288 L 430 288 L 427 283 L 427 280 L 428 279 L 430 279 L 430 277 L 427 277 L 425 275 L 424 268 L 426 265 L 423 263 L 423 259 L 424 258 L 426 258 L 427 259 L 437 259 L 437 258 L 428 257 L 423 255 L 423 251 L 424 250 L 427 250 L 427 248 L 425 248 L 423 246 L 423 238 L 426 236 L 427 237 L 432 237 L 436 239 L 445 239 L 445 238 L 442 238 L 438 236 L 433 236 L 431 234 L 431 231 L 427 230 L 425 228 L 425 224 L 428 220 L 433 221 L 433 220 L 428 216 L 428 213 L 430 211 L 441 217 L 443 217 L 448 220 L 448 222 L 450 223 L 452 223 L 455 225 L 458 225 L 459 226 L 462 226 L 462 225 L 458 224 L 455 222 L 453 222 L 449 220 L 448 218 L 445 216 L 431 210 L 430 209 L 431 204 L 433 201 L 437 202 L 437 200 L 435 199 L 435 194 L 436 193 L 439 193 L 448 199 L 450 199 L 448 196 L 438 190 L 438 188 L 440 186 L 445 187 L 445 186 L 441 183 L 441 181 L 447 172 L 449 172 L 452 175 L 463 182 L 461 178 L 449 169 L 449 167 L 455 159 L 457 159 L 460 162 L 463 163 L 463 161 L 458 157 L 458 155 L 464 149 L 469 150 L 467 146 L 474 139 L 477 137 L 480 139 L 482 139 L 481 134 L 492 128 L 493 128 L 499 135 L 501 135 L 498 130 L 498 127 L 500 125 L 511 124 L 517 131 L 518 131 L 516 126 L 517 124 Z M 509 118 L 507 121 L 499 122 L 498 123 L 494 123 L 493 122 L 495 119 L 503 115 L 506 115 Z M 544 113 L 545 115 L 557 120 L 572 134 L 578 143 L 582 151 L 582 154 L 584 157 L 584 161 L 586 166 L 586 200 L 585 201 L 584 216 L 582 221 L 582 227 L 580 231 L 580 235 L 578 239 L 578 242 L 577 243 L 576 248 L 574 251 L 574 253 L 572 256 L 570 263 L 568 265 L 568 267 L 564 273 L 564 275 L 562 277 L 560 282 L 553 292 L 552 295 L 542 307 L 542 308 L 536 314 L 536 315 L 534 316 L 534 317 L 532 318 L 532 319 L 527 324 L 526 324 L 520 330 L 509 338 L 495 344 L 491 344 L 490 345 L 486 345 L 485 346 L 474 346 L 473 345 L 464 344 L 461 342 L 459 342 L 457 340 L 451 337 L 442 329 L 442 328 L 437 323 L 433 315 L 431 313 L 429 309 L 428 304 L 429 303 L 433 303 L 444 314 L 450 317 L 452 319 L 454 319 L 456 321 L 459 321 L 462 323 L 466 323 L 467 324 L 471 324 L 472 325 L 480 325 L 481 324 L 485 324 L 486 323 L 489 323 L 492 321 L 494 321 L 502 317 L 517 306 L 533 288 L 541 276 L 547 264 L 547 262 L 551 255 L 553 247 L 555 244 L 555 241 L 557 238 L 557 234 L 558 233 L 560 223 L 561 222 L 561 218 L 563 213 L 564 201 L 565 200 L 566 179 L 565 178 L 565 169 L 563 164 L 563 160 L 561 157 L 561 155 L 555 142 L 549 134 L 547 133 L 547 132 L 539 126 L 535 124 L 533 124 L 529 121 L 529 119 L 527 119 L 526 121 L 523 121 L 522 120 L 513 120 L 510 116 L 510 114 L 511 113 L 518 112 L 519 111 L 537 111 L 538 112 Z" fill="#FFFFFF" fill-rule="evenodd"/>
</svg>
