<svg xmlns="http://www.w3.org/2000/svg" width="128" height="128" viewBox="0 0 128 128" fill="none"><g stroke="currentColor" stroke-width="7" stroke-linecap="round" stroke-linejoin="round" fill="none" opacity=".75"><path d="M30 56c-14-2-21-11-21-24 12 1 21 6 27 16M98 56c14-2 21-11 21-24-12 1-21 6-27 16"/><path d="M31 49c9-13 22-20 33-20s24 7 33 20c6 9 7 23 4 35-5 17-18 29-37 29S32 101 27 84c-3-12-2-26 4-35Z"/><circle cx="49" cy="68" r="2" fill="currentColor"/><circle cx="79" cy="68" r="2" fill="currentColor"/><path d="M56 81c5-4 11-4 16 0-1 6-4 9-8 9s-7-3-8-9ZM53 95c7 6 15 6 22 0"/></g></svg>