<svg xmlns="http://www.w3.org/2000/svg" style="display:none"><symbol id="calendar-paw" viewBox="0 0 128 128"><rect x="16" y="24" width="96" height="88" rx="16" stroke="currentColor" stroke-width="7"/><path d="M38 15v22M90 15v22M16 48h96" stroke="currentColor" stroke-width="7" stroke-linecap="round"/><g transform="translate(35 53) scale(.46)" fill="currentColor"><ellipse cx="31" cy="39" rx="12" ry="18" transform="rotate(-24 31 39)"/><ellipse cx="57" cy="28" rx="12" ry="18" transform="rotate(-7 57 28)"/><ellipse cx="87" cy="31" rx="12" ry="18" transform="rotate(10 87 31)"/><ellipse cx="108" cy="48" rx="12" ry="18" transform="rotate(27 108 48)"/><path d="M35 94c2-22 16-38 29-38 9 0 14 7 19 7 5 0 11-7 20-5 13 3 22 24 20 40-2 16-14 23-28 19-9-3-15-4-24 0-18 8-38-3-36-23Z"/></g></symbol><symbol id="daycare-badge" viewBox="0 0 128 128"><rect x="14" y="14" width="100" height="100" rx="24" stroke="currentColor" stroke-width="7"/><g transform="translate(29 29) scale(.55)" fill="currentColor"><ellipse cx="31" cy="39" rx="12" ry="18" transform="rotate(-24 31 39)"/><ellipse cx="57" cy="28" rx="12" ry="18" transform="rotate(-7 57 28)"/><ellipse cx="87" cy="31" rx="12" ry="18" transform="rotate(10 87 31)"/><ellipse cx="108" cy="48" rx="12" ry="18" transform="rotate(27 108 48)"/><path d="M35 94c2-22 16-38 29-38 9 0 14 7 19 7 5 0 11-7 20-5 13 3 22 24 20 40-2 16-14 23-28 19-9-3-15-4-24 0-18 8-38-3-36-23Z"/></g></symbol><symbol id="dog-face-watermark" viewBox="0 0 128 128"><g stroke="currentColor" stroke-width="7" stroke-linecap="round" stroke-linejoin="round" fill="none" opacity=".75"><path d="M30 56c-14-2-21-11-21-24 12 1 21 6 27 16M98 56c14-2 21-11 21-24-12 1-21 6-27 16"/><path d="M31 49c9-13 22-20 33-20s24 7 33 20c6 9 7 23 4 35-5 17-18 29-37 29S32 101 27 84c-3-12-2-26 4-35Z"/><circle cx="49" cy="68" r="2" fill="currentColor"/><circle cx="79" cy="68" r="2" fill="currentColor"/><path d="M56 81c5-4 11-4 16 0-1 6-4 9-8 9s-7-3-8-9ZM53 95c7 6 15 6 22 0"/></g></symbol><symbol id="facebook" viewBox="0 0 128 128"><circle cx="64" cy="64" r="50" stroke="currentColor" stroke-width="7"/><path d="M72 107V70h14l3-16H72v-9c0-5 3-9 10-9h8V22c-3-1-9-2-15-2-16 0-27 10-27 28v6H34v16h14v37h24Z" fill="currentColor"/></symbol><symbol id="heart-outline" viewBox="0 0 128 128"><path d="M64 112 20 72C-1 53 10 18 39 18c12 0 21 6 25 15 5-9 14-15 26-15 29 0 40 35 19 54L64 112Z" stroke="currentColor" stroke-width="8" stroke-linejoin="round"/></symbol><symbol id="instagram" viewBox="0 0 128 128"><rect x="20" y="20" width="88" height="88" rx="25" stroke="currentColor" stroke-width="8"/><circle cx="64" cy="64" r="21" stroke="currentColor" stroke-width="8"/><circle cx="91" cy="37" r="6" fill="currentColor"/></symbol><symbol id="live-dot" viewBox="0 0 128 128"><circle cx="64" cy="64" r="23" fill="currentColor"/><circle cx="64" cy="64" r="38" stroke="currentColor" stroke-opacity=".25" stroke-width="12"/></symbol><symbol id="pagination" viewBox="0 0 128 128"><circle cx="18" cy="64" r="8" fill="#FF6A21"/><circle cx="44" cy="64" r="8" fill="#516171"/><circle cx="70" cy="64" r="8" fill="#516171"/><circle cx="96" cy="64" r="8" fill="#516171"/></symbol><symbol id="paw-outline" viewBox="0 0 128 128"><g stroke="currentColor" stroke-width="8" stroke-linecap="round" stroke-linejoin="round">
<ellipse cx="31" cy="39" rx="12" ry="18" transform="rotate(-24 31 39)"/><ellipse cx="57" cy="28" rx="12" ry="18" transform="rotate(-7 57 28)"/>
<ellipse cx="87" cy="31" rx="12" ry="18" transform="rotate(10 87 31)"/><ellipse cx="108" cy="48" rx="12" ry="18" transform="rotate(27 108 48)"/>
<path d="M35 94c2-22 16-38 29-38 9 0 14 7 19 7 5 0 11-7 20-5 13 3 22 24 20 40-2 16-14 23-28 19-9-3-15-4-24 0-18 8-38-3-36-23Z"/>
</g></symbol><symbol id="paw-solid" viewBox="0 0 128 128"><g fill="currentColor"><ellipse cx="31" cy="39" rx="12" ry="18" transform="rotate(-24 31 39)"/><ellipse cx="57" cy="28" rx="12" ry="18" transform="rotate(-7 57 28)"/><ellipse cx="87" cy="31" rx="12" ry="18" transform="rotate(10 87 31)"/><ellipse cx="108" cy="48" rx="12" ry="18" transform="rotate(27 108 48)"/><path d="M35 94c2-22 16-38 29-38 9 0 14 7 19 7 5 0 11-7 20-5 13 3 22 24 20 40-2 16-14 23-28 19-9-3-15-4-24 0-18 8-38-3-36-23Z"/></g></symbol><symbol id="play-circle" viewBox="0 0 128 128"><circle cx="64" cy="64" r="52" fill="currentColor"/><path d="m53 42 31 22-31 22V42Z" fill="#FFFFFF"/></symbol><symbol id="social-heart-bubble" viewBox="0 0 128 128"><path d="M24 17h80a12 12 0 0 1 12 12v53a12 12 0 0 1-12 12H62l-23 18V94H24A12 12 0 0 1 12 82V29a12 12 0 0 1 12-12Z" stroke="currentColor" stroke-width="7" stroke-linejoin="round"/><path d="M64 76 45 59c-9-8-4-23 8-23 5 0 9 3 11 7 2-4 6-7 11-7 12 0 17 15 8 23L64 76Z" stroke="currentColor" stroke-width="6" stroke-linejoin="round"/></symbol><symbol id="sync" viewBox="0 0 128 128"><path d="M100 41A45 45 0 0 0 25 31l-9 11M28 19l-3 12 12 3M28 87a45 45 0 0 0 75 10l9-11M100 109l3-12-12-3" stroke="currentColor" stroke-width="8" stroke-linecap="round" stroke-linejoin="round"/></symbol><symbol id="tiktok" viewBox="0 0 128 128"><circle cx="64" cy="64" r="50" stroke="currentColor" stroke-width="7"/><path d="M71 31v47a18 18 0 1 1-15-18v15a5 5 0 1 0 4 5V31h11c3 9 10 15 20 17v14c-8-1-14-4-20-9V31Z" fill="currentColor"/></symbol></svg>