<svg xmlns="http://www.w3.org/2000/svg" width="128" height="128" viewBox="0 0 128 128" fill="none"><g stroke="currentColor" stroke-width="8" stroke-linecap="round" stroke-linejoin="round">
<ellipse cx="31" cy="39" rx="12" ry="18" transform="rotate(-24 31 39)"/><ellipse cx="57" cy="28" rx="12" ry="18" transform="rotate(-7 57 28)"/>
<ellipse cx="87" cy="31" rx="12" ry="18" transform="rotate(10 87 31)"/><ellipse cx="108" cy="48" rx="12" ry="18" transform="rotate(27 108 48)"/>
<path d="M35 94c2-22 16-38 29-38 9 0 14 7 19 7 5 0 11-7 20-5 13 3 22 24 20 40-2 16-14 23-28 19-9-3-15-4-24 0-18 8-38-3-36-23Z"/>
</g></svg>