<svg xmlns="http://www.w3.org/2000/svg" width="900" height="360" viewBox="0 0 900 360">
<rect width="900" height="360" rx="30" fill="#0E131B"/><rect x="1" y="1" width="898" height="358" rx="30" fill="none" stroke="#263241" stroke-width="2"/>
<text x="40" y="58" font-family="Inter, Arial" font-size="30" font-weight="900" fill="#F8FAFC">System Status & Integrations</text>
<g transform="translate(40 100)">
<g transform="translate(0 0)"><rect width="245" height="78" rx="18" fill="#05070A" stroke="#263241"/><circle cx="32" cy="39" r="12" fill="#22C55E"/><text x="58" y="34" font-family="Inter, Arial" font-size="17" font-weight="800" fill="#F8FAFC">Database</text><text x="58" y="57" font-family="Inter, Arial" font-size="13" fill="#22C55E">Operational</text></g><g transform="translate(275 0)"><rect width="245" height="78" rx="18" fill="#05070A" stroke="#263241"/><circle cx="32" cy="39" r="12" fill="#22C55E"/><text x="58" y="34" font-family="Inter, Arial" font-size="17" font-weight="800" fill="#F8FAFC">API Services</text><text x="58" y="57" font-family="Inter, Arial" font-size="13" fill="#22C55E">Operational</text></g><g transform="translate(550 0)"><rect width="245" height="78" rx="18" fill="#05070A" stroke="#263241"/><circle cx="32" cy="39" r="12" fill="#22C55E"/><text x="58" y="34" font-family="Inter, Arial" font-size="17" font-weight="800" fill="#F8FAFC">Maps Service</text><text x="58" y="57" font-family="Inter, Arial" font-size="13" fill="#22C55E">Operational</text></g><g transform="translate(0 105)"><rect width="245" height="78" rx="18" fill="#05070A" stroke="#263241"/><circle cx="32" cy="39" r="12" fill="#F59E0B"/><text x="58" y="34" font-family="Inter, Arial" font-size="17" font-weight="800" fill="#F8FAFC">SMS Service</text><text x="58" y="57" font-family="Inter, Arial" font-size="13" fill="#F59E0B">Warning</text></g><g transform="translate(275 105)"><rect width="245" height="78" rx="18" fill="#05070A" stroke="#263241"/><circle cx="32" cy="39" r="12" fill="#22C55E"/><text x="58" y="34" font-family="Inter, Arial" font-size="17" font-weight="800" fill="#F8FAFC">Email Service</text><text x="58" y="57" font-family="Inter, Arial" font-size="13" fill="#22C55E">Operational</text></g><g transform="translate(550 105)"><rect width="245" height="78" rx="18" fill="#05070A" stroke="#263241"/><circle cx="32" cy="39" r="12" fill="#22C55E"/><text x="58" y="34" font-family="Inter, Arial" font-size="17" font-weight="800" fill="#F8FAFC">Backups</text><text x="58" y="57" font-family="Inter, Arial" font-size="13" fill="#22C55E">Up to date</text></g>
</g>
</svg>