<svg xmlns="http://www.w3.org/2000/svg" viewBox="167.7 168.6 688.9 523.9" role="img" aria-hidden="true">
  <defs>
</defs>
  <path d="M642.857,371.048 C647.743,372.942 650.098,369.23 662.378,379.596 C668.838,385.049 675.819,391.43 677.655,400.281 C678.476,404.237 674.295,408.739 671.89,412.462 C675.528,418.489 681.219,423.483 687.918,424.617 C687.649,427.417 691.168,426.695 692.801,427.071 C699.333,428.571 705.039,428.074 711.382,427.399 C711.382,427.399 725.983,425.844 725.983,425.844 C726.382,425.802 725.642,424.458 724.754,424.602 C734.775,422.744 745.076,424.071 754.946,428.193 C759.076,425.665 761.19,421.823 762.601,417.935 C763.097,418.288 764.794,417.539 764.794,416.672 C764.794,416.672 764.795,404.321 764.795,404.321 C764.795,403.54 763.244,402.732 762.607,403.044 C759.619,389.83 743.664,386.177 748.734,382.505 C752.298,379.923 760.315,380.3 764.954,382.435 C773.547,386.391 779.136,395.971 780.375,405.025 C780.846,408.464 781.792,411.037 780.414,414.617 C779.658,416.58 780.194,420.33 778.143,421.798 C775.874,423.422 776.106,427.117 776.971,429.596 C776.45,429.999 775.348,430.857 775.567,431.45 C775.658,431.696 775.787,431.968 776.555,432.155 C771.294,439.693 765.489,441.141 769.008,443.005 C768.883,444.143 768.035,445.051 768.76,446.332 C770.657,449.679 768.074,455.391 771.432,455.061 C772.049,456.137 771.215,458.155 772.973,458.764 C772.998,459.281 772.603,461.413 772.271,462.412 C772.056,463.057 773.702,463.293 774.299,463.538 C773.387,463.499 771.958,464.463 771.288,464.99 C771.011,464.867 770.459,464.872 770.099,465.25 C770.138,468.551 769.253,472.236 770.717,474.964 C776.443,485.639 777.375,497.388 774.474,509.434 C773.504,513.46 773.75,517.782 772.003,522.226 C770.149,526.944 765.211,528.288 759.898,528.244 C756.361,528.214 751.382,526.52 752.235,522.07 C752.628,520.022 753.991,517.551 754.748,516.034 C754.672,516.561 755.213,517.054 755.479,516.963 C755.739,516.875 756.902,516.005 756.901,515.668 C756.901,515.668 756.874,496.334 756.874,496.334 C756.873,495.813 755.72,495.226 755.499,495.006 C755.262,494.768 753.975,495.108 754.092,495.402 C754.264,495.833 754.731,496.761 755.038,497.161 C753.954,495.458 749.043,494.841 749.413,496.098 C749.413,496.098 750.109,498.463 750.109,498.463 C750.203,498.783 749.61,499.205 749.001,499.09 C749.185,498.364 749.33,497.357 748.139,496.834 C746.355,499.811 746.562,503.684 748.037,506.037 C747.016,510.961 744.964,517.043 739.965,519.683 C736.553,521.484 730.958,521.762 727.91,520.146 C724.252,518.207 726.209,513.553 727.956,511.272 C730.615,507.799 732.343,497.046 731.246,495.791 C731.246,495.791 718.542,481.27 718.542,481.27 C718.542,481.27 705.191,487.18 705.191,487.18 C705.191,487.18 695.188,490.941 695.188,490.941 C695.339,490.068 693.951,489.634 693.54,490.004 C690.958,492.327 686.225,489.582 681.025,492.25 C681.025,492.25 681.104,506.794 681.104,506.794 C681.144,507.057 681.747,507.216 682.071,507.022 C681.994,510.376 679.703,517.742 679.024,518.042 C676.91,518.978 677.84,522.823 677.167,524.546 C677.167,524.546 674.261,533.087 674.261,533.087 C669.823,537.218 659.631,537.187 657.111,533.451 C654.851,530.101 657.138,525.593 660.892,521.743 C661.414,512.329 661.044,503.158 660.023,494.141 C659.822,492.36 659.442,488.313 656.168,489.476 C654.259,490.154 654.557,496.014 656.035,497.067 C656.035,497.067 652.656,512.691 652.656,512.691 C651.436,518.331 649.065,523.523 643.995,527.281 C640.463,529.899 632.724,530.245 629.365,526.723 C625.488,522.658 629.028,516.515 631.952,513.309 C634.096,510.959 633.541,509.037 634.149,507.304 C634.636,507.239 635.044,507.94 636.075,508.409 C636.075,508.409 637.086,495.91 637.086,495.91 C637.168,494.904 637.059,494.152 636.147,493.976 C636.147,493.976 636.091,484.988 636.091,484.988 C636.405,485.103 637.036,484.868 637.014,484.046 C637.014,484.046 636.705,472.292 636.705,472.292 C636.691,471.739 635.798,470.127 635.545,470.108 C635.545,470.108 634.442,470.023 634.442,470.023 C621.167,476.651 605.387,477.471 593.096,468.003 C584.329,461.25 574.816,463.063 565.923,468.824 C565.923,468.824 554.942,475.939 554.942,475.939 C535.391,488.606 509.685,480.029 505.968,465.754 C505.968,465.754 506.792,465.577 506.792,465.577 C504.824,460.662 504.432,455.219 504.683,450.065 C505.788,446.791 507.934,444.184 510.114,440.879 C510.889,440.356 511.798,439.258 509.927,438.809 C509.977,438.384 510.224,438.041 510.547,437.924 C510.944,437.781 511.782,437.74 512.072,437.807 C512.072,437.807 511.74,439.468 511.74,439.468 C511.639,439.922 512.827,440.323 512.983,439.529 C512.983,439.529 513.286,437.978 513.286,437.978 C513.549,436.634 515.196,435.982 516.011,434.454 C516.011,434.454 528.548,432.557 528.548,432.557 C527.559,428.399 523.618,430.195 522.367,429.243 C520.408,427.072 517.808,428.297 515.841,427.385 C516.332,426.822 517.508,427.632 517.715,427.286 C518.319,426.276 517.243,425.794 517.126,425.528 C516.951,425.129 518.033,424.329 518.027,424.014 C518.027,424.014 522.176,423.685 522.176,423.685 C523.143,423.608 524.262,422.79 525.022,421.513 C531.062,424.894 536.116,429.745 539.998,435.982 C540.92,437.464 539.133,440.597 537.993,440.119 C537.975,439.36 538.524,438.785 539.128,438.343 C533.234,436.411 527.322,436.626 521.389,437.514 C519.295,438.047 520.259,440.125 522.128,439.268 C518.439,440.69 515.126,443.007 513.051,447.377 C510.369,453.027 511.848,460.369 515.788,465.076 C514.982,464.49 513.9,464.483 513.127,463.735 C512.356,464.131 511.902,463.633 511.094,463.172 C512.841,469.759 518.425,473.445 524.623,475.326 C526.423,475.871 528.845,476.811 529.995,474.857 C530.36,474.895 530.686,474.971 531.047,474.899 C537.218,478.119 546.066,474.722 553.063,470.335 C553.063,470.335 565.936,462.263 565.936,462.263 C565.738,462.874 566.794,463.366 567.466,462.964 C567.466,462.964 568.944,462.082 568.944,462.082 C575.523,458.155 583.12,457.628 589.616,460.838 C589.817,460.404 589.832,460.126 589.84,460.007 C592.385,459.999 594.988,462.266 597.044,463.604 C597.044,463.604 600.116,465.602 600.116,465.602 C605.43,472.543 619.237,472.553 628.626,468.366 C629.48,469.305 630.787,468.693 630.539,468.069 C630.539,468.069 630.172,467.149 630.172,467.149 C631.346,467.177 632.755,466.252 633.039,465.339 C633.231,464.718 630.758,457.27 631.431,457.857 C631.431,457.857 629.922,456.541 629.922,456.541 C629.733,456.377 630.262,455.718 630.859,455.843 C632.04,457.72 632.695,455.694 632.034,455.166 C629.463,450.778 632.842,444.987 629.197,440.693 C628.395,442.299 629.019,443.288 628.697,444.168 C628.697,444.168 627.319,438.137 627.319,438.137 C626.028,436.978 626.343,435.192 626.04,433.997 C626.244,434.177 627.177,433.642 626.952,433.503 C626.717,433.359 625.809,432.355 625.919,431.261 C625.919,431.261 608.234,431.077 608.234,431.077 C607.886,431.073 607.687,431.737 607.889,432.033 C607.889,432.033 598.948,429.792 598.948,429.792 C597.262,429.37 595.761,427.516 594.171,426.79 C586.099,423.102 581.502,412.92 580.272,404.035 C578.957,394.536 594.367,396.698 605.648,391.049 C613.952,386.891 612.595,375.861 628.794,371.104 C628.769,371.553 628.758,371.993 628.962,372.491 C629.165,372.989 630.006,373.072 630.265,372.079 C630.265,372.079 642.681,371.958 642.681,371.958 C642.681,371.958 642.857,371.048 642.857,371.048 Z M631.996,377.994 C618.448,377.825 617.106,392.788 609.001,395.712 C609.001,395.712 595.975,400.41 595.975,400.41 C599.006,406.436 592.477,409.104 589.498,411.331 C588.925,417.503 597.147,422.358 603.221,422.802 C611.77,423.427 618.566,419.888 624.967,414.498 C625.834,417.769 623.814,419.493 621.999,420.896 C621.999,420.896 616.116,425.444 616.116,425.444 C616.279,423.378 614.712,423.883 614.399,424.363 C613.946,425.055 613.753,426.109 614.014,426.581 C614.508,427.472 615.683,428.344 617.003,428.322 C617.003,428.322 630.804,428.092 630.804,428.092 C631.181,428.359 631.129,429.799 630.967,429.972 C628.772,431.59 631.952,432.384 634.391,439.189 C634.924,438.713 635.069,438.023 634.801,437.439 C634.38,436.522 633.178,436.297 632.428,437.018 C631.076,438.255 632.4,439.114 633.194,439.678 C633.499,442.264 633.804,444.322 635.319,445.786 C635.648,445.949 636.327,445.131 636.337,444.617 C636.337,444.617 636.623,447.384 636.623,447.384 C637.477,449.56 634.7,452.778 636.562,454.826 C637.126,455.445 638.183,454.959 638.97,454.033 C638.555,458.059 636.833,461.206 638.983,462.029 C639.035,462.51 639.177,462.99 639.537,462.989 C639.537,462.989 641.062,462.99 641.062,462.99 C641.046,463.653 641.073,464.173 641.483,464.673 C642.002,465.307 641.824,466.204 641.874,466.881 C641.96,468.042 643.125,469.23 643.799,470.094 C644.82,471.401 645.225,473.324 646.816,474.016 C646.816,474.016 649.338,475.113 649.338,475.113 C649.338,475.113 654.304,480.464 654.304,480.464 C654.728,480.921 656.118,481.135 656.532,480.968 C657.889,480.42 656.445,476.456 657.083,475.621 C658.563,473.687 660.598,478.105 662.377,483.682 C660.06,485.469 662.587,487.387 662.944,488.915 C663.958,493.249 663.502,497.028 666.035,500 C665.223,503.364 671.208,506.224 665.433,523.861 C664.9,525.49 660.597,526.787 662.127,529.982 C665.207,530.434 668.88,529.82 671.27,527.736 C673.362,525.912 674.036,522.353 674.303,519.36 C674.699,518.339 674.537,517.663 674.621,516.959 C674.745,517.265 677.038,516.968 676.812,516.554 C676.493,515.967 676.55,515.859 676.631,514.615 C676.631,514.615 677.36,503.437 677.36,503.437 C679.168,497.792 679.714,492.081 678.182,486.922 C678.511,484.148 679.712,481.76 680.867,478.237 C680.867,478.237 683.026,484.132 683.026,484.132 C683.513,485.986 685.12,486.634 685.214,484.24 C685.859,483.249 684.874,482.78 684.302,482.535 C683.962,482.389 684.817,481.699 685.113,481.461 C685.624,481.052 686.598,480.768 686.905,481.51 C685.493,482.827 686.099,483.874 686.827,484.626 C687.792,485.623 688.913,486.642 690.42,485.27 C690.64,485.071 690.793,484.445 691.466,484.422 C692,484.404 692.196,484.826 692.629,485.301 C693.901,486.695 696.701,484.814 697.321,483.201 C698.332,483.977 699.076,483.807 699.494,483.942 C700.716,484.338 700.661,483.558 701.306,482.694 C701.306,482.694 704.862,477.931 704.862,477.931 C705.127,479.112 706.095,479.635 706.91,479.889 C709.602,480.728 710.743,478.371 712.929,476.79 C714.245,475.838 717.776,475.331 718.89,474.106 C718.89,474.106 721.445,474.067 721.445,474.067 C721.943,474.06 722.305,472.865 722.74,471.441 C722.74,471.441 724.767,471.887 724.767,471.887 C725.501,472.048 726.278,471.016 726.366,470.093 C728.209,470.286 732.198,470.549 733.533,468.405 C734.533,466.799 734.274,463.378 736.698,462.183 C737.314,465.743 737.451,469.7 739.113,472.582 C744.183,481.377 750.212,488.735 759.788,492.235 C759.788,492.235 760.979,497.048 760.979,497.048 C760.563,497.008 759.973,497.218 759.975,497.942 C759.975,497.942 760.028,519.153 760.028,519.153 C760.029,519.761 759.698,520.827 760.119,521.409 C761.785,523.713 766.281,519.49 766.756,519.248 C769.553,517.826 769.323,513.457 772.005,508.931 C772.795,507.571 772.064,504.379 771.13,502.809 C772.909,496.284 772.133,488.724 768.367,482.509 C767.954,479.579 767.005,476.605 764.162,474.867 C764.162,474.867 764.479,459.48 764.479,459.48 C766.435,456.136 766.742,451.73 763.956,448.084 C764.627,444.625 763.174,442.1 761.534,438.762 C772.316,430.215 779.206,416.733 775.338,403.96 C772.768,395.47 767.503,388.158 758.703,386.695 C762.078,393.014 767.115,397.678 767.79,404.042 C767.053,404.134 766.724,404.931 766.855,405.986 C767.96,414.879 765.513,422.993 760.233,429.346 C758.778,430.716 757.243,432.155 755.024,432.935 C749.855,431.279 745.072,429.831 740.043,429.946 C740.132,429.599 739.893,428.951 739.016,428.957 C739.016,428.957 718.332,429.088 718.332,429.088 C717.972,429.627 717.004,430.236 716.525,430.047 C716.176,429.909 715.634,430.588 715.972,431.157 C715.972,431.157 712.901,432.048 712.901,432.048 C712.99,431.586 712.778,430.935 712.066,430.982 C712.066,430.982 693.957,430.999 693.957,430.999 C693.099,430.842 692.759,431.594 692.96,431.838 C690.268,431.81 682.137,428.765 678.09,425.842 C676.621,426.008 674.562,426.142 673.548,425.724 C673.548,425.724 667.436,417.814 667.436,417.814 C665.074,421.167 661.617,423.004 657.88,424.925 C653.598,427.126 648.498,426.347 645.922,422.079 C644.417,419.587 643.217,417.292 643.038,414.724 C643.038,414.724 642.402,397.944 642.402,397.944 C642.402,397.944 641.51,393.522 641.51,393.522 C640.936,390.68 642.496,387.666 641.903,383.736 C646.675,384.445 647.792,398.654 646.42,404.488 C646.01,406.234 647.541,415.707 649.809,418.866 C653.435,423.917 661.931,417.169 667.94,408.143 C672.095,401.899 670.109,396.434 665.295,391.561 C660.431,386.637 656.23,380.173 649.004,378.153 C649.004,378.153 639.038,378.082 639.038,378.082 C638.724,377.504 639.242,376.859 639.629,376.986 C640.098,377.139 641.469,377.892 642.045,376.273 C642.045,376.273 629.975,376.27 629.975,376.27 C630.608,377.953 632.222,377.284 631.996,377.994 Z M676.282,400.297 C677.11,399.111 675.121,396.969 674.754,399.465 C675.112,400.782 675.017,401.527 674.992,402.443 C674.96,403.599 677.044,402.725 676.282,400.297 Z M589.62,405.768 C591.243,405.064 591.961,404.776 592.085,403.473 C592.175,402.525 592.258,401.275 591.164,401.015 C588.476,400.375 587.165,401.793 586.898,403.51 C586.58,405.559 587.539,406.669 589.62,405.768 Z M725.792,477.791 C725.375,477.68 724.044,477.925 724.039,478.512 C724.039,478.512 724.015,481.432 724.015,481.432 C724.009,482.14 725.828,482.65 726.423,481.116 C727.027,482.13 726.838,482.924 728.017,484.1 C728.017,484.1 733.866,489.933 733.866,489.933 C733.866,489.933 735.131,491.964 735.131,491.964 C736.861,494.996 740.592,486.371 739.995,485.017 C739.558,484.029 739.08,482.483 738.069,481.86 C737.248,481.909 737.469,481.423 737.226,481.242 C736.727,480.87 735.779,481.213 734.982,482.033 C734.982,482.033 735.909,477.365 735.909,477.365 C732.529,475.268 728.155,475.293 725.792,477.791 Z M641.707,479.809 C640.385,482.186 640.844,485.542 641.58,488.668 C641.953,490.249 640.305,492.656 641.336,494.359 C641.276,494.461 641.292,494.561 641.369,494.643 C641.686,498.965 638.263,501.081 640.456,503.26 C641.697,504.494 640.651,506.679 641.079,507.746 C638.634,507.652 640.148,511.014 637.9,515.394 C636.665,517.802 634.561,520.356 635.321,522.586 C638.414,523.281 640.612,522.927 642.058,521.633 C642.669,521.087 644.247,521.163 644.265,519.019 C644.852,519.827 645.619,519.735 645.713,519.367 C645.9,518.631 645.648,517.395 644.85,517.314 C644.91,516.309 645.812,515.381 647.526,516.092 C648.446,514.353 647.898,512.237 648.094,510.3 C648.728,509.769 649.062,509.305 649.068,508.512 C649.073,507.876 649.16,507.176 648.086,507.066 C647.796,504.218 651.693,500.697 649.905,497.111 C649.087,495.469 649.103,493.863 648.831,492.042 C649.318,492.002 650.108,492.15 650.424,491.96 C655.612,488.851 643.303,476.94 641.707,479.809 Z M735.806,506.593 C735.57,506.828 735.026,506.653 735.007,507.52 C735.007,507.52 734.977,508.962 734.977,508.962 C733.8,509.056 733.511,510.67 734.066,511.496 C735.946,514.295 736.91,515.627 738.398,514.979 C739.066,514.688 739.607,513.851 740.01,512.986 C740.01,512.986 743.656,505.158 743.656,505.158 C743.892,504.652 744.314,503.34 743.77,502.909 C743.168,502.431 742.646,502.346 742.051,500.946 C743.638,498.999 744.422,495.24 742.984,493.011 C743.175,492.113 744.427,490.806 744.153,489.453 C743.929,488.355 742.201,487.402 741.621,488.549 C741.621,488.549 737.526,496.653 737.526,496.653 C734.558,502.527 737.695,503.068 736.999,504.367 C736.999,504.367 735.806,506.593 735.806,506.593 Z " fill="#FFFFFF" />
  <path d="M525.272,235.404 C543.121,236.917 559.414,248.625 566.31,265.051 C565.502,264.963 565.181,265.311 565.327,265.625 C565.327,265.625 569.705,279.063 569.705,279.063 C569.901,279.664 569.644,280.53 569.544,280.869 C569.456,281.17 569.853,281.61 570.434,281.879 C570.713,282.008 571.175,281.556 571.141,280.957 C572.5,281.64 571.941,283.104 571.946,283.97 C570.956,284.181 570.907,284.873 570.924,285.937 C570.924,285.937 571.128,299.186 571.128,299.186 C571.382,300.133 571.513,300.213 571.271,301.23 C565.635,324.949 545.88,343.886 522.085,346.179 C520.786,345.181 520.172,345.515 518.594,345.562 C518.594,345.562 500.901,346.09 500.901,346.09 C478.773,346.75 458.256,322.56 458.201,299.074 C458.201,299.074 458.163,282.885 458.163,282.885 C458.163,282.885 459.082,280.528 459.082,280.528 C459.367,279.798 459.003,278.941 457.514,278.789 C462.797,258.203 479.125,242.432 500.197,237.183 C500.197,237.183 507.866,235.272 507.866,235.272 C507.817,235.205 507.811,235.532 508.136,236.018 C508.136,236.018 525.272,235.404 525.272,235.404 Z M505.997,240.197 C505.516,240.42 505.371,241.124 504.431,241.074 C503.389,241.019 503.05,240.807 502.204,239.874 C502.25,242.227 501.568,242.82 500.884,243.898 C497.329,244.257 494.847,245.752 491.55,247.41 C478.922,253.759 469.058,264.426 465.961,277.919 C463.059,279.72 461.969,284.199 463.884,286.969 C463.813,287.279 463.941,288.122 464.018,288.44 C464.093,288.744 463.218,289.563 462.661,288.269 C461.455,293.105 461.96,297.486 462.252,302.038 C463.867,301.466 463.166,300.14 462.99,299.632 C462.854,299.241 463.525,298.711 464.066,299.023 C464.211,301.355 463.329,303.827 464.952,305.78 C463.941,305.973 463.528,306.975 463.819,307.522 C463.819,307.522 465.094,309.922 465.094,309.922 C465.153,312.636 466.681,313.417 467.726,314.723 C467.726,314.723 475.018,323.84 475.018,323.84 C475.719,324.717 476.261,324.955 475.888,325.908 C475.587,326.675 475.991,327.411 475.859,328.335 C474.704,327.436 473.71,325.509 471.713,325.251 C478.495,336.264 490.629,341.85 503.269,342.929 C503.375,345.187 503.627,342.824 504.002,341.216 C504.002,341.216 528.667,340.796 528.667,340.796 C529.768,340.778 530.424,338.503 530.179,338.229 C540.27,335.907 548.728,329.573 555.025,321.018 C561.195,312.634 563.977,302.982 566.305,293.131 C567.985,286.017 566.763,278.342 564.204,271.138 C564.204,271.138 562.854,271.035 562.854,271.035 C560.836,263.233 554.817,257.839 549.112,251.958 C549.112,251.958 542.248,247.086 542.248,247.086 C543.426,246.875 542.779,246.23 542.454,245.838 C541.992,245.281 540.663,245.058 540.312,244.727 C540.312,244.727 538.503,243.025 538.503,243.025 C537.97,242.525 537.055,243.074 537.041,243.927 C537.041,243.927 535.515,243.987 535.515,243.987 C535.216,243.998 535.014,243.444 535.016,243.169 C535.178,243.165 535.583,243.156 536.054,242.82 C535.442,241.463 534.608,241.056 533.492,240.956 C532.484,240.865 531.263,240.656 530.882,241.946 C530.312,241.777 530.002,241.607 530.035,241.04 C530.088,240.131 528.983,239.612 527.83,240.048 C526.076,239.295 525.016,241.404 527.075,241.99 C527.582,241.773 528.257,242.097 528.413,242.481 C528.556,242.832 527.982,243.695 527.553,243.815 C527.2,243.913 526.518,243.09 526.328,242.592 C526.328,242.592 519.915,241.165 519.915,241.165 C518.692,240.893 517.632,240.217 516.948,240.389 C515.699,240.704 515.013,241.691 514.222,242.549 C514.312,241.826 514.394,239.972 512.785,239.709 C512.008,239.582 511.652,239.984 510.242,240.387 C509.732,238.748 508.702,238.83 507.508,238.95 C506.792,239.022 506.068,238.869 505.997,240.197 Z M464.13,271.937 C464.622,271.98 465.247,271.524 465.546,270.99 C465.546,270.99 472.9,257.897 472.9,257.897 C475.028,257.782 473.858,255.035 471.973,256.831 C471.973,256.831 467.183,264.31 467.183,264.31 C465.714,266.604 464.647,269.472 464.13,271.937 Z M470.486,322.177 C470.356,323.478 471.257,323.753 471.49,323.982 C471.73,324.22 472.743,324.333 472.943,323.487 C473.056,323.008 470.575,321.291 470.486,322.177 Z " fill="#FFFFFF" />
  <path d="M376.831,551.92 C379.734,555.308 388.773,558.257 391.109,555.989 C391.528,555.903 391.927,556.169 391.995,556.593 C391.216,557.186 391.636,558.344 392.682,558.373 C405.444,558.725 418.431,560.449 430.32,556.389 C430.32,556.389 447.661,550.468 447.661,550.468 C452.302,548.883 456.487,546.18 460.328,543.854 C460.328,543.854 476.82,533.869 476.82,533.869 C481.495,531.038 489.109,531.263 494.62,533.768 C493.988,534.951 495.061,535.335 495.478,535.108 C495.813,534.927 497.2,534.967 496.349,536.175 C496.847,536.708 497.44,538.206 497.026,538.504 C496.725,538.885 496.169,539.008 495.713,538.776 C495.257,538.544 495.029,538.022 495.174,537.523 C494.152,538.269 493.261,537.145 492.641,536.966 C491.703,536.697 491.145,537.225 490.841,537.917 C488.246,538.312 484.169,537.153 481.469,538.431 C479.214,539.498 476.863,539.403 475.217,540.197 C475.217,540.197 446.152,554.215 446.152,554.215 C440.316,557.03 431.536,558.319 424.902,560.528 C424.612,561.088 424.768,561.779 425.276,562.156 C425.783,562.533 426.49,562.483 427.144,562.244 C425.966,562.134 425.029,562.04 424.112,561.681 C421.031,560.474 417.195,560.681 413.966,561.572 C415.554,562.031 417.551,561.42 418.007,562.936 C394.565,566.905 371.945,560.023 355.087,543.789 C351.221,540.067 347.231,536.553 344.18,531.949 C344.18,531.949 340.435,526.297 340.435,526.297 C339.983,525.613 340.285,523.854 338.483,523.89 C336.873,523.922 336.612,524.284 335.551,525.535 C332.683,528.915 328.724,530.752 325.256,533.326 C312.148,543.054 298.004,550.266 282.016,553.978 C275.052,552.934 270.425,553.287 272.84,556.109 C272.84,556.109 271.21,556.042 271.21,556.042 C271.306,555.424 270.886,554.948 270.081,554.955 C270.081,554.955 256.223,555.076 256.223,555.076 C256.016,555.243 255.927,555.762 255.995,555.883 C245.46,554.674 235.027,550.37 226.212,544.01 C225.611,543.023 226.292,541.419 227.191,541.259 C235.764,545.038 244.365,549.912 253.911,549.954 C253.911,549.954 268.015,550.016 268.015,550.016 C267.924,550.208 267.985,550.669 268.24,550.923 C268.24,550.923 278.908,550.711 278.908,550.711 C280.671,549.928 279.695,547.76 277.596,548.656 C277.596,548.656 281.013,548.133 281.013,548.133 C317.152,538.88 335.532,517.146 339.539,516.338 C340.186,516.208 341.656,517.208 342.003,518.002 C345.849,526.799 352.589,533.059 358.972,540.106 C361.782,543.208 374.078,551.188 376.831,551.92 Z M267.092,551.714 C266.948,550.853 266.411,550.552 265.52,550.964 C265.52,550.964 255.958,551.206 255.958,551.206 C255.955,551.447 256.084,551.804 256.5,551.989 C256.5,551.989 267.092,551.714 267.092,551.714 Z " fill="#FFFFFF" />
  <path d="M744.776,617.937 C744.825,618.79 744.237,619.351 744.1,620.306 C744.1,620.306 738.601,621.659 738.601,621.659 C729.502,621.648 721.005,623.496 711.937,625.76 C711.937,625.76 673.531,635.346 673.531,635.346 C673.531,635.346 662.087,637.628 662.087,637.628 C648.518,638.833 635.536,638.951 623.768,635.244 C623.768,635.244 610.724,631.135 610.724,631.135 C610.724,631.135 591.033,625.89 591.033,625.89 C579.214,622.742 554.466,623.597 540.653,625.373 C518.367,628.238 493.222,633.855 472.684,640.782 C472.684,640.782 473.006,637.538 473.006,637.538 C474.817,636.796 475.346,636.571 478.098,635.735 C478.098,635.735 488.542,632.565 488.542,632.565 C488.542,632.565 496.026,630.471 496.026,630.471 C496.026,630.471 522.412,624.558 522.412,624.558 C522.412,624.558 534.539,622.622 534.539,622.622 C534.539,622.622 552.489,620.609 552.489,620.609 C562.662,619.469 573.494,618.773 583.52,620.517 C583.52,620.517 594.005,622.34 594.005,622.34 C594.005,622.34 619.298,629.593 619.298,629.593 C619.298,629.593 635.474,633.467 635.474,633.467 C643.126,635.3 651.658,634.096 659.56,633.654 C659.56,633.654 667.038,631.969 667.038,631.969 C667.038,631.969 704.511,622.626 704.511,622.626 C704.511,622.626 714.915,620.328 714.915,620.328 C714.915,620.328 728.443,618.486 728.443,618.486 C728.443,618.486 744.776,617.937 744.776,617.937 Z " fill="#FFFFFF" />
  <path d="M407.023,610.063 C409.561,611.799 417.603,610.762 421.483,607.934 C421.483,607.934 431.798,605.425 431.798,605.425 C431.798,605.425 435.489,603.809 435.489,603.809 C436.408,603.406 438.772,604.386 437.757,605.618 C433.214,611.136 415.402,615.667 408.949,615.756 C409.052,615.576 408.801,614.916 408.055,614.987 C408.055,614.987 388.129,615.008 388.129,615.008 C387.795,615.467 387.809,615.8 387.841,616.045 C387.841,616.045 386.168,616.047 386.168,616.047 C386.17,615.431 386.454,614.889 387.066,614.209 C387.066,614.209 378.919,612.973 378.919,612.973 C377.896,612.817 377.112,613.002 376.914,613.911 C370.053,611.704 362.548,608.96 356.295,604.979 C356.295,604.979 346.988,599.054 346.988,599.054 C344.42,597.419 341.792,594.425 339.498,593.706 C332.471,591.503 323.614,602.442 314.27,604.942 C311.277,605.743 307.322,608.485 307.115,608.727 C306.642,609.278 307.359,610.638 308.108,610.706 C308.108,610.706 304.987,611.562 304.987,611.562 C304.459,611.707 304.55,613.121 304.993,613.418 C304.993,613.418 294.074,615.961 294.074,615.961 C294.717,615.976 295.079,615.79 295.535,615.329 C296.01,614.848 295.939,614.263 295.529,613.962 C295.215,613.732 294.127,614.816 293.717,614.819 C293.717,614.819 270.949,614.993 270.949,614.993 C270.205,614.999 270.017,615.579 270.089,615.953 C267.992,615.952 265.093,614.865 265.009,612.093 C265.009,612.093 289.999,611.57 289.999,611.57 C295.441,611.456 306.186,604.846 312.915,600.984 C312.915,600.984 319.933,596.957 319.933,596.957 C319.933,596.957 330.063,591.019 330.063,591.019 C333.185,589.19 337.792,586.944 340.978,588.759 C340.978,588.759 348.161,592.85 348.161,592.85 C358.373,601.764 370.302,606.812 383.299,609.643 C387.592,610.578 391.542,609.575 396.021,609.468 C399.887,609.376 403.509,610.483 407.023,610.063 Z " fill="#FFFFFF" />
  <path d="M693.806,598.204 C690.056,601.282 685.008,602.022 679.925,603.858 C654.684,612.973 627.726,612.543 603.111,601.707 C603.111,601.707 584.979,592.775 584.979,592.775 C585.176,592.518 585.537,591.991 585.635,591.72 C585.635,591.72 613.924,601.999 613.924,601.999 C623.921,605.631 633.391,606.831 644,606.108 C649.47,605.734 654.521,606.343 659.915,604.855 C663.67,603.82 667.956,603.552 672.057,602.163 C672.057,602.163 708.045,589.973 708.045,589.973 C708.045,589.973 689.023,587.893 689.023,587.893 C688.992,587.794 689.038,587.379 689.214,587.053 C689.214,587.053 709.529,587.797 709.529,587.797 C706.832,596.786 698.63,594.243 693.806,598.204 Z " fill="#FFFFFF" />
  <path d="M379.953,446.047 C378.006,444.597 379.31,441.662 378.888,440.067 C378.437,439.897 378.107,440.14 378.003,440.502 C378.003,440.502 377.876,447.188 377.876,447.188 C377.611,461.264 387.133,479.134 397.548,489.526 C406.8,498.758 417.518,505.309 430.258,508.781 C430.258,508.781 444.535,512.672 444.535,512.672 C449.34,513.982 444.302,516.747 430.765,513.15 C402,505.508 380.505,483.329 375.015,454.065 C373.608,446.569 373.691,440.668 375.905,433.784 C377.765,434.297 375.515,438.012 377.38,438.818 C377.927,439.055 379.149,438.243 379.718,438.158 C380.327,440.607 380.508,443.831 379.953,446.047 Z " fill="#FFFFFF" />
  <path d="M418.187,390.211 C417.425,391.325 415.811,391.073 413.782,391.275 C414.759,392.462 415.728,392.091 416.476,392.053 C417.52,391.999 418.287,392.819 418.41,393.815 C407.487,390.235 395.698,392.425 384.974,398.035 C365.601,408.17 352.401,428.008 349.724,449.824 C346.054,449.317 349.833,455.491 346.414,462.159 C345.824,455.964 345.221,449.053 346.8,442.969 C350.724,427.848 357.866,414.002 369.833,404.066 C377.43,397.759 384.711,392.356 393.854,389.842 C402.415,387.488 410.171,387.248 418.187,390.211 Z " fill="#FFFFFF" />
  <path d="M490.841,537.917 C491.145,537.225 491.703,536.697 492.641,536.966 C493.261,537.145 494.152,538.269 495.174,537.523 C495.029,538.022 495.257,538.544 495.713,538.776 C496.169,539.008 496.725,538.885 497.026,538.504 C497.44,538.206 496.847,536.708 496.349,536.175 C497.2,534.967 495.813,534.927 495.478,535.108 C495.061,535.335 493.988,534.951 494.62,533.768 C503.496,537.801 512.486,543.336 521.221,544.742 C521.221,544.742 538.422,547.511 538.422,547.511 C538.422,547.511 560.957,548.115 560.957,548.115 C562.398,548.154 562.98,549.464 562.548,549.991 C562.13,550.501 561.086,551.346 560.331,551.473 C540.376,554.827 519.751,552.412 502.044,543.123 C498.23,541.122 494.852,538.87 490.841,537.917 Z " fill="#FFFFFF" />
  <path d="M819.12,461.088 C810.102,461.225 804.062,463.128 795.757,463.8 C794.627,463.824 794.65,465.382 796.181,465.477 C793.993,465.641 791.322,466.554 788.931,465.925 C788.28,465.387 787.085,465.363 786.754,464.242 C787.508,464.247 788.054,463.776 788.031,463.019 C788.045,462.847 788.034,462.216 787.792,462.065 C787.792,462.065 774.942,461.703 774.942,461.703 C775.497,459.935 776.879,460.124 777.489,460.296 C777.851,460.399 778.288,459.125 777.982,458.884 C777.982,458.884 782.146,458.053 782.146,458.053 C782.246,459.003 782.889,459.176 783.938,459.107 C783.938,459.107 793.876,458.459 793.876,458.459 C794.725,458.404 795.027,458.468 795.56,458.062 C796.062,457.679 796.201,457.506 796.034,456.834 C795.884,456.233 796.407,456.031 796.907,456.014 C799.532,457.332 806.772,456.89 807.755,454.545 C807.755,454.545 815.759,453.693 815.759,453.693 C820.537,452.172 823.446,452.646 826.948,455.829 C827.879,456.676 828.577,457.548 827.998,459.437 C827.865,459.874 823.407,461.023 819.12,461.088 Z " fill="#FFFFFF" />
  <path d="M447.406,414.087 C446.972,414.366 446.149,413.751 446.308,413.468 C446.563,413.012 447.088,412.187 447.267,410.526 C447.267,410.526 443.911,409.228 443.911,409.228 C444.479,404.981 443.945,401.888 442.838,398.138 C444.295,397.844 444.147,399.117 443.89,399.498 C443.686,399.801 444.913,400.361 445.075,400.006 C445.228,401.527 446.273,402.953 445.876,404.709 C445.136,405.139 444.734,405.992 444.96,406.503 C447.913,413.169 451.143,386.962 432.598,371.406 C425.012,365.043 415.528,362.402 406.31,359.99 C405.787,361.176 404.847,360.533 405.212,359.574 C404.041,358.659 400.917,360.286 399.95,357.268 C399.95,357.268 374.154,356.975 374.154,356.975 C373.844,356.518 373.86,356.194 373.92,356.381 C373.92,356.381 402.623,356.477 402.623,356.477 C427.691,359.056 441.375,370.605 449.468,394.511 C451.13,399.42 450.245,409.88 447.406,414.087 Z " fill="#FFFFFF" />
  <path d="M314.861,414.178 C314.861,414.178 292.218,440.441 292.218,440.441 C291.16,440.983 289.901,440.919 290.729,439.099 C290.729,439.099 312.75,411.755 312.75,411.755 C320.912,401.619 330.053,392.722 340.923,385.807 C346.883,382.016 352.52,377.279 360.534,378.302 C355.492,380.916 351.325,382.819 346.932,385.891 C346.932,385.891 334.968,394.258 334.968,394.258 C334.968,394.258 314.861,414.178 314.861,414.178 Z " fill="#FFFFFF" />
  <path d="M586.111,541.129 C586.111,541.129 587.064,538.944 587.064,538.944 C603.181,548.437 620.356,555.348 638.725,559.042 C638.725,559.042 646.37,560.58 646.37,560.58 C650.057,561.321 653.325,561.813 656.509,562.456 C656.509,562.456 672.163,565.616 672.163,565.616 C665.501,566.273 659.523,566.508 653.249,565.488 C629.113,561.566 606.261,553.4 586.111,541.129 Z " fill="#FFFFFF" />
  <path d="M456.957,563.045 C456.791,562.201 456.404,561.605 455.95,560.75 C455.95,560.75 467.035,554.975 467.035,554.975 C478.019,547.783 491.164,545.115 503.942,550.531 C505.997,551.402 508.504,551.941 511.105,552.46 C512.299,552.699 513.305,554.535 516.312,554.152 C517.716,553.974 526.608,556.783 525.664,559.367 C525.473,559.891 523.733,560.581 522.861,560.292 C522.861,560.292 500.098,552.742 500.098,552.742 C492.977,550.38 486.192,549.186 479.279,552.463 C479.279,552.463 456.957,563.045 456.957,563.045 Z " fill="#FFFFFF" />
  <path d="M516.011,434.454 C515.196,435.982 513.549,436.634 513.286,437.978 C513.209,436.743 512.055,436.79 512.072,437.807 C511.782,437.74 510.944,437.781 510.547,437.924 C510.224,438.041 509.977,438.384 509.927,438.809 C493.191,449.801 485.649,467.385 498.268,485.182 C500.097,486.652 497.828,488.224 497.076,486.258 C493.862,481.377 489.3,476.641 488.506,470.481 C486.776,457.069 495.089,443.852 506.804,436.918 C509.772,435.162 513.179,434.882 516.011,434.454 Z " fill="#FFFFFF" />
  <path d="M756.253,555.636 C755.717,555.275 754.946,555.225 754.401,555.644 C753.857,556.063 753.708,556.821 754.043,557.42 C754.621,558.253 755.88,558.155 756.907,557.485 C758.163,557.381 759.391,558.316 758.136,559.074 C758.136,559.074 737.318,561.527 737.318,561.527 C737.318,561.527 716.501,563.256 716.501,563.256 C712.812,563.562 709.535,564.083 706.158,563.961 C705.125,562.736 704.671,561.51 705.121,559.901 C713.269,559.87 721.999,560.689 729.974,558.974 C733.318,558.255 736.331,558.4 740.041,557.885 C740.041,557.885 756.253,555.636 756.253,555.636 Z " fill="#FFFFFF" />
  <path d="M514.898,364.995 C513.989,365.177 513.878,365.869 513.907,366.953 C513.907,366.953 514.21,378.109 514.21,378.109 C514.693,395.911 504.445,380.719 509.698,363.476 C510.31,361.47 510.177,358.569 513.488,358.168 C513.488,358.168 514.898,364.995 514.898,364.995 Z " fill="#FFFFFF" />
  <path d="M477.122,224.993 C484.488,237.328 471.898,237.211 463.789,208.047 C463.575,207.279 465.091,206.758 465.425,207.027 C465.864,207.38 466.892,207.859 467.382,208.68 C467.382,208.68 477.122,224.993 477.122,224.993 Z " fill="#FFFFFF" />
  <path d="M449.303,260.072 C449.303,260.072 431.751,249.276 431.751,249.276 C430.271,248.366 428.816,246.979 429.193,244.791 C437.587,245.622 445.203,250.136 451.19,255.613 C451.267,257.033 451.74,257.763 451.915,258.307 C452.081,258.826 450.546,260.837 449.303,260.072 Z " fill="#FFFFFF" />
  <path d="M595.631,340.443 C595.432,344.096 590.593,341.351 589.123,340.2 C589.123,340.2 574.324,328.621 574.324,328.621 C573.19,327.733 574.228,325.614 575.504,325.846 C576.344,326 578.097,325.981 578.995,326.592 C578.995,326.592 590.022,334.091 590.022,334.091 C591.634,335.187 595.768,337.948 595.631,340.443 Z " fill="#FFFFFF" />
  <path d="M559.002,228.007 C557.303,230.443 555.634,232.615 552.03,233.016 C551.491,230.564 552.057,228.93 553.204,227.214 C557.443,220.871 565.323,209.691 568.029,211.486 C569.024,212.146 569.225,213.348 568.471,214.43 C568.471,214.43 559.002,228.007 559.002,228.007 Z " fill="#FFFFFF" />
  <path d="M471.128,370.561 C470.379,371.665 469.213,372.24 468.565,372.022 C465.147,370.874 469.094,363.718 473.163,357.829 C474.826,355.424 476.972,350.677 481.097,351.142 C482.736,351.327 481.844,354.756 481.027,355.96 C481.027,355.96 471.128,370.561 471.128,370.561 Z " fill="#FFFFFF" />
  <path d="M434.027,301.94 C431.752,299.703 424.419,302.021 417.551,300.394 C417.122,299.316 418.95,298.395 419.107,297.885 C424.483,296.071 432.449,296.013 438.873,295.964 C442.174,295.94 444.57,296.399 445.131,299.91 C441.081,300.906 437.537,301.976 434.027,301.94 Z " fill="#FFFFFF" />
  <path d="M525.022,421.513 C524.262,422.79 523.143,423.608 522.176,423.685 C513.149,418.396 500.995,418.808 492.021,423.876 C492.041,423.659 490.91,422.884 491.118,422.492 C491.395,421.969 491.952,421.168 493.473,420.603 C493.132,420.155 492.331,419.828 491.635,419.675 C495.156,418.02 499.138,417.334 503.633,416.493 C510.734,415.164 518.975,418.127 525.022,421.513 Z " fill="#FFFFFF" />
  <path d="M586.931,254.73 C586.931,254.73 580.943,257.893 580.943,257.893 C580.036,258.371 577.637,258.325 577.233,257.494 C575.89,254.738 586.234,248.356 593.208,245.234 C595.259,244.316 598.007,243.061 600.167,245.409 C595.971,248.823 591.771,252.174 586.931,254.73 Z " fill="#FFFFFF" />
  <path d="M517.871,221.926 C517.407,222.229 515.841,223.274 515.927,223.575 C516.056,224.026 514.138,223.67 514.139,222.701 C514.139,222.701 514.177,199.129 514.177,199.129 C514.179,197.909 515.21,197.356 515.675,197.026 C516.254,196.615 518.062,196.884 518.054,197.939 C518.054,197.939 517.871,221.926 517.871,221.926 Z " fill="#FFFFFF" />
  <path d="M442.957,341.815 C441.598,342.706 439.553,343.404 437.588,342.664 C443.609,333.21 458.371,325.537 458.084,330.444 C458.022,331.501 457.437,332.327 456.18,333.151 C456.18,333.151 442.957,341.815 442.957,341.815 Z " fill="#FFFFFF" />
  <path d="M401.197,552.074 C401.212,551.572 401.056,550.975 399.971,550.412 C399.971,550.412 405.615,549.468 405.615,549.468 C405.615,549.468 410.972,548.312 410.972,548.312 C423.507,547.922 429.963,541.665 430.802,544.556 C431.155,545.77 430.363,546.354 429.173,547.307 C429.173,547.307 416.566,551.481 416.566,551.481 C416.566,551.481 401.197,552.074 401.197,552.074 Z " fill="#FFFFFF" />
  <path d="M525.086,485.507 C519.565,487.886 514.004,485.488 508.976,482.02 C501.79,477.064 497.783,469.301 499.623,460.641 C502.298,476.597 509.794,480.231 525.086,485.507 Z " fill="#FFFFFF" />
  <path d="M783.004,512.335 C782.235,512.477 781.175,512.358 780.553,512.101 C779.871,511.819 779.574,510.363 780.881,510.024 C780.881,510.024 793.771,506.681 793.771,506.681 C793.771,506.681 807.003,504.947 807.003,504.947 C807.805,504.842 808.907,504.97 809.399,505.11 C810.021,505.288 810.372,506.632 809.985,507.408 C809.489,508.402 807.824,507.758 807.097,507.892 C807.097,507.892 783.004,512.335 783.004,512.335 Z " fill="#FFFFFF" />
  <path d="M556.842,356.857 C560.301,358.143 565.65,370.593 562.413,370.829 C561.81,370.873 560.743,370.622 560.138,369.832 C560.138,369.832 555.649,363.96 555.649,363.96 C554.533,362.5 554.442,361.972 553.777,360.137 C553.777,360.137 550.689,351.615 550.689,351.615 C554.443,351.921 554.756,356.081 556.842,356.857 Z " fill="#FFFFFF" />
  <path d="M606.623,292.688 C606.623,292.688 587.392,292.933 587.392,292.933 C585.876,291.442 583.915,291.842 582.169,292.132 C581.885,290.361 581.905,289.615 582.14,287.917 C582.14,287.917 607.497,288.177 607.497,288.177 C608.514,288.187 609.116,289.956 609.074,290.549 C609.016,291.39 608.221,292.667 606.623,292.688 Z M605.086,289.008 C605.086,289.008 583.988,289.209 583.988,289.209 C583.988,289.209 583.986,290.801 583.986,290.801 C583.986,290.801 606.967,290.99 606.967,290.99 C606.911,290.048 605.891,289.001 605.086,289.008 Z " fill="#FFFFFF" />
  <path d="M426.64,373.235 C427.939,373.425 429.145,373.975 430.051,374.935 C430.051,374.935 434.019,379.14 434.019,379.14 C438.193,383.563 441.837,388.313 443.159,394.116 C441.861,393.976 440.878,391.697 440.219,390.81 C436.822,392.564 441.7,396.338 439.262,399.261 C436.496,388.529 428.961,379.995 420.159,373.809 C420.028,373.126 419.003,371.809 419.619,370.639 C420.953,369.047 422.79,370.348 420.822,372.111 C425.922,376.467 430.768,380.63 434.939,385.896 C434.939,385.896 437.407,391.008 437.407,391.008 C438.134,389.95 439.088,390.002 439.496,389.971 C440.15,389.923 436.547,383.411 435.612,382.451 C435.612,382.451 426.64,373.235 426.64,373.235 Z " fill="#FFFFFF" />
  <path d="M711.157,579.946 C711.157,579.946 686.362,579.539 686.362,579.539 C686.362,579.539 669.034,578.557 669.034,578.557 C667.852,578.49 666.813,578.014 666.902,576.892 C668.511,575.575 671.995,577.516 677.374,577.633 C677.374,577.633 701.119,578.152 701.119,578.152 C703.691,578.208 705.998,579.738 709.106,578.871 C709.984,578.626 711.055,579.046 711.157,579.946 Z " fill="#FFFFFF" />
  <path d="M724.754,424.602 C725.642,424.458 726.382,425.802 725.983,425.844 C725.983,425.844 711.382,427.399 711.382,427.399 C705.039,428.074 699.333,428.571 692.801,427.071 C691.168,426.695 687.649,427.417 687.918,424.617 C690.575,425.067 693,426.962 695.825,425.933 C695.664,427.359 696.712,427.405 697.488,427.199 C698.124,427.031 699.113,427.496 699.139,426.027 C706.474,426.177 714.175,426.642 721.37,424.42 C721.37,424.42 724.754,424.602 724.754,424.602 Z " fill="#FFFFFF" />
  <path d="M349.724,449.824 C349.261,453.589 348.373,456.915 349.887,461.117 C349.887,461.117 350.436,468.518 350.436,468.518 C351.835,471.125 351.986,474.109 352.418,476.732 C352.807,477.446 354.44,477.843 354.035,479.587 C353.132,483.484 350.969,479.075 348.781,471.316 C347.99,468.51 346.664,464.781 346.414,462.159 C349.833,455.491 346.054,449.317 349.724,449.824 Z " fill="#FFFFFF" />
  <path d="M444.256,462.247 C444.256,462.247 435.131,467.682 435.131,467.682 C434.819,467.868 434.318,468.089 433.851,467.865 C431.666,469.632 429.14,469.761 426.264,470.523 C424.192,471.073 422.356,473.174 420.207,471.346 C419.37,470.817 417.576,471.817 417.014,469.94 C425.388,469.151 433.487,465.855 440.641,461.877 C442.03,464.037 442.335,461.845 442.32,461.318 C442.304,460.792 443.988,461.763 444.256,462.247 Z " fill="#FFFFFF" />
  <path d="M460.328,543.854 C456.487,546.18 452.302,548.883 447.661,550.468 C447.661,550.468 430.32,556.389 430.32,556.389 C418.431,560.449 405.444,558.725 392.682,558.373 C391.636,558.344 391.216,557.186 391.995,556.593 C407.199,560.132 427.189,557.208 442.088,551.17 C442.088,551.17 455.175,545.866 455.175,545.866 C456.829,545.196 457.93,543.152 460.328,543.854 Z " fill="#FFFFFF" />
  <path d="M593.042,566.372 C593.042,566.372 576.422,567.428 576.422,567.428 C576.422,567.428 568.457,568.575 568.457,568.575 C563.882,569.234 558.982,568.371 553.927,570.166 C553.031,570.484 552.439,571.01 551.498,571.066 C550.666,571.116 549.96,570.982 549.863,569.904 C549.863,569.904 552.307,569.141 552.307,569.141 C557.813,568.122 563.464,566.551 569.361,566.436 C569.361,566.436 593.042,566.372 593.042,566.372 Z " fill="#FFFFFF" />
  <path d="M655.995,583.423 C648.223,582.045 640.682,581.965 631.889,581.796 C630.288,581.766 627.649,579.777 625.433,581.882 C625.433,581.882 620.022,580.114 620.022,580.114 C619.97,579.34 620.28,579.135 620.63,578.968 C621.481,578.563 622.822,579.677 623.362,579.698 C623.362,579.698 641.551,580.418 641.551,580.418 C641.551,580.418 655.155,581.726 655.155,581.726 C656.208,581.827 656.62,582.709 655.995,583.423 Z " fill="#FFFFFF" />
  <path d="M789.97,560.027 C786.46,562.712 783.613,565.941 781.273,570.728 C779.28,569.004 780.731,567.913 781.37,566.047 C778.331,567.522 777.854,569.9 774.902,568.776 C774.902,568.776 777.593,566.308 777.593,566.308 C781.094,563.096 784.977,560.175 789.422,557.125 C790.114,557.626 790.324,559.227 789.97,560.027 Z " fill="#FFFFFF" />
  <path d="M205.016,477.813 C204.734,479.325 202.512,478.402 200.354,479.735 C206.493,483.021 213.539,483.363 221.021,482.9 C222.113,482.833 222.833,482.993 222.995,484.014 C222.995,484.014 216.952,483.994 216.952,483.994 C210.379,483.972 203.743,484.148 198.379,480.846 C197.063,480.035 196.206,479.669 195.905,478.508 C195.691,477.681 195.759,475.87 196.979,476.126 C196.979,476.126 205.016,477.813 205.016,477.813 Z " fill="#FFFFFF" />
  <path d="M786.754,464.242 C787.085,465.363 788.28,465.387 788.931,465.925 C789.138,466.319 788.854,467.312 788.509,467.116 C788.106,466.887 787.138,467.504 786.633,467.563 C786.633,467.563 772.351,469.217 772.351,469.217 C770.233,469.462 770.842,473.917 770.717,474.964 C769.253,472.236 770.138,468.551 770.099,465.25 C770.459,464.872 771.011,464.867 771.288,464.99 C771.22,465.352 772.062,466.139 771.899,466.534 C771.79,466.797 770.505,467.225 771.362,468.669 C776.128,466.191 781.82,464.636 786.754,464.242 Z " fill="#FFFFFF" />
  <path d="M686.993,587.166 C686.575,586.936 685.598,586.768 685.327,587.704 C680.077,586.294 674.051,586.218 668.17,585.596 C664.251,585.181 660.487,583.485 656.883,584.022 C657.013,583.037 657.89,582.818 658.98,582.919 C658.98,582.919 669.146,583.862 669.146,583.862 C674.499,584.359 679.432,585.648 684.857,585.51 C685.636,585.49 686.069,585.648 686.541,585.961 C687.006,586.268 687.223,586.552 686.993,587.166 Z " fill="#FFFFFF" />
  <path d="M424.974,648.165 C424.974,648.165 423.918,645.584 423.918,645.584 C423.918,645.584 434.729,635 434.729,635 C436.395,636.246 439.043,635.722 439.504,634.006 C440.082,634.366 440.436,634.047 440.581,633.676 C440.784,633.158 440.308,632.27 440.67,632.111 C441.729,631.647 442.478,630.88 443.459,630.993 C443.912,631.046 444.165,631.706 443.53,632.009 C443.223,632.156 442.747,633.011 442.358,633.342 C442.358,633.342 424.974,648.165 424.974,648.165 Z " fill="#FFFFFF" />
  <path d="M785.1,518.063 C784.431,517.035 782.871,516.613 781.745,516.69 C781.745,516.69 794.015,514.215 794.015,514.215 C796.673,513.679 799.839,513.605 802.417,514.582 C799.011,517.988 789.838,518.727 785.1,518.063 Z M793.132,515.144 C792.204,516.305 793.485,517.31 794.017,516.64 C794.246,516.351 795.002,515.793 794.954,515.45 C794.862,514.787 793.911,514.17 793.132,515.144 Z " fill="#FFFFFF" />
  <path d="M786.802,413.685 C790.242,406.91 785.766,399.811 785.96,392.273 C790.999,396.227 790.24,401.532 789.942,407.131 C789.804,409.733 791.05,412.639 786.802,413.685 Z " fill="#FFFFFF" />
  <path d="M458.201,299.074 C454.671,293.462 455.803,285.457 457.514,278.789 C459.003,278.941 459.367,279.798 459.082,280.528 C459.082,280.528 458.163,282.885 458.163,282.885 C458.163,282.885 458.201,299.074 458.201,299.074 Z " fill="#FFFFFF" />
  <path d="M522.085,346.179 C518.748,348.449 514.515,348.01 509.989,348.003 C506.498,347.997 503.165,348.518 500.901,346.09 C500.901,346.09 518.594,345.562 518.594,345.562 C520.172,345.515 520.786,345.181 522.085,346.179 Z " fill="#FFFFFF" />
  <path d="M515.788,465.076 C515.788,465.076 522.955,470.288 522.955,470.288 C525.896,472.427 529.693,472.22 531.047,474.899 C530.686,474.971 530.36,474.895 529.995,474.857 C523.042,474.135 516.545,469.83 513.127,463.735 C513.9,464.483 514.982,464.49 515.788,465.076 Z " fill="#FFFFFF" />
  <path d="M695.188,490.941 C687.28,493.915 682.41,492.393 682.365,494.325 C682.365,494.325 682.071,507.022 682.071,507.022 C681.747,507.216 681.144,507.057 681.104,506.794 C681.104,506.794 681.025,492.25 681.025,492.25 C686.225,489.582 690.958,492.327 693.54,490.004 C693.951,489.634 695.339,490.068 695.188,490.941 Z " fill="#FFFFFF" />
  <path d="M819.12,461.088 C819.12,461.088 808.764,463.42 808.764,463.42 C806.766,463.794 804.102,463.503 802.035,464.364 C799.591,465.381 798.208,465.325 796.181,465.477 C794.65,465.382 794.627,463.824 795.757,463.8 C804.062,463.128 810.102,461.225 819.12,461.088 Z " fill="#FFFFFF" />
  <path d="M392.182,363.299 C386.8,362.603 381.36,360.758 375.659,362.63 C375.659,362.63 369.013,363.244 369.013,363.244 C368.772,362.847 369.526,361.166 370.328,361.163 C370.328,361.163 391.684,361.087 391.684,361.087 C391.971,361.086 392.852,362.272 392.969,362.519 C393.095,362.784 392.724,363.38 392.182,363.299 Z " fill="#FFFFFF" />
  <path d="M465.993,496.016 C462.11,498.227 454.579,497.013 448.422,495.569 C443.816,494.49 438.88,494.486 434.753,491.914 C437.865,491.468 440.799,493.543 443.842,493.841 C443.842,493.841 465.993,496.016 465.993,496.016 Z " fill="#FFFFFF" />
  <path d="M777.982,458.884 C778.288,459.125 777.851,460.399 777.489,460.296 C776.879,460.124 775.497,459.935 774.942,461.703 C774.942,461.703 787.792,462.065 787.792,462.065 C788.034,462.216 788.045,462.847 788.031,463.019 C783.394,463.419 778.943,463.739 774.299,463.538 C773.702,463.293 772.056,463.057 772.271,462.412 C772.603,461.413 772.998,459.281 772.973,458.764 C774.556,459.667 776.461,459.188 777.982,458.884 Z " fill="#FFFFFF" />
  <path d="M749.005,588.002 C746.663,588.436 744.27,588.471 741.537,588.607 C741.537,588.607 730.029,589.18 730.029,589.18 C729.713,588.637 730.171,587.99 730.536,588.078 C730.902,588.166 731.915,587.208 732.295,587.205 C732.295,587.205 748.772,587.063 748.772,587.063 C748.98,587.182 749.098,587.764 749.005,588.002 Z " fill="#FFFFFF" />
  <path d="M568.289,519.905 C568.012,520.056 567.291,520.014 566.982,520 C566.267,519.967 563.532,522.431 563.745,523.434 C563.838,523.87 564.727,524 565.206,524.02 C566.738,526.095 569.882,527.567 572.011,528.976 C572.011,528.976 570.185,529.926 570.185,529.926 C568.964,528.784 567.682,527.459 565.958,527.183 C564.087,526.883 563.531,525.118 563.308,523.466 C563.057,521.615 564.036,520.015 566.164,519.126 C567.091,518.74 567.961,518.938 568.289,519.905 Z " fill="#FFFFFF" />
  <path d="M754.748,516.034 C756.824,511.871 756.471,499.03 755.038,497.161 C754.731,496.761 754.264,495.833 754.092,495.402 C753.975,495.108 755.262,494.768 755.499,495.006 C755.72,495.226 756.873,495.813 756.874,496.334 C756.874,496.334 756.901,515.668 756.901,515.668 C756.902,516.005 755.739,516.875 755.479,516.963 C755.213,517.054 754.672,516.561 754.748,516.034 Z " fill="#FFFFFF" />
  <path d="M427.144,562.244 C426.49,562.483 425.783,562.533 425.276,562.156 C424.768,561.779 424.612,561.088 424.902,560.528 C431.536,558.319 440.316,557.03 446.152,554.215 C446.152,554.215 475.217,540.197 475.217,540.197 C475.432,540.84 475.005,541.934 474.416,541.968 C473.919,541.998 472.821,542.186 472.447,542.376 C472.447,542.376 455.172,551.195 455.172,551.195 C445.027,556.373 437.312,557.973 434.361,559.543 C432.564,560.5 428.686,559.799 427.144,562.244 Z " fill="#FFFFFF" />
  <path d="M537.993,440.119 C532.665,437.881 527.619,437.151 522.128,439.268 C520.259,440.125 519.295,438.047 521.389,437.514 C527.322,436.626 533.234,436.411 539.128,438.343 C538.524,438.785 537.975,439.36 537.993,440.119 Z " fill="#FFFFFF" />
  <path d="M444.695,499.363 C441.259,498.206 437.015,498.08 433.522,496.632 C433.522,496.632 423.732,492.575 423.732,492.575 C423.626,492.06 424.11,491.075 424.468,491.036 C424.799,491 425.323,492.214 425.678,492.352 C425.678,492.352 430.903,494.383 430.903,494.383 C430.903,494.383 445.246,498.053 445.246,498.053 C446.317,498.066 445.917,499.551 444.695,499.363 Z " fill="#FFFFFF" />
  <path d="M571.141,280.957 C571.175,281.556 570.713,282.008 570.434,281.879 C569.853,281.61 569.456,281.17 569.544,280.869 C569.644,280.53 569.901,279.664 569.705,279.063 C569.705,279.063 565.327,265.625 565.327,265.625 C565.181,265.311 565.502,264.963 566.31,265.051 C566.31,265.051 568.583,270.464 568.583,270.464 C570.736,275.593 569.56,277.026 571.602,278.808 C572.171,279.305 571.584,280.392 571.141,280.957 Z " fill="#FFFFFF" />
  <path d="M419.107,297.885 C418.95,298.395 417.122,299.316 417.551,300.394 C424.419,302.021 431.752,299.703 434.027,301.94 C434.027,301.94 417.23,301.767 417.23,301.767 C416.193,301.756 415.556,299.185 415.934,298.51 C416.506,297.489 418.279,298.164 419.107,297.885 Z " fill="#FFFFFF" />
  <path d="M626.04,433.997 C620.429,431.312 614.101,432.01 607.889,432.033 C607.687,431.737 607.886,431.073 608.234,431.077 C608.234,431.077 625.919,431.261 625.919,431.261 C625.809,432.355 626.717,433.359 626.952,433.503 C627.177,433.642 626.244,434.177 626.04,433.997 Z " fill="#FFFFFF" />
  <path d="M518.027,424.014 C518.033,424.329 516.951,425.129 517.126,425.528 C517.243,425.794 518.319,426.276 517.715,427.286 C517.508,427.632 516.332,426.822 515.841,427.385 C514.063,426.561 511.761,427.073 509.732,426.653 C511.702,425.655 513.947,426.111 516.012,425.748 C516.012,425.748 516.009,424.29 516.009,424.29 C516.009,424.29 502.76,423.522 502.76,423.522 C507.142,422.658 512.014,422.91 516.735,423.187 C516.735,423.187 518.027,424.014 518.027,424.014 Z " fill="#FFFFFF" />
  <path d="M776.555,432.155 C775.787,431.968 775.658,431.696 775.567,431.45 C775.348,430.857 776.45,429.999 776.971,429.596 C776.106,427.117 775.874,423.422 778.143,421.798 C778.143,421.798 779.946,425.928 779.946,425.928 C779.921,428.621 777.672,430.554 776.555,432.155 Z " fill="#FFFFFF" />
  <path d="M642.857,371.048 C642.857,371.048 642.681,371.958 642.681,371.958 C642.681,371.958 630.265,372.079 630.265,372.079 C630.006,373.072 629.165,372.989 628.962,372.491 C628.758,371.993 628.769,371.553 628.794,371.104 C633.415,369.747 638.25,369.261 642.857,371.048 Z " fill="#FFFFFF" />
  <path d="M294.074,615.961 C294.074,615.961 270.089,615.953 270.089,615.953 C270.017,615.579 270.205,614.999 270.949,614.993 C270.949,614.993 293.717,614.819 293.717,614.819 C294.127,614.816 295.215,613.732 295.529,613.962 C295.939,614.263 296.01,614.848 295.535,615.329 C295.079,615.79 294.717,615.976 294.074,615.961 Z " fill="#FFFFFF" />
  <path d="M421.483,607.934 C417.603,610.762 409.561,611.799 407.023,610.063 C408.741,609.858 410.895,609.949 412.976,609.122 C416.065,607.896 418.908,608.561 421.483,607.934 Z " fill="#FFFFFF" />
  <path d="M626.027,494.013 C623.462,497.568 618.25,495.589 615.264,498.252 C614.667,498.784 614.397,499.192 613.522,499.009 C613.113,498.924 612.856,498.398 612.916,497.977 C612.916,497.977 617.928,495.938 617.928,495.938 C621.061,494.882 623.23,494.469 626.027,494.013 Z " fill="#FFFFFF" />
  <path d="M796.034,456.834 C796.201,457.506 796.062,457.679 795.56,458.062 C795.027,458.468 794.725,458.404 793.876,458.459 C793.876,458.459 783.938,459.107 783.938,459.107 C782.889,459.176 782.246,459.003 782.146,458.053 C785.195,457.444 788.333,457.763 792.137,456.878 C793.563,456.547 794.82,455.655 796.034,456.834 Z " fill="#FFFFFF" />
  <path d="M771.432,455.061 C768.074,455.391 770.657,449.679 768.76,446.332 C768.035,445.051 768.883,444.143 769.008,443.005 C770.628,447.395 772.594,452.435 771.432,455.061 Z " fill="#FFFFFF" />
  <path d="M547.166,575.088 C542.358,576.683 537.294,578.414 531.587,577.811 C532.777,575.914 535.574,577.442 536.499,576.802 C540.004,574.302 543.633,574.912 547.166,575.088 Z " fill="#FFFFFF" />
  <path d="M630.859,455.843 C629.271,453.707 630.676,450.779 629.835,447.968 C629.835,447.968 628.697,444.168 628.697,444.168 C629.019,443.288 628.395,442.299 629.197,440.693 C632.842,444.987 629.463,450.778 632.034,455.166 C632.695,455.694 632.04,457.72 630.859,455.843 Z " fill="#FFFFFF" />
  <path d="M408.949,615.756 C408.949,615.756 387.841,616.045 387.841,616.045 C387.809,615.8 387.795,615.467 388.129,615.008 C388.129,615.008 408.055,614.987 408.055,614.987 C408.801,614.916 409.052,615.576 408.949,615.756 Z " fill="#FFFFFF" />
  <path d="M762.601,417.935 C764.153,412.896 764.743,408.019 762.607,403.044 C763.244,402.732 764.795,403.54 764.795,404.321 C764.795,404.321 764.794,416.672 764.794,416.672 C764.794,417.539 763.097,418.288 762.601,417.935 Z " fill="#FFFFFF" />
  <path d="M282.016,553.978 C282.016,553.978 272.84,556.109 272.84,556.109 C270.425,553.287 275.052,552.934 282.016,553.978 Z " fill="#FFFFFF" />
  <path d="M424.932,403.338 C419.996,401.487 415.013,401.528 409.957,403.173 C409.808,402.31 410.964,401.031 411.904,401.047 C411.904,401.047 423.72,401.242 423.72,401.242 C424.156,401.575 426.226,401.571 424.932,403.338 Z " fill="#FFFFFF" />
  <path d="M634.149,507.304 C635.683,502.929 636.176,498.67 636.147,493.976 C637.059,494.152 637.168,494.904 637.086,495.91 C637.086,495.91 636.075,508.409 636.075,508.409 C635.044,507.94 634.636,507.239 634.149,507.304 Z " fill="#FFFFFF" />
  <path d="M807.755,454.545 C806.772,456.89 799.532,457.332 796.907,456.014 C798.443,455.959 801.211,455.779 802.839,454.851 C805.037,453.597 806.579,454.67 807.755,454.545 Z " fill="#FFFFFF" />
  <path d="M652.098,574.029 C652.234,574.505 651.827,575.139 651.055,575.068 C651.055,575.068 638.948,573.953 638.948,573.953 C638.635,573.329 639.568,572.541 640.088,572.562 C640.088,572.562 643.169,572.616 643.169,572.616 C646.297,573.804 649.221,573.892 652.098,574.029 Z " fill="#FFFFFF" />
  <path d="M466.997,500.018 C466.997,500.018 448.957,500.024 448.957,500.024 C448.126,500.025 447.843,499.489 447.861,499.025 C447.861,499.025 466.053,498.972 466.053,498.972 C466.852,498.969 467.089,499.6 466.997,500.018 Z " fill="#FFFFFF" />
  <path d="M664.9,576.072 C661.016,577.847 654.252,577.563 652.971,574.783 C652.971,574.783 664.9,576.072 664.9,576.072 Z " fill="#FFFFFF" />
  <path d="M636.091,484.988 C636.062,480.182 636.663,475.301 634.442,470.023 C634.442,470.023 635.545,470.108 635.545,470.108 C635.798,470.127 636.691,471.739 636.705,472.292 C636.705,472.292 637.014,484.046 637.014,484.046 C637.036,484.868 636.405,485.103 636.091,484.988 Z " fill="#FFFFFF" />
  <path d="M277.596,548.656 C279.695,547.76 280.671,549.928 278.908,550.711 C278.908,550.711 268.24,550.923 268.24,550.923 C267.985,550.669 267.924,550.208 268.015,550.016 C270.909,550.029 275.134,549.034 277.596,548.656 Z " fill="#FFFFFF" />
  <path d="M386.168,616.047 C382.627,614.874 378.319,614.363 376.914,613.911 C377.112,613.002 377.896,612.817 378.919,612.973 C378.919,612.973 387.066,614.209 387.066,614.209 C386.454,614.889 386.17,615.431 386.168,616.047 Z " fill="#FFFFFF" />
  <path d="M368.116,363.971 C365.006,364.022 362.036,364.905 359.215,366.071 C359.255,363.225 365.954,362.179 368.116,363.971 Z " fill="#FFFFFF" />
  <path d="M571.128,299.186 C571.128,299.186 570.924,285.937 570.924,285.937 C570.907,284.873 570.956,284.181 571.946,283.97 C571.946,283.97 572.037,298.077 572.037,298.077 C572.041,298.803 571.607,299.222 571.128,299.186 Z " fill="#FFFFFF" />
  <path d="M271.21,556.042 C271.21,556.042 255.995,555.883 255.995,555.883 C255.927,555.762 256.016,555.243 256.223,555.076 C256.223,555.076 270.081,554.955 270.081,554.955 C270.886,554.948 271.306,555.424 271.21,556.042 Z " fill="#FFFFFF" />
  <path d="M749.001,499.09 C749.449,501.61 748.541,503.607 748.037,506.037 C746.562,503.684 746.355,499.811 748.139,496.834 C749.33,497.357 749.185,498.364 749.001,499.09 Z " fill="#FFFFFF" />
  <path d="M391.109,555.989 C388.773,558.257 379.734,555.308 376.831,551.92 C378.192,552.282 379.121,552.242 380.348,553.806 C380.91,554.265 383.181,553.916 384.04,553.942 C386.345,555.423 388.686,556.487 391.109,555.989 Z " fill="#FFFFFF" />
  <path d="M227.028,476.588 C229.561,478.594 224.182,480.11 217.995,478.107 C221.128,478.178 224.046,477.335 227.028,476.588 Z " fill="#FFFFFF" />
  <path d="M424.112,561.681 C424.112,561.681 418.007,562.936 418.007,562.936 C417.551,561.42 415.554,562.031 413.966,561.572 C417.195,560.681 421.031,560.474 424.112,561.681 Z " fill="#FFFFFF" />
  <path d="M236.143,480.423 C233.301,481.588 229.134,483.64 226.139,483.446 C224.92,481.887 225.77,481.662 226.622,481.637 C229.293,481.772 231.685,481.528 234.098,479.967 C234.098,479.967 235.497,479.062 235.497,479.062 C235.712,478.923 236.097,479.858 236.143,480.423 Z " fill="#FFFFFF" />
  <path d="M662.988,613.942 C666.614,613.948 670.092,614.478 673.826,613.472 C671.767,613.324 671.128,612.707 671.003,611.923 C671.003,611.923 682.077,610.043 682.077,610.043 C682.077,610.043 734.388,596.584 734.388,596.584 C734.388,596.584 744.461,594.533 744.461,594.533 C744.461,594.533 761.416,592.459 761.416,592.459 C761.416,592.459 772.964,591.888 772.964,591.888 C785.409,591.272 806.385,590.807 801.633,594.146 C801.207,594.445 800.979,594.669 800.146,594.631 C770.02,593.275 740.913,597.97 712.074,605.919 C712.074,605.919 690.979,611.733 690.979,611.733 C690.979,611.733 677.925,614.116 677.925,614.116 C672.754,615.06 667.507,616.043 662.988,613.942 Z " fill="#FFFFFF" />
  <path d="M304.993,613.418 C304.55,613.121 304.459,611.707 304.987,611.562 C304.987,611.562 308.108,610.706 308.108,610.706 C307.359,610.638 306.642,609.278 307.115,608.727 C307.322,608.485 311.277,605.743 314.27,604.942 C312.754,606.925 309.454,606.975 308.338,610.348 C308.338,610.348 326.204,603.251 326.204,603.251 C344.577,595.953 352.46,610.336 366.974,611.941 C368.393,612.097 369.151,612.051 370.395,612.811 C371.013,613.189 372.233,614.138 371.385,615.565 C360.99,614.294 351.165,610.268 342.202,604.813 C338.146,602.345 333.665,603.976 329.558,605.395 C329.558,605.395 310.951,611.828 310.951,611.828 C310.951,611.828 304.993,613.418 304.993,613.418 Z " fill="#FFFFFF" />
  <path d="M568.289,519.905 C567.961,518.938 567.091,518.74 566.164,519.126 C564.036,520.015 563.057,521.615 563.308,523.466 C563.531,525.118 564.087,526.883 565.958,527.183 C565.547,529.579 567.081,530.583 568.861,532.148 C576.739,539.079 584.263,545.85 593.996,550.776 C593.996,550.776 600.141,554.823 600.141,554.823 C600.141,554.823 623.288,566.518 623.288,566.518 C622.416,566.637 621.766,567.585 621.915,568.314 C622.016,568.809 622.81,569.287 622.742,569.785 C622.742,569.785 620.46,571.228 620.46,571.228 C619.888,571.59 618.993,570.758 618.688,570.289 C618.999,570.156 619.427,570.142 620.03,569.67 C618.186,566.753 614.785,566.502 611.994,565.233 C609.598,564.144 608.092,561.597 605.51,562.006 C605.667,561.857 605.191,562.281 604.93,562.59 C604.93,562.59 616.665,570.182 616.665,570.182 C616.665,570.182 628.005,576.764 628.005,576.764 C629.887,575.987 628.831,574.345 627.317,575.062 C626.352,574.743 625.221,574.341 624.992,573.696 C624.854,573.308 625.849,572.509 626.332,572.141 C626.665,571.887 627.061,572.254 627.497,572.665 C627.537,571.09 627.206,570.513 626.536,570.034 C625.203,571.451 624.189,570.079 623.985,569.412 C623.698,568.472 624.342,567.777 625.277,567.583 C629.551,570.884 634.907,571.743 640.088,572.562 C639.568,572.541 638.635,573.329 638.948,573.953 C638.948,573.953 651.055,575.068 651.055,575.068 C651.827,575.139 652.234,574.505 652.098,574.029 C652.694,574.058 652.815,574.443 652.971,574.783 C654.252,577.563 661.016,577.847 664.9,576.072 C664.9,576.072 666.423,576.031 666.423,576.031 C666.723,576.023 666.939,576.432 666.902,576.892 C666.813,578.014 667.852,578.49 669.034,578.557 C669.034,578.557 686.362,579.539 686.362,579.539 C686.362,579.539 711.157,579.946 711.157,579.946 C716.771,580.038 721.322,580.574 721.987,577.63 C722.624,577.484 722.932,576.551 723.905,576.541 C723.842,578.735 724.9,580.139 725.74,580.493 C727.146,581.084 728.731,580.396 730.667,578.766 C731.869,580.186 733.035,581.73 735.543,581.004 C737.005,580.581 738.253,579.362 739.742,577.647 C739.742,577.647 740.85,576.372 740.85,576.372 C741.485,575.641 743.24,576.283 742.951,576.772 C742.03,578.329 741.625,579.331 742.153,580.39 C742.598,581.282 745.402,581.524 745.617,580.55 C746.559,576.296 754.105,571.902 751.558,571.329 C751.091,571.223 750.755,571.744 749.839,572.257 C750.079,571.413 751.28,570.169 752.171,568.617 C752.438,568.159 753.295,569.196 753.686,568.839 C754.295,568.282 754.003,566.375 753.484,566.46 C753.135,566.517 752.501,567.022 752.017,567.176 C753.939,564.478 757.747,562.414 758.136,559.074 C759.391,558.316 758.163,557.381 756.907,557.485 C755.88,558.155 754.621,558.253 754.043,557.42 C753.708,556.821 753.857,556.063 754.401,555.644 C754.946,555.225 755.717,555.275 756.253,555.636 C756.253,555.636 761.838,554.991 761.838,554.991 C762.027,555.954 762.362,557.408 762.117,558.385 C761.58,560.526 759.426,562.327 760.033,564.764 C760.136,565.527 760.317,566.58 759.549,567.038 C759.549,567.038 756.432,568.895 756.432,568.895 C757.608,570.704 758.386,569.268 759.205,569.211 C759.205,569.211 749.956,578.912 749.956,578.912 C749.587,579.299 751.083,581.098 751.61,581.035 C754.284,580.713 755.45,577.568 760.36,573.571 C760.36,573.571 763.748,570.813 763.748,570.813 C764.167,572.44 763.246,573.399 763.163,574.377 C763.163,574.377 760.365,577.331 760.365,577.331 C759.711,578.021 759.425,577.899 759.13,578.589 C758.806,579.348 760.042,580.983 761.183,579.96 C761.183,579.96 766.157,575.498 766.157,575.498 C766.157,575.498 770.961,571.76 770.961,571.76 C770.436,573.331 769.892,573.997 770.107,575.215 C768.514,576.062 767.629,577.624 766.235,579.624 C768.611,580.41 771.319,579.836 773.204,578.323 C773.498,578.088 773.914,578.059 773.993,577.477 C773.993,577.477 774.169,576.184 774.169,576.184 C774.169,576.184 777.833,572.223 777.833,572.223 C778.189,570.323 779.14,570.727 779.957,571.411 C780.336,571.728 780.741,572.277 780.999,572.833 C780.299,574.674 777.918,575.554 778.028,577.856 C776.574,577.98 777.175,578.823 777.542,579.123 C780.564,581.589 783.088,579.382 785.308,581.047 C780.696,584.25 775.125,582.133 770.688,583.412 C759.911,586.52 754.806,583.425 754.015,587.072 C754.015,587.072 749.005,588.002 749.005,588.002 C749.098,587.764 748.98,587.182 748.772,587.063 C748.772,587.063 732.295,587.205 732.295,587.205 C731.915,587.208 730.902,588.166 730.536,588.078 C730.171,587.99 729.713,588.637 730.029,589.18 C730.029,589.18 721.211,590.418 721.211,590.418 C721.211,590.418 693.806,598.204 693.806,598.204 C698.63,594.243 706.832,596.786 709.529,587.797 C709.529,587.797 689.214,587.053 689.214,587.053 C689.038,587.379 688.992,587.794 689.023,587.893 C688.662,587.854 688.142,587.845 687.594,587.956 C687.282,588.02 686.793,587.699 686.993,587.166 C687.223,586.552 687.006,586.268 686.541,585.961 C686.069,585.648 685.636,585.49 684.857,585.51 C679.432,585.648 674.499,584.359 669.146,583.862 C669.146,583.862 658.98,582.919 658.98,582.919 C657.89,582.818 657.013,583.037 656.883,584.022 C656.482,584.082 655.806,583.646 655.995,583.423 C656.62,582.709 656.208,581.827 655.155,581.726 C655.155,581.726 641.551,580.418 641.551,580.418 C641.551,580.418 623.362,579.698 623.362,579.698 C622.822,579.677 621.481,578.563 620.63,578.968 C620.28,579.135 619.97,579.34 620.022,580.114 C616.056,578.817 613.323,577.197 609.968,576.773 C610.789,576.064 610.864,575.415 610.573,574.948 C610.285,574.484 609.713,574.206 609.006,574 C609.006,574 603.429,572.368 603.429,572.368 C599.561,571.236 595.146,572.127 591.166,572.128 C591.166,572.128 559.002,572.135 559.002,572.135 C559.578,573.906 561.202,573.311 560.944,574.124 C557.252,573.58 552.261,573.853 548.718,575.634 C548.374,575.774 547.557,575.107 547.166,575.088 C543.633,574.912 540.004,574.302 536.499,576.802 C535.574,577.442 532.777,575.914 531.587,577.811 C532.407,580.116 528.635,580.085 527.163,580.012 C499.348,587.519 477.148,599.727 454.143,615.05 C440.664,624.028 427.781,632.544 416.114,643.964 C416.114,643.964 408.942,649.982 408.942,649.982 C408.942,649.982 395.978,662.929 395.978,662.929 C395.241,663.665 395.112,664.512 393.592,663.899 C393.034,663.674 393.212,663.168 393.344,662.747 C393.344,662.747 393.952,660.798 393.952,660.798 C396.605,657.447 400.528,655.428 402.176,651.519 C402.307,651.621 401.919,651.315 401.461,650.919 C400.638,652.099 399.928,653.205 397.852,653.774 C398.733,651.769 400.097,649.502 401.852,647.775 C401.852,647.775 424.917,625.088 424.917,625.088 C424.917,625.088 434.402,617.279 434.402,617.279 C434.402,617.279 452.929,604.901 452.929,604.901 C470.181,593.375 489.415,585.716 509.201,579.238 C511.568,578.462 513.697,577.405 515.817,578 C516.238,578.118 524.277,576.998 529.593,575.518 C529.593,575.518 537.195,573.4 537.195,573.4 C539.48,572.764 544.082,572.613 545.931,571.231 C546.586,570.742 549.191,572.062 549.017,570.046 C549.277,570.089 549.624,569.967 549.863,569.904 C549.96,570.982 550.666,571.116 551.498,571.066 C552.439,571.01 553.031,570.484 553.927,570.166 C558.982,568.371 563.882,569.234 568.457,568.575 C568.457,568.575 576.422,567.428 576.422,567.428 C576.422,567.428 593.042,566.372 593.042,566.372 C594.234,566.296 596.122,566.809 597.374,564.884 C580.341,554.359 566.484,540.461 555.148,523.806 C555.148,523.806 556.556,516.497 556.556,516.497 C562.856,513.081 568.123,510.855 574.105,509.05 C574.105,509.05 604.971,499.735 604.971,499.735 C607.661,498.923 610.353,497.368 612.916,497.977 C612.856,498.398 613.113,498.924 613.522,499.009 C614.397,499.192 614.667,498.784 615.264,498.252 C618.25,495.589 623.462,497.568 626.027,494.013 C626.027,494.013 633.674,492.767 633.674,492.767 C633.714,494.536 632.3,497.237 630.103,497.951 C630.103,497.951 616.95,502.222 616.95,502.222 C614.34,503.069 610.805,503.619 608.536,504.584 C604.437,506.328 600.8,507.417 596.823,508.868 C596.823,508.868 572.879,517.601 572.879,517.601 C570.956,518.302 569.446,518.742 568.289,519.905 Z M600.832,558.575 C600.496,557.229 598.271,557.558 599.514,559.223 C600.818,560.679 602.764,562.237 605.277,560.75 C605.277,560.75 602.406,559.911 602.406,559.911 C602.031,559.802 602.932,558.36 600.832,558.575 Z M597.594,568.438 C599.55,568.433 599.415,566.001 598.049,566.356 C596.122,566.3 595.468,568.071 597.594,568.438 Z " fill="#FFFFFF" />
  <path d="M674.261,533.087 C674.261,533.087 677.167,524.546 677.167,524.546 C677.84,522.823 676.91,518.978 679.024,518.042 C680.371,520.759 676.138,531.34 674.261,533.087 Z " fill="#FFFFFF" />
  <path d="M660.023,494.141 C660.023,494.141 656.775,489.435 656.775,489.435 C655.087,492.106 656.526,494.795 656.035,497.067 C654.557,496.014 654.259,490.154 656.168,489.476 C659.442,488.313 659.822,492.36 660.023,494.141 Z " fill="#FFFFFF" />
  <path d="M556.842,356.857 C554.756,356.081 554.443,351.921 550.689,351.615 C550.689,351.615 553.777,360.137 553.777,360.137 C553.084,360.323 552.418,360.126 551.984,359.031 C551.984,359.031 549.173,351.944 549.173,351.944 C548.677,350.695 549.644,349.425 550.604,349.23 C551.971,348.952 556.032,353.651 556.842,356.857 Z " fill="#FFFFFF" />
  <path d="M549.017,570.046 C549.191,572.062 546.586,570.742 545.931,571.231 C544.082,572.613 539.48,572.764 537.195,573.4 C537.195,573.4 529.593,575.518 529.593,575.518 C524.277,576.998 516.238,578.118 515.817,578 C516.697,575.63 524.906,574.919 525.057,574.99 C525.949,575.414 527.818,575.259 527.998,574.033 C527.998,574.033 538.117,571.759 538.117,571.759 C541.689,570.957 545.47,569.469 549.017,570.046 Z " fill="#FFFFFF" />
  <path d="M699.139,426.027 C699.113,427.496 698.124,427.031 697.488,427.199 C696.712,427.405 695.664,427.359 695.825,425.933 C695.825,425.933 699.139,426.027 699.139,426.027 Z " fill="#FFFFFF" />
  <path d="M630.172,467.149 C630.172,467.149 630.539,468.069 630.539,468.069 C630.787,468.693 629.48,469.305 628.626,468.366 C619.237,472.553 605.43,472.543 600.116,465.602 C607.112,470.152 616.196,471.529 624.378,468.41 C624.378,468.41 630.172,467.149 630.172,467.149 Z " fill="#FFFFFF" />
  <path d="M527.998,574.033 C527.818,575.259 525.949,575.414 525.057,574.99 C525.309,573.309 527.094,574.236 527.998,574.033 Z " fill="#FFFFFF" />
  <path d="M565.206,524.02 C564.727,524 563.838,523.87 563.745,523.434 C563.532,522.431 566.267,519.967 566.982,520 C566.071,521.372 564.699,522.292 565.206,524.02 Z " fill="#FFFFFF" />
  <path d="M373.92,356.381 C373.86,356.194 373.844,356.518 374.154,356.975 C374.154,356.975 399.95,357.268 399.95,357.268 C400.917,360.286 404.041,358.659 405.212,359.574 C403.995,359.45 403.418,360.975 404.607,361.372 C413.025,364.239 421.087,367.533 426.64,373.235 C426.64,373.235 435.612,382.451 435.612,382.451 C436.547,383.411 440.15,389.923 439.496,389.971 C439.088,390.002 438.134,389.95 437.407,391.008 C437.407,391.008 434.939,385.896 434.939,385.896 C430.768,380.63 425.922,376.467 420.822,372.111 C422.79,370.348 420.953,369.047 419.619,370.639 C419.003,371.809 420.028,373.126 420.159,373.809 C412.025,368.093 402.205,364.595 392.182,363.299 C392.724,363.38 393.095,362.784 392.969,362.519 C392.852,362.272 391.971,361.086 391.684,361.087 C391.684,361.087 370.328,361.163 370.328,361.163 C369.526,361.166 368.772,362.847 369.013,363.244 C369.098,363.749 368.553,363.964 368.116,363.971 C365.954,362.179 359.255,363.225 359.215,366.071 C359.215,366.071 351.868,369.111 351.868,369.111 C341.907,373.231 323.612,387.31 315.901,397.144 C315.901,397.144 279.996,442.939 279.996,442.939 C279.996,442.939 268.853,455.834 268.853,455.834 C259.544,466.608 248.971,475.163 236.143,480.423 C236.097,479.858 235.712,478.923 235.497,479.062 C235.497,479.062 234.098,479.967 234.098,479.967 C231.685,481.528 229.293,481.772 226.622,481.637 C225.77,481.662 224.92,481.887 226.139,483.446 C226.139,483.446 222.995,484.014 222.995,484.014 C222.833,482.993 222.113,482.833 221.021,482.9 C213.539,483.363 206.493,483.021 200.354,479.735 C202.512,478.402 204.734,479.325 205.016,477.813 C205.016,477.813 217.995,478.107 217.995,478.107 C224.182,480.11 229.561,478.594 227.028,476.588 C234.891,474.616 241.824,470.682 248.419,465.404 C255.162,460.009 261.612,454.822 266.975,447.902 C266.975,447.902 286.173,423.134 286.173,423.134 C286.173,423.134 290.285,417.374 290.285,417.374 C290.285,417.374 301.068,401.828 301.068,401.828 C316.163,383.923 334.507,369.812 356.123,361.011 C361.641,358.764 368.159,356.362 373.92,356.381 Z " fill="#FFFFFF" />
  <path d="M564.538,477.149 C565.036,476.525 565.162,476.277 565.5,476.023 C565.893,475.728 565.704,474.675 565.483,474.953 C564.807,475.803 564.094,475.568 563.44,474.887 C572.69,468.651 584.404,467.784 594.043,475.085 C594.043,475.085 596.002,476.568 596.002,476.568 C596.908,477.254 595.685,479.355 595.166,478.971 C592.129,476.728 588.956,476.435 586.233,475.109 C579.246,471.708 570.749,473.389 564.538,477.149 Z " fill="#FFFFFF" />
  <path d="M439.262,399.261 C441.7,396.338 436.822,392.564 440.219,390.81 C440.878,391.697 441.861,393.976 443.159,394.116 C443.849,395.768 444.879,398.058 445.075,400.006 C444.913,400.361 443.686,399.801 443.89,399.498 C444.147,399.117 444.295,397.844 442.838,398.138 C443.945,401.888 444.479,404.981 443.911,409.228 C443.911,409.228 447.267,410.526 447.267,410.526 C447.088,412.187 446.563,413.012 446.308,413.468 C446.149,413.751 446.972,414.366 447.406,414.087 C447.406,414.087 443.642,419.665 443.642,419.665 C442.228,421.761 440.551,420.86 439.361,420.31 C437.168,419.296 436.923,407.833 424.932,403.338 C426.226,401.571 424.156,401.575 423.72,401.242 C423.72,401.242 411.904,401.047 411.904,401.047 C410.964,401.031 409.808,402.31 409.957,403.173 C398.696,406.526 390.905,414.901 386.884,426.179 C385.527,429.983 385.321,435.843 386.848,439.743 C390.875,450.032 395.172,459.555 401.082,468.893 C406.549,469.153 410.713,470.534 417.014,469.94 C417.576,471.817 419.37,470.817 420.207,471.346 C419.085,476.394 423.998,472.537 431.804,471.861 C431.804,471.861 433.93,470.225 433.93,470.225 C434.208,470.219 434.81,470.317 435.151,470.164 C439.085,468.397 442.243,465.76 445.92,462.615 C445.624,461.813 444.606,461.96 444.256,462.247 C443.988,461.763 442.304,460.792 442.32,461.318 C442.335,461.845 442.03,464.037 440.641,461.877 C440.503,460.337 442.308,460.687 443.129,460.231 C451.794,455.416 458.702,448.485 465.443,441.429 C465.443,441.429 473.756,432.729 473.756,432.729 C479.11,427.124 484.957,422.815 491.635,419.675 C492.331,419.828 493.132,420.155 493.473,420.603 C491.952,421.168 491.395,421.969 491.118,422.492 C490.91,422.884 492.041,423.659 492.021,423.876 C492.021,423.876 488.996,425.025 488.996,425.025 C485.338,426.413 482.752,429.168 479.88,432.008 C479.88,432.008 492.888,425.997 492.888,425.997 C496.32,424.411 499.607,424.144 502.76,423.522 C502.76,423.522 516.009,424.29 516.009,424.29 C516.009,424.29 516.012,425.748 516.012,425.748 C513.947,426.111 511.702,425.655 509.732,426.653 C508.617,427.217 506.233,427.144 504.608,427.444 C485.088,431.047 474.799,441.202 461.266,454.162 C461.266,454.162 446.973,467.85 446.973,467.85 C437.815,476.621 425.651,479.261 411.209,477.747 C417.863,485.566 427.291,487.264 434.753,491.914 C438.88,494.486 443.816,494.49 448.422,495.569 C454.579,497.013 462.11,498.227 465.993,496.016 C465.993,496.016 472.867,495.943 472.867,495.943 C472.867,495.943 470.947,499.464 470.947,499.464 C470.947,499.464 466.997,500.018 466.997,500.018 C467.089,499.6 466.852,498.969 466.053,498.972 C466.053,498.972 447.861,499.025 447.861,499.025 C446.602,499.29 445.982,499.796 444.695,499.363 C445.917,499.551 446.317,498.066 445.246,498.053 C445.246,498.053 430.903,494.383 430.903,494.383 C430.903,494.383 425.678,492.352 425.678,492.352 C425.323,492.214 424.799,491 424.468,491.036 C424.11,491.075 423.626,492.06 423.732,492.575 C406.287,484.244 382.86,466.745 379.902,447.155 C380.197,446.74 380.127,445.994 379.953,446.047 C380.508,443.831 380.327,440.607 379.718,438.158 C379.149,438.243 377.927,439.055 377.38,438.818 C375.515,438.012 377.765,434.297 375.905,433.784 C380.206,420.407 388.255,407.018 400.5,398.396 C403.797,398.629 407.524,397.793 411.108,396.332 C413.231,395.466 423.73,396.541 419.421,394.333 C419.421,394.333 418.41,393.815 418.41,393.815 C418.287,392.819 417.52,391.999 416.476,392.053 C415.728,392.091 414.759,392.462 413.782,391.275 C415.811,391.073 417.425,391.325 418.187,390.211 C428.856,394.156 437.524,401.129 438.901,413.464 C440.499,408.454 440.581,403.31 439.262,399.261 Z M388.022,447.023 C386.17,445.028 386.048,443.333 385.338,440.982 C384.913,449.21 386.518,455.44 392.341,461.125 C392.333,456.157 388.046,451.433 388.022,447.023 Z M411.848,476.864 C411.848,476.32 411.407,475.879 410.864,475.879 C410.32,475.879 409.879,476.32 409.879,476.864 C409.879,477.407 410.32,477.848 410.864,477.848 C411.407,477.848 411.848,477.407 411.848,476.864 Z " fill="#FFFFFF" />
  <path d="M589.84,460.007 C589.832,460.126 589.817,460.404 589.616,460.838 C583.12,457.628 575.523,458.155 568.944,462.082 C568.944,462.082 567.466,462.964 567.466,462.964 C566.794,463.366 565.738,462.874 565.936,462.263 C574.01,457.201 576.992,457.603 587.676,458.107 C588.275,458.696 589.207,460.009 589.84,460.007 Z " fill="#FFFFFF" />
  <path d="M627.633,597.481 C627.633,597.481 624.679,597.139 624.679,597.139 C624.158,596.972 623.284,598.227 623.116,599.042 C623.116,599.042 605.705,593.358 605.705,593.358 C603.482,592.632 600.511,591.627 598.09,591.024 C598.09,591.024 589.276,588.832 589.276,588.832 C577.119,585.808 560.991,584.648 549.322,587.084 C549.322,587.084 540.8,588.864 540.8,588.864 C525.618,593.925 511.847,600.93 498.337,608.64 C497.057,608.065 496.78,606.924 497.264,606.012 C497.264,606.012 506.838,600.799 506.838,600.799 C506.838,600.799 527.163,590.386 527.163,590.386 C527.934,589.992 529.523,589.936 530.456,590.189 C530.895,590.307 530.972,588.917 530.521,588.257 C515.94,591.581 501.793,596.333 487.905,603.491 C485.489,603.143 486.125,601.716 488.041,601.144 C503.907,591.028 526.749,584.223 544.701,582.628 C559.146,581.344 578.72,580.856 591.404,584.675 C591.404,584.675 603.046,588.18 603.046,588.18 C603.046,588.18 627.633,597.481 627.633,597.481 Z " fill="#FFFFFF" />
  <path d="M505.968,465.754 C505.812,465.155 504.835,464.318 504.086,463.737 C504.197,459.037 503.261,454.277 504.683,450.065 C504.432,455.219 504.824,460.662 506.792,465.577 C506.792,465.577 505.968,465.754 505.968,465.754 Z " fill="#FFFFFF" />
  <path d="M616.116,425.444 C615.599,424.769 614.722,425.158 615.057,426.002 C615.057,426.002 627.155,426.207 627.155,426.207 C627.155,426.207 636.069,427.979 636.069,427.979 C635.016,430.464 632.791,430.328 630.967,429.972 C631.129,429.799 631.181,428.359 630.804,428.092 C630.804,428.092 617.003,428.322 617.003,428.322 C615.683,428.344 614.508,427.472 614.014,426.581 C613.753,426.109 613.946,425.055 614.399,424.363 C614.712,423.883 616.279,423.378 616.116,425.444 Z " fill="#FFFFFF" />
  <path d="M674.621,516.959 C674.621,516.959 678.182,486.922 678.182,486.922 C679.714,492.081 679.168,497.792 677.36,503.437 C677.36,503.437 676.631,514.615 676.631,514.615 C676.55,515.859 676.493,515.967 676.812,516.554 C677.038,516.968 674.745,517.265 674.621,516.959 Z " fill="#FFFFFF" />
  <path d="M740.043,429.946 C740.043,429.946 720.413,430.398 720.413,430.398 C720.413,430.398 715.972,431.157 715.972,431.157 C715.634,430.588 716.176,429.909 716.525,430.047 C717.004,430.236 717.972,429.627 718.332,429.088 C718.332,429.088 739.016,428.957 739.016,428.957 C739.893,428.951 740.132,429.599 740.043,429.946 Z " fill="#FFFFFF" />
  <path d="M766.756,519.248 C766.756,519.248 769.321,511.17 769.321,511.17 C770.21,508.389 770.412,505.442 771.13,502.809 C772.064,504.379 772.795,507.571 772.005,508.931 C769.323,513.457 769.553,517.826 766.756,519.248 Z " fill="#FFFFFF" />
  <path d="M712.901,432.048 C712.901,432.048 692.96,431.838 692.96,431.838 C692.759,431.594 693.099,430.842 693.957,430.999 C693.957,430.999 712.066,430.982 712.066,430.982 C712.778,430.935 712.99,431.586 712.901,432.048 Z " fill="#FFFFFF" />
  <path d="M666.035,500 C663.502,497.028 663.958,493.249 662.944,488.915 C662.587,487.387 660.06,485.469 662.377,483.682 C663.422,486.962 665.195,490.597 665.337,494.346 C665.41,496.265 666.509,498.035 666.035,500 Z " fill="#FFFFFF" />
  <path d="M639.038,378.082 C639.038,378.082 631.996,377.994 631.996,377.994 C632.222,377.284 630.608,377.953 629.975,376.27 C629.975,376.27 642.045,376.273 642.045,376.273 C641.469,377.892 640.098,377.139 639.629,376.986 C639.242,376.859 638.724,377.504 639.038,378.082 Z " fill="#FFFFFF" />
  <path d="M634.391,439.189 C634.391,439.189 636.337,444.617 636.337,444.617 C636.327,445.131 635.648,445.949 635.319,445.786 C633.804,444.322 633.499,442.264 633.194,439.678 C632.4,439.114 631.076,438.255 632.428,437.018 C633.178,436.297 634.38,436.522 634.801,437.439 C635.069,438.023 634.924,438.713 634.391,439.189 Z " fill="#FFFFFF" />
  <path d="M649.338,475.113 C649.338,475.113 646.816,474.016 646.816,474.016 C646.816,474.016 649.527,466.837 649.527,466.837 C650.49,470.036 650.008,472.615 649.338,475.113 Z " fill="#FFFFFF" />
  <path d="M641.678,502.704 C641.233,502.746 640.869,502.899 640.456,503.26 C638.263,501.081 641.686,498.965 641.369,494.643 C641.95,495.912 643.562,497.694 643.508,499.855 C642.988,499.693 640.93,500.053 641.112,501.093 C641.203,501.614 641.328,502.237 641.678,502.704 Z " fill="#FFFFFF" />
  <path d="M644.85,517.314 C643.499,517.178 643.473,514.091 644.802,514.087 C645.956,514.084 646.779,513.931 646.99,513.517 C647.188,513.126 647.157,512.109 645.943,511.511 C647.644,510.386 648.28,508.969 648.086,507.066 C649.16,507.176 649.073,507.876 649.068,508.512 C649.062,509.305 648.728,509.769 648.094,510.3 C647.898,512.237 648.446,514.353 647.526,516.092 C645.812,515.381 644.91,516.309 644.85,517.314 Z " fill="#FFFFFF" />
  <path d="M676.282,400.297 C677.044,402.725 674.96,403.599 674.992,402.443 C675.017,401.527 675.112,400.782 674.754,399.465 C675.121,396.969 677.11,399.111 676.282,400.297 Z " fill="#FFFFFF" />
  <path d="M641.336,494.359 C640.305,492.656 641.953,490.249 641.58,488.668 C640.844,485.542 640.385,482.186 641.707,479.809 C642.123,482.103 641.366,484.934 642.62,487.221 C643.467,487.867 644.411,488.718 644.036,490.434 C643.896,491.074 642.63,490.498 641.992,490.245 C642.283,492.77 641.933,493.494 641.336,494.359 Z " fill="#FFFFFF" />
  <path d="M643.038,414.724 C643.02,414.463 642.765,413.976 642.008,413.76 C642.008,413.76 642.402,397.944 642.402,397.944 C642.402,397.944 643.038,414.724 643.038,414.724 Z " fill="#FFFFFF" />
  <path d="M760.233,429.346 C765.513,422.993 767.96,414.879 766.855,405.986 C766.724,404.931 767.053,404.134 767.79,404.042 C768.942,414.892 767.89,422.133 760.233,429.346 Z " fill="#FFFFFF" />
  <path d="M600.832,558.575 C602.932,558.36 602.031,559.802 602.406,559.911 C602.406,559.911 605.277,560.75 605.277,560.75 C602.764,562.237 600.818,560.679 599.514,559.223 C598.271,557.558 600.496,557.229 600.832,558.575 Z " fill="#FFFFFF" />
  <path d="M775.622,565.9 C774.787,567.046 772.834,568.296 772.756,570.088 C772.756,570.088 772.624,573.15 772.624,573.15 C772.575,574.291 771.061,574.708 770.107,575.215 C769.892,573.997 770.436,573.331 770.961,571.76 C770.961,571.76 766.157,575.498 766.157,575.498 C765.914,574.359 766.643,573.292 767.726,572.211 C765.86,572.551 764.296,573.181 763.163,574.377 C763.246,573.399 764.167,572.44 763.748,570.813 C763.748,570.813 760.36,573.571 760.36,573.571 C759.89,573.14 759.854,572.652 760.049,572.327 C760.373,571.784 762.195,571.816 762.297,571.244 C762.859,567.683 767.013,565.481 765.183,563.922 C765.097,563.513 764.925,562.778 763.874,562.745 C764.748,561.669 767.031,562.946 770.322,558.602 C767.578,557.358 764.655,558.008 762.117,558.385 C762.362,557.408 762.027,555.954 761.838,554.991 C761.838,554.991 770.893,553.706 770.893,553.706 C770.893,553.706 800.502,548.526 800.502,548.526 C800.502,548.526 815.669,547.001 815.669,547.001 C816.048,546.963 817.332,548.215 817.167,548.545 C817.002,548.875 816.448,549.794 815.753,549.936 C815.753,549.936 798.509,553.462 798.509,553.462 C798.509,553.462 783.465,555.141 783.465,555.141 C783.465,555.141 775.622,565.9 775.622,565.9 Z M768.631,565.886 C768.631,565.886 779.231,556.299 779.231,556.299 C772.965,554.739 771.336,558.911 768.631,565.886 Z " fill="#FFFFFF" />
  <path d="M754.015,587.072 C754.806,583.425 759.911,586.52 770.688,583.412 C775.125,582.133 780.696,584.25 785.308,581.047 C783.088,579.382 780.564,581.589 777.542,579.123 C777.175,578.823 776.574,577.98 778.028,577.856 C777.821,578.25 778.342,578.957 778.536,578.765 C779.091,578.217 780.138,578.406 780.812,578.331 C780.812,578.331 787.613,577.57 787.613,577.57 C786.797,577.361 785.01,576.92 784.918,575.668 C784.863,574.911 785.554,574.18 786.13,573.391 C787.985,571.82 790.153,569.26 789.137,566.08 C789.137,566.08 795.93,559.752 795.93,559.752 C796.705,559.03 797.367,559.547 797.58,559.938 C797.831,560.4 797.994,560.944 798.212,561.409 C798.212,561.409 795.965,564.91 795.965,564.91 C795.283,565.973 794.737,566.166 794.252,566.466 C792.945,567.274 794.304,568.259 794.921,568.413 C795.224,568.489 795.859,569.184 795.778,567.825 C801.101,564.238 804.723,557.108 807.036,558.439 C807.669,558.803 808.255,560.03 807.688,560.818 C807.688,560.818 800.17,571.244 800.17,571.244 C799.611,571.498 798.051,571.675 798.489,572.795 C798.629,573.152 798.737,574.468 798.157,574.743 C796.1,575.721 795.352,573.919 795.808,572.52 C796.103,571.617 796.126,571.285 797.346,570.102 C794.691,570.168 793.604,569.477 792.287,567.991 C791.79,571.86 790.958,574.349 787.371,577.383 C792.528,578.632 797.349,578.383 800.346,575.992 C796.868,572.383 806.955,570.562 807.471,572.753 C808.033,575.14 801.824,572.363 800.933,576.028 C807.301,577.163 812.866,572.149 819.287,574.584 C818.039,577.729 815.61,577.993 813.401,578.481 C813.401,578.481 805.181,580.299 805.181,580.299 C795.674,582.4 784.999,583.398 775.473,584.527 C775.473,584.527 754.015,587.072 754.015,587.072 Z " fill="#FFFFFF" />
  <path d="M496.379,336.778 C506.737,341.102 519.15,340.766 530.179,338.229 C530.424,338.503 529.768,340.778 528.667,340.796 C528.667,340.796 504.002,341.216 504.002,341.216 C503.627,342.824 503.375,345.187 503.269,342.929 C503.269,342.929 495.243,339.99 495.243,339.99 C495.243,339.99 492.465,337.247 492.465,337.247 C494.377,336.381 494.93,337.715 495.476,337.942 C495.837,338.093 496.587,336.826 496.379,336.778 Z " fill="#FFFFFF" />
  <path d="M566.305,293.131 C566.677,287.339 565.673,281.933 564.162,276.092 C564.162,276.092 562.854,271.035 562.854,271.035 C562.854,271.035 564.204,271.138 564.204,271.138 C566.763,278.342 567.985,286.017 566.305,293.131 Z " fill="#FFFFFF" />
  <path d="M462.661,288.269 C464.609,292.091 463.854,295.628 464.066,299.023 C463.525,298.711 462.854,299.241 462.99,299.632 C463.166,300.14 463.867,301.466 462.252,302.038 C461.96,297.486 461.455,293.105 462.661,288.269 Z " fill="#FFFFFF" />
  <path d="M483.199,330.684 C482.579,330.912 481.854,330.748 481.504,330.849 C481.154,330.951 480.963,331.571 480.889,332.25 C480.889,332.25 475.859,328.335 475.859,328.335 C475.991,327.411 475.587,326.675 475.888,325.908 C475.888,325.908 483.199,330.684 483.199,330.684 Z " fill="#FFFFFF" />
  <path d="M467.726,314.723 C466.681,313.417 465.153,312.636 465.094,309.922 C465.094,309.922 463.819,307.522 463.819,307.522 C463.528,306.975 463.941,305.973 464.952,305.78 C464.952,305.78 467.726,314.723 467.726,314.723 Z " fill="#FFFFFF" />
  <path d="M463.884,286.969 C461.969,284.199 463.059,279.72 465.961,277.919 C465.961,277.919 463.884,286.969 463.884,286.969 Z " fill="#FFFFFF" />
  <path d="M535.016,243.169 C535.016,243.169 530.882,241.946 530.882,241.946 C531.263,240.656 532.484,240.865 533.492,240.956 C534.608,241.056 535.442,241.463 536.054,242.82 C535.583,243.156 535.178,243.165 535.016,243.169 Z " fill="#FFFFFF" />
  <path d="M530.035,241.04 C529.015,240.709 527.352,240.653 527.075,241.99 C525.016,241.404 526.076,239.295 527.83,240.048 C528.983,239.612 530.088,240.131 530.035,241.04 Z " fill="#FFFFFF" />
  <path d="M470.486,322.177 C470.575,321.291 473.056,323.008 472.943,323.487 C472.743,324.333 471.73,324.22 471.49,323.982 C471.257,323.753 470.356,323.478 470.486,322.177 Z " fill="#FFFFFF" />
  <path d="M542.248,247.086 C540.432,245.798 538.914,245.074 537.041,243.927 C537.055,243.074 537.97,242.525 538.503,243.025 C538.503,243.025 540.312,244.727 540.312,244.727 C540.663,245.058 541.992,245.281 542.454,245.838 C542.779,246.23 543.426,246.875 542.248,247.086 Z " fill="#FFFFFF" />
  <path d="M267.092,551.714 C267.092,551.714 256.5,551.989 256.5,551.989 C256.084,551.804 255.955,551.447 255.958,551.206 C255.958,551.206 265.52,550.964 265.52,550.964 C266.411,550.552 266.948,550.853 267.092,551.714 Z " fill="#FFFFFF" />
  <path d="M784.014,572.029 C784.014,572.029 783.074,572.048 783.074,572.048 C782.063,572.104 782.004,571.55 782.434,570.928 C783.049,570.039 783.724,569.981 784.005,570.52 C784.266,571.02 784.026,571.76 784.014,572.029 Z " fill="#FFFFFF" />
  <path d="M605.086,289.008 C605.891,289.001 606.911,290.048 606.967,290.99 C606.967,290.99 583.986,290.801 583.986,290.801 C583.986,290.801 583.988,289.209 583.988,289.209 C583.988,289.209 605.086,289.008 605.086,289.008 Z " fill="#FFFFFF" />
  <path d="M646.851,501.908 C645.714,502.181 645.086,498.104 647.087,497.951 C648.202,497.866 649.091,501.37 646.851,501.908 Z " fill="#FFFFFF" />
  <path d="M645.559,496.99 C644.299,495.083 643.639,493.911 644.221,491.914 C646.378,493.031 646.558,495.296 645.559,496.99 Z " fill="#FFFFFF" />
  <path d="M527.009,322.313 C527.014,321.518 526.754,321.021 526.402,320.926 C526.765,321.024 511.03,328.188 495.152,315.73 C493.559,314.48 490.53,314.087 491.178,310.726 C494.616,314.341 498.593,315.794 503.123,317.977 C503.123,317.977 505.44,319.093 505.44,319.093 C506.056,319.39 506.832,319.094 506.853,317.963 C515.589,320.231 524.407,318.067 533.304,313.605 C538.718,310.89 540.291,294.857 546.043,302.583 C543.525,311.762 535.786,319.156 527.009,322.313 Z " fill="#FFFFFF" />
  <path d="M505.345,282.849 C501.517,287.055 500.621,277.281 493.562,277.835 C490.097,278.107 487.419,280.277 486.059,284.15 C485.494,285.76 483.109,285.386 482.531,283.958 C481.978,282.59 481.914,281.605 483.428,280.255 C485.301,274.886 491.076,271.011 496.388,272.154 C503.85,273.758 507.055,280.97 505.345,282.849 Z " fill="#FFFFFF" />
  <path d="M545.446,281.883 C541.623,284.066 540.004,276.382 534.528,276.677 C532.049,276.81 531.119,279.212 529.044,280.864 C529.044,280.864 526.96,282.523 526.96,282.523 C526.468,282.915 525.396,282.267 524.45,281.026 C524.533,275.971 528.68,272.236 532.84,271.3 C538.685,269.985 543.96,272.56 545.897,277.978 C546.32,279.164 546.193,281.457 545.446,281.883 Z " fill="#FFFFFF" />
  <path d="M483.199,330.684 C483.199,330.684 493.98,336.101 493.98,336.101 C494.523,336.145 496.161,335.989 496.379,336.778 C496.587,336.826 495.837,338.093 495.476,337.942 C494.93,337.715 494.377,336.381 492.465,337.247 C492.465,337.247 495.243,339.99 495.243,339.99 C489.34,337.828 486.22,336.399 480.889,332.25 C480.963,331.571 481.154,330.951 481.504,330.849 C481.854,330.748 482.579,330.912 483.199,330.684 Z " fill="#FFFFFF" />
  <path d="M506.853,317.963 C506.832,319.094 506.056,319.39 505.44,319.093 C505.44,319.093 503.123,317.977 503.123,317.977 C498.593,315.794 494.616,314.341 491.178,310.726 C490.53,314.087 493.559,314.48 495.152,315.73 C511.03,328.188 526.765,321.024 526.402,320.926 C526.754,321.021 527.014,321.518 527.009,322.313 C511.235,327.987 491.39,320.984 486.036,305.416 C493.613,311.245 498.868,316.64 506.853,317.963 Z " fill="#FFFFFF" />
  <path d="M630.125,395.045 C629.944,396.647 630.148,397.755 628.989,398.56 C627.903,399.314 625.917,399.306 624.966,398.525 C623.84,397.601 623.605,395.859 624.109,393.955 C624.578,392.185 626.484,390.816 627.645,390.947 C629.392,391.145 630.378,392.793 630.125,395.045 Z " fill="#FFFFFF" />
</svg>