<svg xmlns="http://www.w3.org/2000/svg" viewBox="142.4 187.1 738.7 532.9" role="img" aria-hidden="true">
  <defs>
</defs>
  <path d="M634.97,229.158 C636.336,232.99 642.031,229.299 647.836,232.24 C648.031,230.872 647.17,230.515 647.2,230.222 C657.353,232.315 665.58,240.974 671.152,249.665 C671.152,249.665 675.545,256.517 675.545,256.517 C678.422,261.005 681.264,264.998 686.149,266.987 C684.877,266.895 684.166,266.612 683.066,266.161 C683.066,266.161 682.999,267.571 682.999,267.571 C682.999,267.571 692.759,270.239 692.759,270.239 C693.105,270.333 693.398,271.403 694.476,271.031 C695.633,270.63 694.185,270.194 693.985,268.951 C705.031,273.211 715.328,280.208 722.44,289.706 C721.061,289.935 720.845,290.753 721.501,291.067 C721.838,291.228 722.769,291.918 722.777,292.227 C722.777,292.227 723.025,301.1 723.025,301.1 C723.051,302.011 724.316,303.049 724.899,303.222 C725.674,307.729 729.381,311.46 734.157,313.069 C734.157,313.069 764.567,323.314 764.567,323.314 C771.895,325.782 776.109,333.368 772.99,340.291 C771.316,344.007 771.881,351.502 767.521,359.606 C764.382,365.44 758.845,372.207 751.026,371.572 C748.178,371.34 746.593,370.791 743.447,372.614 C739.694,374.788 734.717,375.02 729.832,376.201 C731.054,379.185 733.703,380.869 736.938,379.988 C739.467,379.299 739.674,382.002 740.426,382.881 C740.25,387.299 740.226,391.74 740.527,396.166 C738.085,401.268 733.661,405.243 727.966,406.196 C728.006,405.823 727.963,405.334 727.715,405.05 C727.715,405.05 713.437,404.611 713.437,404.611 C713.437,404.611 707.111,401.846 707.111,401.846 C706.157,402.01 705.4,400.948 704.976,402.33 C704.976,402.33 696.361,397.373 696.361,397.373 C694.804,396.477 692.628,395.042 690.989,395.514 C685.473,397.104 681.408,412.083 690.154,425.788 C692.175,428.954 693.706,434.98 693.558,435.123 C692.431,436.211 690.934,436.244 689.186,435.956 C689.306,438.543 690.315,440.105 690.805,441.842 C690.393,441.791 689.968,442.198 689.97,442.931 C689.97,442.931 690.025,461.175 690.025,461.175 C690.027,461.775 689.711,462.983 690.067,463.481 C690.596,464.22 691.904,464.247 692.972,464.021 C692.972,464.021 703.051,461.891 703.051,461.891 C703.051,461.891 719.824,457.134 719.824,457.134 C721.108,458.46 723.319,457.523 725.444,457.295 C725.444,457.295 730.89,456.711 730.89,456.711 C732.712,455.792 731.691,453.799 729.926,454.764 C733.37,453.957 737.339,453.27 740.969,453.254 C740.969,453.254 757.091,453.18 757.091,453.18 C758.494,453.174 760.964,455.467 762.206,453.856 C762.206,453.856 777.225,458.571 777.225,458.571 C777.225,458.571 783.147,460.2 783.147,460.2 C783.057,460.497 784.173,462.165 784.855,462.251 C793.157,462.223 796.658,466.846 796.126,463.184 C802.199,464.581 807.802,468.941 809.497,474.724 C808.599,474.298 807.485,475.616 808.786,476.114 C809.888,480.023 810.269,483.887 809.949,487.809 C808.49,488.101 809.255,489.469 810.248,489.203 C810.248,489.203 802.083,495.894 802.083,495.894 C801.75,494.22 798.428,495.706 791.973,496.015 C791.973,496.015 790.545,496.083 790.545,496.083 C790.545,496.083 789.444,497.742 789.444,497.742 C786.152,497.965 779.992,498.741 776.475,497.443 C769.981,495.047 767.394,489.707 760.803,486.794 C760.467,488.69 759.674,489.957 758.495,489.987 C753.737,490.109 752.271,485.366 749.004,485.688 C742.267,486.351 736.275,488.964 730.421,493.026 C734.672,498.599 739.071,505.91 737.906,509.883 C736.836,513.532 738.363,520.449 738.405,520.506 C738.671,520.863 739.79,520.189 740.119,520.176 C740.122,520.83 739.721,521.588 739.599,522.036 C737.486,529.774 744.479,539.237 738.682,553.592 C738.682,553.592 737.928,555.457 737.928,555.457 C737.817,555.733 738.326,556.255 738.915,556.162 C733.23,567.023 727.853,578.094 714.864,574.925 C712.063,574.241 710.01,571.119 707.392,568.488 C691.594,552.618 702.111,533.818 703.916,534.019 C704.839,534.122 705.333,533.171 704.978,532.08 C705.054,528.519 705.21,525.153 703.914,522.234 C703.23,521.555 701.878,522.231 702.187,523.054 C701.186,523.238 700.763,522.289 700.1,522.022 C697.469,520.963 694.131,520.998 690.797,522.172 C691.124,522.616 691.934,523.397 691.965,523.927 C689.107,523.667 686.745,524.663 683.948,525.653 C683.948,525.653 665.986,532.009 665.986,532.009 C665.986,532.009 645.376,540.422 645.376,540.422 C645.376,540.422 626.275,549.184 626.275,549.184 C624.639,549.934 623.141,550.118 621.088,550.441 C621.537,549.241 620.761,546.114 618.97,545.711 C615.111,546.377 611.837,545.911 608.678,543.094 C608.678,543.094 604.747,539.685 604.747,539.685 C597.542,545.243 589.539,550.729 581.058,554.237 C581.058,554.237 579.368,551.968 579.368,551.968 C579.035,551.521 577.505,552.309 576.688,552.624 C576.688,552.624 567.006,556.366 567.006,556.366 C564.476,557.344 560.965,558.935 558.262,557.728 C557.971,556.613 557.72,554.861 557.055,554.014 C557.052,552.821 558.67,552.539 557.509,551.97 C556.387,551.42 555.856,552.785 555.52,552.831 C555.52,552.831 543.683,554.466 543.683,554.466 C535.282,555.625 526.958,554.884 519.068,555.503 C518.065,555.413 516.175,554.118 516.025,553.158 C515.396,549.129 509.75,552.601 504.175,549.752 C504.003,551.177 504.995,551.509 505.046,551.793 C497.094,549.716 485.748,547.147 483.287,551.079 C482.569,549.447 481.689,550.46 480.952,551.442 C480.57,551.951 479.33,552.625 481.141,553.242 C471.242,563.625 465.463,583.97 452.259,596.086 C452.259,596.086 449.362,597.846 449.362,597.846 C448.889,598.133 447.711,597.416 447.488,595.855 C441.022,599.966 434.263,602.991 426.953,604.264 C425.546,602.013 422.702,603.531 420.598,603.582 C420.598,603.582 401.917,604.042 401.917,604.042 C400.94,604.066 400.032,605.268 399.926,605.901 C394.064,606.555 389.771,610.454 386.815,615.755 C386.815,615.755 382.828,622.904 382.828,622.904 C382.828,622.904 371.399,650.677 371.399,650.677 C366.866,661.694 352.321,670.639 340.081,672.821 C334.579,673.802 327.943,670.791 326.528,665.72 C324.624,658.891 327.358,651.728 331.909,646.924 C331.909,646.924 342.2,636.06 342.2,636.06 C349.627,624.997 353.975,611.912 358.216,599.22 C358.901,597.171 356,597.647 355.367,597.546 C355.367,597.546 342.039,595.41 342.039,595.41 C340.201,592.095 336.431,593.314 332.998,592.9 C329.4,592.467 325.639,590.393 321.993,592.187 C322.199,592.587 322.965,593.5 322.794,593.858 C310.03,593.015 292.386,619.186 284.206,632.088 C284.206,632.088 278.958,638.041 278.958,638.041 C271.388,646.63 260.529,652.679 248.961,649.121 C248.961,649.121 242.873,647.248 242.873,647.248 C243.547,647.31 244.695,647.87 245.108,646.304 C241.951,645.766 240.532,643.605 239.495,641.864 C238.204,639.695 239.129,637.363 240.309,635.186 C238.827,634.862 238.51,636.002 238.208,635.992 C238.596,634.662 237.875,633.76 238.16,631.912 C238.824,627.608 241.455,622.929 242.861,619.135 C245.972,610.739 252.963,607.842 259.852,604.386 C268.353,597.811 276.565,587.961 282.939,578.101 C286.803,572.123 290.895,566.637 293.85,559.922 C294.591,558.239 293.181,555.929 295.246,554.225 C299.552,550.673 304.799,548.174 310.687,549.394 C310.687,549.394 318.78,551.072 318.78,551.072 C318.78,551.072 317.978,552.956 317.978,552.956 C317.978,552.956 329.673,552.783 329.673,552.783 C330.651,552.769 330.992,551.102 330.999,550.678 C332.589,549.667 334.69,548.358 335.988,546.313 C334.117,545.329 333.545,543.266 334.442,542.012 C335.531,540.489 339.769,538.735 338.366,537.349 C338.7,537.68 340.216,538.095 339.926,536.535 C331.894,536.348 341.052,529.822 338.068,523.306 C338.068,523.306 342.065,513.889 342.065,513.889 C334.243,516.698 339.437,503.529 345.997,494.993 C345.997,494.993 357.57,479.933 357.57,479.933 C358.52,480.233 359.386,479.479 359.015,478.555 C358.882,478.224 358.163,477.147 357.707,477.147 C357.707,477.147 339.302,477.157 339.302,477.157 C338.69,477.157 337.756,478.766 337.888,479.022 C333.056,479.085 327.647,481.026 322.917,479.35 C321.693,478.917 320.054,477.485 320.187,476.639 C320.303,475.909 321.415,475.268 322.338,473.37 C318.446,473.441 315.034,473.243 311.743,471.778 C302.193,467.526 279.923,464.157 281.881,456.367 C282.362,454.452 285.373,454.11 288.551,453.512 C284.964,450.693 281.192,449.552 277.181,447.766 C265.047,442.364 255.637,432.939 251.658,420.224 C254.699,419.745 256.229,421.336 259.071,422.091 C258.546,419.222 257.084,417.514 255.868,415.732 C258.165,415.904 255.755,414.505 254.745,412.307 C254.745,412.307 249.066,399.956 249.066,399.956 C246.877,395.195 245.923,390.619 246.44,385.537 C246.393,384.817 246.066,383.824 244.391,385.017 C244.391,385.017 244.255,370.086 244.255,370.086 C244.235,367.983 245.783,363.442 248.65,364.312 C256.651,374.501 261.634,387.094 270.819,398.115 C270.819,398.115 279.037,407.977 279.037,407.977 C294.66,424.393 313.833,436.631 336.017,442.82 C341.543,444.362 346.716,445.751 351.899,446.017 C354.401,448.714 361.737,448.662 365.722,446.969 C365.722,446.969 368.942,447.845 368.942,447.845 C368.942,447.845 388.083,447.672 388.083,447.672 C388.083,447.672 395.794,442.826 395.794,442.826 C395.794,442.826 414.952,435.704 414.952,435.704 C417.391,434.797 419.562,434.282 421.905,433.959 C421.905,433.959 428.951,432.988 428.951,432.988 C431.101,432.692 432.745,432.576 432.876,430.59 C432.876,430.59 464.017,424.06 464.017,424.06 C464.017,424.06 495.732,416.793 495.732,416.793 C495.732,416.793 502.278,415.225 502.278,415.225 C517.937,408.621 532.696,399.87 544.33,387.076 C543.575,385.774 541.154,385.372 541.315,384.527 C541.542,383.34 542.39,381.99 543.595,381.425 C543.595,381.425 557.279,375.017 557.279,375.017 C563.361,372.168 570.284,370.37 574.291,364.295 C571.257,363.118 569.362,365.349 566.571,365.496 C566.571,365.496 579.277,349.289 579.277,349.289 C579.277,349.289 593.091,327.074 593.091,327.074 C593.332,326.403 592.632,325.64 592.088,325.75 C592.242,324.831 594.373,327.466 594.023,324.115 C586.688,325.168 578.989,326.839 571.395,325.66 C570.036,325.449 569.196,325.226 568.392,326.879 C551.122,321.037 551.074,313.396 542.926,308.079 C533.74,302.086 521.741,289.011 519.006,280.178 C520.062,280.029 520.252,278.883 519.785,278.031 C517.249,273.404 519.648,268.87 516.473,269.082 C516.591,267.072 516.132,264.43 517.042,262.141 C522.08,249.478 536.733,259.748 549.676,263.331 C549.676,263.331 564.509,267.437 564.509,267.437 C573.567,269.944 586.561,263.895 595.02,263.923 C594.931,264.197 594.992,264.681 595.213,264.907 C595.213,264.907 607.064,265.024 607.064,265.024 C607.943,265.033 608.116,264.311 607.966,263.938 C607.919,263.821 607.83,263.405 608.248,262.778 C603.725,258.188 602.403,251.971 599.165,247.186 C599.165,247.186 595.73,242.11 595.73,242.11 C593.903,239.411 592.141,237.19 591.786,234.135 C591.032,227.643 591.293,221.686 589.787,221.142 C590.548,218.877 591.481,217.123 594.319,215.824 C595.852,215.122 598.344,215.555 600.636,215.58 C608.883,215.67 621.7,228.003 634.97,229.158 Z M611.169,246.159 C610.771,245.98 610.094,246.205 610.009,246.594 C609.905,247.073 609.641,248.402 609.961,249 C609.961,249 612.07,252.955 612.07,252.955 C611.251,252.725 610.279,254.194 610.969,255.097 C612.911,257.6 615.177,260.269 617.768,261.488 C619.627,261.156 620.43,260.479 618.819,259.156 C618.323,258.453 617.735,258.522 617.383,258.365 C616.386,257.921 616.909,256.439 618.027,256.841 C618.768,257.108 618.899,258.293 619.15,258.621 C619.526,259.113 620.709,259.297 621.41,258.823 C621.41,258.823 624.664,261.258 624.664,261.258 C628.786,264.342 632.358,267.209 634.429,265.049 C630.774,263.079 628.066,261.742 626.019,259.168 C626.792,259.208 627.207,258.412 627.314,257.514 C627.314,257.514 636.906,264.293 636.906,264.293 C637.752,264.892 638.118,266.292 639.496,266.267 C640.91,266.242 641.309,265.626 641.666,263.993 C643.093,264.077 644.648,265.094 645.938,264.188 C645.938,264.188 646.779,263.313 646.779,263.313 C647.668,262.388 650.847,265.66 651.344,263.193 C654.318,260.446 655.929,264.839 657.93,263.642 C659.826,262.507 656.593,261.88 658.106,259.846 C662.158,260.787 663.798,265.315 671.809,264.571 C673.288,264.181 672.921,265.18 673.192,265.507 C673.523,265.908 674.47,265.432 674.727,265.064 C675.111,264.515 674.574,263.588 674.035,262.951 C674.035,262.951 668.116,255.959 668.116,255.959 C661.521,248.167 657.381,238.374 641.566,236.608 C629.372,235.246 618.267,231.357 607.987,224.028 C604.986,221.888 597.778,219.623 596.061,222.553 C592.057,229.388 602.393,238.458 606.237,246.487 C606.955,247.132 608.092,245.53 609.094,244.934 C610.528,243.096 612.247,244.639 611.169,246.159 Z M556.954,306.457 C556.225,309.746 564.093,308.532 562.203,310.512 C560.494,312.301 556.846,309.341 554.667,310.14 C553.063,310.728 554.068,312.621 555.436,312.363 C562.815,318.396 571.086,321.079 579.78,320.037 C583.774,322.76 588.44,319.872 592.115,317.909 C592.115,317.909 602.093,315.794 602.093,315.794 C602.093,315.794 614.913,311.044 614.913,311.044 C615.655,310.769 616.879,310.975 617.402,311.071 C618.004,311.182 618.26,312.665 617.946,313.352 C617.685,313.924 616.727,314.345 615.873,314.809 C615.873,314.809 606.091,320.128 606.091,320.128 C605.441,320.481 604.592,320.486 604.376,320.758 C604.041,321.18 604.095,322.484 604.265,322.92 C602.402,323.185 601.554,325.237 600.828,326.315 C594.12,336.278 588.857,347.016 584.784,358.774 C577.857,378.775 567.491,377.033 559.282,383.239 C549.484,390.647 542.281,399.54 535.266,409.222 C532.696,412.768 530.232,416.404 526.02,418.339 C526.635,414.27 530.671,408.319 532.054,407.437 C532.604,407.086 531.84,405.224 530.963,405.786 C530.963,405.786 516.888,414.815 516.888,414.815 C498.055,424.273 479.13,432.144 459.115,435.779 C458.766,435.426 456.463,435.302 456.721,434.524 C457.197,433.086 458.495,432.352 459.999,431.188 C459.999,431.188 447.149,432.373 447.149,432.373 C447.51,432.339 438.843,435.022 438.951,434.584 C438.771,435.312 439.287,436.558 440.338,436.734 C440.338,436.734 432.737,437.721 432.737,437.721 C431.755,437.848 430.861,438.095 430.989,439.112 C431.061,439.68 430.664,440.041 430.109,439.994 C422.874,437.724 415.945,440.076 419.138,441.437 C408.373,443.479 398.285,448.482 389.01,454.901 C389.01,454.901 380.085,461.077 380.085,461.077 C379.102,461.757 378.413,461.813 377.921,461.588 C375.081,460.287 379.437,458.058 380.869,453.989 C380.869,453.989 361.904,453.439 361.904,453.439 C364.49,453.557 368.301,452.978 371.121,452.466 C371.121,452.466 348.246,450.688 348.246,450.688 C347.769,450.651 346.924,449.85 346.524,449.957 C346.098,450.07 345.716,450.821 345.967,451.356 C342.685,450.585 338.827,450.47 335.681,449.343 C335.681,449.343 317.914,442.974 317.914,442.974 C307.885,439.379 292.173,428.764 283.894,421.063 C270.092,408.226 258.734,394.337 250.601,377.305 C249.138,382.273 251.763,386.361 251.973,390.138 C251.351,390.091 250.857,390.347 250.902,390.704 C250.902,390.704 251.321,393.995 251.321,393.995 C251.631,396.43 252.873,397.823 253.654,399.343 C253.654,399.343 260.76,413.18 260.76,413.18 C260.76,413.18 266.207,420.947 266.207,420.947 C263.122,421.538 267.36,422.917 267.571,425.61 C267.636,426.444 266.408,427.491 264.945,426.985 C264.117,426.7 263.728,426.215 263.418,426.006 C262.964,425.7 261.958,426.337 261.142,427.162 C265.526,435.382 274.274,440.751 283.084,444.919 C283.084,444.919 295.808,450.939 295.808,450.939 C296.682,451.353 298.638,453.953 297.674,454.968 C296.38,456.329 293.561,456.555 292.621,459.223 C292.621,459.223 303.279,462.924 303.279,462.924 C303.279,462.924 312.945,465.194 312.945,465.194 C317.306,466.218 321.949,465.837 326.906,466.238 C326.906,466.238 334.752,466.872 334.752,466.872 C334.923,467.405 334.919,467.678 335.119,467.997 C334.665,468.501 334.614,472.945 336.153,472.868 C336.153,472.868 363.983,471.485 363.983,471.485 C368.807,471.245 372.609,464.408 372.82,470.528 C370.934,472.029 369.853,474.888 368.109,477.195 C368.109,477.195 351.813,498.754 351.813,498.754 C348.327,503.365 351.21,505.371 348.99,507.545 C348.58,507.945 349.126,509.207 349.803,508.982 C349.001,510.538 348.834,514.186 347.824,515.715 C343.711,520.422 347.772,526.257 345.092,530.46 C345.395,531.104 346.152,531.37 346.832,531.166 C345.57,533.759 344.945,536.812 346.022,539.869 C346.803,542.086 344.808,543.182 344.401,544.225 C340.517,554.197 331.134,559.241 321.035,557.921 C320.441,556.483 318.676,555.787 316.825,555.578 C316.825,555.578 310.173,554.826 310.173,554.826 C304.171,554.148 302.008,559.798 299.347,564.26 C299.347,564.26 293.041,574.836 293.041,574.836 C293.041,574.836 287.666,582.864 287.666,582.864 C287.666,582.864 273.96,601.055 273.96,601.055 C273.96,601.055 268.841,606.185 268.841,606.185 C262.005,613.036 248.039,612.822 246.645,630.801 C245.143,630.426 244.564,631.958 246.114,632.647 C246.114,632.647 252.014,633.249 252.014,633.249 C252.016,633.48 251.525,633.988 251.378,634.435 C251.296,634.685 251.321,635.069 251.914,635.205 C250.644,636.593 248.033,635.942 246.17,636.165 C246.485,637.68 244.939,639.149 244.697,640.002 C243.947,642.648 247.705,643.164 249.845,643.171 C253.649,643.183 256.214,642.52 258.065,639.749 C258.9,638.5 260.572,637.616 261.985,636.909 C262.182,637.332 261.791,638.015 261.511,638.249 C261.142,638.556 261.914,639.423 262.944,639.165 C262.944,639.165 261.986,640.609 261.986,640.609 C261.692,641.053 262.046,642.213 262.833,642.282 C263.498,639.975 264.684,639.598 265.987,639.996 C270.81,641.471 280.81,625.951 285.425,619.358 C285.425,619.358 298.143,601.19 298.143,601.19 C301.239,596.768 305.21,594.333 309.73,591.394 C309.73,591.394 313.39,586.965 313.39,586.965 C315.099,584.899 316.752,586.289 318.905,587.226 C322.203,588.662 332.569,589.949 336.026,587.994 C336.026,587.994 346.364,589.645 346.364,589.645 C346.364,589.645 365.921,590.071 365.921,590.071 C369.907,592.455 383.241,588.228 382.865,588.69 C383.172,588.313 382.274,587.468 382.178,586.947 C382.178,586.947 388.162,585.188 388.162,585.188 C391.99,584.062 395.186,581.921 398.061,579.026 C398.061,579.026 409.048,567.962 409.048,567.962 C420.474,556.456 424.978,541.309 447.859,529.914 C448.157,531.347 449.068,530.881 449.516,530.667 C449.516,530.667 452.24,529.366 452.24,529.366 C461.637,524.877 460.523,528.716 458.698,528.861 C458.698,528.861 456.519,529.033 456.519,529.033 C455.899,529.083 455.715,531.128 455.146,531.012 C452.37,530.905 449.836,533.077 447.74,534.831 C446.757,534.31 445.5,535.363 447.144,536.375 C444.165,538.299 440.926,539.926 439.813,543.923 C439.813,543.923 446.032,542.088 446.032,542.088 C450.588,544.119 455.802,542.471 460.895,542.191 C466.672,541.875 472.397,542.27 477.617,542.494 C477.617,542.494 490.097,543.03 490.097,543.03 C491.09,543.078 491.847,543.104 492.019,542.036 C496.761,541.999 501.509,543.495 506.089,544.525 C505.893,544.922 505.916,545.602 506.166,545.974 C506.166,545.974 517.694,546.297 517.694,546.297 C520.378,546.372 523.754,545.197 526.062,547.527 C525.097,548.457 525.342,549.562 525.58,549.999 C526.568,551.816 542.421,551.128 551.624,549.882 C551.852,549.159 551.884,548.275 551.791,548.142 C561.532,547.067 571.709,545.808 577.421,538.307 C577.421,538.307 580.837,534.938 580.837,534.938 C580.86,535.704 581.467,536.06 582.16,535.991 C580.515,537.79 579.437,539.725 577.841,542.683 C580.364,541.567 581.979,543.016 582.93,542.798 C588.665,541.484 600.121,535.767 600.735,531.114 C598.082,522.697 593.808,514.588 587.709,508.384 C587.709,508.384 575.239,495.699 575.239,495.699 C575.239,495.699 574.072,494.416 574.072,494.416 C568.875,488.702 587.313,495.282 597.686,511.352 C597.686,511.352 611.176,532.251 611.176,532.251 C612.539,534.362 612.648,537.886 614.893,540.323 C614.893,540.323 629.973,536.678 629.973,536.678 C630.846,536.467 632.467,537.851 633.175,538.172 C633.175,538.172 651.951,530.225 651.951,530.225 C651.951,530.225 665.307,525.269 665.307,525.269 C665.307,525.269 692.388,516.339 692.388,516.339 C700.745,513.583 704.49,515.593 706.681,512.891 C706.681,512.891 710.366,521.843 710.366,521.843 C711.951,525.694 712.54,528.044 710.791,531.906 C709.292,535.214 708.664,539.306 706.166,541.915 C703.204,545.008 703.375,549.369 705.597,552.356 C707.87,555.411 708.586,559.837 712.824,561.834 C712.824,561.834 716.754,558.136 716.754,558.136 C717.739,558.022 718.161,557.428 718.636,557.222 C720.107,556.582 720.256,558.246 720.263,559.431 C720.263,559.431 716.345,564.484 716.345,564.484 C715.26,565.884 715.867,567.536 717.284,568.238 C722.803,570.97 729.146,561.221 729.746,557.291 C730.989,557.174 731.35,556.031 731.564,555.557 C733.261,556.399 734.546,555.614 735.435,555.028 C736.069,554.61 736.697,553.428 736.714,551.943 C736.714,551.943 736.991,528.331 736.991,528.331 C736.118,527.95 735.848,526.946 735.961,526.535 C736.058,526.183 735.368,525.714 734.683,526.005 C733.938,518.321 732.905,510.351 728.911,503.253 C724.607,495.604 717.166,490.786 707.982,492.021 C705.498,492.355 703.099,491.404 701.164,491.369 C701.164,491.369 682.266,491.03 682.266,491.03 C682.266,491.03 680.812,492.942 680.812,492.942 C680.13,493.839 678.255,493.889 677.023,493.985 C676.863,492.946 676.123,492.864 675.063,492.914 C675.063,492.914 660.409,493.594 660.409,493.594 C659.21,493.65 659.032,494.542 658.929,495.188 C658.755,496.291 656.852,495.926 655.985,495.971 C655.817,494.945 655.118,494.933 654.08,494.924 C654.08,494.924 644.86,494.844 644.86,494.844 C644.141,494.608 644.199,493.259 644.253,492.775 C644.253,492.775 646.639,491.956 646.639,491.956 C648.016,491.483 648.19,490.396 648.068,489.143 C647.381,482.104 648.67,474.849 647.282,468.036 C647.282,468.036 644.844,456.064 644.844,456.064 C644.636,455.046 643.472,451.754 644.839,452.108 C649.45,454.056 649.754,459.953 650.847,463.789 C649.337,464.923 649.687,467.352 651.042,468.931 C651.281,476.076 650.25,483.213 651.649,489.342 C658.493,490.466 664.06,489.561 666.889,483.789 C666.889,483.789 671.475,474.43 671.475,474.43 C672.474,472.391 672.255,469.275 673.959,466.94 C673.959,466.94 674.639,464.394 674.639,464.394 C674.897,463.425 676.735,464.09 676.414,465.089 C676.142,465.934 677.02,467.421 677.761,466.671 C677.761,466.671 679.456,464.957 679.456,464.957 C680.123,464.281 681.568,465.208 681.907,466.418 C684.354,467.1 684.137,463.683 683.948,462.1 C683.948,462.1 683.765,460.575 683.765,460.575 C683.731,460.29 683.281,460.414 682.965,460.492 C681.12,460.952 682.748,464.079 680.555,464.129 C680.555,464.129 679.692,444.661 679.692,444.661 C681.804,444.804 682.011,447.001 681.486,448.332 C682.188,450.308 683.59,448.791 683.213,447.8 C683.213,447.8 683.965,452.929 683.965,452.929 C682.411,453.799 684.053,455.127 684.837,455.004 C687.955,454.515 688.111,446.935 684.762,444.007 C684.762,444.007 683.911,439.028 683.911,439.028 C684.893,439.146 685.438,438.108 684.831,437.368 C680.91,432.594 685.137,426.501 680.869,424.91 C680.869,424.91 679.601,421.106 679.601,421.106 C681.281,420.974 680.824,420.018 680.428,419.42 C680.047,411.916 680.565,407.758 677.396,409.405 C676.763,409.734 675.88,408.025 675.9,407.48 C675.566,401.248 680.71,400.072 676.077,398.136 C675.729,397.99 674.796,397.778 674.754,397.41 C674.679,396.753 676.009,395.759 675.793,395.259 C675.425,394.406 674.017,394.332 673.523,394.151 C673.011,393.964 672.892,392.589 673.094,391.984 C673.204,391.455 673.618,390.182 674.751,390.497 C675.423,390.684 675.606,390.623 675.963,390.576 C676.888,390.453 676.924,389.05 676.199,389.024 C676.199,389.024 663.16,388.553 663.16,388.553 C663.16,388.553 657.341,389.353 657.341,389.353 C657.488,388.069 658.667,387.839 657.745,386.707 C665.811,381.043 676.357,382.646 686.122,386.053 C686.122,386.053 708.021,396.497 708.021,396.497 C710.298,397.583 712.704,398.183 714.952,398.89 C714.762,398.716 713.863,399.225 713.958,399.507 C714.054,399.788 714.999,400.853 715.311,400.851 C715.311,400.851 727.685,400.753 727.685,400.753 C728.151,400.749 729.105,399.88 729.485,399.934 C729.865,399.988 730.181,399.095 729.977,398.651 C729.977,398.651 736.013,393.897 736.013,393.897 C736.871,391.763 733.602,391.321 733.967,393.652 C733.038,394.023 732.375,393.94 731.937,393.941 C730.038,392.121 726.867,393.339 723.947,392.989 C721.71,392.721 719.875,391.193 717.525,392.483 C704.154,386.11 691.729,376.245 681.552,364.65 C680.906,362.656 679.613,361.807 677.966,360.336 C677.258,362.203 675.55,361.902 675.095,362.465 C674.315,363.429 671.5,362.535 672.041,360.881 C674.124,354.509 680.93,350.56 687.448,349.279 C688.512,352.22 686.335,353.525 683.671,355.085 C683.671,355.085 691.791,359.234 691.791,359.234 C691.791,359.234 711.094,367.764 711.094,367.764 C711.094,367.764 716.072,368.41 716.072,368.41 C715.923,368.94 715.871,369.515 716.215,369.975 C722.265,369.725 728.001,370.877 733.427,369.024 C741.18,366.377 749.96,364.212 755.938,357.027 C755.938,357.027 757.314,353.867 757.314,353.867 C757.58,353.255 758.906,352.806 760.111,354.125 C760.111,354.125 756.899,362.062 756.899,362.062 C761.08,360.05 762.801,356.359 764.108,351.791 C757.903,353.257 753.785,351.279 750.431,346.551 C744.526,345.133 740.59,339.115 742.209,333.332 C744.207,329.759 746.857,327.059 750.438,325.346 C748.046,323.579 746.411,324.006 744.735,323.375 C746.628,324.35 747.798,321.921 745.645,321.733 C742.493,320.784 739.556,319.771 736.621,320.527 C733.599,318.592 717.339,315.165 715.757,303.544 C715.623,302.561 716.387,301.38 717.826,301.222 C717.731,303.051 717.452,305.19 720.168,306.074 C717.655,299.049 720.45,292.248 716.443,295.015 C716.958,290.862 713.798,290.167 711.478,288.298 C700.047,279.089 697.778,276.384 682.113,273.841 C682.342,273.351 683.042,272.776 682.478,271.601 C682.478,271.601 672.903,271.116 672.903,271.116 C671.967,270.835 671.087,270.892 670.946,272.028 C668.186,271.58 665.294,271.261 662.007,270.714 C661.619,270.867 660.781,271.437 660.43,271.308 C659.945,271.128 659.297,269.524 659.178,269.982 C658.858,271.207 657.816,272.514 657.266,272.846 C652.941,271.408 647.977,271.917 643.886,273.76 C643.886,273.76 637.392,276.684 637.392,276.684 C639.513,278.275 640.655,279.076 641.191,281.558 C628.024,281.607 618.473,269.452 603.045,270.007 C598.752,268.186 590.874,268.484 586.936,271.162 C586.936,271.162 578.106,272.657 578.106,272.657 C578.889,269.533 575.12,272.784 563.328,271.697 C563.328,271.697 554.858,270.916 554.858,270.916 C554.858,270.916 552.534,269.916 552.534,269.916 C551.905,269.646 551.025,269.911 550.873,270.845 C550.873,270.845 538.027,266.227 538.027,266.227 C538.749,263.168 529.362,261.444 527.812,262.104 C526.833,262.521 526.562,263.129 524.723,261.916 C524.723,261.916 523.418,270.745 523.418,270.745 C523.322,271.396 523.551,273.37 523.852,274.107 C530.198,289.646 542.141,300.96 556.954,306.457 Z M619.48,261.575 C619.165,264.455 621.147,266.298 624.411,266.94 C628.588,268.736 625.05,266.374 619.48,261.575 Z M761.394,329.211 C759.567,328.604 748.579,330.194 748.857,336.014 C755.903,331.991 766.088,330.771 761.394,329.211 Z M755.233,345.3 C756.159,344.477 756.338,343.55 756.006,342.538 C755.803,341.92 754.422,341.695 753.692,342.183 C752.226,343.165 751.474,345.497 752.51,345.995 C753.191,346.322 754.535,345.919 755.233,345.3 Z M724.152,387.666 C728.124,388.467 730.32,388.654 732.674,385.877 C732.674,385.877 722.425,376.545 722.425,376.545 C720.504,374.796 716.088,375.698 713.442,373.686 C713.2,375.126 713.927,375.892 714.045,376.487 C714.281,377.667 713.499,378.255 712.499,378.101 C709.229,377.598 704.675,371.79 697.526,372.098 C700.841,375.219 704.496,377.364 707.89,380.059 C707.89,380.059 712.939,384.068 712.939,384.068 C717.094,387.367 719.865,376.783 722.594,380.732 C724.127,382.949 724.03,385.796 724.152,387.666 Z M725.884,464.809 C725.884,464.809 721.808,468.962 721.808,468.962 C721.816,469.789 721.309,469.791 720.92,469.551 C718.825,468.261 722.176,467.44 724.933,462.945 C719.107,464.437 713.744,464.918 708.694,467.52 C707.052,468.366 703.396,466.497 702.443,470.202 C700.266,469.085 699.426,469.225 698.26,469.276 C697.38,469.995 696.642,471.809 694.826,471.851 C694.826,471.851 692.425,470.142 692.425,470.142 C691.731,469.649 689.904,470.83 689.683,471.823 C689.275,471.736 688.895,471.803 688.5,471.994 C688.094,472.19 687.891,472.537 687.995,473.004 C686.879,471.863 684.715,471.776 683.208,471.746 C683.208,471.746 681.507,469.82 681.507,469.82 C681.275,469.557 680.151,471.449 680.482,471.802 C681.642,473.037 682.345,474.071 682.031,475.672 C682.32,476.08 681.903,476.776 681.503,476.737 C681.167,476.704 680.539,476.151 680.296,475.656 C679.835,474.717 678.801,474.964 678.815,475.908 C678.199,475.827 677.958,476.081 677.877,476.727 C675.056,478.889 673.125,482.7 673.256,486.021 C675.382,485.548 674.993,487.103 675.03,487.538 C675.083,488.165 676.26,487.886 676.791,487.833 C682.221,487.298 683.995,480.193 689.305,478.025 C689.305,478.025 683.961,486.343 683.961,486.343 C685.323,487.056 686.976,485.981 687.813,485.003 C687.813,485.003 689.894,485.105 689.894,485.105 C689.835,485.521 690.053,485.959 690.539,485.998 C690.539,485.998 692.142,486.127 692.142,486.127 C693.66,485.235 695.263,483.417 697.228,482.916 C697.256,484.082 696.784,483.86 696.441,483.998 C695.764,484.269 695.702,485.766 696.556,485.979 C697.298,486.164 698.291,485.925 698.839,485.815 C699.332,487.641 701.265,486.295 701.715,485.508 C703.464,486.978 704.225,487.096 705.408,486.963 C706.885,486.798 706.916,485.272 707.356,484.428 C709.561,480.205 714.683,473.362 719.919,469.906 C718.099,474.874 714.088,478.299 711.037,481.966 C711.037,481.966 709.445,483.879 709.445,483.879 C708.77,484.691 709.108,485.711 709.683,485.893 C710.339,486.101 712.22,486.14 712.625,485.604 C712.625,485.604 717.621,478.988 717.621,478.988 C718.433,479.385 719.148,477.983 719.607,477.828 C720.034,477.683 720.635,479.401 720.998,479.358 C720.202,480.44 717.437,481.991 718.144,483.906 C719.207,486.783 723.15,487.599 725.589,486.734 C725.589,486.734 742.074,480.882 742.074,480.882 C744.039,480.184 745.685,477.321 746.612,477.141 C747.438,476.98 748.472,477.382 748.411,479.029 C752.392,477.545 756.584,477.348 760.225,479.794 C760.225,479.794 775.701,490.189 775.701,490.189 C775.952,491.079 776.325,492.121 777.025,492.576 C778.052,493.245 784.543,493.787 786.081,491.843 C786.081,491.843 789.038,488.104 789.038,488.104 C790.002,481.158 783.056,479.311 781.109,476.385 C778.203,472.014 794.057,476.851 794.455,490.432 C796.59,492.042 799.699,490.46 801.066,488.571 C802.712,486.298 802.052,483.417 799.765,481.183 C799.765,481.183 790.465,472.095 790.465,472.095 C796.083,471.645 799.133,475.161 803.687,478.386 C803.621,472.515 797.325,469.944 792.388,468.592 C792.388,468.592 780.883,465.443 780.883,465.443 C781.132,464.322 780.45,463.805 779.948,463.337 C780.64,463.982 763.805,459.206 759.808,460.101 C756.137,460.924 752.404,455.271 742.999,457.93 C742.999,457.93 728.974,461.896 728.974,461.896 C727.817,462.223 727.108,462.17 726.418,462.859 C725.818,463.459 725.855,464.207 725.884,464.809 Z M465.208,551.626 C465.029,551.892 464.253,552.085 463.811,551.712 C463.811,551.712 447.04,558.379 447.04,558.379 C440.697,560.9 434.375,563.206 428.695,566.735 C428.695,566.735 415.408,572.179 415.408,572.179 C414.494,574.023 413.356,574.86 413.139,576.925 C413.946,576.279 414.581,576.034 415.138,576.388 C415.791,576.803 416.187,577.345 416.163,578.064 C416.163,578.064 411.631,579.681 411.631,579.681 C407.186,581.268 397.89,586.923 397.906,590.856 C397.906,590.856 373.385,602.561 373.385,602.561 C373.47,602.093 372.966,601.367 372.576,601.285 C371.568,601.072 369.607,602.986 368.514,603.058 C367.515,603.124 367.019,601.96 367.182,600.82 C369.606,599.365 374.705,598.433 373.853,596.607 C372.964,594.702 370.477,598.908 367.652,597.193 C366.679,596.603 364.56,597.696 364.129,598.556 C363.615,599.581 363.814,601.672 364.713,602.248 C365.058,602.469 366.168,603.239 365.94,603.523 C365.94,603.523 364.967,605.335 364.967,605.335 C363.35,605.868 362.289,605.984 361.934,607.55 C361.571,609.149 360.233,610.834 361.806,612.19 C362.69,612.952 363.193,612.28 363.47,611.995 C363.731,611.726 364.429,612.677 363.548,613.007 C363.19,613.142 363.1,613.46 362.663,613.933 C361.743,614.478 359.717,613.916 359.482,615.961 C356.567,615.302 358.634,618.24 357.908,621.133 C357.548,622.568 356.022,623.743 356.148,625.988 C358.192,625.663 359.234,624.385 360.639,623.678 C361.524,623.871 361.463,624.237 361.465,624.546 C361.47,625.108 361.054,625.61 360.425,625.817 C359.872,625.502 358.698,627.048 358.986,627.606 C358.124,627.635 358.314,627.465 358.071,627.236 C357.206,626.423 356.693,627.598 356.58,628.117 C355.395,629.551 352.386,631.226 351.33,633.372 C351.889,634.592 352.912,636.749 351.097,638.124 C349.646,639.222 347.747,639.87 346.483,640.579 C345.735,641 345.52,642.972 343.94,643.048 C342.441,643.12 341.265,645.723 341.374,646.898 C343.318,645.777 344.136,647.484 343.714,647.812 C341.256,648.573 337.917,647.291 336.843,650.974 C336.227,653.087 332.316,656.318 334.353,658.779 C339.656,660.061 345.377,657.395 350.186,653.143 C351.35,657.324 348.352,659.613 345.074,661.298 C345.074,661.298 331.719,663.873 331.719,663.873 C333.536,668.301 338.417,669.176 341.979,666.845 C350.988,664.873 358.37,659.189 364.017,652.149 C364.017,652.149 374.429,625.996 374.429,625.996 C375.618,623.009 379.213,620.509 378.233,616.928 C378.096,616.426 378.109,616.13 378.526,615.89 C379.191,615.508 378.623,614.799 378.018,615.108 C378.018,615.108 377.954,613.964 377.954,613.964 C377.954,613.964 379.056,614.012 379.056,614.012 C380.007,614.053 383.89,609.719 383.866,609.367 C383.83,608.867 384.008,608.157 382.823,608.213 C383.118,606.788 384.56,606.109 385.042,605.029 C385.042,605.029 390.044,602.95 390.044,602.95 C392.739,601.83 395.197,599.884 397.849,600.018 C398.521,600.051 399.718,600.426 400.065,599.454 C400.358,598.635 400.12,597.5 399.194,596.512 C398.042,596.58 397.433,595.067 398.904,594.878 C399.271,594.82 399.718,594.94 399.978,595.134 C400.607,596.616 402.576,596.277 403.801,596.03 C403.959,596.919 404.804,597.284 406.242,597.291 C406.456,597.531 406.009,598.996 406.202,599.401 C406.533,600.096 407.705,600.436 408.948,600.458 C408.948,600.458 411.483,600.503 411.483,600.503 C412.485,600.521 413.269,599.947 412.969,598.833 C433.931,599.481 452.999,587.678 462.795,568.814 C463.775,566.926 464.908,564.784 466.077,563.545 C466.644,563.49 467.333,563.039 467.245,562.153 C468.141,561.91 468.133,560.868 467.635,560.094 C467.635,560.094 474.837,550.791 474.837,550.791 C475.284,550.214 475.948,549.802 476.093,549.427 C476.465,548.463 476.004,547.286 475.231,547.232 C472.175,547.021 471.444,547.964 469.488,549.703 C468.611,550.483 465.869,550.64 465.208,551.626 Z M434.903,559.469 C443.415,557.022 457.099,553.311 458.27,547.816 C448.279,548.703 441.605,555.762 433.345,557.93 C431.23,558.951 432.39,560.673 434.903,559.469 Z " fill="#FFFFFF" />
  <path d="M359.6,407.233 C361.3,404.843 364.301,405.947 366.216,406.386 C376.067,408.643 399.614,410.541 409.543,409.589 C409.543,409.589 420.533,408.535 420.533,408.535 C449.365,405.769 471.944,399.36 498.007,385.146 C498.007,385.146 516.07,374.062 516.07,374.062 C516.07,374.062 529.038,364.147 529.038,364.147 C529.519,363.779 530.942,363.85 531.402,363.913 C531.806,363.968 532.134,364.947 531.901,365.363 C531.602,365.894 530.685,366.055 529.945,366.87 C529.945,366.87 526.985,370.133 526.985,370.133 C526.985,370.133 505.915,385.842 505.915,385.842 C488.187,396.721 469.835,404.348 449.792,408.873 C430.859,413.148 411.279,415.209 391.802,413.371 C380.689,412.322 370.117,411.306 359.6,407.233 Z " fill="#FFFFFF" />
  <path d="M587.971,620.204 C588.151,619.046 587.021,618.727 586.815,619.846 C586.815,619.846 556.972,628.963 556.972,628.963 C553.44,630.042 549.99,630.785 546.749,630.851 C546.694,630.678 546.596,630.085 546.974,629.471 C546.974,629.471 579.276,619.386 579.276,619.386 C580.07,619.138 580.956,618.27 582.209,618.502 C582.913,618.633 583.64,617.693 583.046,616.609 C601.98,609.62 620.596,601.24 637.299,589.228 C650.316,580.582 661.494,570.501 670.554,557.781 C671.835,557.799 672.606,556.077 673.389,556.27 C673.907,556.398 673.515,558.195 675.646,558.198 C674.714,561.428 672.778,564.31 669.984,567.058 C669.984,567.058 650.834,585.889 650.834,585.889 C631.822,601.404 610.561,612.308 587.971,620.204 Z " fill="#FFFFFF" />
  <path d="M257.987,667.947 C257.987,667.947 275.603,663.648 275.603,663.648 C276.577,663.411 277.21,663.001 278.062,663.463 C278.683,663.799 278.997,664.638 278.81,665.382 C278.568,666.343 277.535,666.965 276.373,667.348 C276.373,667.348 264.966,671.113 264.966,671.113 C257.529,673.567 244.882,674.16 235.827,673.209 C196.142,669.044 170.436,638.321 174.543,638.06 C178.315,637.821 193.668,659.244 228.69,667.275 C233.055,668.277 238.353,669.013 242.452,668.508 C247.016,667.947 250.722,669.72 257.987,667.947 Z " fill="#FFFFFF" />
  <path d="M290.172,484.79 C290.172,484.79 303.72,489.189 303.72,489.189 C304.526,489.45 304.819,490.235 304.943,490.609 C306.478,495.225 274.009,487.569 253.131,468.002 C239.77,455.48 227.526,441.138 221.66,422.481 C229.281,429.048 232.129,438.379 238.282,445.67 C238.282,445.67 247.882,457.045 247.882,457.045 C247.882,457.045 253.098,462.051 253.098,462.051 C263.85,472.37 276.012,480.193 290.172,484.79 Z " fill="#FFFFFF" />
  <path d="M615.92,633.719 C615.92,633.719 598.673,640.722 598.673,640.722 C596.105,641.765 593.418,643.085 590.777,641.326 C590.777,641.326 611.01,631.946 611.01,631.946 C611.01,631.946 628.719,622.749 628.719,622.749 C644.08,614.772 657.583,604.666 669.104,591.134 C671.762,588.011 673.138,584.034 677.425,581.646 C679.088,584.788 677.288,588.274 675.013,591.332 C664.111,605.984 648.949,616.207 633.192,625.142 C633.192,625.142 615.92,633.719 615.92,633.719 Z " fill="#FFFFFF" />
  <path d="M252.74,691.809 C253.052,691.823 253.045,691.51 252.805,691.006 C252.805,691.006 235.212,691.006 235.212,691.006 C234.981,691.535 234.982,691.854 234.668,691.94 C229.718,691.976 225.023,690.193 219.601,689.123 C217.609,689.091 217.741,686.604 219.648,686.844 C241.401,689.585 262.219,688.536 280.17,678.293 C280.17,678.293 295.487,669.553 295.487,669.553 C295.743,671.049 294.351,673.128 293.146,674.196 C281.837,684.223 267.869,689.869 252.74,691.809 Z " fill="#FFFFFF" />
  <path d="M430.08,388.362 C430.08,388.362 439.547,386.601 439.547,386.601 C454.296,383.858 465.359,382.247 481.107,375.296 C481.107,375.296 502.846,365.7 502.846,365.7 C499.317,371.597 492.623,373.924 486.854,376.867 C474.586,383.125 461.94,387.25 448.329,389.439 C448.329,389.439 430.445,390.083 430.445,390.083 C429.949,389.53 429.967,388.844 430.08,388.362 Z " fill="#FFFFFF" />
  <path d="M824.191,501.334 C822.577,496.186 825.482,492.668 825.653,488.604 C825.653,488.604 826.222,475.109 826.222,475.109 C826.592,466.318 821.88,457.624 815.107,452.009 C812.814,450.109 810.612,448.949 809.594,446.152 C818.167,445.119 825.912,455.959 829.321,464.825 C834.023,477.055 832.408,490.245 824.191,501.334 Z " fill="#FFFFFF" />
  <path d="M843.289,491.428 C843.289,491.428 844.478,482.457 844.478,482.457 C845.228,476.798 846.861,471.189 845.308,465.749 C843.259,458.573 840.612,451.916 835.955,445.911 C833.001,442.104 844.261,442.76 848.867,460.273 C853.161,476.594 845.808,488.544 845.646,491.094 C845.589,491.994 843.2,492.1 843.289,491.428 Z " fill="#FFFFFF" />
  <path d="M283.512,510.056 C283.512,510.056 274.208,506.802 274.208,506.802 C264.229,503.312 246.785,490.551 247.853,486.552 C247.96,486.149 248.846,485.883 249.37,486.112 C251.539,487.061 263.57,502.628 294.227,508.693 C296.652,509.172 299.211,509.431 301.672,511.236 C295.545,513.832 289.759,512.24 283.512,510.056 Z " fill="#FFFFFF" />
  <path d="M502.001,278.004 C502.61,287.272 507.459,294.909 512.936,301.957 C512.936,301.957 518.963,309.712 518.963,309.712 C517.249,310.452 516.124,309.923 514.954,309.059 C502.308,299.722 495.286,284.262 498.271,268.312 C498.369,267.789 500.057,267.822 500.468,268.01 C500.816,268.169 501.68,273.123 502.001,278.004 Z " fill="#FFFFFF" />
  <path d="M491.901,302.141 C494.921,305.893 499.097,308.342 501.037,313.254 C488.303,309.694 478.079,293.437 480.199,280.372 C480.817,279.823 482.489,280.36 482.636,280.936 C482.636,280.936 483.336,283.682 483.336,283.682 C483.7,290.829 487.429,296.585 491.901,302.141 Z " fill="#FFFFFF" />
  <path d="M738.915,556.162 C738.326,556.255 737.817,555.733 737.928,555.457 C737.928,555.457 738.682,553.592 738.682,553.592 C744.479,539.237 737.486,529.774 739.599,522.036 C739.561,525.485 741.761,529.106 741.733,532.989 C741.733,532.989 741.616,549.547 741.616,549.547 C741.597,552.127 739.898,554.284 738.915,556.162 Z " fill="#FFFFFF" />
  <path d="M557.055,554.014 C553.986,553.084 550.892,555.207 547.736,555.484 C538.114,556.328 528.414,556.345 519.068,555.503 C526.958,554.884 535.282,555.625 543.683,554.466 C543.683,554.466 555.52,552.831 555.52,552.831 C555.856,552.785 556.387,551.42 557.509,551.97 C558.67,552.539 557.052,552.821 557.055,554.014 Z " fill="#FFFFFF" />
  <path d="M592.088,325.75 C592.088,325.75 586.008,326.807 586.008,326.807 C579.795,327.887 573.869,328.731 568.392,326.879 C569.196,325.226 570.036,325.449 571.395,325.66 C578.989,326.839 586.688,325.168 594.023,324.115 C594.373,327.466 592.242,324.831 592.088,325.75 Z " fill="#FFFFFF" />
  <path d="M426.953,604.264 C426.953,604.264 420.907,605.317 420.907,605.317 C419.26,605.604 418.617,606.223 416.425,605.45 C411.331,603.654 405.224,606.387 399.926,605.901 C400.032,605.268 400.94,604.066 401.917,604.042 C401.917,604.042 420.598,603.582 420.598,603.582 C422.702,603.531 425.546,602.013 426.953,604.264 Z " fill="#FFFFFF" />
  <path d="M727.966,406.196 C718.376,407.799 712.547,406.686 704.976,402.33 C705.4,400.948 706.157,402.01 707.111,401.846 C707.111,401.846 713.437,404.611 713.437,404.611 C713.437,404.611 727.715,405.05 727.715,405.05 C727.963,405.334 728.006,405.823 727.966,406.196 Z " fill="#FFFFFF" />
  <path d="M342.039,595.41 C342.039,595.41 335.648,594.456 335.648,594.456 C331.278,593.804 326.891,594.128 322.794,593.858 C322.965,593.5 322.199,592.587 321.993,592.187 C325.639,590.393 329.4,592.467 332.998,592.9 C336.431,593.314 340.201,592.095 342.039,595.41 Z " fill="#FFFFFF" />
  <path d="M690.025,461.175 C690.025,461.175 689.97,442.931 689.97,442.931 C689.968,442.198 690.393,441.791 690.805,441.842 C692.611,448.24 692.627,455.126 690.025,461.175 Z " fill="#FFFFFF" />
  <path d="M810.248,489.203 C809.255,489.469 808.49,488.101 809.949,487.809 C810.269,483.887 809.888,480.023 808.786,476.114 C807.485,475.616 808.599,474.298 809.497,474.724 C809.497,474.724 810.158,476.977 810.158,476.977 C811.374,481.123 813.638,486.425 810.248,489.203 Z " fill="#FFFFFF" />
  <path d="M796.126,463.184 C796.658,466.846 793.157,462.223 784.855,462.251 C784.173,462.165 783.057,460.497 783.147,460.2 C783.147,460.2 796.126,463.184 796.126,463.184 Z " fill="#FFFFFF" />
  <path d="M519.006,280.178 C519.006,280.178 517.552,275.485 517.552,275.485 C516.638,272.532 516.341,271.342 516.473,269.082 C519.648,268.87 517.249,273.404 519.785,278.031 C520.252,278.883 520.062,280.029 519.006,280.178 Z " fill="#FFFFFF" />
  <path d="M740.119,520.176 C739.79,520.189 738.671,520.863 738.405,520.506 C738.363,520.449 736.836,513.532 737.906,509.883 C739.862,512.884 740.103,516.644 740.119,520.176 Z " fill="#FFFFFF" />
  <path d="M700.1,522.022 C700.514,522.901 700.059,523.717 699.362,523.835 C698.801,523.93 697.967,523.737 697.594,523.38 C695.512,521.387 693.428,524.06 691.965,523.927 C691.934,523.397 691.124,522.616 690.797,522.172 C694.131,520.998 697.469,520.963 700.1,522.022 Z " fill="#FFFFFF" />
  <path d="M242.873,647.248 C238.447,645.887 236.877,640.557 238.208,635.992 C238.51,636.002 238.827,634.862 240.309,635.186 C239.129,637.363 238.204,639.695 239.495,641.864 C240.532,643.605 241.951,645.766 245.108,646.304 C244.695,647.87 243.547,647.31 242.873,647.248 Z " fill="#FFFFFF" />
  <path d="M516.025,553.158 C512.344,553.112 508.534,552.705 505.046,551.793 C504.995,551.509 504.003,551.177 504.175,549.752 C509.75,552.601 515.396,549.129 516.025,553.158 Z " fill="#FFFFFF" />
  <path d="M686.149,266.987 C688.771,267.175 691.537,268.007 693.985,268.951 C694.185,270.194 695.633,270.63 694.476,271.031 C693.398,271.403 693.105,270.333 692.759,270.239 C692.759,270.239 682.999,267.571 682.999,267.571 C682.999,267.571 683.066,266.161 683.066,266.161 C684.166,266.612 684.877,266.895 686.149,266.987 Z " fill="#FFFFFF" />
  <path d="M252.74,691.809 C252.74,691.809 234.668,691.94 234.668,691.94 C234.982,691.854 234.981,691.535 235.212,691.006 C235.212,691.006 252.805,691.006 252.805,691.006 C253.045,691.51 253.052,691.823 252.74,691.809 Z " fill="#FFFFFF" />
  <path d="M729.926,454.764 C731.691,453.799 732.712,455.792 730.89,456.711 C730.89,456.711 725.444,457.295 725.444,457.295 C723.319,457.523 721.108,458.46 719.824,457.134 C719.824,457.134 729.926,454.764 729.926,454.764 Z " fill="#FFFFFF" />
  <path d="M330.999,550.678 C330.992,551.102 330.651,552.769 329.673,552.783 C329.673,552.783 317.978,552.956 317.978,552.956 C317.978,552.956 318.78,551.072 318.78,551.072 C323.045,551.957 326.783,552.491 330.999,550.678 Z " fill="#FFFFFF" />
  <path d="M365.722,446.969 C361.737,448.662 354.401,448.714 351.899,446.017 C353.446,446.097 354.675,445.948 356.476,446.585 C359.276,447.575 363.019,446.233 365.722,446.969 Z " fill="#FFFFFF" />
  <path d="M647.2,230.222 C647.17,230.515 648.031,230.872 647.836,232.24 C642.031,229.299 636.336,232.99 634.97,229.158 C634.97,229.158 647.2,230.222 647.2,230.222 Z " fill="#FFFFFF" />
  <path d="M703.916,534.019 C704.123,530.25 704.657,526.077 702.187,523.054 C701.878,522.231 703.23,521.555 703.914,522.234 C705.21,525.153 705.054,528.519 704.978,532.08 C705.333,533.171 704.839,534.122 703.916,534.019 Z " fill="#FFFFFF" />
  <path d="M618.97,545.711 C618.278,547.003 615.88,548.684 613.908,547.864 C611.762,546.971 610.212,544.424 608.678,543.094 C611.837,545.911 615.111,546.377 618.97,545.711 Z " fill="#FFFFFF" />
  <path d="M802.083,495.894 C799.54,497.978 794.644,497.227 791.973,496.015 C798.428,495.706 801.75,494.22 802.083,495.894 Z " fill="#FFFFFF" />
  <path d="M607.966,263.938 C608.116,264.311 607.943,265.033 607.064,265.024 C607.064,265.024 595.213,264.907 595.213,264.907 C594.992,264.681 594.931,264.197 595.02,263.923 C595.02,263.923 607.966,263.938 607.966,263.938 Z " fill="#FFFFFF" />
  <path d="M762.206,453.856 C760.964,455.467 758.494,453.174 757.091,453.18 C757.091,453.18 740.969,453.254 740.969,453.254 C741.54,451.623 744.492,452.474 745.835,451.858 C748.35,450.706 749.559,451.479 752.15,451.801 C752.15,451.801 758.465,452.586 758.465,452.586 C759.006,452.429 760.088,451.505 760.958,452.411 C761.321,452.789 761.942,453.343 762.206,453.856 Z " fill="#FFFFFF" />
  <path d="M483.287,551.079 C483.013,552.109 481.741,552.613 481.141,553.242 C479.33,552.625 480.57,551.951 480.952,551.442 C481.689,550.46 482.569,549.447 483.287,551.079 Z " fill="#FFFFFF" />
  <path d="M583.046,616.609 C583.64,617.693 582.913,618.633 582.209,618.502 C580.956,618.27 580.07,619.138 579.276,619.386 C579.276,619.386 546.974,629.471 546.974,629.471 C546.596,630.085 546.694,630.678 546.749,630.851 C549.99,630.785 553.44,630.042 556.972,628.963 C556.972,628.963 586.815,619.846 586.815,619.846 C587.021,618.727 588.151,619.046 587.971,620.204 C587.971,620.204 579.041,623.826 579.041,623.826 C557.522,630.816 535.676,635.985 513.198,638.831 C511.944,637.69 509.725,637.816 508.941,636.148 C511.783,635.798 514.324,635.295 517.565,634.628 C517.565,634.628 529.013,632.272 529.013,632.272 C529.013,632.272 559.639,624.452 559.639,624.452 C559.639,624.452 583.046,616.609 583.046,616.609 Z " fill="#FFFFFF" />
  <path d="M432.876,430.59 C432.745,432.576 431.101,432.692 428.951,432.988 C428.951,432.988 421.905,433.959 421.905,433.959 C422.157,432.203 427.815,431.651 432.876,430.59 Z " fill="#FFFFFF" />
  <path d="M591.786,234.135 C591.786,234.135 590.499,234.026 590.499,234.026 C590.178,233.995 589.697,233.026 590.958,232.623 C588.245,229.269 588.55,224.826 589.787,221.142 C591.293,221.686 591.032,227.643 591.786,234.135 Z " fill="#FFFFFF" />
  <path d="M357.57,479.933 C357.801,479.594 358.109,478.79 357.785,478.033 C349.919,477.293 343.565,478.948 337.888,479.022 C337.756,478.766 338.69,477.157 339.302,477.157 C339.302,477.157 357.707,477.147 357.707,477.147 C358.163,477.147 358.882,478.224 359.015,478.555 C359.386,479.479 358.52,480.233 357.57,479.933 Z " fill="#FFFFFF" />
  <path d="M255.868,415.732 C249.446,406.318 244.493,396.132 244.391,385.017 C246.066,383.824 246.393,384.817 246.44,385.537 C245.923,390.619 246.877,395.195 249.066,399.956 C249.066,399.956 254.745,412.307 254.745,412.307 C255.755,414.505 258.165,415.904 255.868,415.732 Z " fill="#FFFFFF" />
  <path d="M467.245,562.153 C467.333,563.039 466.644,563.49 466.077,563.545 C466.058,562.632 465.426,561.62 464.516,561.929 C464.516,561.929 462.676,562.556 462.676,562.556 C462.676,562.556 450.916,567.797 450.916,567.797 C450.916,567.797 431.048,575.4 431.048,575.4 C427.755,576.66 425.064,578.546 420.671,579.207 C423.744,580.685 426.232,579.396 429.075,578.367 C429.075,578.367 458.777,567.618 458.777,567.618 C456.627,572.134 451.24,572.423 447.131,574.362 C437.349,578.98 427.689,581.872 417.268,584.343 C414.57,584.982 412.492,588.073 408.671,586.789 C412.209,583.445 413.85,579.658 411.631,579.681 C411.631,579.681 416.163,578.064 416.163,578.064 C418.346,578.557 419.893,577.014 421.935,576.203 C421.935,576.203 446.139,566.59 446.139,566.59 C446.139,566.59 462.91,559.887 462.91,559.887 C463.874,559.501 465.583,559.252 466.075,558.024 C466.258,557.733 467.136,557.742 467.499,558.028 C467.425,558.885 467.235,559.486 466.18,560.328 C465.297,561.034 466.155,562.436 467.245,562.153 Z M416.788,580.362 C415.673,579.597 414.04,579.636 413.167,581.118 C414.761,582.233 415.744,581.428 416.788,580.362 Z " fill="#FFFFFF" />
  <path d="M554.667,310.14 C556.846,309.341 560.494,312.301 562.203,310.512 C564.093,308.532 556.225,309.746 556.954,306.457 C556.954,306.457 568.397,309.609 568.397,309.609 C568.397,309.609 583.779,310.11 583.779,310.11 C584.251,311.167 584.243,312.971 583.731,313.813 C575.326,316.209 566.346,314.881 558.004,312.038 C556.507,311.527 555.112,311.715 554.667,310.14 Z " fill="#FFFFFF" />
  <path d="M673.094,391.984 C672.892,392.589 673.011,393.964 673.523,394.151 C674.017,394.332 675.425,394.406 675.793,395.259 C676.009,395.759 674.679,396.753 674.754,397.41 C674.796,397.778 675.729,397.99 676.077,398.136 C676.077,398.136 672.178,404.538 672.178,404.538 C670.719,404.566 669.267,404.21 667.969,403.543 C668.953,402.898 669.243,401.962 669.218,401.55 C669.194,401.156 668.549,400.78 668.102,400.89 C668.943,399.492 671.452,399.026 672.474,396.24 C667.743,396.867 664.711,400.194 661.12,403.03 C661.12,403.03 659.368,403.891 659.368,403.891 C655.94,405.575 660.202,394.809 673.094,391.984 Z " fill="#FFFFFF" />
  <path d="M412.969,598.833 C413.269,599.947 412.485,600.521 411.483,600.503 C411.483,600.503 408.948,600.458 408.948,600.458 C407.705,600.436 406.533,600.096 406.202,599.401 C406.009,598.996 406.456,597.531 406.242,597.291 C404.804,597.284 403.959,596.919 403.801,596.03 C403.801,596.03 411.988,594.376 411.988,594.376 C417.66,593.23 422.643,592.205 428.159,590.151 C432.77,588.435 436.901,585.023 442.657,586.429 C442.657,586.429 427.215,593.318 427.215,593.318 C427.215,593.318 416.056,596.492 416.056,596.492 C413.292,597.278 411.403,598.313 407.688,598.141 C409.341,599.958 411.404,598.785 412.969,598.833 Z " fill="#FFFFFF" />
  <path d="M459.115,435.779 C459.115,435.779 450.25,437.389 450.25,437.389 C450.25,437.389 437.268,439.34 437.268,439.34 C435.24,439.645 432.874,439.449 430.989,439.112 C430.861,438.095 431.755,437.848 432.737,437.721 C432.737,437.721 440.338,436.734 440.338,436.734 C439.287,436.558 438.771,435.312 438.951,434.584 C438.843,435.022 447.51,432.339 447.149,432.373 C447.149,432.373 459.999,431.188 459.999,431.188 C458.495,432.352 457.197,433.086 456.721,434.524 C456.463,435.302 458.766,435.426 459.115,435.779 Z " fill="#FFFFFF" />
  <path d="M492.019,542.036 C491.847,543.104 491.09,543.078 490.097,543.03 C490.097,543.03 477.617,542.494 477.617,542.494 C472.397,542.27 466.672,541.875 460.895,542.191 C455.802,542.471 450.588,544.119 446.032,542.088 C446.032,542.088 459.402,540.426 459.402,540.426 C464.891,539.744 471.078,540.099 476.604,540.535 C476.604,540.535 487.551,541.397 487.551,541.397 C489.278,541.533 490.49,542.048 492.019,542.036 Z " fill="#FFFFFF" />
  <path d="M551.791,548.142 C551.884,548.275 551.852,549.159 551.624,549.882 C542.421,551.128 526.568,551.816 525.58,549.999 C525.342,549.562 525.097,548.457 526.062,547.527 C523.754,545.197 520.378,546.372 517.694,546.297 C517.694,546.297 506.166,545.974 506.166,545.974 C505.916,545.602 505.893,544.922 506.089,544.525 C506.089,544.525 517.187,544.808 517.187,544.808 C520.635,543.758 525.687,543.291 528.08,546.881 C528.08,546.881 527.049,548.645 527.049,548.645 C526.772,549.119 527.16,549.517 527.928,549.644 C536.629,551.08 544.047,548.996 551.791,548.142 Z " fill="#FFFFFF" />
  <path d="M683.213,447.8 C683.59,448.791 682.188,450.308 681.486,448.332 C682.011,447.001 681.804,444.804 679.692,444.661 C679.692,444.661 680.555,464.129 680.555,464.129 C682.748,464.079 681.12,460.952 682.965,460.492 C683.281,460.414 683.731,460.29 683.765,460.575 C683.765,460.575 683.948,462.1 683.948,462.1 C681.917,462.447 684.126,465.936 681.907,466.418 C681.568,465.208 680.123,464.281 679.456,464.957 C679.456,464.957 677.761,466.671 677.761,466.671 C677.02,467.421 676.142,465.934 676.414,465.089 C677.104,465.331 678.105,464.998 678.109,464.073 C678.109,464.073 678.202,443.211 678.202,443.211 C678.207,442.072 680.814,441.717 681.225,442.76 C681.225,442.76 683.213,447.8 683.213,447.8 Z " fill="#FFFFFF" />
  <path d="M729.746,557.291 C729.746,557.291 731.151,548.086 731.151,548.086 C733.597,549.253 733.967,551.362 734.595,554.176 C736.703,547.835 736.098,540.593 735.434,533.745 C735.434,533.745 734.683,526.005 734.683,526.005 C735.368,525.714 736.058,526.183 735.961,526.535 C735.848,526.946 736.118,527.95 736.991,528.331 C736.991,528.331 736.714,551.943 736.714,551.943 C736.697,553.428 736.069,554.61 735.435,555.028 C734.546,555.614 733.261,556.399 731.564,555.557 C731.35,556.031 730.989,557.174 729.746,557.291 Z " fill="#FFFFFF" />
  <path d="M251.914,635.205 C251.321,635.069 251.296,634.685 251.378,634.435 C251.525,633.988 252.016,633.48 252.014,633.249 C252.014,633.249 246.114,632.647 246.114,632.647 C244.564,631.958 245.143,630.426 246.645,630.801 C254.97,633.808 260.891,624.035 262.518,626.912 C264.035,629.594 254.08,635.934 253.547,635.755 C253.547,635.755 251.914,635.205 251.914,635.205 Z " fill="#FFFFFF" />
  <path d="M600.828,326.315 C601.554,325.237 602.402,323.185 604.265,322.92 C605.732,322.886 608.169,324.827 609.824,323.809 C609.824,323.809 619.797,317.674 619.797,317.674 C620.507,320.575 617.694,321.202 616.659,322.566 C610.927,330.119 607.092,324.884 600.828,326.315 Z " fill="#FFFFFF" />
  <path d="M382.823,608.213 C382.823,608.213 357.908,621.133 357.908,621.133 C358.634,618.24 356.567,615.302 359.482,615.961 C359.248,616.513 359.098,617.686 359.646,617.972 C360.373,618.351 361.648,617.445 362.212,617.151 C362.212,617.151 379.87,607.942 379.87,607.942 C379.87,607.942 385.042,605.029 385.042,605.029 C384.56,606.109 383.118,606.788 382.823,608.213 Z " fill="#FFFFFF" />
  <path d="M675.9,407.48 C675.88,408.025 676.763,409.734 677.396,409.405 C680.565,407.758 680.047,411.916 680.428,419.42 C680.824,420.018 681.281,420.974 679.601,421.106 C678.51,417.833 679.345,414.165 677.374,410.817 C675.489,415.533 676.325,419.86 675.774,424.005 C675.774,424.005 674.262,424.009 674.262,424.009 C674.262,424.009 674.153,409.096 674.153,409.096 C674.145,407.977 675.263,407.43 675.9,407.48 Z " fill="#FFFFFF" />
  <path d="M578.106,272.657 C567.917,274.382 559.568,273.97 550.873,270.845 C551.025,269.911 551.905,269.646 552.534,269.916 C552.534,269.916 554.858,270.916 554.858,270.916 C554.858,270.916 563.328,271.697 563.328,271.697 C575.12,272.784 578.889,269.533 578.106,272.657 Z " fill="#FFFFFF" />
  <path d="M361.904,453.439 C356.77,453.206 351.185,452.58 345.967,451.356 C345.716,450.821 346.098,450.07 346.524,449.957 C346.924,449.85 347.769,450.651 348.246,450.688 C348.246,450.688 371.121,452.466 371.121,452.466 C368.301,452.978 364.49,453.557 361.904,453.439 Z " fill="#FFFFFF" />
  <path d="M780.883,465.443 C780.883,465.443 768.319,462.326 768.319,462.326 C765.77,461.693 761.883,462.874 759.808,460.101 C763.805,459.206 780.64,463.982 779.948,463.337 C780.45,463.805 781.132,464.322 780.883,465.443 Z " fill="#FFFFFF" />
  <path d="M677.023,493.985 C677.023,493.985 658.929,495.188 658.929,495.188 C659.032,494.542 659.21,493.65 660.409,493.594 C660.409,493.594 675.063,492.914 675.063,492.914 C676.123,492.864 676.863,492.946 677.023,493.985 Z " fill="#FFFFFF" />
  <path d="M363.983,471.485 C363.983,471.485 336.153,472.868 336.153,472.868 C334.614,472.945 334.665,468.501 335.119,467.997 C336.878,468.046 339.455,468.523 341.21,467.327 C341.988,465.375 340.148,464.306 339.373,466.39 C336.524,464.697 335.777,466.955 334.752,466.872 C334.752,466.872 326.906,466.238 326.906,466.238 C321.949,465.837 317.306,466.218 312.945,465.194 C312.945,465.194 329.713,464.609 329.713,464.609 C329.713,464.609 341.643,463.067 341.643,463.067 C341.661,469.294 347.999,463.161 354.001,466.406 C354.001,466.406 341.895,469.914 341.895,469.914 C339.644,470.566 337.089,469.36 335.684,471.837 C340.118,472.063 343.626,471.345 347.43,471.285 C347.43,471.285 363.983,471.485 363.983,471.485 Z " fill="#FFFFFF" />
  <path d="M644.253,492.775 C644.199,493.259 644.141,494.608 644.86,494.844 C644.86,494.844 654.08,494.924 654.08,494.924 C655.118,494.933 655.817,494.945 655.985,495.971 C655.985,495.971 640.248,496.794 640.248,496.794 C639.189,494.49 642.453,493.393 644.253,492.775 Z " fill="#FFFFFF" />
  <path d="M701.164,491.369 C701.164,491.369 690.736,492.604 690.736,492.604 C690.736,492.604 680.812,492.942 680.812,492.942 C680.812,492.942 682.266,491.03 682.266,491.03 C682.266,491.03 701.164,491.369 701.164,491.369 Z " fill="#FFFFFF" />
  <path d="M265.987,639.996 C264.684,639.598 263.498,639.975 262.833,642.282 C262.046,642.213 261.692,641.053 261.986,640.609 C261.986,640.609 262.944,639.165 262.944,639.165 C261.914,639.423 261.142,638.556 261.511,638.249 C261.791,638.015 262.182,637.332 261.985,636.909 C264.11,635.845 265.611,633.862 268.796,633.162 C268.068,636.514 265.936,637.739 265.987,639.996 Z " fill="#FFFFFF" />
  <path d="M336.026,587.994 C332.569,589.949 322.203,588.662 318.905,587.226 C321.396,585.586 324.103,585.478 327.022,587.062 C329.426,588.367 333.325,587.563 336.026,587.994 Z " fill="#FFFFFF" />
  <path d="M365.921,590.071 C370.548,590.171 377.261,588.393 382.178,586.947 C382.274,587.468 383.172,588.313 382.865,588.69 C383.241,588.228 369.907,592.455 365.921,590.071 Z " fill="#FFFFFF" />
  <path d="M682.113,273.841 C682.113,273.841 670.946,272.028 670.946,272.028 C671.087,270.892 671.967,270.835 672.903,271.116 C672.903,271.116 682.478,271.601 682.478,271.601 C683.042,272.776 682.342,273.351 682.113,273.841 Z " fill="#FFFFFF" />
  <path d="M651.649,489.342 C650.25,483.213 651.281,476.076 651.042,468.931 C649.687,467.352 649.337,464.923 650.847,463.789 C650.847,463.789 651.987,470.972 651.987,470.972 C651.987,470.972 651.649,489.342 651.649,489.342 Z " fill="#FFFFFF" />
  <path d="M447.144,536.375 C445.5,535.363 446.757,534.31 447.74,534.831 C449.836,533.077 452.37,530.905 455.146,531.012 C455.715,531.128 455.899,529.083 456.519,529.033 C456.519,529.033 458.698,528.861 458.698,528.861 C460.523,528.716 461.637,524.877 452.24,529.366 C452.24,529.366 449.516,530.667 449.516,530.667 C449.068,530.881 448.157,531.347 447.859,529.914 C456.511,525.605 465.465,521.855 476.244,523.329 C476.015,525.16 473.012,526.304 471.149,525.877 C468.469,525.262 466.64,527.4 465.162,527.522 C460.723,527.889 458.883,530.032 455.937,531.808 C454.625,532.599 452.466,532.937 450.961,533.91 C450.961,533.91 447.144,536.375 447.144,536.375 Z " fill="#FFFFFF" />
  <path d="M321.035,557.921 C319.472,557.716 318.042,557.643 315.906,557.058 C315.906,557.058 310.173,554.826 310.173,554.826 C310.173,554.826 316.825,555.578 316.825,555.578 C318.676,555.787 320.441,556.483 321.035,557.921 Z " fill="#FFFFFF" />
  <path d="M683.911,439.028 C680.707,436.106 683.127,431.684 680.869,424.91 C685.137,426.501 680.91,432.594 684.831,437.368 C685.438,438.108 684.893,439.146 683.911,439.028 Z " fill="#FFFFFF" />
  <path d="M261.142,427.162 C261.958,426.337 262.964,425.7 263.418,426.006 C263.728,426.215 264.117,426.7 264.945,426.985 C266.408,427.491 267.636,426.444 267.571,425.61 C267.36,422.917 263.122,421.538 266.207,420.947 C266.207,420.947 270.425,427.333 270.425,427.333 C267.99,429.542 264.191,428.358 261.142,427.162 Z " fill="#FFFFFF" />
  <path d="M729.977,398.651 C730.181,399.095 729.865,399.988 729.485,399.934 C729.105,399.88 728.151,400.749 727.685,400.753 C727.685,400.753 715.311,400.851 715.311,400.851 C714.999,400.853 714.054,399.788 713.958,399.507 C713.863,399.225 714.762,398.716 714.952,398.89 C719.931,400.457 725.042,400.633 729.977,398.651 Z " fill="#FFFFFF" />
  <path d="M592.115,317.909 C588.44,319.872 583.774,322.76 579.78,320.037 C584.095,319.385 587.836,317.859 592.115,317.909 Z " fill="#FFFFFF" />
  <path d="M657.745,386.707 C658.667,387.839 657.488,388.069 657.341,389.353 C657.341,389.353 663.16,388.553 663.16,388.553 C662.603,390.816 659.504,390.157 657.956,390.652 C655.892,391.312 655.013,390.364 655.333,388.776 C655.613,387.384 656.896,387.303 657.745,386.707 Z " fill="#FFFFFF" />
  <path d="M603.045,270.007 C599.329,270.14 595.197,269.829 591.446,270.434 C591.446,270.434 586.936,271.162 586.936,271.162 C590.874,268.484 598.752,268.186 603.045,270.007 Z " fill="#FFFFFF" />
  <path d="M731.937,393.941 C731.937,393.941 719.219,393.988 719.219,393.988 C718.859,392.971 718.063,392.339 717.525,392.483 C719.875,391.193 721.71,392.721 723.947,392.989 C726.867,393.339 730.038,392.121 731.937,393.941 Z " fill="#FFFFFF" />
  <path d="M430.109,439.994 C426.348,439.676 422.747,440.753 419.138,441.437 C415.945,440.076 422.874,437.724 430.109,439.994 Z " fill="#FFFFFF" />
  <path d="M744.735,323.375 C742.094,322.382 739.004,322.053 736.621,320.527 C739.556,319.771 742.493,320.784 745.645,321.733 C747.798,321.921 746.628,324.35 744.735,323.375 Z " fill="#FFFFFF" />
  <path d="M538.027,266.227 C533.938,264.757 529.912,263.582 527.812,262.104 C529.362,261.444 538.749,263.168 538.027,266.227 Z " fill="#FFFFFF" />
  <path d="M717.826,301.222 C717.826,301.222 717.887,300.033 717.887,300.033 C717.955,298.726 718.51,296.569 716.978,296.071 C716.978,296.071 716.443,295.015 716.443,295.015 C720.45,292.248 717.655,299.049 720.168,306.074 C717.452,305.19 717.731,303.051 717.826,301.222 Z " fill="#FFFFFF" />
  <path d="M253.654,399.343 C252.873,397.823 251.631,396.43 251.321,393.995 C251.321,393.995 250.902,390.704 250.902,390.704 C250.857,390.347 251.351,390.091 251.973,390.138 C251.973,390.138 252.139,393.097 252.139,393.097 C252.258,395.232 254.571,397.03 253.654,399.343 Z " fill="#FFFFFF" />
  <path d="M786.081,491.843 C784.543,493.787 778.052,493.245 777.025,492.576 C776.325,492.121 775.952,491.079 775.701,490.189 C779.021,491.564 782.507,492.597 786.081,491.843 Z " fill="#FFFFFF" />
  <path d="M258.065,639.749 C256.214,642.52 253.649,643.183 249.845,643.171 C247.705,643.164 243.947,642.648 244.697,640.002 C245.861,639.944 246.348,640.788 246.102,641.875 C250.684,642.629 254.225,641.358 258.065,639.749 Z " fill="#FFFFFF" />
  <path d="M705.597,552.356 C703.375,549.369 703.204,545.008 706.166,541.915 C706.27,543.291 706.061,544.652 705.158,545.482 C706.688,547.774 705.941,550.073 705.597,552.356 Z " fill="#FFFFFF" />
  <path d="M373.385,602.561 C373.385,602.561 364.967,605.335 364.967,605.335 C364.967,605.335 365.94,603.523 365.94,603.523 C366.168,603.239 365.058,602.469 364.713,602.248 C364.713,602.248 367.182,600.82 367.182,600.82 C367.019,601.96 367.515,603.124 368.514,603.058 C369.607,602.986 371.568,601.072 372.576,601.285 C372.966,601.367 373.47,602.093 373.385,602.561 Z " fill="#FFFFFF" />
  <path d="M434.903,559.469 C432.39,560.673 431.23,558.951 433.345,557.93 C441.605,555.762 448.279,548.703 458.27,547.816 C457.099,553.311 443.415,557.022 434.903,559.469 Z M448.245,553.853 C450.727,554.699 450.453,550.887 448.073,551.789 C446.548,552.829 445.481,554.353 442.739,554.187 C444.356,555.822 446.416,555.16 448.245,553.853 Z " fill="#FFFFFF" />
  <path d="M349.803,508.982 C349.126,509.207 348.58,507.945 348.99,507.545 C351.21,505.371 348.327,503.365 351.813,498.754 C349.931,500.797 351.704,502.556 351.822,505.068 C351.822,505.068 349.803,508.982 349.803,508.982 Z " fill="#FFFFFF" />
  <path d="M683.965,452.929 C683.778,454.069 685.307,454.449 685.698,453.914 C686.82,450.239 685.303,447.176 684.762,444.007 C688.111,446.935 687.955,454.515 684.837,455.004 C684.053,455.127 682.411,453.799 683.965,452.929 Z " fill="#FFFFFF" />
  <path d="M708.694,467.52 C706.455,473.116 698.246,482.656 697.228,482.916 C695.263,483.417 693.66,485.235 692.142,486.127 C693.233,483.84 695.328,482.031 696.134,478.948 C696.134,478.948 689.894,485.105 689.894,485.105 C689.894,485.105 687.813,485.003 687.813,485.003 C687.813,485.003 698.106,472.975 698.106,472.975 C698.779,472.189 699.829,471.933 699.931,471.326 C700.047,470.638 698.797,469.181 698.26,469.276 C699.426,469.225 700.266,469.085 702.443,470.202 C703.396,466.497 707.052,468.366 708.694,467.52 Z M700.045,475.921 C702.422,471.545 707.337,471.66 705.841,468.222 C705.841,468.222 698.88,475.082 698.88,475.082 C696.873,475.742 698.653,477.991 700.045,475.921 Z " fill="#FFFFFF" />
  <path d="M707.356,484.428 C706.916,485.272 706.885,486.798 705.408,486.963 C704.225,487.096 703.464,486.978 701.715,485.508 C701.265,486.295 699.332,487.641 698.839,485.815 C704.138,481.225 707.587,472.39 715.729,467.826 C715.729,467.826 703.65,483.739 703.65,483.739 C702.819,484.833 704.046,485.831 704.675,485.775 C705.901,485.666 706.133,485.132 707.356,484.428 Z " fill="#FFFFFF" />
  <path d="M676.791,487.833 C676.26,487.886 675.083,488.165 675.03,487.538 C674.993,487.103 675.382,485.548 673.256,486.021 C673.125,482.7 675.056,478.889 677.877,476.727 C677.679,478.305 675.845,479.727 676.08,482.048 C679.554,478.649 681.22,475.9 678.815,475.908 C678.801,474.964 679.835,474.717 680.296,475.656 C680.539,476.151 681.167,476.704 681.503,476.737 C681.903,476.776 682.32,476.08 682.031,475.672 C682.586,475.981 683.814,476.203 684.419,475.203 C684.627,474.859 685.152,473.909 686.274,475.157 C686.274,475.157 676.987,484.871 676.987,484.871 C676.987,484.871 676.082,486.548 676.082,486.548 C676.082,486.548 676.791,487.833 676.791,487.833 Z " fill="#FFFFFF" />
  <path d="M627.314,257.514 C627.207,258.412 626.792,259.208 626.019,259.168 C625.415,259.225 624.886,258.818 624.88,258.125 C625.289,258.384 626.067,257.772 625.935,257.504 C625.713,257.054 624.833,255.847 624.427,256.039 C623.919,256.279 623.71,257.468 623.773,258.002 C622.609,257.206 621.94,255.575 619.995,255.163 C618.283,255.485 619.166,257.144 621.41,258.823 C620.709,259.297 619.526,259.113 619.15,258.621 C618.899,258.293 618.768,257.108 618.027,256.841 C616.909,256.439 616.386,257.921 617.383,258.365 C617.735,258.522 618.323,258.453 618.819,259.156 C620.43,260.479 619.627,261.156 617.768,261.488 C617.439,259.976 617.273,258.511 616.217,257.738 C614.72,256.642 614.424,254 611.938,254.069 C611.938,254.069 612.07,252.955 612.07,252.955 C612.07,252.955 609.961,249 609.961,249 C609.641,248.402 609.905,247.073 610.009,246.594 C610.094,246.205 610.771,245.98 611.169,246.159 C612.69,249.688 614.774,253.757 619.119,255.46 C619.119,255.46 614.733,246.511 614.733,246.511 C614.733,246.511 627.314,257.514 627.314,257.514 Z " fill="#FFFFFF" />
  <path d="M378.018,615.108 C378.623,614.799 379.191,615.508 378.526,615.89 C378.109,616.13 378.096,616.426 378.233,616.928 C378.233,616.928 363.814,624.36 363.814,624.36 C362.859,624.858 361.754,626.575 360.425,625.817 C361.054,625.61 361.47,625.108 361.465,624.546 C361.463,624.237 361.524,623.871 360.639,623.678 C360.639,623.678 378.018,615.108 378.018,615.108 Z " fill="#FFFFFF" />
  <path d="M397.922,593.633 C398.718,593.906 399.029,594.418 398.904,594.878 C397.433,595.067 398.042,596.58 399.194,596.512 C400.12,597.5 400.358,598.635 400.065,599.454 C399.718,600.426 398.521,600.051 397.849,600.018 C397.925,599.458 397.976,598.884 397.891,598.482 C396.978,594.154 371.643,608.616 362.663,613.933 C363.1,613.46 363.19,613.142 363.548,613.007 C364.429,612.677 363.731,611.726 363.47,611.995 C363.193,612.28 362.69,612.952 361.806,612.19 C365.113,609.431 369.015,607.13 373.241,605.157 C373.241,605.157 397.922,593.633 397.922,593.633 Z " fill="#FFFFFF" />
  <path d="M720.263,559.431 C720.256,558.246 720.107,556.582 718.636,557.222 C718.161,557.428 717.739,558.022 716.754,558.136 C721.163,553.988 718.98,547.713 722.083,546.733 C723.03,551.766 722.769,556.199 720.263,559.431 Z " fill="#FFFFFF" />
  <path d="M591.996,299.029 C592.097,298.318 590.666,298.1 590.403,297.512 C590.246,297.161 591.185,296.545 591.47,296.135 C600.214,294.689 605.028,296.985 603.324,293.554 C602.373,292.798 601.371,293.088 599.578,293.061 C601.117,291.097 603.448,291.844 605.083,292.916 C606.432,292.092 606.194,290.749 606.736,291.291 C605.377,287.116 602.07,286.678 598.879,285.281 C600.706,286.162 601.65,284.112 599.913,283.149 C594.145,283.238 587.837,282.216 582.45,283.521 C570.632,286.386 558.519,285.658 547.69,280.2 C547.128,279.916 546.66,280.506 546.53,281.012 C546.53,281.012 528.171,269.938 528.171,269.938 C528.282,268.469 529.729,267.985 530.511,268.012 C531.579,268.05 532.094,268.629 533.004,269.086 C533.004,269.086 546.999,276.107 546.999,276.107 C571.028,288.162 586.806,273.953 600.877,278.992 C611.832,282.915 616.035,290.131 625.877,295.562 C626.74,296.038 628.581,294.815 629.213,295.446 C630.022,296.256 630.261,297.667 629.843,298.375 C628.475,300.69 622.547,300.511 617.144,300.013 C617.509,302.247 617.122,303.264 616.11,304.528 C615.188,305.68 613.883,305.722 612.389,306.388 C612.389,306.388 600.176,311.831 600.176,311.831 C599.532,310.011 599.695,308.65 601.335,307.694 C605.085,305.509 606.78,304.731 605.4,303.143 C605.4,303.143 597.805,301.644 597.805,301.644 C601.372,299.928 604.197,300.159 607.304,299.354 C602.006,297.209 596.926,297.75 591.996,299.029 Z M612.28,296.237 C611.109,296.619 611.015,297.9 611.473,297.99 C612.055,298.104 612.822,298.077 613.442,298.002 C613.987,297.935 613.972,297.28 613.561,296.989 C613.309,296.811 612.921,296.028 612.28,296.237 Z " fill="#FFFFFF" />
  <path d="M683.625,316.199 C680.921,315.317 679.863,321.423 676.533,320.921 C675.93,320.83 675.484,319.907 675.398,319.338 C674.961,316.475 676.594,315.697 677.684,314.025 C680.014,310.456 681.631,305.833 686.215,305.718 C687.54,305.685 687.678,305.608 688.171,304.584 C688.807,303.261 690.477,304.533 693.517,306.177 C692.955,305.873 698.725,318.738 693.199,321.776 C691.216,322.867 687.97,322.143 686.601,321.186 C685.297,320.275 684.689,318.014 683.625,316.199 Z " fill="#FFFFFF" />
  <path d="M640.662,529.077 C639.923,527.187 635.903,528.053 635.825,526.06 C639.799,526.025 642.843,525.204 647.003,524.154 C647.003,524.154 656.029,521.877 656.029,521.877 C656.029,521.877 681.972,512 681.972,512 C682.125,514.537 679.996,515.182 678.024,516.07 C668.702,520.269 659.909,524.179 650.281,527.293 C650.281,527.293 640.662,529.077 640.662,529.077 Z " fill="#FFFFFF" />
  <path d="M609.516,521.69 C606.803,518.501 606.509,515.775 604.976,512.971 C600.338,504.495 593.319,498.512 585.74,491.84 C595.838,494.392 602.315,502.353 607.139,511.002 C608.949,514.249 611.677,516.814 609.516,521.69 Z " fill="#FFFFFF" />
  <path d="M625.905,371.821 C629.114,374.625 632.261,376.645 636.003,377.981 C636.003,377.981 637.716,378.593 637.716,378.593 C638.047,378.712 637.974,380.099 637.789,380.427 C636.73,382.308 617.625,378.43 618.587,362.287 C622.622,360.583 621.535,368.002 625.905,371.821 Z " fill="#FFFFFF" />
  <path d="M680.816,293.994 C675.231,295.46 672.936,303.809 670.57,302.782 C668.465,301.869 669.944,293.696 680.663,288.664 C683.428,287.367 686.993,287.714 688.613,291.104 C686.043,292.807 683.709,293.235 680.816,293.994 Z " fill="#FFFFFF" />
  <path d="M422.412,450.844 C422.412,450.844 411.006,453.919 411.006,453.919 C405.331,455.449 400.745,459.173 394.589,462.643 C394.573,458.424 407.677,451.198 414.013,449.843 C419.978,448.568 425.484,446.629 431.178,448.533 C428.046,450.585 425.093,450.121 422.412,450.844 Z " fill="#FFFFFF" />
  <path d="M543.138,428.825 C543.138,428.825 538.417,441.317 538.417,441.317 C538.143,442.043 536.969,442.029 536.597,441.864 C533.786,440.612 541.569,421.628 547.818,414.26 C548.34,419.88 544.973,423.969 543.138,428.825 Z " fill="#FFFFFF" />
  <path d="M323.562,564.437 C318.964,566.382 315.053,565.763 311.06,566.229 C306.582,566.753 305.164,571.396 301.541,574.52 C300.304,565.723 309.145,561.23 316.992,561.872 C320.058,562.123 322.467,561.717 323.562,564.437 Z " fill="#FFFFFF" />
  <path d="M554.652,542.344 C557.647,538.765 561.706,537.396 565.002,535.029 C571.236,530.554 576.219,521.266 576.182,520.596 C576.142,519.854 578.865,520.084 578.565,520.969 C574.921,531.732 566.099,541.291 554.652,542.344 Z " fill="#FFFFFF" />
  <path d="M324.977,460.662 C322.404,463.724 311.147,460.603 308.063,458.759 C305.441,457.192 301.036,456.788 299.903,452.155 C299.903,452.155 324.977,460.662 324.977,460.662 Z " fill="#FFFFFF" />
  <path d="M616.853,368.026 C616.935,369.011 618.027,370.079 617.619,370.982 C615.665,375.305 607.225,361.652 615.312,349.508 C615.312,349.508 616.853,368.026 616.853,368.026 Z " fill="#FFFFFF" />
  <path d="M598.879,285.281 C587.978,280.509 565.885,292.688 546.53,281.012 C546.66,280.506 547.128,279.916 547.69,280.2 C558.519,285.658 570.632,286.386 582.45,283.521 C587.837,282.216 594.145,283.238 599.913,283.149 C601.65,284.112 600.706,286.162 598.879,285.281 Z " fill="#FFFFFF" />
  <path d="M612.829,346.756 C612.829,346.756 610.046,355.926 610.046,355.926 C607.45,364.477 603.837,352.156 615.057,336.312 C617.564,340.124 613.797,343.567 612.829,346.756 Z " fill="#FFFFFF" />
  <path d="M586.233,367.888 C582.79,375.103 582.803,384.84 581.357,384.935 C577.587,385.181 580.458,369.519 587.981,361.106 C589.604,363.997 587.133,366.001 586.233,367.888 Z " fill="#FFFFFF" />
  <path d="M547.469,435.011 C544.818,441.278 547.048,447.469 545.465,454.828 C540.216,445.842 544.542,430.43 547.507,432.05 C548.355,432.513 547.975,433.814 547.469,435.011 Z " fill="#FFFFFF" />
  <path d="M368.988,492.021 C368.988,492.021 353.764,503.713 353.764,503.713 C356.554,496.004 363.344,492.232 369.458,489.6 C370.375,491.131 369.437,491.676 368.988,492.021 Z " fill="#FFFFFF" />
  <path d="M434.249,517.215 C435.075,522.785 431.8,528.542 428.413,533.987 C427.388,532.451 427.943,529.854 428.971,528.059 C431.897,522.951 431.362,517.643 432.696,512.724 C432.634,514.113 434.021,515.684 434.249,517.215 Z " fill="#FFFFFF" />
  <path d="M606.736,291.291 C606.194,290.749 606.432,292.092 605.083,292.916 C603.448,291.844 601.117,291.097 599.578,293.061 C601.371,293.088 602.373,292.798 603.324,293.554 C603.324,293.554 594.165,293.844 594.165,293.844 C595.708,292.464 594.991,291.631 594.091,290.008 C598.076,290.208 602.2,289.446 606.736,291.291 Z " fill="#FFFFFF" />
  <path d="M442.07,514.902 C441.565,514.851 440.917,515.833 440.488,516.023 C440.103,516.194 439.374,514.808 439.062,514.625 C440.129,510.601 439.635,506.807 440.489,502.651 C443.423,506.747 441.874,511.122 442.07,514.902 Z " fill="#FFFFFF" />
  <path d="M591.47,296.135 C591.185,296.545 590.246,297.161 590.403,297.512 C590.666,298.1 592.097,298.318 591.996,299.029 C591.996,299.029 586.388,300.483 586.388,300.483 C585.65,300.675 584.428,300.792 584.072,300.335 C582.735,298.618 586.63,296.936 591.47,296.135 Z " fill="#FFFFFF" />
  <path d="M435.053,515.051 C434.621,513.166 435.286,511.521 435.674,509.828 C436.03,511.427 436.777,513.928 435.053,515.051 Z " fill="#FFFFFF" />
  <path d="M717.887,300.033 C716.522,299.286 717.127,297.381 716.978,296.071 C718.51,296.569 717.955,298.726 717.887,300.033 Z " fill="#FFFFFF" />
  <path d="M666.949,408.133 C666.949,408.133 666.934,405.686 666.934,405.686 C668.193,404.563 668.173,406.056 668.124,406.593 C668.058,407.314 667.783,408.323 666.949,408.133 Z " fill="#FFFFFF" />
  <path d="M639.089,262.946 C639.089,262.946 632.62,259.144 632.62,259.144 C635.589,258.272 637.669,260.69 639.089,262.946 Z " fill="#FFFFFF" />
  <path d="M402.118,589 C402.118,589.617 401.617,590.118 401,590.118 C400.383,590.118 399.882,589.617 399.882,589 C399.882,588.383 400.383,587.882 401,587.882 C401.617,587.882 402.118,588.383 402.118,589 Z " fill="#FFFFFF" />
  <path d="M469.673,553.268 C467.712,554.609 466.948,556.267 464.96,556.009 C464.2,555.91 463.125,557.15 462.682,557.733 C462.682,557.733 445.853,563.95 445.853,563.95 C435.96,567.604 427.047,573.93 415.241,575.795 C432.87,565.777 451.321,558.617 469.673,553.268 Z " fill="#FFFFFF" />
  <path d="M645.022,258.977 C645.835,259.201 646.656,257.277 646.881,258.449 C646.957,258.843 643.993,259.403 651.344,263.193 C650.847,265.66 647.668,262.388 646.779,263.313 C646.779,263.313 645.938,264.188 645.938,264.188 C642.048,260.191 635.928,256.312 631.622,249.39 C638.42,250.551 641.424,257.983 645.022,258.977 Z " fill="#FFFFFF" />
  <path d="M624.88,258.125 C624.557,258.254 624.118,258.239 623.773,258.002 C623.71,257.468 623.919,256.279 624.427,256.039 C624.833,255.847 625.713,257.054 625.935,257.504 C626.067,257.772 625.289,258.384 624.88,258.125 Z " fill="#FFFFFF" />
  <path d="M616.217,257.738 C614.399,257.365 612.864,255.56 611.938,254.069 C614.424,254 614.72,256.642 616.217,257.738 Z " fill="#FFFFFF" />
</svg>