<svg xmlns="http://www.w3.org/2000/svg" viewBox="0 0 823 655" role="img" aria-hidden="true">
  <path d="M 684 681 L 684 774 L 687 778 L 751 778 L 754 775 L 754 758 L 751 755 L 713 755 L 712 754 L 712 739 L 713 738 L 746 738 L 747 736 L 747 719 L 745 717 L 713 717 L 712 716 L 712 703 L 714 701 L 750 701 L 752 699 L 752 680 L 749 678 L 688 678 Z M 584 681 L 584 775 L 586 778 L 609 778 L 612 774 L 612 747 L 614 745 L 624 745 L 627 748 L 627 750 L 629 752 L 629 754 L 631 756 L 631 758 L 633 760 L 640 775 L 643 778 L 668 778 L 670 775 L 666 767 L 664 765 L 664 763 L 662 761 L 660 756 L 658 754 L 656 749 L 652 743 L 652 739 L 654 738 L 662 729 L 664 725 L 664 722 L 666 717 L 666 706 L 665 705 L 665 702 L 661 693 L 658 689 L 652 684 L 640 679 L 633 679 L 632 678 L 588 678 Z M 612 703 L 613 702 L 630 702 L 634 704 L 638 709 L 638 716 L 637 718 L 631 723 L 626 723 L 625 724 L 613 723 L 612 722 Z M 504 679 L 501 683 L 499 691 L 497 694 L 497 697 L 493 705 L 493 708 L 491 711 L 489 719 L 487 722 L 485 730 L 483 733 L 483 736 L 481 739 L 479 747 L 477 750 L 477 753 L 473 761 L 473 763 L 469 773 L 469 776 L 471 778 L 495 778 L 498 775 L 498 773 L 500 769 L 500 766 L 503 761 L 537 761 L 541 769 L 541 772 L 545 778 L 569 778 L 571 776 L 571 772 L 568 766 L 568 763 L 566 760 L 566 758 L 564 755 L 562 747 L 560 744 L 560 741 L 556 733 L 556 730 L 554 727 L 554 725 L 553 724 L 552 719 L 550 716 L 548 708 L 546 705 L 544 697 L 540 689 L 540 686 L 538 683 L 538 681 L 534 678 L 506 678 Z M 519 706 L 522 708 L 523 714 L 525 717 L 527 727 L 529 730 L 529 733 L 531 737 L 531 740 L 530 741 L 510 741 L 509 740 L 509 737 L 512 729 L 512 726 L 514 723 L 514 720 L 516 717 L 516 714 Z M 274 679 L 274 683 L 277 687 L 279 692 L 287 704 L 289 709 L 291 711 L 293 716 L 295 718 L 297 723 L 299 725 L 301 730 L 307 739 L 307 742 L 308 743 L 308 776 L 310 778 L 333 778 L 335 776 L 335 774 L 336 773 L 336 739 L 338 737 L 340 732 L 342 730 L 344 725 L 346 723 L 348 718 L 350 716 L 360 697 L 368 685 L 369 680 L 367 678 L 343 678 L 341 679 L 337 685 L 337 687 L 335 689 L 335 691 L 333 693 L 333 695 L 324 713 L 321 715 L 319 713 L 302 679 L 300 679 L 299 678 L 276 678 Z M 212 679 L 207 690 L 205 698 L 203 701 L 203 704 L 201 707 L 201 709 L 199 712 L 199 715 L 197 718 L 195 726 L 193 729 L 193 732 L 191 735 L 187 749 L 185 752 L 183 760 L 181 763 L 181 766 L 178 772 L 178 777 L 179 778 L 204 778 L 207 774 L 210 763 L 212 761 L 246 761 L 247 762 L 251 776 L 253 778 L 278 778 L 280 776 L 280 773 L 278 770 L 278 767 L 276 764 L 274 756 L 270 748 L 270 745 L 268 742 L 266 734 L 264 731 L 264 728 L 260 720 L 260 717 L 258 714 L 256 706 L 252 698 L 252 695 L 250 692 L 250 690 L 248 687 L 248 684 L 246 680 L 242 678 L 215 678 L 214 679 Z M 228 706 L 229 706 L 231 709 L 233 719 L 235 722 L 235 725 L 237 728 L 237 731 L 240 739 L 239 741 L 218 741 L 217 740 L 217 738 L 220 731 L 220 728 L 222 725 L 222 722 L 226 712 L 226 709 Z M 83 679 L 82 681 L 82 775 L 83 777 L 85 778 L 131 778 L 132 777 L 140 776 L 143 774 L 145 774 L 153 770 L 157 766 L 158 766 L 166 757 L 170 749 L 170 746 L 172 743 L 172 738 L 173 737 L 173 720 L 172 719 L 172 714 L 170 710 L 170 707 L 163 695 L 157 689 L 151 685 L 135 679 L 127 679 L 126 678 L 86 678 L 85 679 Z M 112 702 L 123 702 L 124 703 L 128 703 L 135 706 L 142 713 L 145 719 L 145 724 L 146 725 L 145 737 L 142 743 L 135 750 L 131 752 L 129 752 L 128 753 L 110 753 L 109 752 L 109 704 Z M 404 679 L 392 685 L 388 689 L 387 689 L 387 690 L 385 691 L 385 692 L 383 693 L 380 697 L 375 706 L 375 708 L 373 711 L 373 714 L 372 715 L 372 719 L 371 720 L 371 737 L 373 742 L 373 746 L 375 749 L 375 751 L 381 761 L 390 770 L 401 776 L 403 776 L 406 778 L 416 779 L 417 780 L 430 780 L 431 779 L 440 778 L 443 776 L 445 776 L 449 774 L 456 769 L 461 764 L 462 759 L 444 746 L 441 746 L 432 753 L 429 753 L 428 754 L 417 754 L 410 751 L 404 746 L 400 739 L 399 733 L 398 732 L 398 724 L 400 720 L 400 717 L 402 715 L 403 712 L 412 704 L 414 704 L 418 702 L 428 702 L 435 705 L 441 710 L 444 710 L 454 702 L 458 700 L 462 696 L 462 694 L 458 689 L 450 683 L 444 680 L 438 679 L 434 677 L 411 677 L 407 679 Z M 513 525 L 513 553 L 514 553 L 514 525 Z M 258 500 L 257 500 L 257 567 L 256 568 L 256 578 L 257 578 L 257 573 L 258 572 L 258 544 L 259 543 L 259 506 L 258 505 Z M 293 508 L 293 511 L 292 512 L 292 525 L 293 526 L 294 531 L 299 538 L 302 540 L 308 541 L 309 542 L 313 542 L 314 541 L 321 540 L 324 538 L 327 538 L 330 536 L 332 536 L 336 534 L 340 534 L 341 533 L 349 533 L 350 534 L 353 534 L 354 535 L 359 536 L 362 538 L 365 538 L 368 540 L 376 540 L 379 538 L 382 538 L 385 536 L 388 532 L 388 530 L 390 527 L 390 522 L 391 521 L 390 511 L 386 503 L 368 485 L 363 476 L 356 469 L 353 467 L 351 467 L 349 465 L 344 465 L 343 464 L 334 465 L 326 469 L 321 474 L 319 479 L 315 485 L 308 493 L 307 493 L 297 502 Z M 302 537 L 303 536 L 306 536 L 309 538 L 313 538 L 314 540 L 313 541 L 309 541 L 308 540 L 303 539 Z M 296 510 L 298 507 L 300 506 L 301 504 L 310 496 L 310 494 L 316 488 L 318 488 L 320 483 L 330 470 L 334 468 L 335 469 L 334 472 L 335 472 L 341 468 L 347 468 L 351 471 L 354 472 L 359 477 L 361 482 L 367 487 L 372 495 L 382 504 L 383 506 L 383 510 L 384 511 L 384 515 L 385 516 L 384 518 L 384 522 L 383 523 L 383 524 L 385 525 L 385 528 L 382 531 L 380 531 L 375 535 L 367 535 L 366 534 L 361 533 L 354 529 L 339 529 L 338 527 L 334 529 L 332 529 L 325 533 L 322 533 L 317 535 L 308 535 L 304 533 L 297 524 L 297 522 L 298 521 L 298 515 L 296 514 Z M 280 447 L 275 451 L 273 455 L 273 458 L 272 459 L 272 467 L 273 468 L 273 472 L 277 480 L 283 487 L 288 490 L 297 490 L 304 484 L 304 482 L 306 478 L 306 469 L 304 465 L 304 462 L 298 452 L 292 447 L 291 447 L 292 449 L 291 451 L 287 449 L 288 446 L 283 446 L 282 447 Z M 279 453 L 282 455 L 284 454 L 285 452 L 287 452 L 291 454 L 297 460 L 301 470 L 301 476 L 300 477 L 299 482 L 296 485 L 290 485 L 288 484 L 282 477 L 280 473 L 280 469 L 277 469 L 276 468 L 276 457 Z M 401 445 L 399 445 L 398 447 L 396 447 L 395 445 L 392 445 L 390 447 L 387 448 L 383 451 L 377 461 L 377 465 L 376 466 L 376 476 L 377 477 L 377 480 L 382 486 L 388 487 L 388 485 L 393 482 L 396 482 L 397 483 L 397 484 L 396 485 L 394 485 L 394 486 L 398 485 L 404 480 L 406 477 L 406 475 L 408 474 L 410 470 L 410 457 L 408 455 L 408 453 L 404 447 Z M 398 450 L 403 453 L 403 455 L 405 458 L 405 462 L 404 463 L 403 469 L 400 474 L 395 479 L 392 481 L 387 482 L 385 481 L 382 477 L 382 463 L 386 456 L 391 451 L 393 450 Z M 369 411 L 357 413 L 358 416 L 355 419 L 353 423 L 349 426 L 348 424 L 353 416 L 353 415 L 352 415 L 347 423 L 347 426 L 345 431 L 345 447 L 349 455 L 355 460 L 359 460 L 361 461 L 362 460 L 366 460 L 370 458 L 374 454 L 378 448 L 378 446 L 381 440 L 382 428 L 380 424 L 380 421 L 378 417 L 374 413 Z M 376 431 L 378 430 L 379 431 L 379 433 L 377 434 L 376 433 Z M 369 416 L 372 419 L 373 423 L 375 426 L 375 435 L 374 436 L 373 443 L 369 450 L 363 455 L 358 456 L 354 453 L 352 449 L 351 441 L 350 440 L 351 433 L 356 422 L 361 417 L 363 416 Z M 312 411 L 306 416 L 303 421 L 303 425 L 302 426 L 302 437 L 303 438 L 303 443 L 305 446 L 305 448 L 307 452 L 312 458 L 314 458 L 316 460 L 327 460 L 332 456 L 334 452 L 334 450 L 336 447 L 336 443 L 337 442 L 336 430 L 334 427 L 334 425 L 332 423 L 332 421 L 324 412 L 319 411 L 318 410 Z M 314 417 L 321 418 L 324 420 L 329 425 L 332 432 L 331 447 L 329 451 L 325 455 L 319 455 L 315 453 L 307 445 L 307 434 L 306 433 L 306 429 L 304 428 L 304 424 L 306 423 L 307 425 L 308 425 L 308 423 L 310 420 Z M 316 413 L 317 412 L 320 412 L 322 413 L 324 416 L 322 417 L 320 415 L 317 415 Z M 584 364 L 583 365 L 579 365 L 573 368 L 564 377 L 562 381 L 558 385 L 555 390 L 555 392 L 551 402 L 551 405 L 549 409 L 549 414 L 548 415 L 548 421 L 547 422 L 547 444 L 549 449 L 549 454 L 550 455 L 551 460 L 553 463 L 553 465 L 555 467 L 555 469 L 562 477 L 562 478 L 568 484 L 574 488 L 576 488 L 578 490 L 582 490 L 584 492 L 587 492 L 588 493 L 597 493 L 605 490 L 612 485 L 619 476 L 624 466 L 624 463 L 626 460 L 626 456 L 628 451 L 628 445 L 629 444 L 629 439 L 630 438 L 630 432 L 631 431 L 631 427 L 632 426 L 632 407 L 631 406 L 630 397 L 629 396 L 628 391 L 626 388 L 626 386 L 622 380 L 613 371 L 602 365 L 599 365 L 598 364 Z M 621 465 L 617 474 L 613 480 L 604 488 L 597 491 L 589 491 L 588 490 L 589 488 L 592 488 L 593 487 L 598 486 L 605 482 L 612 475 L 614 471 L 617 468 L 618 465 L 619 464 Z M 557 446 L 559 447 L 559 453 L 561 456 L 561 459 L 563 462 L 565 469 L 569 474 L 568 476 L 564 473 L 558 461 L 558 458 L 556 453 L 556 447 Z M 551 445 L 553 446 L 553 449 L 552 450 L 550 449 L 550 446 Z M 613 407 L 615 408 L 615 413 L 614 414 L 612 413 L 612 408 Z M 554 404 L 555 405 L 555 409 L 554 410 L 554 416 L 553 417 L 552 442 L 550 443 L 549 442 L 549 421 L 550 420 L 550 414 L 552 409 L 552 405 Z M 617 379 L 621 382 L 627 393 L 627 395 L 629 399 L 629 406 L 628 407 L 626 406 L 624 396 L 622 393 L 622 391 L 620 387 L 618 385 L 618 383 L 616 381 Z M 601 373 L 605 375 L 613 383 L 619 393 L 619 395 L 621 398 L 621 400 L 623 404 L 623 408 L 625 412 L 625 420 L 626 421 L 625 438 L 623 442 L 623 446 L 622 447 L 621 452 L 615 464 L 612 468 L 610 467 L 610 465 L 614 457 L 614 454 L 616 449 L 616 446 L 614 445 L 614 442 L 615 441 L 616 430 L 617 429 L 617 408 L 616 407 L 616 402 L 614 399 L 614 396 L 609 386 L 600 375 Z M 582 372 L 586 372 L 594 376 L 600 383 L 603 389 L 605 391 L 605 393 L 607 396 L 607 399 L 608 400 L 609 407 L 610 408 L 610 412 L 611 413 L 611 440 L 610 441 L 610 445 L 609 446 L 609 450 L 607 454 L 607 457 L 605 460 L 605 463 L 603 465 L 603 467 L 597 476 L 590 481 L 588 481 L 587 482 L 580 482 L 575 479 L 568 469 L 568 467 L 565 462 L 565 460 L 562 453 L 562 448 L 560 443 L 560 432 L 559 431 L 559 418 L 560 417 L 560 409 L 562 405 L 562 402 L 571 384 L 576 377 Z M 579 368 L 580 370 L 578 371 L 578 372 L 576 373 L 576 374 L 569 381 L 565 389 L 563 391 L 563 393 L 561 394 L 560 393 L 560 391 L 561 390 L 562 385 L 566 379 L 574 370 L 577 368 Z M 242 248 L 241 248 L 240 250 L 209 281 L 208 281 L 198 291 L 197 291 L 197 292 L 195 293 L 192 297 L 197 294 L 209 282 L 210 282 L 242 250 Z M 670 245 L 673 249 L 678 252 L 676 249 Z M 332 91 L 332 94 L 330 96 L 325 99 L 320 104 L 313 109 L 292 129 L 291 129 L 282 138 L 281 138 L 262 157 L 261 157 L 249 169 L 248 169 L 201 216 L 201 217 L 173 246 L 167 254 L 165 255 L 165 256 L 147 276 L 143 282 L 141 283 L 136 291 L 136 293 L 134 294 L 126 303 L 123 302 L 123 304 L 124 305 L 123 309 L 126 308 L 129 311 L 137 322 L 145 330 L 145 334 L 152 335 L 154 332 L 158 332 L 163 330 L 167 330 L 170 328 L 173 328 L 177 326 L 179 326 L 181 329 L 180 375 L 181 376 L 181 524 L 182 525 L 182 536 L 181 537 L 181 573 L 182 575 L 183 575 L 183 569 L 184 568 L 184 549 L 185 548 L 185 536 L 186 535 L 188 536 L 188 559 L 189 560 L 189 562 L 188 563 L 188 586 L 186 588 L 183 588 L 183 589 L 189 592 L 189 596 L 188 597 L 185 597 L 185 598 L 188 598 L 189 599 L 189 605 L 190 605 L 190 602 L 192 599 L 197 599 L 198 600 L 203 600 L 204 601 L 208 601 L 209 602 L 215 602 L 216 603 L 220 603 L 221 604 L 227 604 L 228 605 L 234 605 L 235 606 L 244 606 L 245 607 L 251 607 L 252 608 L 273 609 L 274 610 L 312 611 L 313 612 L 347 612 L 348 613 L 369 613 L 370 614 L 397 614 L 398 615 L 412 615 L 413 616 L 434 616 L 435 617 L 445 617 L 446 618 L 461 618 L 462 619 L 485 620 L 486 621 L 499 621 L 500 622 L 505 621 L 507 623 L 507 625 L 509 626 L 509 623 L 513 620 L 513 619 L 511 619 L 510 618 L 510 615 L 513 612 L 526 604 L 533 598 L 543 592 L 545 593 L 544 595 L 518 615 L 518 618 L 545 600 L 548 597 L 551 596 L 572 582 L 575 579 L 582 575 L 591 568 L 596 566 L 598 564 L 607 560 L 609 558 L 617 554 L 629 546 L 636 540 L 658 526 L 664 521 L 666 521 L 668 523 L 670 523 L 670 517 L 680 508 L 680 507 L 678 507 L 673 510 L 671 509 L 670 459 L 669 458 L 669 448 L 668 447 L 668 303 L 673 300 L 676 300 L 685 295 L 690 295 L 693 292 L 694 289 L 697 286 L 698 283 L 702 278 L 704 269 L 707 266 L 710 266 L 708 263 L 708 261 L 710 257 L 705 258 L 700 253 L 699 253 L 682 237 L 681 237 L 675 231 L 667 225 L 640 198 L 640 197 L 639 197 L 638 195 L 612 170 L 611 170 L 594 154 L 588 150 L 577 140 L 572 137 L 568 133 L 568 132 L 554 122 L 541 110 L 542 108 L 551 108 L 551 106 L 550 105 L 535 104 L 532 102 L 530 102 L 529 103 L 521 103 L 520 102 L 510 102 L 509 101 L 489 100 L 488 99 L 477 99 L 476 98 L 456 97 L 455 96 L 446 96 L 445 95 L 428 95 L 427 94 L 416 94 L 415 93 L 398 93 L 397 92 L 388 92 L 387 91 L 366 91 L 365 90 L 355 90 L 355 91 L 361 91 L 362 92 L 376 92 L 377 93 L 386 93 L 387 94 L 400 94 L 401 95 L 408 95 L 409 97 L 408 98 L 389 98 L 388 97 L 375 97 L 374 96 L 368 96 L 367 95 L 357 95 L 356 94 L 352 94 L 351 93 L 343 93 L 342 95 L 338 95 L 336 92 Z M 404 609 L 405 608 L 425 608 L 426 610 L 425 611 L 405 611 Z M 242 603 L 243 602 L 264 602 L 265 603 L 296 604 L 297 605 L 303 605 L 304 606 L 316 606 L 317 607 L 321 607 L 322 609 L 321 610 L 315 610 L 314 609 L 295 609 L 294 608 L 280 608 L 279 607 L 264 607 L 263 606 L 254 606 L 253 605 L 243 605 Z M 363 602 L 364 601 L 368 601 L 369 603 L 368 604 L 364 604 Z M 263 595 L 264 594 L 291 594 L 292 595 L 307 595 L 308 596 L 324 596 L 325 597 L 331 597 L 332 598 L 343 598 L 344 599 L 351 599 L 352 600 L 361 600 L 362 602 L 361 603 L 341 603 L 340 602 L 328 602 L 327 601 L 309 601 L 308 600 L 298 600 L 297 599 L 284 599 L 283 598 L 277 598 L 276 597 L 264 597 Z M 192 593 L 193 592 L 197 592 L 198 593 L 203 593 L 204 594 L 214 594 L 215 595 L 220 595 L 221 596 L 230 596 L 231 598 L 230 599 L 205 599 L 204 598 L 194 598 L 192 596 Z M 552 589 L 552 590 L 548 593 L 546 593 L 545 592 L 545 591 L 549 588 L 551 588 Z M 604 551 L 603 553 L 597 557 L 592 559 L 587 563 L 582 565 L 580 567 L 576 569 L 574 568 L 575 566 L 581 562 L 586 560 L 591 556 L 596 554 L 598 552 L 602 550 Z M 427 550 L 429 551 L 429 573 L 428 574 L 426 573 L 426 551 Z M 190 499 L 192 500 L 192 507 L 191 508 L 189 507 L 189 500 Z M 188 455 L 190 456 L 190 466 L 191 467 L 191 496 L 190 497 L 188 496 L 188 479 L 187 478 L 187 456 Z M 501 439 L 503 440 L 503 447 L 502 448 L 500 447 L 500 440 Z M 659 361 L 661 362 L 661 395 L 660 396 L 661 401 L 660 402 L 660 409 L 661 410 L 661 436 L 662 437 L 662 443 L 663 444 L 663 478 L 662 479 L 660 478 L 660 466 L 659 465 L 659 453 L 658 452 L 658 419 L 657 418 L 657 383 L 658 382 L 658 362 Z M 257 359 L 265 359 L 266 360 L 365 360 L 366 361 L 391 362 L 392 363 L 423 363 L 425 365 L 426 383 L 427 384 L 428 425 L 429 426 L 429 448 L 428 449 L 427 496 L 426 497 L 425 529 L 424 530 L 424 574 L 425 575 L 425 591 L 428 594 L 428 602 L 426 604 L 423 604 L 422 603 L 395 602 L 394 601 L 378 601 L 377 600 L 370 600 L 369 599 L 357 599 L 356 598 L 349 598 L 348 597 L 335 597 L 334 596 L 326 596 L 325 595 L 307 595 L 306 594 L 294 594 L 293 593 L 261 593 L 260 592 L 257 592 L 256 590 L 255 590 L 254 592 L 252 591 L 251 589 L 251 527 L 252 526 L 252 486 L 254 482 L 256 483 L 256 495 L 258 496 L 258 481 L 257 480 L 257 431 L 256 430 L 256 416 L 257 415 L 256 360 Z M 590 327 L 591 326 L 593 326 L 594 328 L 593 329 L 591 329 Z M 508 318 L 510 319 L 510 324 L 509 325 L 507 324 L 507 319 Z M 624 309 L 625 308 L 627 308 L 628 310 L 627 311 L 625 311 Z M 180 305 L 181 306 L 181 316 L 180 317 L 180 321 L 178 323 L 175 322 L 174 323 L 170 323 L 167 325 L 162 325 L 161 323 L 177 306 Z M 595 297 L 594 299 L 591 299 L 588 301 L 585 301 L 583 303 L 580 303 L 577 305 L 569 307 L 563 310 L 561 310 L 559 308 L 559 307 L 562 305 L 568 304 L 572 302 L 575 302 L 579 300 L 582 300 L 585 298 L 588 298 L 591 296 L 594 296 Z M 597 295 L 598 294 L 600 294 L 601 296 L 600 297 L 598 297 Z M 697 270 L 691 282 L 689 284 L 688 288 L 685 290 L 682 290 L 681 291 L 678 291 L 677 292 L 674 292 L 669 294 L 666 293 L 664 295 L 662 295 L 659 297 L 655 297 L 651 299 L 648 299 L 644 301 L 634 303 L 633 304 L 622 307 L 619 309 L 616 309 L 608 313 L 605 313 L 602 315 L 600 315 L 597 317 L 595 317 L 592 319 L 590 319 L 587 321 L 585 321 L 582 323 L 580 323 L 577 325 L 575 325 L 572 327 L 565 329 L 553 335 L 550 335 L 549 336 L 547 335 L 547 333 L 549 331 L 554 322 L 554 320 L 556 318 L 556 315 L 558 310 L 560 310 L 561 312 L 562 312 L 563 310 L 566 310 L 569 308 L 572 308 L 575 306 L 585 304 L 588 302 L 591 302 L 594 300 L 597 300 L 600 298 L 603 298 L 619 292 L 622 292 L 626 290 L 629 290 L 633 288 L 637 288 L 640 286 L 650 284 L 653 282 L 656 282 L 657 281 L 668 278 L 671 276 L 674 276 L 684 272 L 687 272 L 690 270 L 693 270 L 694 269 L 696 269 Z M 441 253 L 443 252 L 446 256 L 444 257 Z M 244 186 L 245 188 L 231 202 L 231 203 L 221 213 L 220 213 L 211 223 L 203 229 L 202 227 L 243 186 Z M 300 174 L 301 176 L 293 184 L 293 185 L 246 232 L 245 232 L 233 245 L 232 245 L 222 255 L 221 255 L 220 253 L 248 224 L 248 223 L 250 222 L 250 221 L 252 220 L 252 219 L 254 218 L 254 217 L 256 216 L 256 215 L 281 190 L 282 190 L 285 186 L 286 186 L 299 174 Z M 605 171 L 607 170 L 610 174 L 608 175 Z M 335 149 L 336 149 L 341 154 L 349 165 L 357 173 L 363 181 L 413 232 L 414 232 L 427 245 L 428 245 L 445 261 L 446 261 L 467 280 L 468 280 L 480 292 L 481 292 L 503 313 L 505 314 L 505 343 L 504 344 L 504 360 L 505 361 L 505 370 L 504 371 L 503 422 L 502 423 L 500 422 L 500 374 L 499 373 L 499 350 L 498 349 L 498 346 L 499 345 L 499 342 L 498 341 L 499 339 L 499 328 L 498 328 L 498 331 L 497 332 L 498 510 L 499 511 L 499 538 L 500 539 L 500 550 L 501 551 L 501 565 L 502 566 L 503 589 L 504 590 L 504 594 L 505 595 L 505 607 L 506 608 L 506 617 L 505 618 L 486 618 L 485 617 L 469 617 L 468 616 L 468 614 L 469 613 L 472 613 L 473 612 L 498 612 L 496 609 L 494 609 L 493 608 L 488 608 L 487 607 L 477 607 L 476 606 L 468 606 L 467 605 L 439 605 L 438 604 L 434 604 L 433 603 L 433 565 L 432 564 L 432 535 L 433 534 L 435 535 L 435 540 L 436 541 L 437 590 L 439 589 L 438 536 L 437 535 L 437 522 L 436 521 L 436 453 L 437 452 L 437 418 L 438 417 L 438 369 L 437 369 L 437 383 L 436 384 L 436 402 L 434 403 L 433 402 L 433 396 L 432 395 L 432 375 L 431 374 L 431 367 L 430 366 L 430 360 L 431 359 L 434 359 L 434 357 L 431 356 L 429 354 L 427 355 L 409 355 L 408 354 L 366 354 L 365 355 L 361 355 L 360 354 L 340 354 L 339 353 L 340 351 L 350 351 L 351 350 L 409 350 L 409 349 L 394 349 L 393 348 L 391 349 L 389 348 L 375 348 L 374 349 L 326 349 L 325 350 L 287 350 L 286 349 L 263 349 L 262 350 L 262 352 L 280 352 L 281 353 L 288 353 L 289 355 L 288 356 L 263 356 L 262 357 L 257 357 L 252 354 L 252 355 L 249 357 L 251 360 L 251 370 L 250 371 L 250 380 L 249 381 L 249 416 L 248 417 L 248 428 L 247 429 L 247 449 L 246 450 L 246 465 L 245 466 L 245 497 L 244 498 L 244 534 L 245 535 L 245 556 L 246 557 L 246 571 L 247 572 L 247 591 L 246 592 L 218 592 L 217 591 L 209 591 L 208 590 L 195 589 L 194 588 L 194 577 L 195 576 L 195 557 L 196 556 L 196 510 L 195 509 L 195 496 L 194 495 L 194 445 L 195 444 L 195 363 L 194 362 L 194 347 L 193 346 L 192 323 L 191 323 L 191 344 L 192 345 L 192 359 L 193 360 L 193 388 L 194 389 L 194 431 L 193 432 L 193 442 L 191 443 L 190 442 L 190 423 L 189 422 L 189 408 L 188 407 L 188 390 L 187 389 L 187 377 L 186 376 L 186 340 L 185 339 L 185 334 L 186 333 L 186 302 L 189 300 L 189 299 L 187 298 L 187 296 L 198 285 L 199 285 L 215 268 L 216 268 L 237 247 L 238 247 L 243 241 L 244 241 L 253 232 L 254 232 L 255 234 L 244 245 L 244 246 L 246 246 L 266 225 L 266 224 L 274 216 L 274 215 L 276 214 L 276 213 L 287 202 L 287 201 L 302 186 L 302 185 L 304 184 L 304 183 Z M 392 147 L 393 146 L 395 146 L 413 163 L 414 163 L 427 176 L 428 176 L 429 178 L 430 178 L 463 211 L 463 212 L 467 215 L 467 216 L 466 217 L 463 216 L 396 151 L 395 151 Z M 338 144 L 340 144 L 345 151 L 361 169 L 361 170 L 365 174 L 364 176 L 363 176 L 359 172 L 359 171 L 348 160 L 348 159 L 338 148 L 337 146 Z M 558 133 L 560 132 L 569 141 L 569 142 L 567 143 L 558 134 Z M 302 124 L 303 126 L 297 132 L 297 133 L 268 162 L 267 162 L 260 169 L 259 169 L 258 171 L 257 171 L 234 193 L 233 193 L 233 194 L 231 195 L 231 196 L 229 197 L 229 198 L 224 203 L 223 203 L 223 204 L 221 205 L 221 206 L 219 207 L 219 208 L 217 209 L 217 210 L 215 211 L 215 212 L 201 226 L 201 228 L 199 229 L 199 230 L 189 239 L 189 240 L 178 251 L 178 252 L 153 277 L 152 277 L 151 275 L 154 271 L 156 270 L 156 269 L 163 262 L 163 261 L 172 252 L 172 251 L 174 250 L 174 249 L 192 230 L 192 229 L 224 197 L 224 196 L 281 142 L 282 142 L 294 130 Z M 438 99 L 439 98 L 451 98 L 452 100 L 451 101 L 439 101 Z M 345 99 L 346 98 L 351 98 L 352 99 L 360 99 L 361 100 L 376 100 L 377 101 L 399 102 L 400 103 L 407 103 L 408 104 L 418 104 L 419 105 L 438 106 L 439 107 L 447 107 L 448 108 L 460 108 L 461 109 L 468 109 L 469 110 L 479 110 L 480 111 L 488 111 L 489 112 L 500 112 L 501 113 L 508 113 L 509 114 L 519 114 L 519 113 L 514 113 L 513 112 L 508 112 L 507 111 L 499 111 L 498 110 L 493 110 L 492 109 L 483 109 L 482 107 L 483 106 L 509 106 L 510 107 L 526 107 L 527 108 L 535 108 L 541 114 L 541 115 L 553 127 L 555 128 L 554 132 L 559 137 L 559 138 L 577 156 L 578 156 L 583 161 L 583 162 L 586 164 L 587 166 L 588 166 L 611 189 L 611 190 L 613 191 L 613 192 L 625 204 L 625 205 L 646 226 L 647 226 L 662 240 L 668 244 L 668 243 L 667 243 L 666 241 L 656 232 L 656 231 L 655 231 L 632 209 L 632 208 L 620 196 L 621 194 L 622 194 L 629 201 L 630 201 L 637 208 L 638 208 L 664 232 L 665 232 L 683 248 L 694 256 L 697 260 L 696 261 L 692 261 L 682 265 L 679 265 L 676 267 L 673 267 L 670 269 L 667 269 L 664 271 L 661 271 L 658 273 L 655 273 L 639 279 L 636 279 L 633 281 L 631 281 L 630 280 L 631 278 L 635 276 L 637 276 L 645 272 L 653 270 L 661 266 L 664 266 L 667 264 L 670 264 L 671 263 L 676 262 L 676 261 L 672 261 L 668 263 L 665 263 L 662 265 L 659 265 L 656 267 L 653 267 L 650 269 L 648 269 L 645 271 L 643 271 L 640 273 L 638 273 L 635 275 L 633 275 L 630 277 L 628 277 L 625 279 L 623 279 L 610 285 L 602 287 L 594 291 L 591 291 L 588 293 L 586 293 L 585 294 L 580 295 L 577 297 L 569 299 L 562 303 L 557 304 L 529 276 L 529 275 L 506 252 L 506 251 L 505 251 L 504 249 L 503 249 L 502 247 L 501 247 L 500 245 L 499 245 L 498 243 L 497 243 L 496 241 L 495 241 L 494 239 L 449 194 L 449 193 L 448 193 L 424 169 L 423 169 L 422 167 L 421 167 L 391 139 L 385 135 L 377 127 L 376 127 L 366 118 L 362 117 L 345 100 Z M 430 98 L 431 97 L 436 97 L 437 99 L 436 100 L 431 100 Z M 414 97 L 415 96 L 427 96 L 428 98 L 427 99 L 415 99 Z M 333 96 L 335 96 L 338 98 L 352 112 L 353 112 L 363 122 L 364 122 L 373 131 L 373 132 L 375 133 L 375 134 L 381 140 L 385 147 L 390 152 L 393 152 L 397 155 L 425 183 L 426 183 L 441 198 L 442 198 L 463 219 L 463 220 L 461 221 L 451 211 L 450 211 L 432 194 L 431 194 L 408 171 L 407 171 L 405 167 L 400 162 L 399 162 L 405 170 L 406 170 L 407 172 L 429 194 L 430 194 L 431 196 L 433 197 L 433 198 L 434 198 L 453 216 L 454 216 L 487 246 L 488 246 L 497 255 L 498 255 L 505 262 L 506 262 L 537 292 L 538 292 L 553 306 L 553 308 L 549 314 L 549 316 L 547 320 L 545 322 L 541 331 L 537 336 L 537 338 L 535 341 L 535 345 L 539 343 L 542 344 L 543 342 L 547 340 L 550 340 L 553 338 L 556 338 L 559 336 L 562 336 L 565 334 L 568 334 L 571 332 L 574 332 L 577 330 L 581 330 L 584 328 L 588 328 L 589 329 L 588 331 L 585 331 L 582 333 L 579 333 L 576 335 L 573 335 L 570 337 L 567 337 L 564 339 L 561 339 L 558 341 L 555 341 L 555 342 L 557 342 L 561 340 L 565 340 L 569 338 L 572 338 L 575 336 L 578 336 L 581 334 L 583 334 L 584 333 L 589 332 L 592 330 L 600 328 L 603 326 L 611 324 L 614 322 L 616 322 L 629 316 L 632 316 L 635 314 L 643 312 L 648 309 L 653 308 L 656 306 L 658 306 L 662 304 L 664 304 L 665 305 L 665 309 L 664 310 L 664 318 L 663 319 L 662 342 L 661 343 L 659 342 L 659 322 L 658 321 L 658 318 L 657 318 L 657 359 L 656 360 L 656 384 L 655 385 L 655 425 L 656 426 L 657 461 L 658 462 L 659 483 L 660 484 L 660 490 L 661 491 L 661 502 L 662 503 L 663 514 L 650 523 L 645 525 L 643 527 L 641 527 L 636 531 L 634 531 L 629 535 L 626 536 L 625 534 L 627 532 L 638 526 L 642 522 L 645 521 L 646 519 L 638 523 L 630 529 L 627 530 L 615 538 L 612 541 L 607 543 L 593 553 L 590 554 L 572 566 L 569 567 L 525 597 L 522 598 L 516 603 L 516 606 L 511 609 L 510 609 L 508 606 L 509 581 L 508 580 L 508 534 L 507 533 L 507 497 L 506 496 L 506 422 L 508 421 L 509 422 L 509 450 L 510 451 L 510 463 L 511 464 L 511 484 L 512 485 L 512 508 L 513 509 L 513 521 L 514 521 L 514 488 L 513 487 L 512 446 L 511 445 L 511 427 L 510 426 L 510 341 L 511 340 L 511 328 L 512 327 L 512 324 L 514 323 L 525 335 L 531 339 L 533 338 L 532 336 L 533 331 L 524 323 L 523 323 L 504 304 L 504 303 L 488 286 L 488 285 L 481 278 L 481 277 L 468 264 L 468 263 L 466 262 L 466 261 L 422 216 L 421 216 L 408 203 L 407 203 L 406 201 L 405 201 L 394 191 L 391 190 L 391 191 L 395 195 L 396 195 L 409 207 L 410 207 L 451 248 L 451 249 L 465 263 L 465 264 L 463 265 L 448 251 L 447 251 L 440 244 L 439 244 L 424 229 L 423 229 L 422 227 L 421 227 L 420 225 L 419 225 L 382 188 L 382 187 L 381 187 L 377 183 L 374 178 L 364 168 L 364 167 L 362 166 L 356 158 L 340 142 L 340 138 L 336 141 L 334 141 L 330 138 L 330 140 L 332 144 L 330 145 L 320 155 L 319 155 L 315 161 L 307 169 L 304 167 L 293 177 L 292 177 L 280 189 L 279 189 L 235 233 L 234 235 L 233 235 L 233 236 L 203 267 L 203 268 L 201 269 L 201 270 L 193 278 L 193 279 L 172 301 L 172 302 L 165 309 L 165 310 L 155 320 L 150 327 L 148 326 L 139 311 L 132 303 L 136 297 L 147 286 L 148 286 L 167 267 L 168 267 L 201 236 L 202 236 L 260 178 L 260 177 L 262 176 L 262 175 L 284 153 L 284 152 L 312 122 L 312 121 L 317 116 L 317 115 L 322 110 L 322 109 Z" fill="#FFFFFF" fill-rule="evenodd" />
</svg>