<svg xmlns="http://www.w3.org/2000/svg" viewBox="0 0 768 620" role="img" aria-hidden="true">
  <path d="M 644 565 L 643 566 L 640 566 L 637 568 L 635 568 L 628 574 L 624 581 L 623 587 L 622 588 L 622 599 L 621 600 L 621 629 L 622 630 L 622 640 L 623 641 L 624 650 L 626 653 L 626 655 L 630 661 L 639 667 L 642 667 L 643 668 L 659 668 L 660 667 L 665 667 L 668 665 L 670 665 L 674 663 L 681 655 L 681 652 L 683 647 L 683 619 L 682 618 L 682 616 L 681 615 L 654 615 L 652 617 L 652 629 L 653 631 L 663 631 L 664 632 L 664 640 L 662 644 L 658 648 L 655 648 L 654 649 L 647 648 L 642 642 L 642 640 L 641 639 L 641 632 L 640 631 L 640 605 L 641 604 L 641 596 L 642 595 L 643 588 L 649 583 L 654 583 L 658 585 L 662 589 L 664 596 L 666 596 L 667 597 L 680 597 L 682 596 L 682 586 L 681 585 L 681 582 L 679 579 L 679 577 L 669 568 L 667 568 L 664 566 L 660 566 L 659 565 Z M 444 565 L 444 597 L 443 598 L 443 664 L 444 666 L 463 666 L 464 665 L 464 653 L 463 652 L 463 630 L 464 629 L 466 629 L 467 630 L 468 634 L 472 641 L 472 643 L 474 645 L 474 647 L 476 649 L 476 651 L 484 665 L 486 665 L 487 666 L 504 666 L 504 663 L 499 654 L 499 652 L 497 650 L 497 648 L 495 646 L 495 644 L 493 642 L 493 640 L 491 638 L 491 636 L 489 634 L 489 632 L 487 630 L 487 628 L 480 614 L 485 603 L 487 601 L 491 592 L 493 590 L 493 588 L 495 586 L 499 577 L 501 575 L 501 573 L 503 571 L 504 566 L 499 566 L 498 565 L 489 565 L 488 566 L 485 566 L 479 575 L 478 578 L 476 580 L 470 592 L 468 594 L 468 596 L 466 599 L 464 600 L 462 596 L 462 587 L 463 586 L 463 566 L 461 565 Z M 254 565 L 253 566 L 250 566 L 247 568 L 245 568 L 242 570 L 236 576 L 233 583 L 233 586 L 232 587 L 232 597 L 231 598 L 231 632 L 232 633 L 232 642 L 234 647 L 234 651 L 237 657 L 242 663 L 249 667 L 252 667 L 253 668 L 269 668 L 270 667 L 274 667 L 275 666 L 280 665 L 283 663 L 289 657 L 291 653 L 292 643 L 293 642 L 293 623 L 292 622 L 292 617 L 290 615 L 263 615 L 262 616 L 262 630 L 263 631 L 272 631 L 274 633 L 274 639 L 273 640 L 273 642 L 267 648 L 264 648 L 263 649 L 257 648 L 253 644 L 251 640 L 251 635 L 250 634 L 250 603 L 251 602 L 251 594 L 252 593 L 252 590 L 255 585 L 259 583 L 263 583 L 268 585 L 270 587 L 273 592 L 274 596 L 276 596 L 277 597 L 290 597 L 292 595 L 291 583 L 287 575 L 282 570 L 274 566 L 270 566 L 269 565 Z M 183 565 L 182 566 L 176 567 L 168 572 L 164 578 L 164 580 L 162 584 L 162 589 L 161 590 L 161 640 L 162 641 L 162 650 L 163 651 L 164 656 L 171 664 L 177 667 L 182 667 L 183 668 L 195 668 L 196 667 L 201 667 L 210 663 L 216 657 L 217 653 L 219 650 L 220 638 L 221 637 L 221 587 L 219 583 L 219 580 L 217 578 L 216 575 L 211 570 L 205 567 L 198 566 L 197 565 Z M 188 583 L 194 583 L 196 584 L 201 589 L 203 594 L 203 597 L 204 598 L 204 638 L 202 643 L 195 649 L 186 649 L 182 647 L 180 645 L 177 638 L 177 629 L 176 628 L 176 601 L 177 600 L 177 596 L 179 593 L 179 591 L 184 585 Z M 609 565 L 607 564 L 593 564 L 590 566 L 590 584 L 591 585 L 591 606 L 590 607 L 587 605 L 569 567 L 565 565 L 552 565 L 550 567 L 550 590 L 549 591 L 550 666 L 556 666 L 557 667 L 567 667 L 568 666 L 568 663 L 569 662 L 569 618 L 571 617 L 576 628 L 576 630 L 578 633 L 578 635 L 580 638 L 580 640 L 582 643 L 582 645 L 584 647 L 586 654 L 588 656 L 588 658 L 590 660 L 590 662 L 592 666 L 594 666 L 595 667 L 609 667 L 609 664 L 610 663 L 609 661 L 609 658 L 610 657 L 610 591 L 609 590 Z M 514 564 L 514 566 L 513 567 L 513 577 L 512 578 L 512 605 L 513 606 L 513 667 L 532 667 L 537 665 L 537 660 L 536 659 L 536 572 L 537 571 L 537 567 L 536 565 L 519 565 L 518 564 Z M 408 564 L 407 565 L 407 572 L 406 573 L 407 666 L 409 667 L 426 667 L 431 665 L 431 660 L 430 659 L 430 576 L 431 575 L 431 567 L 430 565 L 414 565 L 413 564 Z M 390 564 L 376 565 L 375 566 L 373 566 L 373 580 L 372 581 L 372 589 L 373 590 L 373 592 L 372 593 L 372 602 L 370 604 L 366 604 L 365 605 L 357 605 L 353 602 L 353 591 L 352 590 L 352 571 L 351 570 L 351 566 L 333 566 L 333 633 L 334 634 L 334 664 L 335 665 L 351 666 L 354 664 L 354 626 L 357 624 L 371 624 L 373 626 L 373 629 L 374 630 L 374 656 L 375 657 L 375 665 L 376 666 L 392 666 L 393 665 L 395 665 L 395 657 L 394 656 L 394 637 L 393 636 L 393 592 L 392 591 L 392 568 Z M 91 566 L 90 567 L 90 642 L 91 643 L 92 665 L 93 666 L 130 666 L 137 660 L 141 654 L 143 649 L 145 647 L 145 645 L 147 643 L 147 641 L 149 637 L 149 634 L 151 629 L 151 599 L 150 598 L 149 591 L 144 580 L 139 573 L 135 569 L 130 566 L 120 565 L 119 564 L 108 564 L 107 565 L 97 565 L 96 566 Z M 113 592 L 121 592 L 125 594 L 131 603 L 132 610 L 133 611 L 133 620 L 132 621 L 132 625 L 128 633 L 122 638 L 112 638 L 110 636 L 110 594 Z M 367 480 L 364 480 L 352 486 L 350 486 L 348 488 L 346 488 L 342 490 L 340 492 L 330 497 L 327 500 L 323 502 L 321 505 L 330 499 L 335 497 L 337 495 L 349 489 L 351 489 L 353 487 L 355 487 L 367 481 Z M 211 450 L 208 450 L 207 451 L 202 452 L 200 454 L 198 454 L 179 464 L 179 465 L 187 461 L 189 461 L 191 459 L 193 459 L 200 455 L 207 453 L 211 451 Z M 237 448 L 231 448 L 230 449 L 225 450 L 222 452 L 220 452 L 217 454 L 215 454 L 212 456 L 210 456 L 203 460 L 201 460 L 178 472 L 172 476 L 172 479 L 174 479 L 182 475 L 184 473 L 186 473 L 188 471 L 190 471 L 192 469 L 194 469 L 210 461 L 218 459 L 221 457 L 223 457 L 226 455 L 233 453 L 237 450 Z M 324 421 L 318 421 L 317 422 L 310 424 L 310 425 L 311 426 L 320 425 L 324 423 Z M 441 414 L 439 412 L 431 414 L 422 419 L 422 421 L 429 421 L 430 420 L 435 419 L 439 417 Z M 540 402 L 536 404 L 530 410 L 529 410 L 527 413 L 534 409 L 540 403 Z M 475 398 L 472 398 L 459 404 L 458 405 L 458 408 L 462 408 L 463 407 L 466 407 L 469 405 L 471 405 L 475 402 Z M 243 380 L 243 381 L 247 381 L 249 383 L 249 392 L 248 393 L 248 397 L 250 397 L 250 395 L 251 394 L 251 382 L 249 380 Z M 505 380 L 503 378 L 499 380 L 490 388 L 490 391 L 494 391 L 503 384 Z M 413 384 L 406 382 L 402 377 L 398 375 L 390 375 L 384 380 L 380 388 L 380 390 L 374 396 L 370 398 L 368 398 L 365 400 L 362 400 L 358 402 L 354 402 L 350 404 L 347 404 L 344 406 L 342 406 L 340 408 L 336 408 L 331 403 L 331 401 L 330 400 L 330 395 L 333 390 L 336 388 L 336 386 L 330 386 L 324 390 L 320 398 L 320 404 L 323 411 L 326 414 L 329 415 L 333 418 L 333 421 L 332 422 L 332 434 L 328 439 L 328 441 L 326 444 L 325 459 L 327 461 L 333 461 L 334 460 L 333 453 L 337 446 L 339 446 L 342 451 L 349 458 L 351 459 L 356 458 L 357 457 L 357 453 L 356 453 L 351 446 L 351 442 L 357 435 L 357 433 L 359 429 L 374 430 L 376 432 L 376 445 L 377 446 L 378 451 L 380 452 L 384 452 L 388 450 L 388 448 L 385 444 L 386 433 L 388 431 L 390 431 L 396 435 L 396 439 L 398 442 L 402 442 L 404 439 L 404 431 L 403 430 L 403 427 L 395 421 L 395 416 L 397 412 L 397 405 L 398 404 L 398 401 L 401 397 L 409 395 L 412 392 L 414 387 Z M 337 430 L 340 434 L 340 439 L 334 444 L 332 447 L 332 449 L 330 450 L 329 449 L 330 443 L 332 441 L 335 435 L 335 431 Z M 389 426 L 393 423 L 400 429 L 400 431 L 398 432 L 390 428 Z M 407 385 L 409 387 L 409 390 L 407 392 L 399 394 L 396 397 L 394 401 L 394 408 L 393 409 L 392 415 L 386 423 L 386 425 L 384 428 L 384 432 L 383 433 L 383 437 L 382 438 L 382 443 L 381 444 L 379 443 L 379 430 L 378 429 L 378 425 L 377 424 L 376 424 L 375 426 L 371 427 L 370 426 L 360 426 L 357 422 L 355 422 L 356 425 L 355 426 L 354 432 L 348 441 L 348 448 L 350 451 L 350 452 L 348 453 L 343 447 L 343 445 L 342 444 L 342 442 L 343 441 L 343 434 L 337 425 L 337 423 L 336 422 L 336 416 L 330 413 L 325 408 L 323 404 L 323 397 L 325 393 L 327 391 L 329 392 L 328 394 L 328 403 L 330 407 L 334 410 L 339 411 L 349 407 L 353 407 L 357 405 L 362 405 L 366 403 L 369 403 L 375 400 L 381 395 L 386 383 L 388 384 L 388 391 L 390 393 L 394 393 L 396 391 L 396 385 L 394 385 L 394 389 L 393 390 L 391 390 L 389 388 L 389 384 L 387 383 L 387 381 L 389 379 L 396 378 L 404 385 Z M 559 354 L 558 354 L 558 356 L 560 360 L 560 369 L 559 370 L 557 380 L 552 389 L 554 389 L 559 380 L 559 377 L 561 373 L 561 360 L 559 357 Z M 511 349 L 510 350 L 510 352 L 512 356 L 512 366 L 515 366 L 517 363 L 517 356 L 515 351 L 513 349 Z M 158 336 L 157 336 L 153 340 L 153 341 L 154 341 L 158 337 Z M 486 330 L 488 333 L 498 339 L 500 339 L 500 335 L 496 332 L 490 329 L 487 329 Z M 167 328 L 166 328 L 166 329 L 164 330 L 160 334 L 160 335 L 161 335 L 165 331 L 165 330 L 167 329 Z M 460 317 L 460 319 L 469 324 L 473 323 L 471 320 L 467 318 Z M 187 317 L 186 317 L 169 334 L 169 335 L 173 333 L 173 332 L 175 331 L 185 321 Z M 282 314 L 274 314 L 270 316 L 267 319 L 265 323 L 265 333 L 268 341 L 262 346 L 259 346 L 258 345 L 250 345 L 246 347 L 240 353 L 236 362 L 236 371 L 230 380 L 230 395 L 234 402 L 239 405 L 247 406 L 249 408 L 249 416 L 248 417 L 248 445 L 244 452 L 244 454 L 242 456 L 242 458 L 238 465 L 236 473 L 232 481 L 232 483 L 235 487 L 248 494 L 255 494 L 257 493 L 259 490 L 258 486 L 251 480 L 251 478 L 255 473 L 265 455 L 265 453 L 267 450 L 267 448 L 269 444 L 269 438 L 270 437 L 272 437 L 279 445 L 279 447 L 280 448 L 280 456 L 281 457 L 281 462 L 282 463 L 282 469 L 285 475 L 286 483 L 290 486 L 294 486 L 295 485 L 300 485 L 301 484 L 306 483 L 311 479 L 311 475 L 308 472 L 302 471 L 300 469 L 300 467 L 301 466 L 301 460 L 302 459 L 303 448 L 304 447 L 304 443 L 305 442 L 305 435 L 306 434 L 307 424 L 308 423 L 310 402 L 311 400 L 315 397 L 315 395 L 316 394 L 315 388 L 313 386 L 314 377 L 313 376 L 311 377 L 310 379 L 310 383 L 309 384 L 305 384 L 302 382 L 300 382 L 293 376 L 292 370 L 291 369 L 290 360 L 287 353 L 283 348 L 283 346 L 289 341 L 291 336 L 291 327 L 293 325 L 296 324 L 298 322 L 298 320 L 290 320 Z M 238 477 L 239 476 L 243 477 L 253 488 L 253 489 L 252 490 L 250 490 L 240 485 L 237 482 Z M 289 480 L 289 477 L 291 475 L 293 475 L 294 474 L 296 474 L 297 475 L 302 475 L 304 477 L 303 479 L 297 480 L 296 481 L 290 481 Z M 254 409 L 256 410 L 261 410 L 262 411 L 279 410 L 281 412 L 282 416 L 284 418 L 284 420 L 286 422 L 292 434 L 292 437 L 294 442 L 295 460 L 296 461 L 296 469 L 291 472 L 289 472 L 288 471 L 288 469 L 287 468 L 286 455 L 285 454 L 285 447 L 282 440 L 273 431 L 273 430 L 263 420 L 262 420 L 262 423 L 266 429 L 266 435 L 265 436 L 265 441 L 264 442 L 263 448 L 250 472 L 247 475 L 244 474 L 242 472 L 243 466 L 251 450 L 251 448 L 253 444 L 253 410 Z M 286 393 L 290 395 L 293 395 L 294 396 L 301 397 L 302 398 L 306 398 L 307 399 L 307 407 L 306 408 L 306 413 L 305 414 L 304 427 L 303 428 L 302 437 L 300 442 L 298 441 L 298 438 L 297 437 L 297 434 L 295 431 L 295 429 L 293 427 L 293 425 L 291 423 L 284 409 L 284 397 Z M 309 391 L 311 390 L 312 391 L 312 393 L 310 394 L 309 393 Z M 279 386 L 281 389 L 280 404 L 278 406 L 273 406 L 272 407 L 261 407 L 259 404 L 262 401 L 263 397 L 265 395 L 267 395 L 273 391 L 278 386 Z M 270 356 L 277 353 L 281 353 L 285 357 L 286 362 L 287 363 L 287 367 L 288 368 L 288 373 L 290 376 L 291 380 L 296 384 L 303 387 L 306 390 L 304 393 L 300 393 L 299 392 L 296 392 L 295 391 L 287 389 L 283 385 L 276 369 L 275 369 L 275 373 L 277 378 L 276 383 L 268 389 L 266 388 L 266 384 L 267 383 L 267 374 L 268 373 L 268 365 L 269 364 L 269 357 Z M 257 349 L 262 351 L 265 354 L 265 360 L 264 361 L 264 372 L 263 373 L 263 377 L 262 378 L 262 384 L 261 385 L 261 389 L 260 390 L 260 395 L 256 400 L 254 400 L 253 401 L 250 401 L 249 402 L 247 402 L 246 401 L 241 401 L 235 396 L 235 394 L 234 393 L 234 381 L 236 379 L 238 379 L 238 377 L 240 373 L 245 373 L 246 371 L 252 370 L 257 366 L 259 363 L 259 361 L 261 357 L 260 357 L 258 360 L 249 368 L 248 368 L 245 364 L 243 364 L 242 365 L 240 364 L 241 360 L 243 358 L 244 355 L 248 351 L 253 349 Z M 267 350 L 267 347 L 269 345 L 273 345 L 277 347 L 276 349 L 271 351 L 268 351 Z M 286 328 L 288 331 L 288 333 L 286 338 L 283 341 L 281 342 L 276 342 L 271 337 L 271 333 L 272 332 L 279 331 L 282 329 Z M 269 328 L 270 323 L 276 318 L 280 318 L 285 322 L 285 324 L 283 326 L 281 326 L 274 329 L 270 329 Z M 429 306 L 429 309 L 433 311 L 435 311 L 439 313 L 442 313 L 443 312 L 440 308 L 437 308 L 433 306 Z M 342 300 L 344 303 L 350 307 L 355 309 L 355 308 L 344 302 L 343 300 Z M 401 299 L 402 301 L 406 303 L 408 303 L 412 305 L 414 304 L 414 302 L 411 300 L 408 300 L 403 298 Z M 374 289 L 374 291 L 379 295 L 386 296 L 386 294 L 385 293 Z M 580 284 L 580 285 L 584 289 L 589 292 L 589 290 L 583 284 Z M 400 269 L 400 272 L 403 275 L 407 276 L 407 275 L 405 274 L 401 270 L 401 269 Z M 362 269 L 360 273 L 360 277 L 362 280 L 364 280 L 364 270 Z M 220 269 L 219 269 L 212 276 L 212 277 L 206 283 L 202 289 L 190 302 L 190 303 L 185 308 L 180 315 L 178 316 L 178 317 L 176 318 L 176 319 L 169 326 L 169 327 L 170 327 L 179 318 L 179 316 L 181 315 L 191 305 L 191 304 L 203 291 L 207 285 L 215 277 L 215 276 L 219 272 Z M 330 259 L 327 267 L 327 280 L 328 281 L 328 284 L 330 287 L 331 287 L 329 283 L 329 276 L 328 275 L 329 264 L 331 261 L 331 259 Z M 379 252 L 378 251 L 376 251 L 372 253 L 369 256 L 369 259 L 371 259 L 374 257 L 378 253 L 379 253 Z M 243 248 L 239 248 L 236 250 L 234 253 L 236 253 L 238 251 L 243 249 Z M 399 241 L 393 242 L 391 243 L 390 245 L 394 245 L 398 243 Z M 443 238 L 438 238 L 437 239 L 433 239 L 432 240 L 427 240 L 423 242 L 413 244 L 395 253 L 388 259 L 385 265 L 385 273 L 388 278 L 394 283 L 407 289 L 409 289 L 413 291 L 416 291 L 420 293 L 423 293 L 427 295 L 430 295 L 434 297 L 437 297 L 441 299 L 445 299 L 448 301 L 451 301 L 452 302 L 463 305 L 466 307 L 469 307 L 472 309 L 474 309 L 477 311 L 479 311 L 482 313 L 487 314 L 492 317 L 494 317 L 497 319 L 504 321 L 506 323 L 508 323 L 525 332 L 532 337 L 541 346 L 546 355 L 546 359 L 547 360 L 547 369 L 546 370 L 546 373 L 544 376 L 544 378 L 538 386 L 529 395 L 517 404 L 502 412 L 500 414 L 467 430 L 465 430 L 462 432 L 460 432 L 457 434 L 455 434 L 452 436 L 450 436 L 447 438 L 445 438 L 432 444 L 424 446 L 411 452 L 408 452 L 405 454 L 392 458 L 389 460 L 386 460 L 383 462 L 380 462 L 377 464 L 374 464 L 371 466 L 368 466 L 365 468 L 363 468 L 362 469 L 357 470 L 354 472 L 352 472 L 349 474 L 347 474 L 327 484 L 325 486 L 320 488 L 315 492 L 306 497 L 294 506 L 288 512 L 288 515 L 292 515 L 305 505 L 311 502 L 316 498 L 319 497 L 324 493 L 343 483 L 345 483 L 347 481 L 349 481 L 354 478 L 359 477 L 362 475 L 370 473 L 373 471 L 399 463 L 402 461 L 405 461 L 408 459 L 410 459 L 413 457 L 415 457 L 428 451 L 441 447 L 444 445 L 446 445 L 449 443 L 451 443 L 454 441 L 456 441 L 459 439 L 466 437 L 473 433 L 475 433 L 482 429 L 484 429 L 496 423 L 498 421 L 500 421 L 502 419 L 504 419 L 506 417 L 522 408 L 530 401 L 531 401 L 537 395 L 538 395 L 545 387 L 547 382 L 549 380 L 549 378 L 551 375 L 551 371 L 552 370 L 552 358 L 551 357 L 551 354 L 549 351 L 549 349 L 547 345 L 543 341 L 543 340 L 533 331 L 509 318 L 507 318 L 504 316 L 502 316 L 497 313 L 495 313 L 490 310 L 487 310 L 479 306 L 476 306 L 473 304 L 471 304 L 449 296 L 445 296 L 441 294 L 438 294 L 433 292 L 429 292 L 425 290 L 422 290 L 418 288 L 408 286 L 397 281 L 389 274 L 387 269 L 388 265 L 391 260 L 398 254 L 409 248 L 414 247 L 417 245 L 419 245 L 423 243 L 426 243 L 427 242 L 430 242 L 431 241 L 434 241 L 438 239 L 443 239 Z M 420 234 L 417 234 L 413 236 L 413 237 L 417 237 L 419 236 Z M 542 230 L 548 242 L 548 244 L 552 250 L 552 252 L 561 265 L 569 273 L 570 273 L 566 266 L 563 263 L 553 248 L 551 243 L 547 238 L 547 236 L 543 230 Z M 436 231 L 441 231 L 443 230 L 443 228 L 439 228 L 437 229 Z M 458 225 L 462 225 L 465 223 L 465 222 L 460 222 Z M 482 212 L 479 213 L 476 217 L 479 217 L 482 214 Z M 301 208 L 298 210 L 298 211 L 284 226 L 284 227 L 273 238 L 263 244 L 263 245 L 265 245 L 275 239 L 287 227 L 291 221 L 297 215 Z M 523 206 L 523 207 L 530 214 L 530 215 L 531 215 L 532 217 L 535 219 L 533 215 L 524 206 Z M 494 201 L 493 201 L 490 205 L 493 205 Z M 413 179 L 411 179 L 409 181 L 408 184 L 409 184 L 413 180 Z M 431 150 L 434 155 L 437 157 L 437 155 L 432 150 Z M 370 131 L 369 131 L 358 142 L 358 143 L 342 160 L 340 164 L 341 164 L 353 152 L 353 151 L 369 134 Z M 422 130 L 424 134 L 430 140 L 436 148 L 441 153 L 442 153 L 441 150 L 435 142 L 423 130 Z M 383 118 L 382 118 L 378 122 L 378 123 L 379 123 L 383 119 Z M 663 350 L 659 344 L 631 317 L 603 276 L 597 270 L 590 266 L 588 266 L 579 258 L 555 221 L 551 217 L 543 206 L 537 200 L 537 199 L 528 190 L 519 185 L 510 185 L 503 188 L 499 188 L 494 186 L 485 178 L 485 177 L 479 171 L 477 167 L 473 163 L 469 157 L 447 135 L 441 126 L 432 116 L 431 116 L 413 98 L 398 90 L 393 90 L 384 96 L 338 141 L 338 142 L 328 152 L 320 163 L 318 164 L 318 165 L 304 180 L 304 181 L 264 223 L 256 227 L 248 227 L 247 228 L 241 228 L 240 229 L 235 230 L 226 236 L 200 263 L 200 264 L 190 275 L 190 276 L 176 292 L 176 293 L 153 316 L 152 316 L 151 318 L 150 318 L 125 342 L 124 342 L 108 358 L 108 360 L 113 359 L 117 355 L 136 341 L 142 335 L 148 331 L 163 317 L 164 317 L 179 302 L 179 301 L 185 295 L 185 294 L 195 283 L 203 272 L 212 263 L 212 262 L 232 242 L 240 237 L 242 237 L 243 236 L 248 236 L 249 235 L 258 235 L 259 234 L 264 233 L 270 229 L 279 220 L 279 219 L 287 211 L 287 210 L 289 209 L 289 208 L 307 190 L 307 189 L 320 175 L 322 176 L 322 189 L 323 191 L 325 192 L 331 192 L 332 191 L 334 191 L 343 186 L 345 184 L 348 183 L 350 181 L 360 176 L 363 177 L 366 181 L 366 184 L 368 188 L 370 198 L 375 205 L 378 207 L 381 207 L 385 205 L 389 201 L 403 180 L 411 173 L 415 173 L 428 183 L 440 189 L 448 189 L 452 185 L 453 180 L 455 177 L 457 177 L 463 181 L 472 181 L 473 180 L 476 180 L 488 191 L 488 193 L 478 203 L 462 212 L 459 212 L 456 214 L 453 214 L 450 216 L 447 216 L 443 218 L 439 218 L 435 220 L 431 220 L 430 221 L 422 222 L 417 224 L 412 224 L 408 226 L 404 226 L 400 228 L 390 230 L 387 232 L 384 232 L 381 234 L 376 235 L 357 244 L 348 250 L 340 258 L 336 266 L 336 269 L 335 270 L 335 277 L 336 278 L 336 282 L 338 285 L 338 287 L 344 295 L 358 305 L 360 305 L 362 307 L 364 307 L 367 309 L 369 309 L 374 312 L 379 313 L 382 315 L 385 315 L 386 316 L 392 317 L 396 319 L 399 319 L 403 321 L 407 321 L 411 323 L 422 325 L 426 327 L 430 327 L 431 328 L 437 329 L 440 331 L 448 333 L 455 337 L 457 337 L 465 341 L 476 351 L 478 354 L 479 360 L 478 361 L 478 363 L 471 370 L 457 378 L 455 378 L 452 380 L 426 388 L 421 391 L 421 393 L 427 393 L 428 392 L 437 391 L 441 389 L 444 389 L 447 387 L 450 387 L 467 379 L 477 372 L 483 364 L 483 353 L 480 347 L 470 338 L 465 336 L 463 334 L 461 334 L 459 332 L 457 332 L 449 328 L 447 328 L 443 326 L 440 326 L 437 324 L 434 324 L 423 320 L 419 320 L 418 319 L 403 316 L 399 314 L 396 314 L 392 312 L 388 312 L 385 310 L 382 310 L 381 309 L 376 308 L 373 306 L 371 306 L 358 300 L 352 296 L 341 284 L 339 279 L 339 268 L 343 261 L 351 253 L 363 245 L 365 245 L 367 243 L 369 243 L 381 237 L 383 237 L 393 233 L 396 233 L 400 231 L 404 231 L 405 230 L 408 230 L 409 229 L 412 229 L 417 227 L 421 227 L 425 225 L 429 225 L 433 223 L 437 223 L 438 222 L 445 221 L 449 219 L 452 219 L 456 217 L 459 217 L 477 208 L 480 205 L 484 203 L 492 194 L 494 194 L 495 195 L 507 195 L 514 191 L 518 191 L 525 195 L 532 202 L 532 203 L 546 220 L 556 235 L 560 243 L 564 248 L 566 253 L 574 264 L 581 271 L 585 273 L 587 273 L 596 280 L 620 316 L 630 327 L 630 328 L 638 336 L 639 336 L 641 339 L 642 339 L 657 355 L 659 356 L 663 355 Z M 471 173 L 471 175 L 470 176 L 465 176 L 458 172 L 453 172 L 450 175 L 448 179 L 448 181 L 445 184 L 442 184 L 439 182 L 437 182 L 433 180 L 419 170 L 412 169 L 411 170 L 409 170 L 404 174 L 390 193 L 381 202 L 379 202 L 376 199 L 373 193 L 373 190 L 372 189 L 371 183 L 369 180 L 369 178 L 368 176 L 363 172 L 359 172 L 356 174 L 354 174 L 331 188 L 327 188 L 325 186 L 325 169 L 329 165 L 337 154 L 385 106 L 385 105 L 394 97 L 405 102 L 409 105 L 432 128 L 432 129 L 434 130 L 443 143 L 462 161 Z" fill="#FFFFFF" fill-rule="evenodd" />
</svg>