<svg xmlns="http://www.w3.org/2000/svg" viewBox="375.3 94.1 307.9 690.7" role="img" aria-hidden="true">
  <defs>
</defs>
  <path d="M497.408,354.047 C498.021,354.164 499.219,354.856 500.037,354.722 C509.453,353.183 518.229,354.406 527.154,354.283 C535.96,354.161 544.778,358.731 551.852,363.809 C558.436,359.928 568.473,363.33 573.262,368.098 C573.262,368.098 605.185,399.887 605.185,399.887 C607.641,402.332 609.359,405.317 611.032,407.986 C610.337,407.768 609.859,406.772 608.527,407.782 C613.031,412.491 609.524,418.131 612.051,418.994 C612.755,424.114 606.558,433.842 601.916,438.005 C595.758,443.529 587.84,453.087 586.439,459.924 C585.4,464.999 586.309,469.509 583.313,473.136 C583.313,471.956 582.069,471.71 581.845,472.774 C579.11,475.318 575.022,475.741 571.707,474.404 C571.707,474.404 570.527,473.038 570.527,473.038 C570.385,472.873 570.012,473.919 569.797,474.411 C569.797,474.411 562.995,468.904 562.995,468.904 C563.353,473.178 563.126,476.919 564.325,481.003 C564.325,481.003 566.111,487.092 566.111,487.092 C566.111,487.092 580.145,516.835 580.145,516.835 C581.403,519.5 582.493,521.807 582.04,524.875 C583.438,525.46 583.882,526.031 584.126,526.686 C584.349,527.285 583.906,528.509 583.422,528.714 C583.282,527.898 583.58,525.992 581.627,525.901 C584.51,532.876 582.981,538.513 585.105,538.045 C585.743,537.905 585.945,538.364 585.945,538.889 C585.815,538.808 585.256,538.872 584.977,539.134 C584.977,539.134 586.108,550.979 586.108,550.979 C586.895,550.499 587.432,550.18 587.934,550.226 C587.934,550.226 587.965,554.988 587.965,554.988 C587.849,554.981 587.535,554.984 587.011,555.206 C587.011,555.206 586.984,569.064 586.984,569.064 C586.918,569.813 587.581,570.071 587.934,569.996 C587.926,573.984 585.247,577.348 586.092,580.846 C586.092,580.846 585.377,582.82 585.377,582.82 C589.058,590.738 586.257,595.945 589.193,595.994 C590.186,596.011 589.97,597.41 589.972,598.118 C589.81,598.025 589.368,598.08 589.024,598.27 C589.024,598.27 589.532,614.06 589.532,614.06 C590.3,614.339 590.762,615.128 591.189,615.88 C596.099,613.426 600.306,613.339 605.222,616.081 C608.533,617.929 610.497,621.867 612.421,625.659 C612.421,625.659 614.147,638.056 614.147,638.056 C615.019,637.364 615.399,637.196 616.022,637.174 C616.467,640.732 614.925,644.773 616.64,648.657 C625.384,640.434 630.191,630.598 634.341,620.319 C634.341,620.319 637.998,611.263 637.998,611.263 C643.149,598.504 642.696,589.598 643.497,588.745 C644.012,588.195 644.926,588.169 645.463,588.799 C645.791,589.183 646.035,589.841 646.164,591.13 C648.234,590.734 647.041,589.401 647.124,588.721 C647.124,588.721 650.948,597.836 650.948,597.836 C650.249,597.496 649.194,597.993 649.206,598.596 C651.792,603.023 651.663,608.436 651.764,613.205 C651.764,613.205 652.019,625.178 652.019,625.178 C653.039,629.029 651.701,633.799 649.799,638 C649.799,638 640.822,657.822 640.822,657.822 C632.062,674.178 620.344,688.981 603.185,697.114 C592.471,702.192 589.106,711.155 590.179,711.633 C604.691,718.096 603.571,734.034 600.949,736.607 C598.916,738.602 587.886,739.137 580.048,738.816 C580.354,746.921 575.246,751.278 568.146,753.332 C558.046,756.253 547.226,749.952 538.293,747.094 C535.978,746.354 534.588,743.892 533.727,742.61 C532.394,740.627 533.526,738.411 533.839,735.95 C534.161,733.422 532.501,730.446 531.472,727.811 C530.395,725.051 524.847,725.958 522.234,725.414 C523.314,723.64 521.356,723.651 520.7,723.126 C520.7,723.126 497.396,723.18 497.396,723.18 C496.907,723.181 495.45,724.167 495.104,724.466 C494.768,724.756 495.78,725.626 495.688,725.88 C493.772,726.528 490.332,725.602 487.942,727.165 C483.071,730.351 489.584,736.737 484.026,743.973 C480.729,748.266 475.465,749.037 471.046,750.85 C471.046,750.85 463.02,754.143 463.02,754.143 C459.045,755.773 456.652,756.759 452.741,755 C447.231,752.523 440.489,751.17 438.237,743.715 C438.237,743.715 437.888,737.854 437.888,737.854 C434.246,739.923 431.056,740.185 426.827,739.996 C422.022,739.783 417.066,735.553 416.607,730.979 C415.705,721.987 421.843,715.153 430.128,713.286 C431.063,713.075 431.749,711.897 431.997,711.372 C432.171,711.002 432.07,709.906 431.613,709.409 C420.572,697.413 412.027,681.58 407.836,665.813 C408.546,666.14 408.899,665.814 409.03,665.425 C409.221,664.86 408.661,664.165 408.44,663.753 C406.172,659.529 407.408,651.593 404.002,645.929 C404.38,642.799 403.324,638.743 404.572,635.759 C405.044,636.91 404.276,638.537 405.49,640.19 C405.49,640.19 407.825,626.612 407.825,626.612 C410.575,617.87 419.139,612.236 428.05,614.575 C427.776,615.431 428.018,615.814 428.891,616.55 C429.469,617.037 430.188,616.914 430.387,615.899 C430.387,615.899 430.759,614.009 430.759,614.009 C430.759,614.009 431.021,599.943 431.021,599.943 C431.035,599.194 430.414,598.981 430.218,599.116 C431.496,592.143 431.331,585.043 430.544,577.553 C429.538,567.976 429.551,557.989 430.529,548.04 C430.529,548.04 432.101,540.954 432.101,540.954 C435.335,515.959 451.118,497.915 454.364,484.089 C455.283,480.17 457.14,476.576 455.362,472.46 C451.694,475.133 448.542,476.976 445.023,477.001 C437.793,473.519 442.16,465.712 438.485,465.981 C436.995,462.236 434.998,458.272 432.027,455.082 C432.027,455.082 419.93,442.087 419.93,442.087 C414.596,436.358 410.134,429.532 408.039,422.192 C404.847,411.01 409.11,401.473 417.813,394.836 C417.813,394.836 427.53,387.426 427.53,387.426 C431.826,384.15 436.433,381.413 439.788,376.709 C444.892,369.552 451.892,363.507 460.841,362.937 C466.428,365.448 471.76,363.872 475.81,359.874 C483.255,356.65 491.648,352.949 497.408,354.047 Z M492.987,360.257 C484.336,361.22 476.189,366.318 468.941,369.11 C462.657,367.313 455.263,367.586 450.728,373.889 C450.728,373.889 443.974,381.034 443.974,381.034 C430.944,394.819 419.081,395.722 415.168,406.816 C415.4,406.252 414.785,405.909 414.52,406.029 C414.264,406.146 413.119,406.987 413.122,407.306 C413.122,407.306 413.24,421.58 413.24,421.58 C413.253,423.194 415.264,424.372 416.11,424.584 C415.928,426.881 417.666,425.459 417.92,425.205 C417.217,427.863 418.249,430.485 420.816,431.889 C420.816,431.889 423.036,433.052 423.036,433.052 C423.036,433.052 422.128,434.521 422.128,434.521 C421.945,434.819 423.194,435.849 424.034,436.311 C423.235,438.156 425.803,438.884 426.043,437.023 C426.821,437.026 427.303,437.774 427.915,438.033 C428.125,445.49 435.136,442.932 433.903,447.774 C433.979,448.99 434.963,449.205 436.218,447.83 C436.943,450.247 437.017,451.613 438.008,453.253 C438.557,454.16 439.515,454.385 440.5,453.867 C440.995,454.074 441.5,454.166 442.085,454.123 C441.137,457.44 446.434,462.379 446.011,470.4 C455.235,465.792 458.674,450.802 458.42,440.293 C458.42,440.293 457.954,421.063 457.954,421.063 C457.954,421.063 457.867,402.89 457.867,402.89 C457.837,396.629 460.38,389.819 464.775,385.024 C465.634,384.224 466.796,384.086 467.206,384.425 C467.883,384.983 467.937,386.252 467.288,387.421 C467.288,387.421 466.376,389.062 466.376,389.062 C462.368,390.465 463.88,395.27 461.074,398.332 C461.074,398.332 461.08,422.693 461.08,422.693 C461.107,422.973 462.276,423.838 462.514,423.97 C462.775,424.114 463.388,423.818 463.415,423.21 C463.415,423.21 464.235,433.928 464.235,433.928 C463.803,433.786 463.192,433.903 463.107,434.311 C463.107,434.311 462.877,451.989 462.877,451.989 C462.866,452.844 461.257,454.363 462.016,455.447 C465.178,459.961 466.855,460.282 465.208,456.732 C475.649,468.697 477.487,486.807 483.968,487.764 C486.919,488.2 491.332,488.848 493.375,487.521 C493.375,487.521 506.15,479.218 506.15,479.218 C506.083,477.754 507.444,477.014 508.097,477.484 C511.309,476.931 510.212,472.508 510.708,469.367 C508.797,467.586 506.082,466.369 503.294,464.907 C502.853,465.391 502.814,465.885 502.83,465.985 C496.906,461.836 491.563,455.25 494.219,449.094 C496.273,444.33 501.869,441.686 506.944,441.759 C506.944,441.759 517.91,441.916 517.91,441.916 C521.246,441.964 522.828,442.546 524.972,443.841 C527.079,446.426 529.175,450.428 527.719,453.695 C527.719,453.695 526.927,455.471 526.927,455.471 C526.635,456.128 526.945,457.027 527.996,457.014 C525.098,462.758 520.001,466.479 514.737,469.007 C511.975,479.037 521.738,480.825 523.782,483.916 C526.148,487.495 530.36,489.216 534.963,489.15 C538.84,489.095 541.679,488.016 542.477,484.882 C543.482,480.935 546.167,477.385 546.825,472.8 C547.28,469.63 549.729,466.597 550.654,464.04 C552.774,458.18 557.36,456.397 557.774,455.456 C558.421,453.988 555.819,449.932 555.984,445.083 C558.546,443.199 557.866,440.062 557.885,437.128 C557.928,430.69 559.553,424.65 558.498,419.075 C558.031,418.715 557.879,417.819 558.046,417.251 C558.388,417.255 559.349,418.245 559.614,417.848 C559.919,417.392 560.507,415.589 560.523,415.091 C560.523,415.091 561.049,398.007 561.049,398.007 C561.254,396.657 560.882,395.876 559.598,395.999 C559.161,392.916 558.372,389.515 556.739,386.375 C556.739,386.375 555.292,383.592 555.292,383.592 C554.916,382.87 557.061,381.133 557.749,381.561 C562.227,384.345 561.767,392.225 563.641,392.02 C563.509,392.67 564.005,393.058 564.574,392.895 C563.88,392.996 562.864,393.013 562.284,393.439 C562.284,393.439 564.004,396.875 564.004,396.875 C563.546,396.835 562.952,397.109 562.958,397.96 C562.958,397.96 563.095,419.15 563.095,419.15 C563.107,420.996 563.593,423.704 562.618,425.589 C561.021,428.676 562.759,431.847 562.512,434.874 C562.119,439.715 561.922,443.847 563.108,448.005 C561.746,448.139 561.762,449.053 561.899,449.566 C561.899,449.566 562.804,452.96 562.804,452.96 C563.558,455.788 563.761,458.029 565.507,459.799 C569.075,463.417 570.867,468.934 577.177,470.032 C579.04,464.161 580.462,457.943 580.03,452.037 C580.841,451.629 580.7,450.262 581.98,450.08 C584.358,449.741 584.028,446.929 584.065,445.071 C584.065,445.071 585.919,443.936 585.919,443.936 C585.919,443.936 587.377,444.004 587.377,444.004 C587.377,444.004 588.224,443.353 588.224,443.353 C589.813,442.485 590.989,439.897 590.846,438.392 C591.443,438.572 592.489,437.686 592.252,437.426 C591.792,436.921 591.725,434.731 593.494,435.782 C593.494,435.782 593.839,423.769 593.839,423.769 C596.899,425.074 595.218,428.039 595.518,430.083 C595.518,430.083 595.867,432.463 595.867,432.463 C595.931,432.894 596.904,433.323 597.417,433.029 C597.803,432.808 598.375,431.898 597.985,430.769 C605.784,425.211 608.366,413.121 601.196,405.808 C601.196,405.808 579.921,384.108 579.921,384.108 C573.522,377.581 563.367,363.711 555.433,366.65 C554.31,367.065 553.536,369.808 552.347,370.052 C547.674,371.014 536.854,358.709 516.042,359.072 C516.282,358.741 516.072,358.051 515.806,358.055 C515.806,358.055 496.381,358.336 496.381,358.336 C495.255,358.352 493.41,359.032 492.987,360.257 Z M499.821,454.204 C501.52,455.103 502.455,455.462 502.09,458.201 C502.09,458.201 505.137,455.623 505.137,455.623 C505.489,455.364 505.73,455.277 506.063,455.6 C505.852,456.207 505.765,456.817 505.818,457.491 C504.664,457.43 503.715,458.954 505.049,459.971 C505.049,459.971 507.269,460.074 507.269,460.074 C507.628,460.091 507.838,460.393 507.948,460.97 C507.884,461.707 507.965,462.594 508.553,462.985 C509.293,463.478 510.564,462.072 511.011,461.8 C512.006,462.974 513.236,464.187 514.426,463.606 C515.79,462.94 517.052,461.619 515.997,459.75 C515.997,459.75 514.177,456.524 514.177,456.524 C513.517,455.354 515.273,454.095 516.022,453.051 C517.43,452.524 518.028,453.699 519.013,453.983 C520.234,454.334 521.482,454.933 522.423,454.092 C523.596,453.044 523.416,452.553 523.584,451.224 C523.887,448.837 521.31,447.272 519.097,447.148 C519.097,447.148 518.097,447.091 518.097,447.091 C515.605,445.871 512.92,445.919 510.475,446.627 C510.173,446.302 509.6,446.315 509.308,446.273 C508.508,446.157 508.094,447.307 507.873,447.814 C506.278,447.355 504.989,447.025 503.929,447.478 C502.463,448.106 501.244,448.901 500.751,450.962 C500.662,451.284 499.199,450.635 499.861,449.587 C500.036,449.308 499.454,448.969 499.003,449.399 C498.509,449.87 497.897,451.541 498.351,451.72 C498.351,451.72 500.172,452.439 500.172,452.439 C500.475,452.558 500.214,453.587 499.821,454.204 Z M459.947,480.647 C458.015,482.817 457.724,485.785 457.006,489.027 C456.434,491.611 453.967,493.725 453.934,496.044 C453.915,497.425 453.872,498.622 455.182,499.937 C454.162,501.8 452.367,502.503 452.044,503.874 C451.802,504.902 451.555,506.307 453.046,507.597 C454.636,506.067 455.494,503.71 458.556,504.214 C455.031,508.424 452.629,513.182 448.544,516.434 C444.204,519.891 442.874,525.197 440.95,529.818 C439.935,532.257 439.288,534.68 440.689,537.329 C442.397,532.254 444.274,529.136 446.469,525.54 C449.031,525.008 450.598,524.317 449.798,525.555 C449.798,525.555 441.768,537.972 441.768,537.972 C438.441,543.118 436.035,549.973 438.087,555.159 C438.087,555.159 436.311,561.767 436.311,561.767 C435.038,566.504 436.197,570.366 437.621,575.081 C437.621,575.081 438.15,589.785 438.15,589.785 C438.245,592.426 438.074,593.55 438.132,595.966 C436.897,595.724 436.309,596.013 435.757,596.918 C435.185,597.855 434.29,600.044 434.279,601.406 C434.279,601.406 433.96,642.98 433.96,642.98 C433.96,642.98 436.025,642.089 436.025,642.089 C436.025,642.089 435.682,651.382 435.682,651.382 C431.878,648.57 432.355,644.217 431.658,640.455 C430.355,633.428 429.575,626.973 430.051,619.941 C427.883,617.445 422.863,616.746 420.797,619.825 C415.199,621.693 412.637,628.397 411.936,633.673 C411.817,634.57 412.228,636.699 411.222,636.822 C409.498,637.033 409.101,638.337 409.587,639.525 C409.587,639.525 410.986,642.945 410.986,642.945 C412.1,645.669 409.558,651.05 411.983,652.015 C411.971,652.649 412.332,653.15 413.007,653.036 C413.007,653.036 413.039,656.002 413.039,656.002 C413.058,657.763 413.438,659.991 415.485,660.991 C415.485,660.991 416.266,670.598 416.266,670.598 C416.312,671.161 417.22,671.914 417.572,671.905 C417.572,671.905 418.921,671.872 418.921,671.872 C418.782,672.542 419.258,673.157 420.221,673.089 C419.313,676.587 419.674,680.231 421.954,682.896 C422.381,683.395 422.084,684.247 423.546,684.068 C424.206,683.987 424.976,684.157 425.352,683.169 C425.521,686.193 424.935,688.416 426.986,691.236 C429.165,694.232 431.624,697.664 433.541,701.225 C436.329,706.405 446.535,713.485 442.235,715.072 C434.38,717.972 420.151,719.354 423.699,731.223 C423.988,732.189 425.339,733.045 426.335,732.892 C427.056,732.781 428.038,731.937 427.882,730.958 C428.469,730.716 429.587,731.098 430.021,731.239 C430.5,731.394 431.801,731.241 430.614,732.507 C432.835,732.565 437.578,734.44 439.006,732.217 C441.978,727.59 445.367,724.131 449.16,719.987 C451.289,717.66 448.959,711.93 449.507,709.313 C449.507,709.313 450.399,705.052 450.399,705.052 C451.766,698.519 450.828,691.532 450.369,684.13 C450.088,679.591 448.036,675.151 449.054,670.266 C448.284,669.594 448.371,667.703 446.614,668.933 C446.614,668.933 446.239,665.085 446.239,665.085 C448.597,660.601 444.611,652.001 444.356,646.944 C444.356,646.944 444.225,644.342 444.225,644.342 C444.191,643.672 443.937,642.295 442.388,642.991 C442.388,642.991 441.345,635.931 441.345,635.931 C441.345,635.931 439.899,634.543 439.899,634.543 C439.737,634.388 440.252,633.811 440.727,633.865 C440.871,634.335 441.089,634.773 441.48,635.113 C441.78,635.375 442.795,635.017 442.902,634.586 C442.995,634.213 441.92,633.801 441.809,633.036 C441.809,633.036 439.442,616.716 439.442,616.716 C438.943,613.275 438.902,609.739 439.471,605.852 C439.471,605.852 443.703,623.996 443.703,623.996 C443.861,624.671 443.62,625.571 443.555,625.898 C443.408,626.638 444.947,627.087 444.866,626.543 C444.671,625.223 445.324,625.115 445.662,625.081 C446.545,628.707 446.335,633.383 447.86,637.035 C446.272,636.18 445.424,638.052 447.238,638.709 C447.238,638.709 450.139,656.298 450.139,656.298 C451.471,654.892 451.267,654.075 452.087,653.972 C452.271,654.733 452.211,656.221 452.078,656.987 C451.576,656.993 451.108,656.561 449.852,657.103 C452.661,660.541 448.983,665.796 453.343,667.018 C453.725,667.667 453.694,668.577 452.524,668.955 C452.524,668.955 453.84,682.993 453.84,682.993 C453.84,682.993 455.903,682.313 455.903,682.313 C455.024,688.53 456.989,696.431 455.491,704.506 C454.277,711.056 453.391,717.134 454.12,724.141 C454.12,724.141 447.93,730.955 447.93,730.955 C444.928,734.259 443.165,740.079 445.982,743.774 C445.982,743.774 447.468,745.723 447.468,745.723 C447.745,746.087 448.231,744.571 448.938,744.508 C448.546,746.024 450.013,746.604 450.823,744.94 C451.958,748.184 453.502,749.044 455.768,748.372 C458.183,747.656 463.471,747.836 463.64,743.922 C463.64,743.922 463.875,738.477 463.875,738.477 C464.836,738.281 464.805,737.096 465.395,736.167 C466.12,736.319 466.163,737.134 466.03,737.492 C465.92,737.792 466.776,738.244 467.134,737.91 C466.583,739.917 466.801,741.83 468.17,744.749 C472.472,744.283 477.55,740.294 478.401,735.486 C478.401,735.486 480.447,723.928 480.447,723.928 C481.816,724.14 482.719,721.962 482.728,720.606 C482.728,720.606 482.932,689.398 482.932,689.398 C482.932,689.398 481.55,687.095 481.55,687.095 C481.319,686.71 480.366,687.753 480.057,687.729 C480.207,673.443 478.853,658.806 480.656,644.658 C480.656,644.658 484.692,625.094 484.692,625.094 C484.989,626.291 485.641,627.02 487.315,625.89 C486.826,627.401 487.082,627.988 487.907,628.627 C487.907,628.627 487.419,634.347 487.419,634.347 C487.179,637.16 484.997,639.787 486.479,643.317 C487.687,640.179 489.303,637.48 491.814,634.957 C491.644,641.059 485.566,644.712 485.338,650.686 C482.818,652.151 483.462,656.662 485.668,658.568 C484.315,659.569 485.291,660.58 486.058,660.64 C485.021,663.742 485.467,671.51 486.614,676.116 C488.451,671.173 490.813,667.409 493.584,663.736 C494.403,665.566 493.828,667.183 493.195,668.16 C493.195,668.16 488.714,675.081 488.714,675.081 C488.714,675.081 486.554,680.363 486.554,680.363 C485.777,682.262 485.935,684.269 487.682,685.015 C487.598,683.39 488.545,682.863 488.837,682.257 C489.24,682.76 489.684,682.723 490.213,682.539 C488.202,685.745 486.841,689.726 488.659,693.085 C488.931,693.588 488.828,694.475 490.05,694.69 C487.871,698.302 490.708,701.03 489.095,701.631 C488.69,701.781 488.992,703.081 489.455,703.067 C489.809,703.057 490.722,701.993 491.379,701.276 C492.751,702.51 492.068,705.034 491.466,706.677 C491.466,706.677 491.31,708.742 491.31,708.742 C491.243,709.638 490.003,710.276 489.148,709.95 C488.688,709.775 487.23,710.564 487.228,711.317 C487.228,711.317 487.199,721.706 487.199,721.706 C487.198,722.179 488.251,722.911 488.575,723.005 C489.257,723.203 489.875,722.74 490.204,722.112 C490.954,720.679 492.802,721.602 493.667,721.476 C494.606,721.044 495.432,719.666 496.852,720.042 C498.34,720.435 501.134,720.761 502.372,719.275 C503.096,718.406 504.05,717.853 505.238,717.876 C505.238,717.876 505.336,718.988 505.336,718.988 C505.336,718.988 518.063,719.016 518.063,719.016 C518.818,719.084 519.08,718.42 518.979,718.14 C518.979,718.14 532.383,720.157 532.383,720.157 C532.383,720.157 531.996,712.508 531.996,712.508 C531.546,710.964 528.56,711.888 530.505,713.911 C527.93,714.146 528.697,713.233 528.544,712.742 C528.311,711.995 528.562,711.156 530.121,711.04 C529.834,710.163 530.008,709.176 530.822,709.016 C530.338,710.109 532.822,710.525 532.826,709.777 C532.826,709.777 532.938,688.225 532.938,688.225 C532.94,688.01 532.24,687.816 532.004,687.967 C532.004,687.967 531.849,682.987 531.849,682.987 C532.38,682.66 533.493,683.201 533.304,683.583 C532.807,684.584 532.295,686.194 533.647,687.126 C534.774,681.267 534.842,673.964 533.001,668.932 C533.001,668.932 533.191,662.667 533.191,662.667 C533.191,662.667 529.843,661.312 529.843,661.312 C531.226,658.693 531.931,656.684 533.027,655.442 C535.654,652.463 533.89,647.856 531.829,644.915 C532.672,643.189 532.378,640.366 532.066,637.925 C530.897,638.002 530.656,638.978 530.257,639.378 C530.122,638.998 529.898,638.289 529.882,637.777 C530.096,637.072 529.893,634.979 531.167,634.537 C532.23,634.168 532.533,632.822 532.124,631.624 C531.871,630.881 530.797,630.218 530.09,629.915 C530.09,629.915 529.889,621.793 529.889,621.793 C534.905,623.295 537.013,637.446 538,646.128 C538,646.128 538.896,654.017 538.896,654.017 C538.597,653.982 537.909,654.204 537.991,654.977 C537.991,654.977 538.006,694.7 538.006,694.7 C538.006,694.7 538.938,694.912 538.938,694.912 C538.788,697.203 539.03,699.106 538.438,701.354 C537.983,700.255 539.05,698.095 537.212,696.884 C537.212,696.884 537.026,727.786 537.026,727.786 C537.073,728.017 537.804,728.173 537.98,728.014 C537.954,730.596 537.825,733.315 539.992,735.014 C539.992,735.014 540.213,741.543 540.213,741.543 C540.213,741.543 551.24,746.375 551.24,746.375 C554.398,742.28 552.68,738.033 551.681,732.366 C558.95,735.876 554.612,747.86 556.584,747.907 C556.584,747.907 559.076,747.967 559.076,747.967 C561.438,748.024 564.649,748.205 565.6,745.618 C567.024,741.744 565.522,737.518 564.211,733.652 C571.557,733.949 568.914,742.741 570.839,745.582 C571.197,746.109 572.056,745.813 571.984,745.478 C571.838,744.801 572.249,743.737 573.509,744.103 C575.532,737.857 573.193,731.216 567.736,727.367 C564.563,725.129 563.511,721.426 563.177,717.979 C565.576,716.333 564.674,714.014 564.436,711.613 C563.268,699.851 564.146,688.122 565.119,676.008 C565.21,674.869 564.989,674.075 564.014,673.92 C564.257,671.721 564.67,669.635 565.033,666.989 C565.033,666.989 566.381,657.165 566.381,657.165 C566.929,653.165 567.807,649.759 568.657,646.171 C568.632,646.623 569.192,647.074 569.485,646.959 C572.267,645.868 570.138,641.058 571.476,638.511 C572.555,636.456 572.899,635.467 572.198,633.733 C571.077,630.957 572.974,627.886 573.407,625.436 C573.407,625.436 575.217,615.19 575.217,615.19 C575.217,615.19 576.658,604.631 576.658,604.631 C576.216,605.345 576.627,607.6 578.157,606.442 C581.036,607.341 579.311,610.645 579.28,612.833 C579.28,612.833 579.111,624.835 579.111,624.835 C579.107,625.118 579.742,625.307 579.858,625.046 C579.858,625.046 577.421,637.084 577.421,637.084 C576.181,635.475 575.536,636.878 575.603,637.714 C575.603,637.714 574.787,644.916 574.787,644.916 C573.152,648.601 571.92,652.585 573.875,655.965 C573.875,655.965 570.436,675.286 570.436,675.286 C570.072,677.331 570.012,679.003 570.639,681.116 C570.639,681.116 574.557,674.843 574.557,674.843 C574.557,674.843 575.702,675.282 575.702,675.282 C575.702,675.282 571.728,684.201 571.728,684.201 C571.493,684.759 570.016,684.98 569.759,684.473 C571.197,687.873 570.138,690.783 570.45,693.297 C570.65,694.915 568.644,697.904 570.896,699.206 C570.995,699.637 571.251,700.218 571.871,700.184 C571.345,703.505 568.239,705.716 570.883,706.961 C570.883,706.961 570.956,707.885 570.956,707.885 C570.262,707.785 569.776,707.76 569.02,708.425 C568.3,709.059 569.174,710.273 569.974,709.568 C570.217,709.353 570.719,708.766 571.165,709.553 C572.14,709.406 573.291,707.98 573.694,707.301 C571.789,712.343 567.544,718.456 570.854,720.983 C575.249,724.339 579.063,727.891 580.161,733.893 C583.124,734.212 585.705,734.456 587.872,733.002 C587.15,734.865 589.368,735.404 590.103,733.402 C593.051,733.926 594.367,735.19 596.535,733.208 C598.416,731.487 598.785,729.724 596.959,727.388 C595.112,725.024 594.502,720.01 589.897,718.22 C589.897,718.22 585.117,716.363 585.117,716.363 C585.117,716.363 573.993,714.02 573.993,714.02 C574.292,709.286 579.071,710.137 581.743,709.862 C581.743,709.862 592.921,693.052 592.921,693.052 C592.921,693.052 603.83,669.806 603.83,669.806 C604.466,668.451 603.586,666.491 605.417,664.936 C606.522,663.552 605.742,659.941 606.522,658.099 C606.802,659.133 608.015,659.216 608.39,658.301 C609.424,655.779 609.417,651.97 608.037,649.951 C607.632,644.426 609.204,638.288 606.996,633.065 C605.413,629.318 605.593,624.69 602.27,621.774 C599.821,619.624 596.751,619.93 593.837,619.915 C594.868,618.531 597.022,619.104 599.113,618.751 C596.976,617.565 593.516,617.603 591.512,618.352 C588.078,619.634 588.283,626.318 590.019,631.073 C590.019,631.073 587.057,645.775 587.057,645.775 C587.057,645.775 585.314,649.919 585.314,649.919 C584.582,650.009 582.61,650.167 582.667,649.549 C582.667,649.549 582.998,645.895 582.998,645.895 C583.065,645.16 583.664,644.741 583.991,644.521 C584.357,644.275 584.101,643.234 583.567,643.094 C583.113,642.975 582.558,643.791 582.04,643.971 C582.04,643.971 584.07,633.095 584.07,633.095 C585.633,631.8 586.046,629.491 586.067,627.012 C586.067,627.012 586.229,606.992 586.229,606.992 C586.243,605.252 585.737,603.74 584.183,603.401 C584.183,603.401 584.014,598.996 584.014,598.996 C583.952,597.374 583.993,596.435 583.078,595.452 C582.465,594.793 582.079,594.611 581.093,595.008 C580.911,594.55 580.898,593.975 580.974,593.527 C581.554,593.407 581.977,593.521 583.12,593.699 C581.273,589.83 581.581,585.841 582.161,582.05 C582.519,582.073 583.12,581.658 582.948,581.478 C582.948,581.478 581.16,579.6 581.16,579.6 C581.16,579.6 580.887,565.349 580.887,565.349 C580.794,564.979 580.26,564.864 580.094,565.034 C580.298,560.895 580.925,557.041 580.259,553.025 C580.234,553.243 580.796,553.147 580.933,552.86 C581.138,546.624 580.793,540.747 579.372,534.472 C578.734,531.657 579.554,528.704 576.435,526.815 C575.527,523.887 575.355,520.285 573.696,516.944 C573.696,516.944 566.5,502.459 566.5,502.459 C566.5,502.459 562.011,491.997 562.011,491.997 C561.549,490.92 562.282,489.219 561.071,488.441 C560.223,487.896 559.012,487.853 557.899,488.068 C562.287,485.178 555.507,479.472 558.8,466.743 C559.367,464.555 561.55,462.678 558.73,460.21 C552.832,468.466 552.758,477.986 549.159,485.158 C544.21,495.02 540.118,494.23 529.795,494.383 C527.188,498.571 522.906,499.386 519.171,500.861 C519.254,500.431 518.811,499.887 518.028,499.901 C518.028,499.901 505.014,500.131 505.014,500.131 C499.56,500.228 496.363,497.551 491.679,495.293 C483.522,497.019 474.942,491.211 472.386,484.002 C472.386,484.002 465.591,464.835 465.591,464.835 C465.254,463.884 463.344,463.082 463.882,460.464 C461.882,460.761 460.587,462.441 460.506,464.733 C460.506,464.733 459.947,480.647 459.947,480.647 Z M523.738,491.016 C517.502,487.964 513.623,482.279 511.455,482.146 C511.635,482.157 502.052,488.073 497.536,492.853 C505.087,496.275 511.499,495.787 519.022,494.131 C520.737,493.753 523.706,493.405 523.738,491.016 Z M646.892,605.868 C646.543,605.786 645.676,604.613 644.73,604.881 C640.386,625.954 629.693,644.324 613.972,658.428 C613.571,663.216 610.788,666.47 610.446,670.43 C610.446,670.43 609.71,678.952 609.71,678.952 C609.71,678.952 607.058,681.227 607.058,681.227 C608.662,683.511 608.227,685.643 605.967,687.841 C608.335,688.53 609.93,687.15 610.62,685.6 C610.542,685.064 610.66,684.441 611.013,684.371 C611.013,684.371 613.578,683.861 613.578,683.861 C614.751,683.628 615.947,682.843 616.434,681.864 C616.731,681.266 617.479,680.515 616.276,679.721 C616.339,679.309 616.505,678.984 616.834,678.871 C618.087,678.344 619.2,677.972 621.044,677.884 C622.375,677.819 622.504,676.134 622.039,675.572 C621.643,675.094 622.667,673.589 623.045,673.365 C623.045,673.365 625.859,669.424 625.859,669.424 C628.007,669.849 627.951,666.771 628.681,666.109 C631.147,665.137 630.734,662.26 631.642,660.112 C631.735,661.437 633.307,661.319 633.095,660.171 C633.095,660.171 635.608,651.847 635.608,651.847 C635.967,650.658 635.054,648.841 636.865,647.776 C636.865,647.776 637.041,652.417 637.041,652.417 C640.168,649.308 640.27,645.201 640.097,641.422 C640.065,640.717 642.713,640.217 643.048,639.678 C644.645,637.108 645.519,632.117 646.172,629.169 C646.944,628.844 648.714,627.075 648.725,625.591 C648.725,625.591 648.88,604.309 648.88,604.309 C648.884,603.7 647.113,602.632 646.52,602.957 C646.089,603.193 646.325,604.043 646.892,605.868 Z M484.144,642.815 C483.701,643.686 485.105,644.994 485.553,644.886 C486.195,644.732 486.009,643.184 485.612,642.862 C485.358,642.656 484.77,641.583 484.144,642.815 Z M532.102,659.745 C531.57,660.712 532.692,661.494 533.455,661.048 C533.777,660.86 533.861,660.385 533.62,660.001 C533.433,659.704 532.726,658.61 532.102,659.745 Z M580.764,711.296 C578.72,709.656 577.869,711.41 578.335,711.993 C580.195,712.753 580.987,711.35 580.764,711.296 Z M422.501,729.664 C422.828,727.766 421.142,728.028 421.009,728.407 C420.89,728.748 420.904,729.5 420.946,730.395 C420.963,730.771 422.216,731.321 422.501,729.664 Z " fill="#FFFFFF" />
  <path d="M568.067,148.91 C567.248,149.105 567.112,148.721 566.964,148.418 C566.724,147.927 566.209,147.924 565.955,148.493 C565.462,149.592 566.812,150.11 566.822,150.563 C566.822,150.563 567.194,166.5 567.194,166.5 C567.227,167.948 568.902,167.788 569.321,168.08 C569.321,168.08 576.784,173.291 576.784,173.291 C583.264,177.816 585.438,186.843 579.998,193.077 C568.303,206.481 586.41,214.398 577.337,224.726 C571.354,231.537 559.336,228.411 559.496,240.27 C559.307,239.394 559.836,238.166 558.114,237.65 C558.114,237.65 557.028,248.319 557.028,248.319 C557.028,248.319 555.63,252.293 555.63,252.293 C558.023,253.387 557.65,255.976 558.443,257.495 C559.348,259.23 560.579,260.18 559.947,262.078 C558.145,261.727 560.707,269.27 564.176,271.011 C565.016,273.456 565.584,276.016 566.606,278.493 C566.606,278.493 575.028,298.902 575.028,298.902 C576.618,302.754 578.675,306.348 578.62,310.125 C578.52,316.965 581.604,320.407 580.932,322.316 C580.768,322.781 581.396,323.407 582.115,323.067 C581.988,324.177 580.617,324.159 580.067,324.537 C579.049,325.237 578.086,324.457 577.064,323.986 C577.064,323.986 551.874,312.382 551.874,312.382 C550.287,315.563 548.965,318.306 548.47,321.327 C547.836,325.199 540.938,338.9 539.982,339.599 C539.165,340.196 536.225,340.538 535.728,339.281 C535.728,339.281 530.653,326.445 530.653,326.445 C529.587,323.747 528.758,321.263 527.74,318.213 C527.74,318.213 518.009,289.066 518.009,289.066 C518.009,289.066 513.225,275.534 513.225,275.534 C513.225,275.534 500.786,312.618 500.786,312.618 C500.786,312.618 493.868,330.092 493.868,330.092 C493.196,331.789 490.349,332.761 488.549,332.237 C487.157,331.832 486.22,328.768 485.662,327.475 C485.662,327.475 482.898,321.068 482.898,321.068 C482.898,321.068 477.675,306.807 477.675,306.807 C476.883,304.644 473.915,306.667 472.587,307.283 C472.587,307.283 451.953,316.865 451.953,316.865 C450.113,317.72 447.66,316.864 447.157,315.435 C446.072,312.349 451.243,301.897 453.048,296.433 C453.048,296.433 455.622,288.638 455.622,288.638 C455.622,288.638 465.211,264.12 465.211,264.12 C466.241,261.484 466.573,257.805 468.183,255.133 C470.865,250.68 470.241,247.388 468.304,242.722 C467.611,241.053 468.213,238.635 466.205,236.695 C465.268,235.791 464.228,235.882 461.908,234.407 C456.067,234.327 449.04,231.388 447.351,225.053 C444.424,214.081 455.91,207.068 445.955,198.999 C445.407,198.556 444.354,198.237 444.242,197.443 C444.194,197.103 443.944,196.518 444.688,195.983 C441.687,191.644 441.059,185.105 442.925,183.549 C443.137,183.372 442.299,182.929 441.645,182.815 C442.58,180.928 443.854,179.83 445.844,178.095 C445.844,178.095 453.519,171.401 453.519,171.401 C455.197,169.938 453.899,166.108 454.012,164.036 C454.391,164.119 455.09,163.849 455.02,163.063 C455.02,163.063 454.641,151.847 454.641,151.847 C458.283,141.63 474.8,146.633 478.532,139.616 C481.354,134.311 483.888,129.199 488.94,126.025 C490.393,128.349 495.684,125.083 500.235,129.484 C501.574,128.179 500.233,127.624 500.011,127.047 C503.312,128.909 507.435,131.517 511.523,130.68 C518.648,129.223 523.196,122.086 530.201,124.339 C533.325,125.344 537.608,127.674 539.251,131.904 C546.409,150.342 560.179,134.591 568.067,148.91 Z M475.933,149.695 C475.933,149.695 477.057,147.797 477.057,147.797 C469.674,150.979 462.428,148.155 462.958,151.427 C463.1,151.923 462.217,152.084 462.012,151.57 C459.68,151.283 458.823,154.277 458.863,156.926 C458.863,156.926 459.09,171.96 459.09,171.96 C459.09,171.96 460.927,170.988 460.927,170.988 C460.634,173.179 455.415,179.55 452.699,180.868 C449.408,182.465 445.986,186.889 447.464,190.515 C448.848,193.909 451.773,196.363 454.301,199.94 C456.068,204.643 454.788,209.225 454.073,214.147 C453.704,216.685 452.168,219.937 453.214,223.115 C454.447,226.866 459.72,227.978 463.087,228.746 C472.701,230.94 472.618,237.464 475.535,246.093 C477.034,250.527 481.41,252.938 485.965,250.819 C501.906,243.401 507.509,259.428 513.525,259.976 C515.707,260.175 517.656,258.92 519.336,257.278 C519.336,257.278 527.692,249.108 527.692,249.108 C528.014,250.096 528.904,250.356 529.528,250.09 C529.528,250.09 531.806,249.117 531.806,249.117 C535.061,247.726 538.248,249.042 541.083,248.626 C541.083,248.626 546.396,249.461 546.396,249.461 C550.663,250.131 553.257,245.004 553.499,240.659 C553.926,232.993 557.957,227.478 565.748,225.508 C569.077,224.666 574.39,221.068 573.517,217.686 C570.92,207.628 565.91,203.422 568.729,199.224 C568.729,199.224 576.168,188.144 576.168,188.144 C577.228,186.565 577.543,185.806 577.549,184.504 C577.561,181.547 572.471,176.49 569.121,174.912 C565.105,173.021 562.344,170.436 562.249,165.633 C562.249,165.633 561.958,150.936 561.958,150.936 C561.938,149.905 560.033,148.066 559.002,148.079 C559.002,148.079 551.997,148.169 551.997,148.169 C551.665,147.562 552.226,146.627 552.615,146.784 C553.632,147.195 555.244,147.725 556.12,146.356 C552.312,145.403 548.594,145.554 544.765,146.333 C541.625,145.552 539.647,143.43 537.465,140.242 C537.465,140.242 534.291,135.606 534.291,135.606 C532.891,133.56 531.333,130.464 529.401,130.043 C526.848,129.487 523.938,130.206 521.946,132.082 C515.516,138.141 506.619,138.574 498.927,133.747 C496.534,132.245 493.859,131.101 490.682,132.193 C486.039,133.789 485.45,146.968 475.933,149.695 Z M535.981,254.13 C536.119,254.609 535.752,254.93 535.43,254.969 C535.024,254.07 533.946,253.963 533.15,254.096 C531.831,254.318 530.099,255.063 529.782,256.434 C529.245,256.082 528.163,256.92 528.37,257.307 C528.37,257.307 529.017,258.519 529.017,258.519 C529.189,258.843 528.661,259.478 528.334,259.718 C528.361,259.252 527.925,258.378 527.492,258.107 C527.173,257.907 526.632,258.872 526.314,259.201 C524.715,260.854 523.124,261.735 522.886,263.64 C521.957,263.745 521.495,264.526 520.906,265.018 C519.296,264.704 518.161,265.18 516.903,266.461 C515.542,267.846 517.853,269.508 518.112,273.361 C518.148,273.902 519.313,274.181 519.933,273.87 C519.802,275.136 520.697,276.18 521.988,276.439 C520.662,279.93 522.42,284.259 523.812,288.052 C523.812,288.052 531.867,309.988 531.867,309.988 C534.175,316.276 535.591,322.427 538.923,328.676 C538.923,328.676 545.155,314.144 545.155,314.144 C546.01,312.147 546.835,307.121 550.014,307.422 C558.167,308.194 565.189,312.367 573.683,315.588 C573.683,315.588 567.106,298.795 567.106,298.795 C567.106,298.795 560.881,280.049 560.881,280.049 C560.244,278.13 559.633,276.714 560.257,274.996 C561.079,272.73 558.743,270.459 558.408,268.356 C558.408,268.356 557.955,265.515 557.955,265.515 C557.858,264.908 556.677,264.663 555.963,264.97 C556.409,262.101 553.1,260.537 553.826,255.195 C552.588,255.995 552.058,255.723 551.185,255.071 C551.635,253.823 550.1,253.185 549.598,254.463 C549.207,255.459 548.516,255.864 547.773,255.998 C547.177,256.106 546.592,256.133 546.003,255.931 C545.648,255.809 545.325,255.899 544.957,255.924 C544.957,255.924 543.569,253.074 543.569,253.074 C539.584,255.931 536.187,251.321 535.981,254.13 Z M471.072,265.849 C471.072,265.849 470.911,268.035 470.911,268.035 C468.489,268.352 468.398,271.559 467.206,272.514 C464.889,273.251 465.345,275.891 465.453,277.968 C463.931,278.907 463.928,279.512 463.928,280.495 C463.928,281.149 463.842,281.979 464.939,282.187 C464.939,282.187 459.941,296.042 459.941,296.042 C459.941,296.042 455.697,306.361 455.697,306.361 C458.894,307.792 462.429,304.285 469.003,301.562 C471.309,300.607 475.722,296.801 478.725,298.401 C485.222,304.216 485.421,315.611 490.723,319.887 C490.723,319.887 492.661,314.942 492.661,314.942 C494.399,316.13 494.459,314.138 494.725,313.684 C494.923,308.821 498.727,306.277 496.327,304.963 C496.327,304.963 504.006,282.992 504.006,282.992 C504.006,282.992 510.37,267.17 510.37,267.17 C510.732,266.269 510.964,265.124 510.763,264.598 C510.713,264.467 505.954,262.903 505.631,263.03 C505.162,263.213 504.716,263.97 504.277,264.336 C503.93,263.785 505.798,262.528 504.072,261.726 C504.072,261.726 503.94,260.486 503.94,260.486 C503.881,259.935 502.4,259.816 501.798,260.331 C501.409,260.664 501.377,261.522 501.15,261.94 C500.098,262.558 499.103,263.22 498.027,263.026 C498.4,262.471 498.487,261.939 499.336,261.283 C500.637,260.277 501.58,259.03 500.065,257.503 C499.369,256.801 498.572,255.712 497.16,257.134 C497.149,256.467 496.682,256.057 496.082,256.112 C496.109,254.947 495.284,254.816 494.493,254.951 C493.411,255.135 492.666,255.775 491.457,257.083 C490.603,256.978 489.19,255.592 487.553,255.961 C486.502,256.199 486.223,256.737 485.154,257.778 C484.227,258.68 482.682,258.825 481.853,259.205 C481.766,257.638 480.5,257.799 479.509,257.886 C478.113,258.009 477.981,258.918 477.203,260.119 C477.203,260.119 475.148,263.295 475.148,263.295 C475.148,263.295 474.898,260.595 474.898,260.595 C475.41,259.809 475.8,259.11 475.981,258.407 C476.351,256.968 475.764,255.403 473.575,254.911 C473.575,254.911 470.185,263.035 470.185,263.035 C469.963,263.567 469.967,264.729 470.133,265.264 C470.246,265.631 470.519,265.799 471.072,265.849 Z " fill="#FFFFFF" />
  <path d="M527.154,354.283 C518.229,354.406 509.453,353.183 500.037,354.722 C499.219,354.856 498.021,354.164 497.408,354.047 C500.274,351.67 504.196,352.127 507.986,352.078 C514.818,351.99 521.27,351.6 527.154,354.283 Z " fill="#FFFFFF" />
  <path d="M650.948,597.836 C653.452,603.804 655.25,618.764 652.019,625.178 C652.019,625.178 651.764,613.205 651.764,613.205 C651.663,608.436 651.792,603.023 649.206,598.596 C649.194,597.993 650.249,597.496 650.948,597.836 Z " fill="#FFFFFF" />
  <path d="M647.124,588.721 C647.041,589.401 648.234,590.734 646.164,591.13 C646.035,589.841 645.791,589.183 645.463,588.799 C644.926,588.169 644.012,588.195 643.497,588.745 C642.696,589.598 643.149,598.504 637.998,611.263 C637.998,611.263 641.914,588.992 641.914,588.992 C642.179,587.553 643.813,585.969 644.901,586.399 C645.653,586.696 646.747,587.824 647.124,588.721 Z " fill="#FFFFFF" />
  <path d="M522.234,725.414 C513.232,723.539 504.227,722.992 495.688,725.88 C495.78,725.626 494.768,724.756 495.104,724.466 C495.45,724.167 496.907,723.181 497.396,723.18 C497.396,723.18 520.7,723.126 520.7,723.126 C521.356,723.651 523.314,723.64 522.234,725.414 Z " fill="#FFFFFF" />
  <path d="M407.836,665.813 C405.376,661.597 403.381,651.084 404.002,645.929 C407.408,651.593 406.172,659.529 408.44,663.753 C408.661,664.165 409.221,664.86 409.03,665.425 C408.899,665.814 408.546,666.14 407.836,665.813 Z " fill="#FFFFFF" />
  <path d="M444.688,195.983 C439.659,193.161 439.386,187.37 441.645,182.815 C442.299,182.929 443.137,183.372 442.925,183.549 C441.059,185.105 441.687,191.644 444.688,195.983 Z " fill="#FFFFFF" />
  <path d="M589.193,595.994 C586.257,595.945 589.058,590.738 585.377,582.82 C585.377,582.82 586.092,580.846 586.092,580.846 C587.275,581.016 587.012,582.245 587.47,582.896 C588.038,583.704 587.617,584.047 587.359,584.611 C587.359,584.611 589.538,593.36 589.538,593.36 C589.71,594.051 588.242,594.704 589.193,595.994 Z " fill="#FFFFFF" />
  <path d="M568.067,148.91 C568.067,148.91 568.254,165.706 568.254,165.706 C568.26,166.264 569.427,167.494 569.321,168.08 C568.902,167.788 567.227,167.948 567.194,166.5 C567.194,166.5 566.822,150.563 566.822,150.563 C566.812,150.11 565.462,149.592 565.955,148.493 C566.209,147.924 566.724,147.927 566.964,148.418 C567.112,148.721 567.248,149.105 568.067,148.91 Z " fill="#FFFFFF" />
  <path d="M582.115,323.067 C581.396,323.407 580.768,322.781 580.932,322.316 C581.604,320.407 578.52,316.965 578.62,310.125 C580.545,314.2 582.619,318.678 582.115,323.067 Z " fill="#FFFFFF" />
  <path d="M616.022,637.174 C615.399,637.196 615.019,637.364 614.147,638.056 C614.147,638.056 612.421,625.659 612.421,625.659 C614.175,629.116 615.527,633.209 616.022,637.174 Z " fill="#FFFFFF" />
  <path d="M500.011,127.047 C500.233,127.624 501.574,128.179 500.235,129.484 C495.684,125.083 490.393,128.349 488.94,126.025 C492.206,123.973 496.603,125.125 500.011,127.047 Z " fill="#FFFFFF" />
  <path d="M428.05,614.575 C428.519,614.485 429.397,614.364 429.424,613.861 C429.424,613.861 430.218,599.116 430.218,599.116 C430.414,598.981 431.035,599.194 431.021,599.943 C431.021,599.943 430.759,614.009 430.759,614.009 C430.759,614.009 430.387,615.899 430.387,615.899 C430.188,616.914 429.469,617.037 428.891,616.55 C428.018,615.814 427.776,615.431 428.05,614.575 Z " fill="#FFFFFF" />
  <path d="M583.422,528.714 C585.116,532.458 586.716,535.586 585.105,538.045 C582.981,538.513 584.51,532.876 581.627,525.901 C583.58,525.992 583.282,527.898 583.422,528.714 Z " fill="#FFFFFF" />
  <path d="M587.934,550.226 C587.432,550.18 586.895,550.499 586.108,550.979 C586.108,550.979 584.977,539.134 584.977,539.134 C585.256,538.872 585.815,538.808 585.945,538.889 C585.945,538.889 587.934,550.226 587.934,550.226 Z " fill="#FFFFFF" />
  <path d="M564.176,271.011 C560.707,269.27 558.145,261.727 559.947,262.078 C559.82,262.458 560.602,263.103 561.42,262.994 C561.42,262.994 564.176,271.011 564.176,271.011 Z " fill="#FFFFFF" />
  <path d="M589.532,614.06 C589.532,614.06 589.024,598.27 589.024,598.27 C589.368,598.08 589.81,598.025 589.972,598.118 C589.972,598.118 589.532,614.06 589.532,614.06 Z " fill="#FFFFFF" />
  <path d="M559.496,240.27 C559.531,242.841 559.01,246.113 557.028,248.319 C557.028,248.319 558.114,237.65 558.114,237.65 C559.836,238.166 559.307,239.394 559.496,240.27 Z " fill="#FFFFFF" />
  <path d="M611.032,407.986 C613.048,411.203 611.57,415.497 612.051,418.994 C609.524,418.131 613.031,412.491 608.527,407.782 C609.859,406.772 610.337,407.768 611.032,407.986 Z " fill="#FFFFFF" />
  <path d="M587.934,569.996 C587.581,570.071 586.918,569.813 586.984,569.064 C586.984,569.064 587.011,555.206 587.011,555.206 C587.535,554.984 587.849,554.981 587.965,554.988 C587.965,554.988 587.934,569.996 587.934,569.996 Z " fill="#FFFFFF" />
  <path d="M404.572,635.759 C405.182,634.303 405.189,631.146 406.804,629.62 C406.617,629.373 405.751,628.488 406.445,627.989 C406.808,627.729 407.541,626.992 407.825,626.612 C407.825,626.612 405.49,640.19 405.49,640.19 C404.276,638.537 405.044,636.91 404.572,635.759 Z " fill="#FFFFFF" />
  <path d="M454.012,164.036 C454.236,159.922 453.278,155.671 454.641,151.847 C454.641,151.847 455.02,163.063 455.02,163.063 C455.09,163.849 454.391,164.119 454.012,164.036 Z " fill="#FFFFFF" />
  <path d="M583.313,473.136 C579.553,477.686 572.404,476.521 569.797,474.411 C570.012,473.919 570.385,472.873 570.527,473.038 C570.527,473.038 571.707,474.404 571.707,474.404 C575.022,475.741 579.11,475.318 581.845,472.774 C582.069,471.71 583.313,471.956 583.313,473.136 Z " fill="#FFFFFF" />
  <path d="M445.023,477.001 C440.482,477.033 438.184,471.162 438.485,465.981 C442.16,465.712 437.793,473.519 445.023,477.001 Z " fill="#FFFFFF" />
  <path d="M445.662,625.081 C445.324,625.115 444.671,625.223 444.866,626.543 C444.947,627.087 443.408,626.638 443.555,625.898 C443.62,625.571 443.861,624.671 443.703,623.996 C443.703,623.996 439.471,605.852 439.471,605.852 C438.902,609.739 438.943,613.275 439.442,616.716 C439.442,616.716 441.809,633.036 441.809,633.036 C441.92,633.801 442.995,634.213 442.902,634.586 C442.795,635.017 441.78,635.375 441.48,635.113 C441.089,634.773 440.871,634.335 440.727,633.865 C440.727,633.865 438.828,625.118 438.828,625.118 C438.828,625.118 438.132,595.966 438.132,595.966 C438.074,593.55 438.245,592.426 438.15,589.785 C440.998,589.236 439.377,599.27 442.357,611.507 C442.357,611.507 445.662,625.081 445.662,625.081 Z " fill="#FFFFFF" />
  <path d="M580.974,593.527 C580.898,593.975 580.911,594.55 581.093,595.008 C582.703,599.071 582.044,604.085 581.603,609.013 C581.603,609.013 580.574,620.515 580.574,620.515 C580.574,620.515 579.858,625.046 579.858,625.046 C579.742,625.307 579.107,625.118 579.111,624.835 C579.111,624.835 579.28,612.833 579.28,612.833 C579.311,610.645 581.036,607.341 578.157,606.442 C576.627,607.6 576.216,605.345 576.658,604.631 C577.265,600.186 577.816,594.962 578.143,590.256 C580.12,589.461 581.254,591.879 580.974,593.527 Z " fill="#FFFFFF" />
  <path d="M563.177,717.979 C563.177,717.979 562.458,710.558 562.458,710.558 C561.732,703.061 561.682,695.082 562.513,687.548 C562.513,687.548 564.014,673.92 564.014,673.92 C564.989,674.075 565.21,674.869 565.119,676.008 C564.146,688.122 563.268,699.851 564.436,711.613 C564.674,714.014 565.576,716.333 563.177,717.979 Z " fill="#FFFFFF" />
  <path d="M436.025,642.089 C436.025,642.089 433.96,642.98 433.96,642.98 C433.96,642.98 434.279,601.406 434.279,601.406 C434.29,600.044 435.185,597.855 435.757,596.918 C435.757,596.918 435.512,611.369 435.512,611.369 C435.31,617.574 435.224,624.423 435.504,630.597 C435.504,630.597 436.025,642.089 436.025,642.089 Z " fill="#FFFFFF" />
  <path d="M596.959,727.388 C598.785,729.724 598.416,731.487 596.535,733.208 C594.367,735.19 593.051,733.926 590.103,733.402 C589.368,735.404 587.15,734.865 587.872,733.002 C588.653,729.939 587.483,727.315 585.592,724.071 C590.465,722.945 592.027,727.149 592.285,730.637 C592.375,731.848 593.935,732.28 594.561,732.211 C595.255,732.134 595.469,731.096 596.108,729.867 C596.108,729.867 596.959,727.388 596.959,727.388 Z " fill="#FFFFFF" />
  <path d="M584.07,633.095 C584.07,633.095 584.363,616.02 584.363,616.02 C584.363,616.02 584.183,603.401 584.183,603.401 C585.737,603.74 586.243,605.252 586.229,606.992 C586.229,606.992 586.067,627.012 586.067,627.012 C586.046,629.491 585.633,631.8 584.07,633.095 Z " fill="#FFFFFF" />
  <path d="M450.399,705.052 C450.407,700.141 449.855,695.215 449.217,690.043 C449.217,690.043 446.614,668.933 446.614,668.933 C448.371,667.703 448.284,669.594 449.054,670.266 C448.036,675.151 450.088,679.591 450.369,684.13 C450.828,691.532 451.766,698.519 450.399,705.052 Z " fill="#FFFFFF" />
  <path d="M463.415,423.21 C463.388,423.818 462.775,424.114 462.514,423.97 C462.276,423.838 461.107,422.973 461.08,422.693 C461.08,422.693 461.074,398.332 461.074,398.332 C463.88,395.27 462.368,390.465 466.376,389.062 C463.15,397.612 460.723,406.845 462.492,416.209 C462.492,416.209 463.415,423.21 463.415,423.21 Z " fill="#FFFFFF" />
  <path d="M480.447,723.928 C480.447,723.928 481.567,715.563 481.567,715.563 C481.567,715.563 481.69,694.408 481.69,694.408 C481.69,694.408 480.057,687.729 480.057,687.729 C480.366,687.753 481.319,686.71 481.55,687.095 C481.55,687.095 482.932,689.398 482.932,689.398 C482.932,689.398 482.728,720.606 482.728,720.606 C482.719,721.962 481.816,724.14 480.447,723.928 Z " fill="#FFFFFF" />
  <path d="M555.984,445.083 C555.984,445.083 556.483,430.493 556.483,430.493 C556.483,430.493 558.498,419.075 558.498,419.075 C559.553,424.65 557.928,430.69 557.885,437.128 C557.866,440.062 558.546,443.199 555.984,445.083 Z " fill="#FFFFFF" />
  <path d="M465.208,456.732 C466.855,460.282 465.178,459.961 462.016,455.447 C461.257,454.363 462.866,452.844 462.877,451.989 C462.877,451.989 463.107,434.311 463.107,434.311 C463.192,433.903 463.803,433.786 464.235,433.928 C464.67,439.621 465.286,445.823 463.972,451.923 C463.475,454.225 464.184,455.558 465.208,456.732 Z " fill="#FFFFFF" />
  <path d="M446.239,665.085 C446.239,665.085 442.388,642.991 442.388,642.991 C443.937,642.295 444.191,643.672 444.225,644.342 C444.225,644.342 444.356,646.944 444.356,646.944 C444.611,652.001 448.597,660.601 446.239,665.085 Z " fill="#FFFFFF" />
  <path d="M580.259,553.025 C579.575,548.9 580.258,544.65 578.726,540.221 C577.868,537.739 578.777,534.369 578.036,531.978 C578.036,531.978 576.435,526.815 576.435,526.815 C579.554,528.704 578.734,531.657 579.372,534.472 C580.793,540.747 581.138,546.624 580.933,552.86 C580.796,553.147 580.234,553.243 580.259,553.025 Z " fill="#FFFFFF" />
  <path d="M538.438,701.354 C536.579,708.403 539.041,718.07 539.072,717.963 C538.81,717.904 538.317,717.941 538.078,718.192 C538.078,718.192 537.98,728.014 537.98,728.014 C537.804,728.173 537.073,728.017 537.026,727.786 C537.026,727.786 537.212,696.884 537.212,696.884 C539.05,698.095 537.983,700.255 538.438,701.354 Z " fill="#FFFFFF" />
  <path d="M447.86,637.035 C449.783,641.64 448.986,648.718 452.087,653.972 C451.267,654.075 451.471,654.892 450.139,656.298 C450.139,656.298 447.238,638.709 447.238,638.709 C445.424,638.052 446.272,636.18 447.86,637.035 Z " fill="#FFFFFF" />
  <path d="M530.822,709.016 C530.921,705.656 531.587,702.319 531.693,698.668 C531.693,698.668 532.004,687.967 532.004,687.967 C532.24,687.816 532.94,688.01 532.938,688.225 C532.938,688.225 532.826,709.777 532.826,709.777 C532.822,710.525 530.338,710.109 530.822,709.016 Z " fill="#FFFFFF" />
  <path d="M430.614,732.507 C431.801,731.241 430.5,731.394 430.021,731.239 C429.587,731.098 428.469,730.716 427.882,730.958 C427.912,727.936 429.466,724.019 433.422,722.991 C434.743,723.251 433.727,726.385 432.435,727.464 C432.435,727.464 430.614,732.507 430.614,732.507 Z " fill="#FFFFFF" />
  <path d="M415.168,406.816 C413.455,411.674 412.964,418.361 415.617,423.289 C417.038,423.313 416.688,421.691 416.215,421.446 C415.857,421.261 417.467,419.762 417.857,420.097 C418.026,421.955 418.294,423.79 417.92,425.205 C417.666,425.459 415.928,426.881 416.11,424.584 C415.264,424.372 413.253,423.194 413.24,421.58 C413.24,421.58 413.122,407.306 413.122,407.306 C413.119,406.987 414.264,406.146 414.52,406.029 C414.785,405.909 415.4,406.252 415.168,406.816 Z " fill="#FFFFFF" />
  <path d="M577.421,637.084 C577.421,637.084 573.875,655.965 573.875,655.965 C571.92,652.585 573.152,648.601 574.787,644.916 C574.787,644.916 575.603,637.714 575.603,637.714 C575.536,636.878 576.181,635.475 577.421,637.084 Z " fill="#FFFFFF" />
  <path d="M558.046,417.251 C560.056,410.444 560.425,403.165 559.598,395.999 C560.882,395.876 561.254,396.657 561.049,398.007 C561.049,398.007 560.523,415.091 560.523,415.091 C560.507,415.589 559.919,417.392 559.614,417.848 C559.349,418.245 558.388,417.255 558.046,417.251 Z " fill="#FFFFFF" />
  <path d="M414.478,638.138 C412.655,642.097 412.09,646.61 412.003,650.993 C412.003,650.993 411.983,652.015 411.983,652.015 C409.558,651.05 412.1,645.669 410.986,642.945 C410.986,642.945 409.587,639.525 409.587,639.525 C409.101,638.337 409.498,637.033 411.222,636.822 C411.095,638.068 410.493,639.335 411.282,641.2 C411.282,641.2 412.975,637.877 412.975,637.877 C412.919,636.746 414.391,636.853 414.478,638.138 Z " fill="#FFFFFF" />
  <path d="M456.392,496.385 C455.579,495.675 454.647,495.942 453.934,496.044 C453.967,493.725 456.434,491.611 457.006,489.027 C457.724,485.785 458.015,482.817 459.947,480.647 C459.888,482.326 459.836,484.442 459.249,486.151 C459.249,486.151 456.392,496.385 456.392,496.385 Z " fill="#FFFFFF" />
  <path d="M455.903,682.313 C455.903,682.313 453.84,682.993 453.84,682.993 C453.84,682.993 452.524,668.955 452.524,668.955 C452.524,668.955 455.903,682.313 455.903,682.313 Z " fill="#FFFFFF" />
  <path d="M582.161,582.05 C578.957,580.728 578.171,577.912 579.629,574.482 C579.629,574.482 580.094,565.034 580.094,565.034 C580.26,564.864 580.794,564.979 580.887,565.349 C580.887,565.349 581.16,579.6 581.16,579.6 C581.16,579.6 582.948,581.478 582.948,581.478 C583.12,581.658 582.519,582.073 582.161,582.05 Z " fill="#FFFFFF" />
  <path d="M593.837,619.915 C593.108,620.196 590.347,619.343 590.289,621.419 C590.289,621.419 590.019,631.073 590.019,631.073 C588.283,626.318 588.078,619.634 591.512,618.352 C593.516,617.603 596.976,617.565 599.113,618.751 C597.022,619.104 594.868,618.531 593.837,619.915 Z " fill="#FFFFFF" />
  <path d="M531.849,682.987 C532.896,678.357 532.856,673.686 533.001,668.932 C534.842,673.964 534.774,681.267 533.647,687.126 C532.295,686.194 532.807,684.584 533.304,683.583 C533.493,683.201 532.38,682.66 531.849,682.987 Z " fill="#FFFFFF" />
  <path d="M513.995,451.954 C513.995,451.954 507.948,460.97 507.948,460.97 C507.838,460.393 507.628,460.091 507.269,460.074 C507.269,460.074 505.049,459.971 505.049,459.971 C503.715,458.954 504.664,457.43 505.818,457.491 C505.656,457.98 506.097,458.958 506.851,459.009 C506.851,459.009 512.011,452.123 512.011,452.123 C512.744,452.069 513.383,451.836 513.995,451.954 Z " fill="#FFFFFF" />
  <path d="M563.095,419.15 C563.095,419.15 562.958,397.96 562.958,397.96 C562.952,397.109 563.546,396.835 564.004,396.875 C564.004,396.875 564.025,418.04 564.025,418.04 C564.026,418.835 563.522,419.129 563.095,419.15 Z " fill="#FFFFFF" />
  <path d="M585.314,649.919 C584.921,650.854 584.814,651.844 584.02,652.532 C583.37,653.095 582.474,653.066 581.888,652.55 C581.264,651.999 580.877,651.203 581.069,650.008 C581.069,650.008 582.04,643.971 582.04,643.971 C582.558,643.791 583.113,642.975 583.567,643.094 C584.101,643.234 584.357,644.275 583.991,644.521 C583.664,644.741 583.065,645.16 582.998,645.895 C582.998,645.895 582.667,649.549 582.667,649.549 C582.61,650.167 584.582,650.009 585.314,649.919 Z " fill="#FFFFFF" />
  <path d="M508.097,477.484 C508.429,474.372 508.157,471.372 507.988,468.509 C505.761,467.621 504.253,466.981 502.83,465.985 C502.814,465.885 502.853,465.391 503.294,464.907 C506.082,466.369 508.797,467.586 510.708,469.367 C510.212,472.508 511.309,476.931 508.097,477.484 Z " fill="#FFFFFF" />
  <path d="M487.907,628.627 C487.082,627.988 486.826,627.401 487.315,625.89 C485.641,627.02 484.989,626.291 484.692,625.094 C484.881,624.177 485.383,623.176 485.901,622.449 C486.447,621.681 488.142,621.624 488.694,622.539 C489.06,623.144 489.929,624.116 489.302,625.267 C488.733,626.311 487.92,627.818 487.907,628.627 Z " fill="#FFFFFF" />
  <path d="M527.996,457.014 C526.945,457.027 526.635,456.128 526.927,455.471 C526.927,455.471 527.719,453.695 527.719,453.695 C529.175,450.428 527.079,446.426 524.972,443.841 C526.824,444.96 527.839,446.69 529.306,448.82 C531.266,451.666 529.241,454.547 527.996,457.014 Z " fill="#FFFFFF" />
  <path d="M565.507,459.799 C563.761,458.029 563.558,455.788 562.804,452.96 C562.804,452.96 561.899,449.566 561.899,449.566 C561.762,449.053 561.746,448.139 563.108,448.005 C564.206,451.851 564.175,455.881 565.507,459.799 Z " fill="#FFFFFF" />
  <path d="M490.204,722.112 C489.875,722.74 489.257,723.203 488.575,723.005 C488.251,722.911 487.198,722.179 487.199,721.706 C487.199,721.706 487.228,711.317 487.228,711.317 C487.23,710.564 488.688,709.775 489.148,709.95 C487.198,715.048 487.146,721.53 490.204,722.112 Z " fill="#FFFFFF" />
  <path d="M430.051,619.941 C430.051,619.941 420.797,619.825 420.797,619.825 C422.863,616.746 427.883,617.445 430.051,619.941 Z " fill="#FFFFFF" />
  <path d="M518.979,718.14 C519.08,718.42 518.818,719.084 518.063,719.016 C518.063,719.016 505.336,718.988 505.336,718.988 C505.336,718.988 505.238,717.876 505.238,717.876 C505.238,717.876 518.979,718.14 518.979,718.14 Z " fill="#FFFFFF" />
  <path d="M452.078,656.987 C451.494,660.366 452.713,663.615 453.343,667.018 C448.983,665.796 452.661,660.541 449.852,657.103 C451.108,656.561 451.576,656.993 452.078,656.987 Z " fill="#FFFFFF" />
  <path d="M606.522,658.099 C607.657,655.419 608.239,652.717 608.037,649.951 C609.417,651.97 609.424,655.779 608.39,658.301 C608.015,659.216 606.802,659.133 606.522,658.099 Z " fill="#FFFFFF" />
  <path d="M568.657,646.171 C568.657,646.171 570.707,637.516 570.707,637.516 C570.924,636.597 569.981,635.638 570.35,634.973 C570.728,634.293 571.419,633.824 572.198,633.733 C572.899,635.467 572.555,636.456 571.476,638.511 C570.138,641.058 572.267,645.868 569.485,646.959 C569.192,647.074 568.632,646.623 568.657,646.171 Z " fill="#FFFFFF" />
  <path d="M506.063,455.6 C505.73,455.277 505.489,455.364 505.137,455.623 C504.943,455.494 504.891,455.233 504.996,454.981 C504.908,454.272 505.516,454.271 506.028,453.995 C506.028,453.995 508.146,453.107 508.146,453.107 C508.043,453.574 507.924,454.518 507.576,454.997 C507.29,455.393 506.797,456.315 506.063,455.6 Z " fill="#FFFFFF" />
  <path d="M542.477,484.882 C541.679,488.016 538.84,489.095 534.963,489.15 C530.36,489.216 526.148,487.495 523.782,483.916 C524.463,483.828 525.073,483.854 525.493,483.999 C526.226,484.252 526.058,485.429 526.164,485.742 C526.164,485.742 529.647,486.247 529.647,486.247 C533.855,489.263 539.068,488.608 542.477,484.882 Z " fill="#FFFFFF" />
  <path d="M422.501,729.664 C422.216,731.321 420.963,730.771 420.946,730.395 C420.904,729.5 420.89,728.748 421.009,728.407 C421.142,728.028 422.828,727.766 422.501,729.664 Z " fill="#FFFFFF" />
  <path d="M646.172,629.169 C647.861,621.541 649.234,613.41 646.892,605.868 C646.325,604.043 646.089,603.193 646.52,602.957 C647.113,602.632 648.884,603.7 648.88,604.309 C648.88,604.309 648.725,625.591 648.725,625.591 C648.714,627.075 646.944,628.844 646.172,629.169 Z " fill="#FFFFFF" />
  <path d="M544.957,255.924 C544.957,255.924 543.758,256.003 543.758,256.003 C543.758,256.003 539.921,256.118 539.921,256.118 C539.867,259.067 540.891,261.567 539.004,264.762 C535.87,258.586 541.216,253.449 535.981,254.13 C536.187,251.321 539.584,255.931 543.569,253.074 C543.569,253.074 544.957,255.924 544.957,255.924 Z " fill="#FFFFFF" />
  <path d="M462.012,151.57 C457.212,153.816 462.164,161.747 460.927,170.988 C460.927,170.988 459.09,171.96 459.09,171.96 C459.09,171.96 458.863,156.926 458.863,156.926 C458.823,154.277 459.68,151.283 462.012,151.57 Z " fill="#FFFFFF" />
  <path d="M475.933,149.695 C471.849,150.865 467.145,151.086 462.958,151.427 C462.428,148.155 469.674,150.979 477.057,147.797 C477.057,147.797 475.933,149.695 475.933,149.695 Z " fill="#FFFFFF" />
  <path d="M560.257,274.996 C558.016,274.574 558.095,272.183 557.817,270.057 C557.568,268.155 555.738,266.42 555.963,264.97 C556.677,264.663 557.858,264.908 557.955,265.515 C557.955,265.515 558.408,268.356 558.408,268.356 C558.743,270.459 561.079,272.73 560.257,274.996 Z " fill="#FFFFFF" />
  <path d="M551.997,148.169 C549.496,148.201 547.036,146.897 544.765,146.333 C548.594,145.554 552.312,145.403 556.12,146.356 C555.244,147.725 553.632,147.195 552.615,146.784 C552.226,146.627 551.665,147.562 551.997,148.169 Z " fill="#FFFFFF" />
  <path d="M541.083,248.626 C538.248,249.042 535.061,247.726 531.806,249.117 C531.806,249.117 529.528,250.09 529.528,250.09 C528.904,250.356 528.014,250.096 527.692,249.108 C527.692,249.108 529.377,248.221 529.377,248.221 C533.013,247.967 537.519,248.066 541.083,248.626 Z " fill="#FFFFFF" />
  <path d="M492.661,314.942 C492.661,314.942 496.327,304.963 496.327,304.963 C498.727,306.277 494.923,308.821 494.725,313.684 C494.459,314.138 494.399,316.13 492.661,314.942 Z " fill="#FFFFFF" />
  <path d="M467.206,272.514 C468.402,274.484 466.868,275.447 466.368,277.191 C466.368,277.191 464.939,282.187 464.939,282.187 C463.842,281.979 463.928,281.149 463.928,280.495 C463.928,279.512 463.931,278.907 465.453,277.968 C465.345,275.891 464.889,273.251 467.206,272.514 Z " fill="#FFFFFF" />
  <path d="M454.073,214.147 C454.788,209.225 456.068,204.643 454.301,199.94 C457.189,204.026 456.405,209.827 454.073,214.147 Z " fill="#FFFFFF" />
  <path d="M530.592,662.928 C527.639,673.912 523.622,669.238 527.376,666.036 C528.086,665.431 527.583,662.823 530.592,662.928 Z " fill="#FFFFFF" />
  <path d="M493.977,662.809 C494.655,661.66 495.548,660.77 496.807,659.949 C497.336,661.322 496.735,663.317 493.977,662.809 Z " fill="#FFFFFF" />
  <path d="M486.023,423.406 C484.141,424.811 480.979,422.971 480.109,421.405 C477.349,416.433 481.203,406.809 485.983,408.164 C489.097,409.047 490.038,412.961 490.054,415.462 C490.073,418.49 489.034,421.159 486.023,423.406 Z " fill="#FFFFFF" />
  <path d="M536.516,407.825 C541.815,407.782 542.986,418.465 540.15,421.439 C538.845,422.807 535.61,423.578 532.808,421.723 C530.27,420.043 530.756,415.544 531.542,412.662 C532.322,409.802 533.679,407.849 536.516,407.825 Z " fill="#FFFFFF" />
  <path d="M577.936,668.652 C578.672,667.319 579.815,668.026 580.008,668.496 C580.248,669.082 580.047,669.686 579.506,670.012 C579.116,670.247 577.765,670.186 577.936,668.652 Z " fill="#FFFFFF" />
  <path d="M576.992,673.706 C576.2,674.287 575.378,673.153 575.998,672.527 C575.998,672.527 577.542,670.969 577.542,670.969 C578.167,671.554 578.335,672.721 576.992,673.706 Z " fill="#FFFFFF" />
  <path d="M527.18,151.165 C527.18,151.165 535.074,154.815 535.074,154.815 C544.403,159.128 552.845,170.658 554.165,179.765 C553.957,181.466 553.34,183.667 554.901,185.392 C554.901,185.392 555.103,202.787 555.103,202.787 C555.106,203.06 555.74,203.239 555.843,203.1 C555.85,209.637 551.587,215.894 547.603,222.017 C541.847,230.862 531.369,236.488 521.365,238.437 C521.365,238.437 512.062,237.919 512.062,237.919 C502.834,239.565 486.251,232.348 482.039,223.903 C482.039,223.903 494.259,229.66 494.259,229.66 C511.719,237.887 533.142,232.318 544.13,216.269 C547.685,211.075 549.59,206.315 550.731,201.152 C550.62,201.639 551.212,202.093 551.485,201.965 C551.779,201.827 552.833,201.079 552.842,200.707 C552.842,200.707 553.011,193.015 553.011,193.015 C553.112,188.434 552.857,184.664 549.812,181.811 C547.997,180.111 547.697,176.687 545.937,173.866 C538.149,161.381 524.271,154.692 508.949,156.048 C496.225,157.174 484.062,165.321 477.723,177.931 C476.415,180.533 476.435,182.435 475.723,184.671 C475.723,184.671 473.971,183.816 473.971,183.816 C472.914,193.753 471.178,206.226 475.844,209.177 C477.26,213.43 480.493,216.791 481.187,222.134 C474.505,222.429 468.932,207.935 468.284,201.841 C468.695,202.075 468.907,202.196 469.484,202.034 C469.93,201.909 470.136,201.02 469.084,200.737 C469.084,200.737 468.925,187.251 468.925,187.251 C468.7,187.038 468.212,186.969 468.172,187.078 C469.918,174.866 477.095,163.329 487.832,156.953 C490.788,155.198 491.75,153.926 494.926,153.747 C498.031,153.571 501.732,152.123 505.273,151.436 C505.273,151.436 507.423,151.019 507.423,151.019 C507.815,150.943 508.352,150.713 508.24,149.977 C508.47,150.007 508.782,150.019 508.77,150.481 C508.77,150.481 522.673,151.274 522.673,151.274 C522.673,151.274 525.465,152.805 525.465,152.805 C526.019,153.109 527.081,151.603 527.18,151.165 Z " fill="#FFFFFF" />
  <path d="M527.18,151.165 C527.081,151.603 526.019,153.109 525.465,152.805 C525.465,152.805 522.673,151.274 522.673,151.274 C522.673,151.274 508.77,150.481 508.77,150.481 C512.678,147.9 523.84,149.621 527.18,151.165 Z " fill="#FFFFFF" />
  <path d="M550.731,201.152 C552.747,192.034 551.57,190.613 549.812,181.811 C552.857,184.664 553.112,188.434 553.011,193.015 C553.011,193.015 552.842,200.707 552.842,200.707 C552.833,201.079 551.779,201.827 551.485,201.965 C551.212,202.093 550.62,201.639 550.731,201.152 Z " fill="#FFFFFF" />
  <path d="M555.843,203.1 C555.74,203.239 555.106,203.06 555.103,202.787 C555.103,202.787 554.901,185.392 554.901,185.392 C553.34,183.667 553.957,181.466 554.165,179.765 C554.36,180.221 555.821,181.423 555.822,182.365 C555.822,182.365 555.843,203.1 555.843,203.1 Z " fill="#FFFFFF" />
  <path d="M508.24,149.977 C508.352,150.713 507.815,150.943 507.423,151.019 C507.423,151.019 505.273,151.436 505.273,151.436 C501.732,152.123 498.031,153.571 494.926,153.747 C496.743,151.405 503.534,149.829 508.24,149.977 Z " fill="#FFFFFF" />
  <path d="M468.284,201.841 C467.785,197.144 467.511,191.707 468.172,187.078 C468.212,186.969 468.7,187.038 468.925,187.251 C468.925,187.251 469.084,200.737 469.084,200.737 C470.136,201.02 469.93,201.909 469.484,202.034 C468.907,202.196 468.695,202.075 468.284,201.841 Z " fill="#FFFFFF" />
  <path d="M475.723,184.671 C473.231,192.509 473.185,201.195 475.844,209.177 C471.178,206.226 472.914,193.753 473.971,183.816 C473.971,183.816 475.723,184.671 475.723,184.671 Z " fill="#FFFFFF" />
</svg>