<svg xmlns="http://www.w3.org/2000/svg" viewBox="163.3 247.0 698.4 466.6" role="img" aria-hidden="true">
  <defs>
</defs>
  <path d="M605.809,592.938 C606.125,601.369 613.398,608.966 619.894,615.915 C620.915,617.008 621.903,618.199 621.99,620.292 C618.992,618.725 616.82,619.373 613.899,619.671 C613.899,619.671 603.852,620.693 603.852,620.693 C598.154,621.273 592.806,625.992 594.193,632.261 C596.894,629.293 597.751,625.251 602.157,624.919 C602.925,624.861 603.287,626.665 602.572,627.131 C602.572,627.131 600.627,628.395 600.627,628.395 C598.595,630.798 596.938,634.279 597.591,637.5 C597.897,639.009 600.765,640.596 602.986,640.031 C603.311,634.085 606.169,627.149 612.485,627.36 C609.042,631.496 606.789,634.687 607.102,638.951 C607.136,639.408 606.887,640.417 606.477,640.279 C606.032,640.13 605.445,640.057 604.518,640.351 C604.518,640.351 601.092,641.436 601.092,641.436 C600.373,641.664 600.418,643.214 600.39,644.181 C600.084,644.324 587.647,642.566 588.665,632.733 C589.138,628.164 590.458,624.038 593.935,620.874 C602.811,612.795 611.585,617.768 610.985,614.667 C610.702,613.202 601.321,605.677 600.587,597.892 C603.193,601.708 605.995,607.388 607.59,607.612 C611.819,608.205 605.175,599.953 604.721,594.399 C604.696,594.089 603.501,593.563 603.968,592.508 C604.486,591.337 604.724,592.757 605.809,592.938 Z " fill="#FFFFFF" />
  <path d="M832.723,559.562 C832.224,559.537 831.741,559.406 831.426,559.668 C831.081,559.955 830.814,561.557 830.677,562.07 C830.319,561.13 829.06,560.814 828.002,560.918 C828.078,556.772 826.087,548.176 823.155,545.689 C822.151,547.666 822.347,548.724 822.178,550.005 C821.234,549.494 820.459,548.955 819.516,550.067 C819.016,550.656 819.207,551.624 818.994,553.049 C818.994,553.049 818.034,559.491 818.034,559.491 C818.416,561.605 815.736,560.851 816.495,558.811 C816.495,558.811 820.302,538.255 820.302,538.255 C826.262,536.023 831.82,551.415 832.723,559.562 Z " fill="#FFFFFF" />
  <path d="M658.195,286.892 C658.331,287.619 657.799,288.031 657.366,287.77 C635.075,275.041 612.65,282.061 605.998,280.995 C605.998,280.995 603.533,282.123 603.533,282.123 C603.01,282.363 602.247,282.156 602.236,281.026 C602.236,281.026 617.482,278.447 617.482,278.447 C631.469,276.186 646.391,280 658.195,286.892 Z " fill="#FFFFFF" />
  <path d="M488.879,314.839 C488.879,314.839 489.273,317.982 489.273,317.982 C488.347,317.666 487.129,317.97 487.02,318.583 C486.878,319.386 486.888,321.112 487.258,321.953 C485.308,331.286 490.2,339.054 498.647,342.127 C498.647,342.127 513.578,349.682 513.578,349.682 C514.32,349.938 514.72,350.641 513.978,351.37 C503.383,347.046 487.054,339.925 486.215,329.997 C485.735,324.311 486.518,319.057 482.942,314.782 C482.804,313.986 483.864,313.701 484.405,314.763 C484.78,315.501 484.989,316.746 485.562,316.989 C485.964,317.16 487.34,317.334 487.894,316.485 C487.492,316.265 486.657,315.467 487.508,314.969 C487.949,314.71 488.494,314.757 488.879,314.839 Z " fill="#FFFFFF" />
  <path d="M478.101,572.99 C477.766,573.343 476.834,573.278 477.057,573.627 C477.612,574.494 476.909,575.125 476.443,574.998 C475.788,574.821 476.33,573.368 476.325,572.905 C475.316,563.775 474.587,554.449 475.092,545.008 C474.777,543.983 474.949,543.16 475.899,543.012 C475.899,543.012 476.581,548.48 476.581,548.48 C476.581,548.48 477.474,566.337 477.474,566.337 C477.474,566.337 478.101,572.99 478.101,572.99 Z " fill="#FFFFFF" />
  <path d="M332.801,673.46 C332.801,673.46 320.99,668.879 320.99,668.879 C313.593,666.009 305.644,665.077 297.725,663.314 C284.493,660.367 269.229,661.722 265.8,652.8 C265.8,652.8 269.759,656.017 269.759,656.017 C275.016,660.288 282.016,658.859 287.993,660.037 C287.993,660.037 314.023,665.17 314.023,665.17 C319.236,666.198 323.793,668.407 328.828,670.526 C331.06,671.466 334.108,670.24 336.224,672.99 C334.757,673.427 333.687,672.992 332.801,673.46 Z " fill="#FFFFFF" />
  <path d="M774.94,548.979 C774.94,548.979 781.152,557.103 781.152,557.103 C784.837,561.921 788.097,571.771 788.469,579.613 C788.469,579.613 786.584,589.939 786.584,589.939 C786.171,582.13 787.647,573.392 784.204,566.021 C784.204,566.021 780.892,558.934 780.892,558.934 C778.997,554.879 774.583,552.614 773.109,548.133 C773.109,548.133 774.94,548.979 774.94,548.979 Z " fill="#FFFFFF" />
  <path d="M257.01,649.892 C254.042,650.247 250.492,650.124 247.353,649.608 C247.353,649.608 237.042,647.911 237.042,647.911 C239.215,646.43 242.556,647.475 245.421,647.589 C245.421,647.589 256.808,648.042 256.808,648.042 C257.145,648.589 257.073,649.637 257.01,649.892 Z " fill="#FFFFFF" />
  <path d="M587.173,620.279 C587.173,620.279 582.927,636.965 582.927,636.965 C581.684,637.451 580.91,638.604 580.97,637.417 C581.009,636.661 581.548,635.425 581.879,634.937 C583.528,632.505 582.841,629.794 583.29,626.928 C583.63,624.753 586.46,621.902 585.152,619.019 C586.326,617.321 588.102,618.403 587.173,620.279 Z " fill="#FFFFFF" />
  <path d="M622.024,644.095 C619.04,643.317 615.426,646.908 607.653,645.915 C607.359,645.436 606.904,644.279 607.523,644.282 C607.523,644.282 620.355,643.285 620.355,643.285 C620.894,641.497 622.858,642.19 622.024,644.095 Z " fill="#FFFFFF" />
  <path d="M490.839,659.361 C491.057,660.856 490.043,661.344 489.251,661.497 C480.345,663.221 471.693,661.455 463.92,658.107 C463.92,658.107 475.065,660.22 475.065,660.22 C480.693,661.287 485.836,661.761 490.839,659.361 Z " fill="#FFFFFF" />
  <path d="M427.17,616.744 C427.187,617.657 426.816,617.829 426.475,618.019 C425.567,618.527 424.99,617.262 424.57,617.242 C424.57,617.242 414.478,616.746 414.478,616.746 C413.107,616.679 412.151,615.717 411.857,614.624 C411.687,613.988 410.514,613.743 411.894,612.71 C412.773,613.529 412.896,615.013 413.665,614.986 C415.053,614.936 416.613,615.219 417.671,615.371 C417.671,615.371 427.17,616.744 427.17,616.744 Z " fill="#FFFFFF" />
  <path d="M449.801,646.143 C449.119,646.417 448.01,645.995 448.029,645.407 C448.152,641.655 444.679,629.168 441.034,625.088 C440.145,624.095 439.646,623.467 439.818,622.032 C442.463,622.473 442.945,625.017 443.764,627.023 C443.764,627.023 448.195,637.878 448.195,637.878 C449.241,640.44 449.561,643.616 449.801,646.143 Z " fill="#FFFFFF" />
  <path d="M496.097,416.902 C496.097,416.902 482.02,420.483 482.02,420.483 C483.302,416.998 486.542,417.14 490.075,416.722 C491.886,416.508 494.666,414.787 496.097,416.902 Z " fill="#FFFFFF" />
  <path d="M480.135,588.163 C479.418,588.177 478.932,588.527 478.016,589.016 C477.692,584.308 476.629,580.056 477.631,576.065 C477.631,576.065 480.135,588.163 480.135,588.163 Z " fill="#FFFFFF" />
  <path d="M556.423,525.092 C556.651,520.513 553.689,518.085 553.946,512.822 C554.56,512.858 555.096,512.593 555.674,512.067 C556.236,516.813 558.092,521.025 556.423,525.092 Z " fill="#FFFFFF" />
  <path d="M504.235,658.28 C500.523,659.351 496.572,660.259 492.841,660.021 C492.841,660.021 492.075,658.015 492.075,658.015 C492.075,658.015 501.556,657.728 501.556,657.728 C501.991,657.714 502.725,656.495 503.473,656.99 C503.8,657.206 504.094,657.491 504.235,658.28 Z " fill="#FFFFFF" />
  <path d="M625.938,668.731 C624.289,666.268 624.902,661.287 625.936,658.226 C627.381,661.31 627.378,665.767 625.938,668.731 Z " fill="#FFFFFF" />
  <path d="M477.183,514.783 C477.183,514.783 477.181,504.313 477.181,504.313 C477.236,503.546 478.898,502.744 479.371,503.063 C479.371,503.063 478.442,509.428 478.442,509.428 C478.156,511.394 477.449,513.054 477.183,514.783 Z " fill="#FFFFFF" />
  <path d="M635.987,641.885 C630.202,641.122 626.04,644.171 623.034,643.21 C624.439,639.789 635.666,640.622 635.987,641.885 Z " fill="#FFFFFF" />
  <path d="M555.085,661.729 C550.366,662.427 545.255,662.361 540.83,660.677 C540.331,660.109 541.075,659.022 541.558,659.265 C548.119,662.562 553.577,659.724 555.085,661.729 Z " fill="#FFFFFF" />
  <path d="M234.932,647.202 C231.77,647.357 228.452,645.565 225.695,644.446 C228.703,643.859 231.323,644.757 234.388,645.669 C235.166,645.541 236.564,646.267 234.932,647.202 Z " fill="#FFFFFF" />
  <path d="M431.932,600.255 C430.29,599.596 430.62,597.662 429.836,595.843 C429.836,595.843 428.573,592.917 428.573,592.917 C429.289,591.542 429.795,592.274 430.183,592.558 C430.782,592.996 430.912,594.382 431.002,594.902 C431.002,594.902 431.932,600.255 431.932,600.255 Z " fill="#FFFFFF" />
  <path d="M481.07,599.044 C478.362,598.528 478.141,592.346 479.977,589.832 C479.977,589.832 481.07,599.044 481.07,599.044 Z " fill="#FFFFFF" />
  <path d="M542.284,401.948 C536.978,399.782 535.225,394.832 530.757,391.087 C534.127,406.372 553.397,409.678 553.495,409.866 C553.707,410.275 554.455,410.782 553.044,411.338 C545.294,409.357 538.549,405.234 533.202,398.937 C533.202,398.937 530.907,396.234 530.907,396.234 C529.158,394.174 528.633,391.215 527.918,388.934 C527.918,388.934 531.358,392.31 531.358,392.31 C532.059,388.912 531.025,388.424 531.69,386.97 C531.69,386.97 537.29,397.723 537.29,397.723 C538.254,399.642 541.382,400.1 542.284,401.948 Z " fill="#FFFFFF" />
  <path d="M554.361,577.29 C555.006,584.919 551.922,593.643 551.974,601.211 C550.099,596.909 551.46,591.846 551.939,587.208 C551.204,585.62 549.243,586.38 550.593,587.97 C549.137,590.897 548.773,593.77 549.005,596.798 C548.532,597.112 547.932,597.045 547.695,596.918 C547.695,596.918 549.903,574.937 549.903,574.937 C549.819,559.54 550.03,544.92 554.089,530.782 C554.497,530.827 554.968,529.839 556.337,530.261 C553.3,535.507 552.616,540.84 553.046,547.087 C553.046,547.087 551.313,554.429 551.313,554.429 C551.313,554.429 551.007,585.164 551.007,585.164 C553.894,583.767 553.063,580.939 552.916,577.899 C552.232,577.118 553.25,575.208 554.361,577.29 Z " fill="#FFFFFF" />
  <path d="M560.18,413.76 C560.18,413.76 555.167,411.951 555.167,411.951 C555.711,410.357 557.066,410.904 558.052,411.466 C559.315,412.186 560.258,411.995 560.18,413.76 Z " fill="#FFFFFF" />
  <path d="M197.823,617.902 C197.823,617.902 192.352,604.531 192.352,604.531 C192.352,604.531 191.658,597.32 191.658,597.32 C191.334,593.952 191.463,590.03 191.667,586.691 C191.667,586.691 192.085,579.819 192.085,579.819 C193.265,579.68 193.417,578.435 194.062,579.54 C194.541,580.361 193.1,581.307 193.107,581.683 C193.107,581.683 193.52,602.348 193.52,602.348 C193.52,602.348 195.532,609.509 195.532,609.509 C196.115,611.584 197.047,614.039 198.145,615.716 C198.584,616.156 199.231,616.93 199.049,617.396 C198.918,617.734 198.508,617.924 197.823,617.902 Z " fill="#FFFFFF" />
  <path d="M627.746,671.951 C627.111,672.364 626.594,671.573 626.86,670.927 C626.632,670.508 627.165,669.905 627.484,670.033 C627.872,670.188 628.242,670.703 628.533,670.954 C629.057,671.408 628.709,672.026 627.746,671.951 Z " fill="#FFFFFF" />
  <path d="M445.638,282.139 C444.863,284.918 439.139,280.754 430.36,280.515 C430.36,280.515 412.328,280.026 412.328,280.026 C411.988,280.957 410.869,281.256 410.508,281.008 C410.508,281.008 408.571,279.678 408.571,279.678 C408.485,281.014 406.827,281.292 406.965,279.562 C417.635,277.897 436.099,278.845 445.638,282.139 Z " fill="#FFFFFF" />
  <path d="M406.965,279.562 C406.827,281.292 408.485,281.014 408.571,279.678 C408.571,279.678 410.508,281.008 410.508,281.008 C410.869,281.256 411.988,280.957 412.328,280.026 C412.328,280.026 430.36,280.515 430.36,280.515 C439.139,280.754 444.863,284.918 445.638,282.139 C445.638,282.139 465.099,288.859 465.099,288.859 C465.099,288.859 471.59,292.718 471.59,292.718 C475.897,295.28 486.348,308.605 488.879,314.839 C488.494,314.757 487.949,314.71 487.508,314.969 C486.657,315.467 487.492,316.265 487.894,316.485 C487.34,317.334 485.964,317.16 485.562,316.989 C484.989,316.746 484.78,315.501 484.405,314.763 C483.864,313.701 482.804,313.986 482.942,314.782 C482.508,315.123 482.027,314.728 482.048,314.435 C482.07,314.115 482.161,313.078 482.291,312.821 C483.294,310.827 480.262,309.323 479.274,307.808 C472.341,297.177 462.517,290.582 450.143,288.028 C449.899,286.945 449.245,286.91 448.514,286.937 C447.903,286.961 447.109,286.803 446.918,287.783 C446.918,287.783 442.915,286.939 442.915,286.939 C441.024,286.54 438.206,285.114 437.136,287.009 C436.861,286.915 436.314,286.957 435.938,287.119 C439.331,284.004 432.467,283.645 423.207,284.084 C422.982,284.324 422.952,284.793 422.943,284.979 C422.943,284.979 422.895,286.112 422.895,286.112 C422.895,286.112 412.268,285.683 412.268,285.683 C412.268,285.683 409.513,284.312 409.513,284.312 C409.513,284.312 407.134,285.887 407.134,285.887 C403.583,285.335 400.921,286.667 398.072,287.808 C398.072,287.808 385.051,293.022 385.051,293.022 C375.396,296.889 368.125,305.319 362.924,312.91 C364.687,312.254 365.254,312.703 366.488,313.937 C368.634,314.449 371.885,312.787 374.223,314.714 C364.972,317.288 357.121,321.25 350.366,327.653 C346.03,331.762 344.581,338.421 341.488,343.356 C341.488,343.356 329.779,362.033 329.779,362.033 C327.409,365.815 324.086,372.089 326.789,375.619 C326.789,375.619 335.014,386.357 335.014,386.357 C344.705,399.011 354.304,404.5 369.952,410.391 C369.952,410.391 388.282,421.65 388.282,421.65 C392.295,422.949 395.524,416.963 397.073,414.05 C402.249,404.314 401.03,393.543 400.267,383.194 C400.139,381.452 400.643,378.826 399.141,376.325 C398.093,373.438 398.554,369.044 395.412,367.004 C395.412,367.004 388.735,345.695 388.735,345.695 C384.787,333.094 392.645,316.738 395.479,318.145 C398.485,319.638 388.619,330.641 393.618,339.689 C393.618,339.689 394.796,340.686 394.796,340.686 C395.715,341.463 395.012,342.137 394.043,342.537 C393.281,342.851 393.062,342.726 392.001,341.881 C392.001,341.881 395.501,348.999 395.501,348.999 C395.771,347.016 396.763,346.699 397.555,345.779 C397.758,347.568 396.531,349.042 395.581,350.981 C395.581,350.981 403.422,373.525 403.422,373.525 C404.875,377.702 406.231,384.447 406.696,388.854 C406.702,388.636 406.143,388.777 406.139,389.11 C406.139,389.11 405.976,402.073 405.976,402.073 C405.967,402.802 406.384,403.212 406.673,403.112 C405.298,411.561 400.365,425.082 392.207,426.775 C381.948,428.904 377.949,421.383 369.49,416.855 C367.896,418.808 368.034,416.853 368.076,416.346 C368.128,415.712 366.355,415.348 365.982,415.939 C364.638,415.943 364.872,414.504 364.499,414.024 C364.322,413.796 363.652,413.846 363.32,414.132 C363.104,412.789 361.18,411.9 359.919,411.961 C359.67,411.974 359.377,412.158 359.096,411.869 C358.627,411.387 357.346,411.564 357.124,412.033 C356.342,412.226 355.645,411.538 356.152,410.72 C356.152,410.72 351.263,408.681 351.263,408.681 C350.62,408.231 349.941,406.764 348.662,407.058 C345.96,410.759 346.789,414.478 341.173,417.266 C340.353,417.673 340.064,418.742 340.06,419.363 C340.056,419.9 340.981,421.001 341.406,420.715 C341.968,420.336 343.212,419.479 344.38,418.952 C344.877,418.728 344.436,417.203 344.151,416.541 C343.983,416.15 345.042,416.089 345.483,416.124 C345.982,416.162 346.55,416.872 346.227,417.506 C346.227,417.506 345.284,419.355 345.284,419.355 C344.805,420.258 344.384,420.228 344.036,420.372 C342.951,420.819 343.607,422.64 344.274,422.838 C344.879,423.017 345.304,422.294 345.96,421.738 C348.359,422.609 346.309,423.381 345.768,423.692 C344.235,424.573 341.47,421.777 341.049,424.576 C340.756,426.531 340.498,422.497 338.81,421.702 C332.857,427.563 326.665,441.415 328.584,441.973 C328.202,442.293 327.721,442.221 326.384,442.206 C325.662,445.508 323.459,448.519 320.195,449.429 C321.512,449.896 321.209,451.037 320.309,451.217 C317.58,450.346 315.79,453.212 314.115,454.807 C314.115,454.807 303.266,465.139 303.266,465.139 C302.62,463.389 301.985,464.501 301.439,464.95 C300.542,465.689 299.477,466.463 301.106,467.275 C300.014,468.354 299.033,469.84 297.269,470.077 C295.708,470.287 293.144,472.54 294.095,474.312 C291.356,475.816 289.901,478.588 287.714,480.709 C277.557,490.555 269.498,501.278 264.646,514.661 C262.995,519.214 260.683,523.67 258.968,527.855 C258.968,527.855 257.242,532.065 257.242,532.065 C257.242,532.065 252.529,539.965 252.529,539.965 C252.373,536.609 254.828,534.216 255.895,530.809 C252.252,533.734 249.969,537.757 248.195,542.031 C248.195,542.031 244.817,550.169 244.817,550.169 C242.737,555.179 241.376,560.77 241.447,567.305 C239.649,568.711 239.586,571.636 240.181,573.974 C239.551,573.912 238.785,573.846 238.016,574.204 C238.016,574.204 238.023,595.988 238.023,595.988 C238.023,595.988 239.817,595.167 239.817,595.167 C240.211,598.193 241.11,600.548 241.676,603.83 C241.676,603.83 243.095,612.064 243.095,612.064 C244.35,612.045 244.534,610.907 243.897,610.217 C243.897,610.217 245.899,610.23 245.899,610.23 C246.281,617.469 247.687,625.368 252.413,631.284 C253.287,628.445 252.39,625.948 251.653,624.048 C251.653,624.048 253.067,623.98 253.067,623.98 C253.067,623.98 254.935,632.075 254.935,632.075 C254.09,631.406 253.171,631.648 252.649,632.194 C252.35,632.507 252.765,633.442 253.337,633.635 C253.784,633.785 254.08,633.64 255.55,632.827 C255.71,635.704 256.886,637.655 257.891,639.928 C258.353,640.975 259.351,641.574 259.921,642.274 C262.244,645.126 265.259,648.179 268.906,648.866 C268.906,648.866 276.031,654.994 276.031,654.994 C277.191,655.246 280.31,654.31 281.455,655.877 C281.821,655.578 282.536,654.806 283.248,654.465 C284.877,654.587 286.247,654.985 287.918,655.935 C291.754,658.117 299.761,658.307 307.94,660.798 C307.94,660.798 325.048,666.008 325.048,666.008 C330.464,667.657 335.938,670.308 341.08,668.332 C341.755,668.073 342.541,667.915 344.018,667.839 C343.424,666.166 344.629,664.229 344.925,663.063 C344.925,663.063 339.834,653.776 339.834,653.776 C345.663,655.249 348.804,660.113 349.209,666.164 C351.443,667.314 354.815,666.437 356.329,664.733 C358.121,662.716 358.237,659.186 357.057,656.945 C358.135,657.147 359.078,656.679 360.445,656.15 C360.956,657.337 360.308,659.264 362.619,660.521 C364.217,654.631 361.467,648.274 355.662,644.818 C346.48,639.352 324.839,635.561 323.211,638.561 C322.971,639.002 323.194,639.444 322.026,640.178 C321.893,639.613 321.924,638.812 321.681,638.543 C321.438,638.273 320.115,639.072 319.955,639.045 C319.725,638.079 318.768,637.891 317.934,638.053 C318.091,637.403 317.929,636.715 317.73,635.799 C325.988,632.624 329.027,624.455 327.958,615.982 C327.523,616.514 327.518,617.179 327.893,617.644 C328.268,618.109 328.919,618.244 329.45,617.97 C330.336,615.232 330.88,611.125 329.741,607.731 C331.246,607.131 329.601,604.841 328.866,606.72 C328.749,607.169 328,607.062 328.002,606.485 C328.002,606.485 328.006,605.188 328.006,605.188 C329.016,605.132 329.204,604.243 329.04,603.483 C329.04,603.483 328.525,601.104 328.525,601.104 C328.525,601.104 324.786,590.346 324.786,590.346 C327.027,589.465 328.702,590.553 329.868,590.692 C328.886,592.522 331.342,593.232 331.586,594.246 C332.302,597.23 332.249,601.75 336.148,603.549 C336.148,603.549 334.223,611.662 334.223,611.662 C335.156,612.493 336.302,613.747 335.902,614.909 C337.653,616.825 335.485,618.49 335.876,621.42 C336.131,621.488 336.336,621.608 336.501,621.902 C336.59,622.062 336.696,622.336 336.766,622.827 C336.602,621.71 335.667,621.841 335.347,622.072 C334.527,621.722 333.601,622.848 334.359,623.791 C334.964,624.543 335.805,625.109 336.021,626.158 C336.214,627.094 334.126,628.438 335.966,629.758 C336.528,628.219 337.784,627.919 338.099,628.943 C338.099,628.943 337.969,631.029 337.969,631.029 C337.94,633.676 339.475,629.33 343.082,629.453 C343.593,629.22 344.417,627.834 345.243,628.14 C345.388,628.912 346.902,630.422 347.541,629.957 C349.61,628.454 351.023,626.867 351.069,624.993 C358.596,629.543 355.166,614.358 349.659,601.829 C349.868,600.913 348.434,601.384 348.144,602.014 C348.259,598.614 347.837,595.733 346.356,592.369 C346.356,592.369 339.722,577.311 339.722,577.311 C339.704,574.795 338.784,571.978 336.8,570.039 C337.632,568.989 338.327,567.851 338.014,566.527 C335.51,566.146 332.958,564.243 332.317,562.235 C331.266,558.946 332.156,556.113 334.336,554.181 C335.517,553.248 334.774,552.759 334.614,552.268 C334.281,551.254 336.207,549.518 336.764,550.071 C337.779,553.423 336.078,556.687 335.838,559.546 C338.96,562.196 340.642,563.932 342.45,567.003 C340.448,566.846 339.386,567.427 339.435,568.745 C339.447,569.06 341.87,575.296 344.208,575.966 C348.525,583.193 352.177,590.803 354.589,599.301 C354.589,599.301 355.92,601.897 355.92,601.897 C353.251,602.738 356.869,606.318 357.853,612.177 C358.088,613.575 359.048,614.866 359.946,615.2 C359.946,615.2 360,616.744 360,616.744 C358.723,616.637 358.46,615.401 357.939,616.585 C358.702,614.851 364.298,635.572 363.503,634.989 C364.016,635.365 365.168,635.011 365.367,634.018 C365.533,634.615 366.114,635.201 365.963,636.105 C364.75,636.323 364.689,637.546 365.032,638.468 C365.367,639.371 366.696,639.757 367.266,640.098 C367.266,640.098 371.004,647.056 371.004,647.056 C371.004,647.056 377.027,660.071 377.027,660.071 C380.11,666.732 383.179,673.058 390.074,676.061 C393.669,677.626 393.615,679.862 403.661,678.781 C404.246,678.718 404.859,677.757 405.015,677.436 C405.261,676.927 404.687,675.848 404.097,675.706 C406.201,673.004 403.873,671.863 404.266,669.628 C405.177,670.713 406.929,671.412 408.312,672.027 C409.049,674.08 407.824,678.741 410.159,678.438 C410.159,678.438 413.964,677.945 413.964,677.945 C415.729,677.716 418.012,678.822 419.366,678.034 C420.24,677.525 420.544,675.193 422.158,675.489 C423.768,673.8 423.012,671.379 422.963,668.838 C425.822,669.472 424.635,672.427 425.239,673.568 C426.772,676.471 429.633,674.549 430.832,673.532 C435.945,669.195 432.643,654.891 424.779,653.111 C424.779,653.111 416.654,645.547 416.654,645.547 C416.441,642.836 414.422,640.459 413.105,637.937 C412.71,637.182 413.544,634.816 411.542,634.107 C412.6,632.871 410.517,632.63 410.875,633.958 C409.563,633.732 410.153,632.668 410.02,632.137 C411.213,629.916 410.289,627.025 409.92,623.616 C409.569,623.004 408.58,623.517 407.934,623.806 C407.817,623.34 408.05,622.683 408.233,622.287 C409.873,618.731 406.939,609.019 404.876,608.996 C404.43,608.991 403.891,608.61 403.967,608.179 C405.15,607.974 405.05,607.166 405.054,606.502 C405.051,606.949 401.8,593.678 400.144,591.668 C397.958,589.016 398.552,585.586 397.715,582.385 C395.287,573.098 395.361,564.328 398.16,554.95 C398.874,552.559 399.109,549.459 402.15,549.849 C402.15,549.849 402.862,551.768 402.862,551.768 C402.329,553.284 401.746,555.283 401.888,556.541 C402.069,558.143 402.471,560.001 401.721,561.777 C400.313,565.11 400.71,568.761 400.583,571.982 C400.539,573.098 400.654,574.792 402.54,575.279 C401.678,577.352 401.392,579.849 403.785,581.724 C402.474,582.777 403.212,583.684 403.702,583.896 C403.937,584.353 404.219,585.462 404.018,586.018 C403.532,587.362 405.341,590.024 406.8,589.831 C406.8,589.831 427.688,567.778 427.688,567.778 C435.478,559.554 441.534,550.78 445.25,540.301 C445.25,540.301 451.225,523.45 451.225,523.45 C453.615,527.957 450.876,532.37 450.242,536.913 C449.572,541.72 448.094,545.833 446.133,550.09 C446.133,550.09 439.758,563.929 439.758,563.929 C437.616,568.579 429.787,571.319 429.387,580.259 C431.131,581.106 431.112,583.166 431.929,583.96 C433.837,587.351 431.89,590.154 435.221,590.105 C434.135,591.909 433.894,594.049 435.707,595.324 C436.714,601.552 440.17,610.536 442.95,615.615 C442.95,615.615 447.039,623.087 447.039,623.087 C453.896,635.618 452.152,643.826 457.32,648.755 C457.933,649.34 460.017,649.46 459.837,651.534 C467.603,655.078 477.603,658.976 486.833,656.306 C490.282,653.853 487.441,645.822 483.554,642.388 C489.695,642.718 492.376,650.042 492.104,655.571 C494.659,655.542 499.064,656.175 501.117,653.501 C503.704,650.13 500.465,643.853 497.362,639.674 C501.693,638.254 504.001,642.364 505.144,646.677 C508.223,640.422 502.9,634.703 497.091,632.876 C491.341,631.068 485.989,628.569 482.843,622.886 C480.151,618.022 477.795,612.335 476.632,606.883 C476.632,606.883 474.63,597.498 474.63,597.498 C474.63,597.498 472.626,580.309 472.626,580.309 C472.626,580.309 472.267,572.843 472.267,572.843 C472.267,572.843 473.031,572.673 473.031,572.673 C473.031,572.673 472.668,546.437 472.668,546.437 C472.668,546.437 471,539.111 471,539.111 C470.414,536.537 470.765,534.351 469.173,533.058 C468.451,526.347 470.742,519.702 471.718,512.925 C472.658,506.397 473.76,497.946 475.653,495.001 C477.303,492.435 474.972,489.243 474.589,487.395 C474.589,487.395 471.839,474.144 471.839,474.144 C471.36,471.836 472.409,470.691 473.703,469.74 C473.703,469.74 470.015,462.15 470.015,462.15 C471.067,462.017 471.373,461.112 471.084,460.46 C471.084,460.46 470.008,458.04 470.008,458.04 C466.683,450.555 467.235,443.817 464.655,444.048 C463.9,440.74 463.803,437.392 463.477,433.474 C461.359,434.312 461.565,435.908 461.054,436.797 C460.046,436.854 459.605,438.039 459.329,439.345 C459.845,441.693 457.291,441.625 457.82,439.4 C457.82,439.4 454.737,438.866 454.737,438.866 C454.163,438.767 454.007,436.905 453.772,436.319 C453.029,435.195 451.709,436.014 452,437 C452,437 450.998,436.988 450.998,436.988 C450.998,436.988 451.046,435.852 451.046,435.852 C451.046,435.852 455.87,429.986 455.87,429.986 C457.294,428.254 458.005,426.1 457.997,424.305 C458.435,424.205 459.852,424.107 459.875,423.424 C459.875,423.424 459.687,421.832 459.687,421.832 C460.692,420.17 462.073,420.756 463.955,420.396 C463.955,420.396 476.811,417.934 476.811,417.934 C481.567,417.024 487.199,415.495 486.926,414.07 C492.611,412.96 499.342,411.018 505.719,407.322 C508.139,405.919 510.173,402.18 512.123,400.145 C512.123,400.145 513.868,398.325 513.868,398.325 C514.372,397.799 514.231,396.048 514.1,395.364 C515.181,395.817 515.572,395.752 515.837,395.384 C516.23,394.84 515.992,393.331 515.539,393.318 C512.58,393.229 505.267,402.94 499.142,404.976 C499.339,403.943 497.871,403.403 497.387,404.051 C496.948,404.638 496.042,404.738 495.749,404.567 C495.455,404.394 495.443,403.826 495.543,403.5 C495.7,402.988 497.224,402.892 498.176,402.781 C499.48,402.534 500.533,401.301 498.911,400.668 C504.828,397.118 510.266,392.489 514.233,386.125 C513.692,384.745 514.359,384.359 514.75,383.895 C515.799,386.041 516.908,383.992 516.333,383.122 C517.14,381.203 518.688,382.355 517.863,383.819 C517.216,385.501 517.988,386.884 518.954,387.031 C519.814,387.162 520.41,387.05 521.025,386.536 C521.877,385.824 521.992,385.132 521.999,383.993 C521.999,383.993 522.005,383.003 522.005,383.003 C523.011,383.144 523.727,381.071 523.22,379.163 C524.205,378.245 524.153,375.964 523.344,375.39 C522.734,374.956 520.913,375.338 520.255,376.322 C519.874,377.263 519.694,377.981 518.619,378.067 C516.371,375.868 513.844,375.606 514.157,373.604 C514.367,372.263 516.611,371.687 516.015,370.522 C515.765,370.035 514.751,369.764 514.557,370.053 C514.557,370.053 513.358,371.841 513.358,371.841 C509.99,373.165 504.786,370.044 503.315,365.548 C502.129,361.924 504.15,358.62 506.507,355.988 C508.859,353.362 512.559,352.999 516.089,352.726 C515.062,351.825 514.242,351.917 513.978,351.37 C514.72,350.641 514.32,349.938 513.578,349.682 C513.578,349.682 498.647,342.127 498.647,342.127 C490.2,339.054 485.308,331.286 487.258,321.953 C486.888,321.112 486.878,319.386 487.02,318.583 C487.129,317.97 488.347,317.666 489.273,317.982 C492.001,321.344 490.98,327.662 492.625,331.108 C495.642,337.429 502.724,340.019 507.965,342.865 C507.965,342.865 523.814,351.475 523.814,351.475 C525.026,348.06 526.668,346.481 529.168,345.152 C529.168,345.152 542.929,337.836 542.929,337.836 C542.929,337.836 552.515,332.403 552.515,332.403 C549.859,322.292 556.305,316.095 557.357,309.434 C558.303,303.45 579.063,286.982 593.357,283.308 C593.357,283.308 602.236,281.026 602.236,281.026 C602.247,282.156 603.01,282.363 603.533,282.123 C603.533,282.123 605.998,280.995 605.998,280.995 C612.65,282.061 635.075,275.041 657.366,287.77 C657.799,288.031 658.331,287.619 658.195,286.892 C658.195,286.892 675.262,298.54 675.262,298.54 C680.021,301.788 682.268,308.748 687.957,311.807 C695.341,315.777 699.49,322.66 703.067,329.87 C703.067,329.87 709.064,341.959 709.064,341.959 C709.064,341.959 712.01,347.083 712.01,347.083 C715.261,352.735 719.216,358.074 720.179,365.01 C721.648,375.601 706.633,389.655 695.781,395.676 C692.875,397.287 694.609,400.01 694.634,401.843 C694.794,413.658 704.667,416.307 711.962,431.2 C717.579,442.666 717.132,454.885 727.961,465.105 C745.254,481.424 758.278,501.161 764.755,524.184 C764.755,524.184 767.306,529.707 767.306,529.707 C767.909,533.994 773.326,546.869 774.94,548.979 C774.94,548.979 773.109,548.133 773.109,548.133 C774.583,552.614 778.997,554.879 780.892,558.934 C780.892,558.934 784.204,566.021 784.204,566.021 C787.647,573.392 786.171,582.13 786.584,589.939 C786.584,589.939 787.082,599.352 787.082,599.352 C799.519,595.25 806.775,588.48 810.914,576.024 C810.914,576.024 812.406,571.53 812.406,571.53 C814.834,567.116 815.676,563.232 816.495,558.811 C815.736,560.851 818.416,561.605 818.034,559.491 C818.034,559.491 818.994,553.049 818.994,553.049 C819.207,551.624 819.016,550.656 819.516,550.067 C820.459,548.955 821.234,549.494 822.178,550.005 C821.967,551.595 821.769,553.205 822.041,554.821 C820.733,554.621 820.254,553.358 819.958,554.553 C819.677,555.689 820.447,556.13 821.165,556.076 C818.415,579.618 809.254,598.093 785.302,605.212 C783.972,606.804 784.386,609.739 783.249,610.546 C780.248,612.676 780.363,617.027 780.457,620.558 C780.102,622.487 776.655,624.873 777.393,627.368 C781.517,628.299 784.104,628.339 786.363,624.819 C789.939,626.036 794.21,625.132 796.133,622.219 C803.787,618.631 811.728,614.022 815.755,606.386 C814.679,604.549 817.774,604.822 818.058,604.706 C817.062,603.561 816.356,603.673 816.321,603.305 C816.263,602.703 816.267,601.467 817.631,601.266 C817.631,601.266 818.511,602.788 818.511,602.788 C818.731,603.167 819.619,601.778 819.662,601.254 C819.721,600.532 819.497,599.779 817.893,599.78 C822.456,593.226 826.276,582.094 827.762,574.006 C827.762,574.006 828.002,560.918 828.002,560.918 C829.06,560.814 830.319,561.13 830.677,562.07 C830.814,561.557 831.081,559.955 831.426,559.668 C831.741,559.406 832.224,559.537 832.723,559.562 C833.726,568.622 831.987,577.446 829.318,586.315 C825.617,598.614 819.869,609.346 809.797,618.047 C799.919,626.581 787.16,632.007 774.035,634.046 C770.611,634.578 769.454,636.941 767.877,640.063 C763.06,649.602 748.547,648.288 738.358,653.188 C738.358,653.188 728.824,657.773 728.824,657.773 C722.489,662.278 715.363,662.174 708.218,662.046 C708.218,662.046 709.023,660.009 709.023,660.009 C709.023,660.009 695.982,660.247 695.982,660.247 C693.926,659.156 690.694,659.375 688.831,655.225 C688.831,655.225 687.108,662.297 687.108,662.297 C684.635,672.45 676.92,681.047 665.947,680.484 C662.786,680.322 659.277,678.946 656.192,681.553 C651.112,682.761 645.268,681.236 641.039,677.675 C635.29,679.193 629.548,677.066 627.746,671.951 C628.709,672.026 629.057,671.408 628.533,670.954 C628.242,670.703 627.872,670.188 627.484,670.033 C627.165,669.905 626.632,670.508 626.86,670.927 C626.385,671.098 625.957,670.738 626.046,670.417 C626.151,670.042 626.154,669.054 625.938,668.731 C627.378,665.767 627.381,661.31 625.936,658.226 C628.751,649.888 637.076,646.166 635.987,641.885 C635.666,640.622 624.439,639.789 623.034,643.21 C623.014,643.688 622.648,644.258 622.024,644.095 C622.858,642.19 620.894,641.497 620.355,643.285 C620.355,643.285 607.523,644.282 607.523,644.282 C606.904,644.279 607.359,645.436 607.653,645.915 C605.299,645.615 602.952,642.981 600.39,644.181 C600.418,643.214 600.373,641.664 601.092,641.436 C601.092,641.436 604.518,640.351 604.518,640.351 C605.445,640.057 606.032,640.13 606.477,640.279 C606.887,640.417 607.136,639.408 607.102,638.951 C612.097,642.586 616.673,639.761 622.633,638.537 C627.587,637.52 632.653,637.877 638.406,635.683 C639.415,634.8 639.294,631.952 639.633,630.161 C640.652,625.953 639.775,623.052 638.321,618.584 C637.59,618.379 636.834,618.375 636.459,617.789 C635.89,616.9 636.039,614.845 635.88,614.114 C635.339,611.628 632.515,610.689 631.267,609.746 C630.361,609.06 629.286,608.181 628.157,607.609 C625.953,606.495 623.718,605.097 621.627,602.701 C620.206,601.072 616.731,600.879 616.361,597.735 C615.519,598.12 615.152,598.063 614.581,598.208 C614.169,595.296 611.902,593.152 610.257,591.017 C610.257,591.017 605.785,585.214 605.785,585.214 C604.864,584.379 603.499,585.608 605.21,586.206 C603.9,588.632 605.746,591.266 605.809,592.938 C604.724,592.757 604.486,591.337 603.968,592.508 C603.501,593.563 604.696,594.089 604.721,594.399 C605.175,599.953 611.819,608.205 607.59,607.612 C605.995,607.388 603.193,601.708 600.587,597.892 C600.401,595.926 599.994,594.06 598.686,591.309 C598.226,594.636 597.466,596.441 596.31,599.017 C596.31,599.017 588.771,615.812 588.771,615.812 C588.117,617.27 587.503,618.98 587.173,620.279 C588.102,618.403 586.326,617.321 585.152,619.019 C586.46,621.902 583.63,624.753 583.29,626.928 C582.841,629.794 583.528,632.505 581.879,634.937 C581.548,635.425 581.009,636.661 580.97,637.417 C580.91,638.604 581.684,637.451 582.927,636.965 C582.151,640.015 579.896,642.088 577.426,644.241 C574.901,646.442 574.613,649.95 573.492,652.353 C571.071,657.544 561.407,660.794 555.085,661.729 C553.577,659.724 548.119,662.562 541.558,659.265 C541.075,659.022 540.331,660.109 540.83,660.677 C537.6,660.796 533.715,662.791 530.531,661.302 C530.531,661.302 517.481,655.202 517.481,655.202 C513.526,645.419 517.713,632.784 528.186,629.37 C534.761,627.226 538.702,623.409 540.959,616.887 C540.959,616.887 545.811,602.872 545.811,602.872 C546.546,600.747 546.067,598.364 547.695,596.918 C547.932,597.045 548.532,597.112 549.005,596.798 C548.773,593.77 549.137,590.897 550.593,587.97 C549.243,586.38 551.204,585.62 551.939,587.208 C551.46,591.846 550.099,596.909 551.974,601.211 C551.642,601.737 550.708,602.76 550.525,603.693 C548.528,613.867 542.234,630.498 533.581,632.583 C524.45,634.783 517.685,644.898 522.586,653.681 C524.571,647.4 525.942,640.939 532.847,639.839 C530.034,644.02 526.161,647.616 527.282,652.495 C527.282,652.495 528.478,655.092 528.478,655.092 C528.717,655.611 535.259,657.955 537.898,656.579 C540.276,655.34 538.24,643.469 547.346,641.933 C544.618,646.783 542.058,651.355 543.824,655.829 C543.22,655.819 543.083,656.213 542.965,656.541 C542.761,657.108 543.448,658.77 544.335,658.776 C544.335,658.776 553.726,658.835 553.726,658.835 C554.018,658.837 554.81,657.784 554.969,657.489 C555.115,657.217 554.779,656.617 554.145,656.645 C554.145,656.645 566.726,651.258 566.726,651.258 C571.23,649.329 568.259,640.716 576.927,637.915 C580.736,636.683 580.693,630.574 581.396,627.648 C582.115,624.651 583.495,621.945 583.063,618.893 C583.063,618.893 584.108,616.509 584.108,616.509 C584.34,615.978 584.158,615.042 583.229,614.84 C589.629,602.304 593.058,590.5 598.281,577.109 C598.281,577.109 587.869,553.098 587.869,553.098 C587.848,551.383 586.569,550.356 587.139,548.093 C587.95,548.623 588.661,548.505 589.108,548.348 C590.711,547.788 589.348,545.704 591.868,545.76 C591.868,545.76 593.978,553.063 593.978,553.063 C596.341,561.244 600.758,568.28 606.055,574.913 C606.055,574.913 620.218,592.649 620.218,592.649 C620.218,592.649 623.492,596.13 623.492,596.13 C625.619,598.391 628.279,600.113 631.273,601.763 C631.926,602.153 632.018,603.151 632.024,603.537 C632.031,604.025 632.956,604.572 633.503,603.826 C633.919,605.878 636.425,605.66 637.338,606.427 C638.322,607.256 639.001,609.476 640.625,609.805 C642.138,610.112 643.087,608.453 643.585,606.895 C644.314,607.385 645.11,606.823 645.026,606.441 C644.942,606.06 644.604,603.962 645.089,603.707 C647.24,602.578 646.658,598.336 647.301,596.252 C648.538,592.237 650.289,588.589 648.123,585.059 C648.199,584.335 648.223,583.44 648.738,582.989 C649.77,584.455 650.534,583.104 650.569,582.283 C650.569,582.283 651.278,565.995 651.278,565.995 C651.278,565.995 652.772,565.991 652.772,565.991 C652.772,565.991 653.122,582.847 653.122,582.847 C653.13,583.198 653.721,583.372 653.998,583.153 C653.998,583.153 653.913,585.998 653.913,585.998 C653.055,585.911 652.804,585.32 652.45,583.751 C651.225,587.625 651.787,591.483 651.288,596.08 C650.676,596.919 650.926,597.92 652.021,597.997 C652.021,597.997 651.376,601.284 651.376,601.284 C652.473,598.927 649.228,598.441 650.078,600.704 C648.734,602.902 648.342,605.846 649.929,607.086 C650.006,607.417 649.913,608.121 649.315,608.033 C646.797,607.664 645.91,612.964 647.902,615.874 C647.765,616.191 647.912,617.121 648.016,617.44 C648.114,617.745 647.237,618.489 646.792,617.332 C645.622,619.181 645.641,621.555 646.17,623.086 C646.86,625.081 645.694,636.47 643.579,642.073 C641.045,648.787 631.66,655.13 633.111,657.797 C633.306,658.155 633.166,659.901 632.867,659.666 C632.569,659.431 631.232,659.715 631.231,660.181 C631.231,660.181 631.216,670.581 631.216,670.581 C631.214,671.923 632.864,671.701 633.212,672.042 C634.555,673.361 638.528,675.142 640.299,673.321 C640.316,667.853 641.583,661.809 646.974,658.927 C646.992,664.234 641.471,668.741 645.48,674.812 C647.797,678.319 655.813,679.055 658.599,675.242 C659.048,672.519 656.703,667.433 660.373,664.142 C659.77,663.025 660.381,662.564 660.629,662.269 C661.354,661.408 663.043,662.086 662.801,662.805 C661.092,667.879 661.956,674.608 666.366,676.05 C668.03,676.594 672.514,674.197 675.972,672.047 C675.836,672.175 675.824,672.579 676.366,673.064 C681.136,668.731 685.039,663.902 682.12,660.925 C681.982,660.448 682.149,659.838 682.81,659.955 C683.695,660.112 684.158,659.436 684.25,658.387 C684.25,658.387 685.073,648.919 685.073,648.919 C685.163,647.879 685.056,647.112 684.015,646.959 C684.034,644.821 684.046,642.887 684.646,640.571 C684.646,640.571 689.979,619.976 689.979,619.976 C689.979,619.976 694.43,603.875 694.43,603.875 C695.17,601.2 696.115,598.181 696.728,595.669 C696.728,595.669 700.287,581.067 700.287,581.067 C700.287,581.067 701.383,573.468 701.383,573.468 C701.383,573.468 704.587,564.006 704.587,564.006 C704.833,563.279 704.507,561.272 705.2,560.778 C705.733,560.398 706.319,560.135 707.185,559.969 C707.5,559.902 707.805,559.904 708.123,560.03 C708.17,561.172 708.742,562.682 710.255,563.148 C709.309,564.743 706.77,566.91 706.168,569.16 C706.462,570 708,572.41 707.247,573.406 C707.247,573.406 705.106,576.236 705.106,576.236 C704.775,576.674 703.774,577.547 703.891,578.457 C703.962,579.001 703.799,579.89 704.927,579.556 C704.927,579.556 706.772,579.01 706.772,579.01 C706.772,579.01 704.795,583.932 704.795,583.932 C704.795,583.932 701.517,597.702 701.517,597.702 C701.285,598.679 699.883,599.026 700.042,600.58 C700.186,601.989 701.727,602.136 702.332,601.5 C701.434,597.79 706.096,596.362 703.819,592.767 C709.697,597.454 701.479,602.591 700.069,612.059 C700.069,612.059 712.824,605.774 712.824,605.774 C712.55,606.776 713.778,607.453 714.155,606.212 C715.399,605.99 715.895,607.035 715.864,608.099 C709.315,612.674 704.696,613.867 698.695,617.63 C697.757,618.218 695.165,618.299 695.815,620.318 C696.093,621.181 697.199,621.722 698.482,623.605 C702.997,618.61 703.839,615.501 704.453,620.568 C706.872,618.865 707.719,615.586 711.771,614.019 C711.771,614.019 708.08,620.991 708.08,620.991 C709.158,619.961 710.027,618.607 712.265,619.326 C712.265,619.326 709.964,621.648 709.964,621.648 C709.507,622.109 709.841,624.206 710.31,624.734 C710.31,624.734 720.957,626.373 720.957,626.373 C724.523,626.922 727.586,629.456 731.078,627.005 C731.14,629.624 729.165,629.764 729.027,630.493 C728.642,632.527 731.669,633.517 731.825,635.332 C731.94,636.666 730.052,636.188 730.052,635.481 C730.051,634.924 730.11,634.44 729.333,634.562 C729.333,634.562 716.914,631.384 716.914,631.384 C716.786,628.991 714.918,629.115 713.133,628.975 C706.858,628.483 702.126,629.259 698.286,632.904 C695.456,635.59 692.416,637.6 691.259,642.79 C690.6,645.748 688.216,649.241 692.064,652.222 C693.624,646.467 695.433,640.695 700.642,638.647 C700.642,638.647 702.459,637.933 702.459,637.933 C703.607,637.482 704.246,638.732 703.73,639.295 C703.73,639.295 702.008,641.175 702.008,641.175 C698.761,644.721 694.974,648.528 696.395,653.641 C696.899,655.453 699.444,656.265 700.653,656.791 C702.718,657.689 704.68,656.436 705.933,655.451 C706.252,655.201 707.033,654.699 707.306,654.395 C707.847,653.791 708.497,655.197 708.761,655.604 C711.591,659.968 721.537,654.655 727.044,652.323 C727.044,652.323 739.912,646.875 739.912,646.875 C739.912,646.875 755.3,642.356 755.3,642.356 C755.3,642.356 758.058,641.612 758.058,641.612 C758.058,641.612 759.622,638.848 759.622,638.848 C764.173,636.157 766.16,631.252 769.129,627.161 C773.153,621.615 776.112,615.307 776.542,609.293 C774.021,609.208 775.455,605.994 777.489,606.052 C777.489,606.052 780.87,589.022 780.87,589.022 C781.505,589.34 782.021,588.825 781.928,588.465 C781.836,588.105 782.769,587.097 782.774,586.723 C782.774,586.723 782.973,571.978 782.973,571.978 C782.973,571.978 780.995,572.794 780.995,572.794 C779.283,564.176 774.57,556.479 767.975,550.079 C768.36,548.68 767.526,547.838 766.324,547.794 C766.324,547.794 760.943,532.643 760.943,532.643 C759.884,529.662 758.29,526.51 757.269,522.921 C757.269,522.921 756.168,519.051 756.168,519.051 C757.852,516.921 754.341,509.316 750.885,505.63 C748.049,498.426 742.811,492.568 738.294,485.974 C728.488,471.658 714.067,462.271 709.915,443.172 C708.997,438.95 707.264,437.457 706.965,434.058 C708.686,433.788 708.1,430.656 706.163,428.747 C706.27,428.512 706.296,428.169 706.153,427.909 C705.326,426.415 703.711,423.636 701.925,424.967 C701.229,425.486 700.352,425.268 699.23,425.382 C699.23,425.382 693.947,418.026 693.947,418.026 C687.059,408.435 691.252,401.242 689.473,400.122 C688.718,399.647 687.381,400.058 686.895,400.718 C686.552,401.183 685.689,402.034 685.04,402.012 C685.04,402.012 683.96,401.976 683.96,401.976 C683.96,401.976 678.847,404.716 678.847,404.716 C678.847,404.716 672.904,407.612 672.904,407.612 C672.157,410.347 669.497,409.506 668.537,410.371 C662.745,415.583 652.014,415.921 648.795,411.76 C636.451,395.805 643.231,371.166 651.7,352.897 C652.897,350.314 653.242,346.537 654.794,344.037 C657.542,339.611 653.47,335.903 651.484,328.118 C652.072,328.316 652.787,327.902 652.64,327.504 C652.64,327.504 652.093,326.024 652.093,326.024 C651.616,324.733 651.68,323.635 652.828,322.77 C652.961,324.58 653.245,325.245 653.538,325.811 C653.925,326.558 654.33,327.706 655.951,326.943 C654.72,325.597 654.505,324.711 654.703,323.641 C658.786,322.118 653.592,318.514 654.071,313.814 C657.658,314.754 659.046,317.658 660.186,319.999 C658.894,320.171 658.619,320.944 658.897,321.545 C658.897,321.545 659.931,323.782 659.931,323.782 C659.931,323.782 659.989,338.061 659.989,338.061 C659.999,340.371 660.693,342.209 661.37,345.078 C659.742,346.063 658.764,346.915 657.978,348.023 C656.961,349.457 655.723,351.819 655.035,353.905 C655.035,353.905 650.042,369.052 650.042,369.052 C650.042,369.052 647.673,376.538 647.673,376.538 C647.673,376.538 646.909,398.776 646.909,398.776 C648.073,399.177 648.58,399.052 649.358,398.926 C650.226,401.293 651.094,403.818 652.757,406.198 C655.198,409.694 659.405,410.664 663.051,407.775 C677.374,396.423 689.728,393.821 694.26,390.155 C694.26,390.155 707.944,379.086 707.944,379.086 C715.981,372.585 716.106,362.137 710.36,353.82 C710.36,353.82 702.183,341.983 702.183,341.983 C702.183,341.983 695.061,327.799 695.061,327.799 C694.096,325.878 693.155,324.009 690.648,323.176 C687.383,317.974 679.513,313.201 673.788,311.503 C673.788,311.503 675.969,309.055 675.969,309.055 C676.894,308.149 675.181,306.209 673.809,305.156 C673.809,305.156 659.099,293.875 659.099,293.875 C657.406,292.577 655.731,291.931 654.028,291.221 C652.382,288.302 649.08,287.232 645.739,286.195 C629.981,281.302 612.926,282.26 596.732,285.507 C595.828,285.688 595.629,286.254 595.273,286.766 C594.598,287.736 592.872,287.173 592.243,287.159 C590.906,287.48 589.661,288.15 590.938,289.215 C568.655,297.23 566.071,311.17 564.719,311.032 C564.309,310.99 562.975,309.845 562.726,310.142 C560.405,312.908 558.107,318.563 556.303,321.815 C559.52,321.306 561.904,323.558 561.523,325.659 C560.428,331.694 556.259,336.496 551.106,339.011 C551.106,339.011 538.137,345.343 538.137,345.343 C540.697,348.579 544.794,345.941 548.384,351.392 C549.837,353.598 551.146,356.823 549.184,359.114 C547.253,361.369 545.295,363.679 543.144,365.112 C543.588,364.756 542.558,363.754 542.49,364.057 C542.351,364.685 540.38,365.391 540.198,364.786 C539.733,363.235 539.576,362.388 538.426,362.036 C536.978,361.592 536.056,362.22 535.848,363.493 C535.681,364.517 536.811,365.654 537.77,366.326 C537.067,367.76 534.059,370.136 532.387,369.685 C532.387,369.685 529.521,368.914 529.521,368.914 C528.923,368.753 527.847,368.927 527.897,369.993 C527.897,369.993 528.345,379.496 528.345,379.496 C528.689,379.926 530.041,380.562 530.526,380.58 C531.213,380.605 531.859,379.636 532.147,379.071 C532.379,378.615 533.281,378.127 533.579,377.796 C533.912,379.649 535.491,378.785 535.282,377.508 C539.007,382.496 543.855,386.476 549.017,389.685 C547.476,390.709 548.864,391.582 549.676,391.109 C552.33,393.987 555.568,394.366 558.161,396.084 C558.161,396.084 557.635,397.449 557.635,397.449 C550.755,395.783 546.616,390.624 544.904,391.912 C544.904,391.912 536.335,385.471 536.335,385.471 C534.948,384.429 534.704,383.946 533.321,384.787 C532.153,385.497 532.151,385.963 531.69,386.97 C531.025,388.424 532.059,388.912 531.358,392.31 C531.358,392.31 527.918,388.934 527.918,388.934 C527.48,388.504 527.536,388.123 526.421,386.71 C526.421,386.71 520.449,394.334 520.449,394.334 C516.822,406.276 507.897,413.901 496.097,416.902 C494.666,414.787 491.886,416.508 490.075,416.722 C486.542,417.14 483.302,416.998 482.02,420.483 C477.587,421.611 472.157,423.062 470.162,428.115 C466.894,436.39 470.101,444.997 473.117,452.839 C473.117,452.839 481.497,474.624 481.497,474.624 C481.919,475.72 482.131,477.217 481.603,478.057 C481.289,478.558 480.055,479.002 478.939,479.364 C478.939,479.364 480.501,490.412 480.501,490.412 C481.102,494.669 479.961,499.013 479.371,503.063 C478.898,502.744 477.236,503.546 477.181,504.313 C477.181,504.313 477.183,514.783 477.183,514.783 C477.183,514.783 475.416,526.295 475.416,526.295 C474.524,532.103 475.229,537.632 475.899,543.012 C474.949,543.16 474.777,543.983 475.092,545.008 C474.587,554.449 475.316,563.775 476.325,572.905 C476.33,573.368 475.788,574.821 476.443,574.998 C476.909,575.125 477.612,574.494 477.057,573.627 C476.834,573.278 477.766,573.343 478.101,572.99 C478.198,574.025 477.878,575.081 477.631,576.065 C476.629,580.056 477.692,584.308 478.016,589.016 C478.932,588.527 479.418,588.177 480.135,588.163 C480.135,588.163 479.977,589.832 479.977,589.832 C478.141,592.346 478.362,598.528 481.07,599.044 C481.998,606.869 484.462,615.22 488.804,621.859 C491.679,626.255 499.545,626.959 501.918,628.743 C508.244,633.497 512.214,640.241 511.951,648.027 C511.951,648.027 509.448,656.478 509.448,656.478 C508.796,658.679 505.749,657.844 504.235,658.28 C504.094,657.491 503.8,657.206 503.473,656.99 C502.725,656.495 501.991,657.714 501.556,657.728 C501.556,657.728 492.075,658.015 492.075,658.015 C492.075,658.015 492.841,660.021 492.841,660.021 C492.375,660.015 491.317,660.457 490.839,659.361 C485.836,661.761 480.693,661.287 475.065,660.22 C475.065,660.22 463.92,658.107 463.92,658.107 C456.772,658.04 450.622,653.327 449.801,646.143 C449.561,643.616 449.241,640.44 448.195,637.878 C448.195,637.878 443.764,627.023 443.764,627.023 C442.945,625.017 442.463,622.473 439.818,622.032 C436.258,617.521 433.061,606.747 431.932,600.255 C431.932,600.255 431.002,594.902 431.002,594.902 C430.912,594.382 430.782,592.996 430.183,592.558 C429.795,592.274 429.289,591.542 428.573,592.917 C427.383,590.157 427.085,587.598 425.601,583.939 C424.894,585.56 422.594,582.531 425.402,583.115 C426.126,583.265 425.889,580.889 424.007,581.891 C419.536,585.924 425.104,592.584 418.912,603.034 C416.903,606.425 415.037,610.356 411.894,612.71 C410.514,613.743 411.687,613.988 411.857,614.624 C412.151,615.717 413.107,616.679 414.478,616.746 C414.478,616.746 424.57,617.242 424.57,617.242 C424.99,617.262 425.567,618.527 426.475,618.019 C426.816,617.829 427.187,617.657 427.17,616.744 C430.816,618.515 435.203,620.277 437.279,623.789 C436.029,623.143 435.15,623.334 433.871,624.049 C427.487,620.325 420.191,616.975 414.837,620.051 C413.198,620.261 415.181,625.634 414.185,624.534 C414.185,624.534 415.357,625.828 415.357,625.828 C415.861,628.268 416.154,630.748 419.136,632.149 C417.519,633.583 417.527,635.797 418.1,637.264 C418.559,638.44 419.991,640.114 421.929,640.119 C421.929,640.119 425.703,640.13 425.703,640.13 C428.095,640.137 429.555,639.685 431.449,638.977 C432.316,638.652 433.748,639.001 433.946,637.038 C434.877,636.941 434.705,636.517 434.898,636.231 C435.098,635.933 436.695,636.347 436.993,636.153 C439.373,634.61 437.388,631.334 436.192,629.347 C437.714,628.477 436.355,627.976 436.128,627.391 C435.904,626.816 435.565,625.792 434.868,625.184 C436.883,624.781 437.75,626.023 439.189,626.048 C440.818,628.949 443.235,633.817 441.677,637.643 C439.176,643.782 432.517,646.168 425.692,645.825 C426.389,649.6 429.997,650.709 432.094,652.82 C438.148,658.914 439.801,668.255 435.642,675.821 C435.642,675.821 425.18,679.985 425.18,679.985 C419.247,684.802 413.251,685.656 406.82,682.053 C403.23,684.601 398.351,684.194 394.101,683.112 C385.143,680.831 378.408,676.113 374.631,667.27 C374.631,667.27 368.769,653.548 368.769,653.548 C368.502,652.921 367.899,652.459 367.983,651.541 C368.023,651.105 366.601,650.401 365.842,651.425 C367.283,655.79 367.315,662.976 363.266,665.574 C361.095,666.967 359.137,667.917 357.695,669.527 C355.444,672.04 351.514,670.433 349.161,671.288 C346.476,672.265 345.44,674.464 341.857,674.065 C338.746,673.719 335.58,674.538 332.801,673.46 C333.687,672.992 334.757,673.427 336.224,672.99 C334.108,670.24 331.06,671.466 328.828,670.526 C323.793,668.407 319.236,666.198 314.023,665.17 C314.023,665.17 287.993,660.037 287.993,660.037 C282.016,658.859 275.016,660.288 269.759,656.017 C269.759,656.017 265.8,652.8 265.8,652.8 C263.198,650.686 260.695,649.452 257.01,649.892 C257.073,649.637 257.145,648.589 256.808,648.042 C256.808,648.042 245.421,647.589 245.421,647.589 C242.556,647.475 239.215,646.43 237.042,647.911 C236.309,647.964 235.38,648.051 234.932,647.202 C236.564,646.267 235.166,645.541 234.388,645.669 C231.323,644.757 228.703,643.859 225.695,644.446 C213.36,639.44 202.808,630.084 197.823,617.902 C198.508,617.924 198.918,617.734 199.049,617.396 C199.231,616.93 198.584,616.156 198.145,615.716 C197.047,614.039 196.115,611.584 195.532,609.509 C195.532,609.509 193.52,602.348 193.52,602.348 C193.52,602.348 193.107,581.683 193.107,581.683 C193.1,581.307 194.541,580.361 194.062,579.54 C193.417,578.435 193.265,579.68 192.085,579.819 C194.073,573.414 196.204,565.394 199.55,560.749 C200.521,561.047 200.959,560.67 201.909,559.946 C201.909,559.946 202.026,575.024 202.026,575.024 C202.026,575.024 203.746,574.216 203.746,574.216 C204.686,590.917 214.816,609.306 230.668,614.73 C232.731,615.436 236.299,617.497 238.315,615.184 C237.395,613.724 235.845,611.742 236.609,610.26 C229.18,590.107 230.964,568.561 239.83,548.929 C239.83,548.929 246.815,533.852 246.815,533.852 C246.815,533.852 253.047,522.966 253.047,522.966 C253.047,522.966 265.071,500.074 265.071,500.074 C273.828,483.399 287.427,472.021 300.997,459.02 C300.997,459.02 321.918,438.81 321.918,438.81 C323.586,431.23 327.661,425.339 332.099,418.741 C336.844,413.851 341.139,409.012 342.358,402.15 C334.138,396.418 329.392,388.477 323.621,381.419 C320.634,377.765 319.311,376.432 320.546,371.428 C322.782,362.365 326.271,354.026 332.604,346.578 C332.604,346.578 341.407,331.231 341.407,331.231 C342.957,325.2 346.816,319.973 353.007,317.513 C358.418,309.47 364.055,301.583 371.821,294.81 C382.472,287.211 394.442,281.518 406.965,279.562 Z M426.029,282.659 C426.012,282.54 425.874,282.217 425.497,282.022 C425.497,282.022 417.971,282.341 417.971,282.341 C417.988,282.46 418.126,282.783 418.503,282.978 C420.987,282.953 423.548,283.326 426.029,282.659 Z M544.402,354.502 C545.837,354.995 546.33,352.979 545.017,353.049 C540.425,350.203 535.147,348.633 530.33,350.14 C529.537,350.574 528.933,353.049 529.586,352.9 C530.258,352.746 531.977,353.417 532.544,353.989 C535.836,353.452 539.368,354.382 540.858,357.908 C541.227,358.78 543.881,358.236 543.874,357.385 C543.868,356.767 543.821,356.386 544.402,354.502 Z M510.637,366.421 C512.864,364.92 512.199,363.214 512.139,360.997 C513.217,362.013 514.583,362.751 515.417,362.061 C515.417,362.061 517.401,360.422 517.401,360.422 C518.073,359.867 519.738,360.27 520.682,359.417 C521.291,358.867 520.7,357.251 519.606,356.939 C519.606,356.939 517.059,356.213 517.059,356.213 C515.887,358.233 514.373,358.435 512.342,358.391 C510.793,358.594 509.843,358.269 509.11,358.626 C507.85,359.24 507.643,360.778 507.062,362.168 C507.062,362.168 506.146,364.36 506.146,364.36 C505.872,365.016 506.76,365.902 507.7,365.607 C508.057,363.854 509.608,363.985 510.637,366.421 Z M593.687,552.242 C591.754,550.748 592.145,549.992 591.935,548.771 C590.391,549.695 590.764,551.052 591.452,552.012 C592.011,552.792 592.714,553.383 593.687,552.242 Z M197.487,579.912 C197.382,579.388 196.798,578.927 196.524,579.033 C193.797,580.094 195.063,593.918 195.591,603.484 C196.681,604.552 197.369,603.429 198.12,603.295 C198.39,603.774 197.97,604.611 197.596,604.956 C196.116,606.32 199.726,614.39 202.09,616.215 C204.883,618.37 205.63,623.534 209.694,624.626 C208.802,620.983 206.516,618.174 206.406,614.092 C209.712,618.216 213.247,623.761 212.229,626.88 C214.403,626.941 214.199,628.554 214.609,629.198 C215.432,627.303 216.184,626.103 217.497,626.052 C220.826,625.922 222.829,633.702 226.039,632.345 C228.571,631.274 229.608,633.085 231.469,633.96 C231.59,631.292 233.031,631.594 233.3,633.608 C233.711,634.16 234.765,635.024 234.752,635.519 C234.731,636.309 233.631,636.385 233.497,635.988 C233.376,635.629 232.306,634.732 232.129,635.028 C231.539,636.805 233.596,638.53 235.208,638.814 C234.24,640.026 233.91,640.471 234.243,641.943 C234.243,641.943 247.08,642.351 247.08,642.351 C248.495,642.765 248.264,641.76 248.123,641.207 C247.869,640.203 247.519,638.889 245.581,639.213 C247.233,636.352 244.418,635.521 243.888,634.339 C242.463,631.16 242.459,628.168 240.67,625.686 C239.92,626.338 240.02,626.881 240.055,627.012 C240.055,627.012 239.246,626.95 239.246,626.95 C240.009,625.3 239.507,623.486 238.416,622.131 C215.245,619.784 199.695,595.978 199.138,575.04 C196.853,576.491 198.286,578.788 197.487,579.912 Z M415.518,597.26 C416.746,594.857 417.137,592.416 416.748,589.605 C413.281,591.867 409.282,595.182 408.054,598.76 C406.973,601.908 408.613,605.008 410.877,606.339 C410.877,606.339 415.518,597.26 415.518,597.26 Z M699.971,624.954 C698.101,624.114 697.502,626.506 699.756,626.151 C700.857,626.45 701.242,625.08 699.971,624.954 Z M361.064,640.84 C360.753,638.268 360.116,636.477 358.983,633.763 C358.983,633.763 353.239,637.052 353.239,637.052 C353.239,637.052 361.064,640.84 361.064,640.84 Z M505.301,646.79 C504.522,648.182 505.301,648.843 505.916,649.541 C506.484,650.187 506.996,649.805 506.994,649.416 C506.994,649.416 506.986,647.494 506.986,647.494 C506.984,647.014 505.565,646.317 505.301,646.79 Z M366.121,649.136 C366.121,648.593 365.68,648.152 365.136,648.152 C364.593,648.152 364.152,648.593 364.152,649.136 C364.152,649.68 364.593,650.121 365.136,650.121 C365.68,650.121 366.121,649.68 366.121,649.136 Z M663.018,678.873 C661.975,677.152 660.233,677.758 659.83,678.934 C661.049,679.4 662.086,679.328 663.018,678.873 Z " fill="#FFFFFF" />
  <path d="M796.133,622.219 C794.21,625.132 789.939,626.036 786.363,624.819 C784.104,628.339 781.517,628.299 777.393,627.368 C776.655,624.873 780.102,622.487 780.457,620.558 C780.363,617.027 780.248,612.676 783.249,610.546 C784.65,613.7 781.863,613.14 782.473,615.19 C782.699,615.946 784.06,615.949 784.278,615.443 C783.014,613.055 784.719,612.123 785.843,611.036 C786.335,610.56 785.979,608.498 786.485,608.292 C787.136,608.027 788.578,606.875 789.178,607.715 C788.83,612.46 785.257,614.763 783.768,619.673 C787.448,618.593 788.855,614.873 791.466,611.957 C791.892,611.481 792.973,613.838 793.58,613.708 C795.422,613.314 798.127,610.406 797.86,612.687 C797.79,613.278 796.701,614.16 797.2,615.838 C797.2,615.838 804.551,609.734 804.551,609.734 C804.551,609.734 803.501,614.967 803.501,614.967 C801.154,616.134 798.339,617.329 797.404,620.227 C796.305,619.44 795.402,620.125 795.175,620.385 C794.981,620.608 794.534,620.777 794.555,621.401 C794.57,621.844 795.352,622.272 796.133,622.219 Z M792.971,617.954 C791.101,617.114 790.502,619.506 792.756,619.151 C793.857,619.45 794.242,618.08 792.971,617.954 Z " fill="#FFFFFF" />
  <path d="M498.911,400.668 C500.533,401.301 499.48,402.534 498.176,402.781 C497.224,402.892 495.7,402.988 495.543,403.5 C495.443,403.826 495.455,404.394 495.749,404.567 C496.042,404.738 496.948,404.638 497.387,404.051 C497.871,403.403 499.339,403.943 499.142,404.976 C499.142,404.976 488.09,408.649 488.09,408.649 C474.615,413.128 469.906,403.269 459.106,406.717 C457.884,406.551 457.639,403.026 458.896,402.442 C459.749,402.046 460.902,400.33 462.692,400.205 C466.696,399.924 470.844,403.038 475.441,403.616 C480.595,404.265 486.703,405.321 491.546,403.563 C491.546,403.563 498.911,400.668 498.911,400.668 Z " fill="#FFFFFF" />
  <path d="M340.078,539.131 C340.078,539.131 337.173,559.098 337.173,559.098 C340.449,561.185 341.575,564.01 343.75,566.356 C343.75,566.356 345.549,568.296 345.549,568.296 C346.038,568.823 345.575,569.687 345.072,569.807 C345.072,569.807 342.294,570.473 342.294,570.473 C342.203,572.221 343.458,574.711 344.208,575.966 C341.87,575.296 339.447,569.06 339.435,568.745 C339.386,567.427 340.448,566.846 342.45,567.003 C340.642,563.932 338.96,562.196 335.838,559.546 C336.078,556.687 337.779,553.423 336.764,550.071 C336.207,549.518 334.281,551.254 334.614,552.268 C334.774,552.759 335.517,553.248 334.336,554.181 C332.755,550.855 336.501,544.936 336.025,538.087 C336.816,538.129 337.79,538.431 338.456,540.129 C338.754,539.504 339.413,539.036 340.078,539.131 Z " fill="#FFFFFF" />
  <path d="M710.255,563.148 C708.742,562.682 708.17,561.172 708.123,560.03 C709.766,559.73 710.011,557.78 709.789,555.926 C709.789,555.926 706.795,531.006 706.795,531.006 C712.722,540.77 715.123,554.934 710.255,563.148 Z " fill="#FFFFFF" />
  <path d="M653.998,583.153 C653.721,583.372 653.13,583.198 653.122,582.847 C653.122,582.847 652.772,565.991 652.772,565.991 C652.772,565.991 651.278,565.995 651.278,565.995 C651.278,565.995 650.569,582.283 650.569,582.283 C650.534,583.104 649.77,584.455 648.738,582.989 C648.738,582.989 649.618,577.562 649.618,577.562 C649.618,577.562 649.782,564.872 649.782,564.872 C649.834,560.833 649.027,557.225 650.933,552.83 C652.109,554.939 653.54,557.49 653.582,559.795 C653.582,559.795 653.998,583.153 653.998,583.153 Z " fill="#FFFFFF" />
  <path d="M397.555,345.779 C396.763,346.699 395.771,347.016 395.501,348.999 C395.501,348.999 392.001,341.881 392.001,341.881 C393.062,342.726 393.281,342.851 394.043,342.537 C395.012,342.137 395.715,341.463 394.796,340.686 C394.796,340.686 393.618,339.689 393.618,339.689 C396.1,338.414 395.768,335.91 396.725,333.906 C396.725,333.906 399.762,327.548 399.762,327.548 C400.264,325.821 402.251,325.763 402.367,327.815 C399.74,331.882 400.667,336.542 399.378,340.056 C398.641,342.065 397.352,343.982 397.555,345.779 Z " fill="#FFFFFF" />
  <path d="M472.267,572.843 C472.267,572.843 471.561,556.368 471.561,556.368 C471.561,556.368 470.511,545.506 470.511,545.506 C470.511,545.506 469.173,533.058 469.173,533.058 C470.765,534.351 470.414,536.537 471,539.111 C471,539.111 472.668,546.437 472.668,546.437 C472.668,546.437 473.031,572.673 473.031,572.673 C473.031,572.673 472.267,572.843 472.267,572.843 Z " fill="#FFFFFF" />
  <path d="M439.337,576.81 C439.337,576.81 436.597,582.381 436.597,582.381 C435.578,584.453 433.655,587.091 435.221,590.105 C431.89,590.154 433.837,587.351 431.929,583.96 C433.214,582.582 434.316,581.056 433.713,578.758 C433.271,577.071 437.735,575.755 439.337,576.81 Z " fill="#FFFFFF" />
  <path d="M708.761,655.604 C708.497,655.197 707.847,653.791 707.306,654.395 C707.033,654.699 706.252,655.201 705.933,655.451 C705.484,650.585 707.775,646.397 711.477,643.071 C713.311,645.248 711.078,647.072 710.348,648.931 C709.413,651.311 710.192,654.053 708.761,655.604 Z " fill="#FFFFFF" />
  <path d="M422.158,675.489 C422.636,670.463 421.051,666.608 418.81,661.087 C423.312,663.601 426.61,668.593 426.502,674.252 C429.103,673.84 431.429,671.712 431.752,670.196 C433.369,662.622 429.49,657.495 424.779,653.111 C432.643,654.891 435.945,669.195 430.832,673.532 C429.633,674.549 426.772,676.471 425.239,673.568 C424.635,672.427 425.822,669.472 422.963,668.838 C423.012,671.379 423.768,673.8 422.158,675.489 Z " fill="#FFFFFF" />
  <path d="M486.926,414.07 C487.199,415.495 481.567,417.024 476.811,417.934 C476.811,417.934 463.955,420.396 463.955,420.396 C462.073,420.756 460.692,420.17 459.687,421.832 C458.854,423.209 455.171,422.475 453.761,420.913 C457.701,418.316 461.657,419.004 465.986,418.159 C465.986,418.159 486.926,414.07 486.926,414.07 Z " fill="#FFFFFF" />
  <path d="M576.927,637.915 C576.927,637.915 579.995,627.956 579.995,627.956 C581.348,623.699 581.366,618.489 583.229,614.84 C584.158,615.042 584.34,615.978 584.108,616.509 C584.108,616.509 583.063,618.893 583.063,618.893 C583.495,621.945 582.115,624.651 581.396,627.648 C580.693,630.574 580.736,636.683 576.927,637.915 Z " fill="#FFFFFF" />
  <path d="M659.989,338.061 C659.989,338.061 659.931,323.782 659.931,323.782 C659.931,323.782 658.897,321.545 658.897,321.545 C658.619,320.944 658.894,320.171 660.186,319.999 C662.824,325.416 663.103,334.729 659.989,338.061 Z " fill="#FFFFFF" />
  <path d="M470.015,462.15 C468.657,459.358 467.502,456.531 466.758,453.269 C466.758,453.269 464.655,444.048 464.655,444.048 C467.235,443.817 466.683,450.555 470.008,458.04 C470.008,458.04 471.084,460.46 471.084,460.46 C471.373,461.112 471.067,462.017 470.015,462.15 Z " fill="#FFFFFF" />
  <path d="M197.487,579.912 C195.098,583.275 195.099,597.924 198.12,603.295 C197.369,603.429 196.681,604.552 195.591,603.484 C195.063,593.918 193.797,580.094 196.524,579.033 C196.798,578.927 197.382,579.388 197.487,579.912 Z " fill="#FFFFFF" />
  <path d="M649.358,398.926 C648.58,399.052 648.073,399.177 646.909,398.776 C646.909,398.776 647.673,376.538 647.673,376.538 C647.673,376.538 650.042,369.052 650.042,369.052 C650.042,369.052 655.035,353.905 655.035,353.905 C655.723,351.819 656.961,349.457 657.978,348.023 C658.206,352.458 655.393,356.441 654.052,360.819 C654.052,360.819 651.843,368.033 651.843,368.033 C648.681,378.356 646.479,388.74 649.358,398.926 Z " fill="#FFFFFF" />
  <path d="M716.914,631.384 C709.049,629.371 707.158,629.648 698.286,632.904 C702.126,629.259 706.858,628.483 713.133,628.975 C714.918,629.115 716.786,628.991 716.914,631.384 Z " fill="#FFFFFF" />
  <path d="M360,616.744 C360.062,618.517 361.519,620.141 362.01,621.911 C362.01,621.911 365.367,634.018 365.367,634.018 C365.168,635.011 364.016,635.365 363.503,634.989 C364.298,635.572 358.702,614.851 357.939,616.585 C358.46,615.401 358.723,616.637 360,616.744 Z " fill="#FFFFFF" />
  <path d="M543.144,365.112 C543.144,365.112 534.443,370.911 534.443,370.911 C533.642,372.406 534.097,375.921 535.282,377.508 C535.491,378.785 533.912,379.649 533.579,377.796 C533.281,378.127 532.379,378.615 532.147,379.071 C532.147,379.071 531.878,374.959 531.878,374.959 C531.815,373.27 532.024,371.723 531.018,370.498 C530.486,369.851 528.79,369.841 527.897,369.993 C527.847,368.927 528.923,368.753 529.521,368.914 C529.521,368.914 532.387,369.685 532.387,369.685 C534.059,370.136 537.067,367.76 537.77,366.326 C536.811,365.654 535.681,364.517 535.848,363.493 C536.056,362.22 536.978,361.592 538.426,362.036 C539.576,362.388 539.733,363.235 540.198,364.786 C540.38,365.391 542.351,364.685 542.49,364.057 C542.558,363.754 543.588,364.756 543.144,365.112 Z " fill="#FFFFFF" />
  <path d="M653.913,585.998 C653.913,585.998 652.021,597.997 652.021,597.997 C650.926,597.92 650.676,596.919 651.288,596.08 C651.787,591.483 651.225,587.625 652.45,583.751 C652.804,585.32 653.055,585.911 653.913,585.998 Z " fill="#FFFFFF" />
  <path d="M654.703,323.641 C654.505,324.711 654.72,325.597 655.951,326.943 C654.33,327.706 653.925,326.558 653.538,325.811 C653.245,325.245 652.961,324.58 652.828,322.77 C651.68,323.635 651.616,324.733 652.093,326.024 C652.093,326.024 652.64,327.504 652.64,327.504 C652.787,327.902 652.072,328.316 651.484,328.118 C650.794,325.411 649.048,322.572 650.678,319.35 C653.131,320.742 653.5,322.443 654.703,323.641 Z " fill="#FFFFFF" />
  <path d="M359.946,615.2 C359.048,614.866 358.088,613.575 357.853,612.177 C356.869,606.318 353.251,602.738 355.92,601.897 C355.92,601.897 358.23,608.103 358.23,608.103 C359.073,610.369 360.854,612.738 359.946,615.2 Z " fill="#FFFFFF" />
  <path d="M408.233,622.287 C408.233,622.287 404.876,608.996 404.876,608.996 C406.939,609.019 409.873,618.731 408.233,622.287 Z " fill="#FFFFFF" />
  <path d="M780.87,589.022 C780.87,589.022 781.335,584.349 781.335,584.349 C782.989,580.286 781.727,576.479 780.995,572.794 C780.995,572.794 782.973,571.978 782.973,571.978 C782.973,571.978 782.774,586.723 782.774,586.723 C782.769,587.097 781.836,588.105 781.928,588.465 C782.021,588.825 781.505,589.34 780.87,589.022 Z " fill="#FFFFFF" />
  <path d="M400.267,383.194 C399.148,381.548 398.544,380.043 398.045,377.966 C398.045,377.966 395.412,367.004 395.412,367.004 C398.554,369.044 398.093,373.438 399.141,376.325 C400.643,378.826 400.139,381.452 400.267,383.194 Z " fill="#FFFFFF" />
  <path d="M327.958,615.982 C327.606,613.195 327.981,609.669 328.866,606.72 C329.601,604.841 331.246,607.131 329.741,607.731 C330.88,611.125 330.336,615.232 329.45,617.97 C328.919,618.244 328.268,618.109 327.893,617.644 C327.518,617.179 327.523,616.514 327.958,615.982 Z " fill="#FFFFFF" />
  <path d="M341.08,668.332 C335.938,670.308 330.464,667.657 325.048,666.008 C325.048,666.008 307.94,660.798 307.94,660.798 C299.761,658.307 291.754,658.117 287.918,655.935 C287.769,654.904 289.051,654.703 289.217,655.944 C293.957,655.724 298.352,656.894 302.996,658.141 C302.996,658.141 317.056,661.916 317.056,661.916 C317.056,661.916 329.981,666.154 329.981,666.154 C333.843,667.42 337.383,668.627 341.08,668.332 Z " fill="#FFFFFF" />
  <path d="M682.81,659.955 C681.85,657.061 683.953,653.743 684.015,646.959 C685.056,647.112 685.163,647.879 685.073,648.919 C685.073,648.919 684.25,658.387 684.25,658.387 C684.158,659.436 683.695,660.112 682.81,659.955 Z " fill="#FFFFFF" />
  <path d="M756.168,519.051 C756.168,519.051 750.885,505.63 750.885,505.63 C754.341,509.316 757.852,516.921 756.168,519.051 Z " fill="#FFFFFF" />
  <path d="M202.09,616.215 C199.726,614.39 196.116,606.32 197.596,604.956 C199.655,608.549 201.939,612.854 202.09,616.215 Z " fill="#FFFFFF" />
  <path d="M707.185,559.969 C706.319,560.135 705.733,560.398 705.2,560.778 C704.507,561.272 704.833,563.279 704.587,564.006 C704.587,564.006 701.383,573.468 701.383,573.468 C701.383,573.468 700.287,581.067 700.287,581.067 C700.287,581.067 700.613,571.845 700.613,571.845 C700.613,571.845 704.656,556.575 704.656,556.575 C706.89,557.03 707.249,558.709 707.185,559.969 Z " fill="#FFFFFF" />
  <path d="M404.097,675.706 C404.687,675.848 405.261,676.927 405.015,677.436 C404.859,677.757 404.246,678.718 403.661,678.781 C393.615,679.862 393.669,677.626 390.074,676.061 C390.074,676.061 399.952,678.101 399.952,678.101 C402.132,678.59 403.738,677.492 404.097,675.706 Z " fill="#FFFFFF" />
  <path d="M410.02,632.137 C410.02,632.137 407.934,623.806 407.934,623.806 C408.58,623.517 409.569,623.004 409.92,623.616 C410.289,627.025 411.213,629.916 410.02,632.137 Z " fill="#FFFFFF" />
  <path d="M554.145,656.645 C554.779,656.617 555.115,657.217 554.969,657.489 C554.81,657.784 554.018,658.837 553.726,658.835 C553.726,658.835 544.335,658.776 544.335,658.776 C543.448,658.77 542.761,657.108 542.965,656.541 C543.083,656.213 543.22,655.819 543.824,655.829 C544.69,658.927 549.359,658.694 554.145,656.645 Z " fill="#FFFFFF" />
  <path d="M339.722,577.311 C338.66,574.898 335.35,571.09 335.909,569.493 C336.235,568.563 336.507,567.237 338.014,566.527 C338.327,567.851 337.632,568.989 336.8,570.039 C338.784,571.978 339.704,574.795 339.722,577.311 Z " fill="#FFFFFF" />
  <path d="M647.902,615.874 C645.91,612.964 646.797,607.664 649.315,608.033 C649.195,610.66 648.885,613.605 647.902,615.874 Z " fill="#FFFFFF" />
  <path d="M283.248,654.465 C282.536,654.806 281.821,655.578 281.455,655.877 C280.31,654.31 277.191,655.246 276.031,654.994 C276.031,654.994 268.906,648.866 268.906,648.866 C269.063,648.895 269.531,649.105 270.405,648.621 C273.252,653.467 278.247,654.092 283.248,654.465 Z " fill="#FFFFFF" />
  <path d="M651.376,601.284 C651.376,601.284 649.929,607.086 649.929,607.086 C648.342,605.846 648.734,602.902 650.078,600.704 C649.228,598.441 652.473,598.927 651.376,601.284 Z " fill="#FFFFFF" />
  <path d="M646.792,617.332 C648.521,619.696 647.595,621.89 646.17,623.086 C645.641,621.555 645.622,619.181 646.792,617.332 Z " fill="#FFFFFF" />
  <path d="M426.029,282.659 C423.548,283.326 420.987,282.953 418.503,282.978 C418.126,282.783 417.988,282.46 417.971,282.341 C417.971,282.341 425.497,282.022 425.497,282.022 C425.874,282.217 426.012,282.54 426.029,282.659 Z " fill="#FFFFFF" />
  <path d="M482.291,312.821 C475.325,303.532 469.178,295.151 456.859,291.074 C456.859,291.074 446.918,287.783 446.918,287.783 C447.109,286.803 447.903,286.961 448.514,286.937 C449.245,286.91 449.899,286.945 450.143,288.028 C462.517,290.582 472.341,297.177 479.274,307.808 C480.262,309.323 483.294,310.827 482.291,312.821 Z " fill="#FFFFFF" />
  <path d="M294.095,474.312 C293.144,472.54 295.708,470.287 297.269,470.077 C296.244,471.353 295.736,473.411 294.095,474.312 Z " fill="#FFFFFF" />
  <path d="M303.266,465.139 C303.266,465.139 301.106,467.275 301.106,467.275 C299.477,466.463 300.542,465.689 301.439,464.95 C301.985,464.501 302.62,463.389 303.266,465.139 Z " fill="#FFFFFF" />
  <path d="M593.687,552.242 C592.714,553.383 592.011,552.792 591.452,552.012 C590.764,551.052 590.391,549.695 591.935,548.771 C592.145,549.992 591.754,550.748 593.687,552.242 Z " fill="#FFFFFF" />
  <path d="M643.585,606.895 C643.585,606.895 648.123,585.059 648.123,585.059 C650.289,588.589 648.538,592.237 647.301,596.252 C646.658,598.336 647.24,602.578 645.089,603.707 C644.604,603.962 644.942,606.06 645.026,606.441 C645.11,606.823 644.314,607.385 643.585,606.895 Z " fill="#FFFFFF" />
  <path d="M329.868,590.692 C328.702,590.553 327.027,589.465 324.786,590.346 C324.786,590.346 328.525,601.104 328.525,601.104 C328.525,601.104 329.04,603.483 329.04,603.483 C329.204,604.243 329.016,605.132 328.006,605.188 C328.014,603.031 327.013,601.164 326.534,599.17 C324.613,591.182 318.78,585.108 313.515,578.182 C319.256,578.996 323.969,588.854 324.165,584.195 C324.203,583.295 315.125,568.104 304.131,563.773 C299.858,562.089 296.692,558.464 293.22,555.847 C293.522,550.277 299.919,559.415 309.007,563.853 C317.739,568.118 323.566,575.551 328.299,583.634 C328.299,583.634 332.04,590.023 332.04,590.023 C334.48,589.016 334.555,592.431 332.528,591.998 C331.354,591.747 331.518,590.648 331.295,590.396 C330.793,589.829 330.276,590.702 329.868,590.692 Z " fill="#FFFFFF" />
  <path d="M403.967,608.179 C403.387,603.138 399.556,597.593 400.144,591.668 C401.8,593.678 405.051,606.949 405.054,606.502 C405.05,607.166 405.15,607.974 403.967,608.179 Z " fill="#FFFFFF" />
  <path d="M822.041,554.821 C822.153,555.488 821.822,556.043 821.165,556.076 C820.447,556.13 819.677,555.689 819.958,554.553 C820.254,553.358 820.733,554.621 822.041,554.821 Z " fill="#FFFFFF" />
  <path d="M663.018,678.873 C662.086,679.328 661.049,679.4 659.83,678.934 C660.233,677.758 661.975,677.152 663.018,678.873 Z " fill="#FFFFFF" />
  <path d="M654.028,291.221 C654.028,291.221 644.038,287.057 644.038,287.057 C626.03,282.131 607.794,283.152 590.938,289.215 C589.661,288.15 590.906,287.48 592.243,287.159 C592.872,287.173 594.598,287.736 595.273,286.766 C595.629,286.254 595.828,285.688 596.732,285.507 C612.926,282.26 629.981,281.302 645.739,286.195 C649.08,287.232 652.382,288.302 654.028,291.221 Z " fill="#FFFFFF" />
  <path d="M416.654,645.547 C413.515,642.626 410.97,638.552 410.875,633.958 C410.517,632.63 412.6,632.871 411.542,634.107 C413.544,634.816 412.71,637.182 413.105,637.937 C414.422,640.459 416.441,642.836 416.654,645.547 Z " fill="#FFFFFF" />
  <path d="M367.266,640.098 C366.696,639.757 365.367,639.371 365.032,638.468 C364.689,637.546 364.75,636.323 365.963,636.105 C365.696,637.711 366.11,638.8 367.266,640.098 Z " fill="#FFFFFF" />
  <path d="M544.904,391.912 C546.616,390.624 550.755,395.783 557.635,397.449 C557.635,397.449 558.161,396.084 558.161,396.084 C555.568,394.366 552.33,393.987 549.676,391.109 C548.864,391.582 547.476,390.709 549.017,389.685 C570.209,402.86 582.443,391.844 585.973,393.395 C587.976,394.276 590.416,397.468 589.643,399.148 C589.346,399.793 587.896,399.936 587.122,399.359 C583.819,396.892 582.311,398.911 579.696,399.449 C565.12,402.45 555.094,399.571 544.904,391.912 Z " fill="#FFFFFF" />
  <path d="M437.279,623.789 C437.791,623.808 438.922,623.971 438.989,624.49 C438.989,624.49 439.189,626.048 439.189,626.048 C437.75,626.023 436.883,624.781 434.868,625.184 C435.565,625.792 435.904,626.816 436.128,627.391 C436.355,627.976 437.714,628.477 436.192,629.347 C431.94,622.281 423.115,619.698 414.837,620.051 C420.191,616.975 427.487,620.325 433.871,624.049 C435.15,623.334 436.029,623.143 437.279,623.789 Z " fill="#FFFFFF" />
  <path d="M675.972,672.047 C679.478,669.866 681.465,664.966 682.12,660.925 C685.039,663.902 681.136,668.731 676.366,673.064 C675.824,672.579 675.836,672.175 675.972,672.047 Z " fill="#FFFFFF" />
  <path d="M633.212,672.042 C632.864,671.701 631.214,671.923 631.216,670.581 C631.216,670.581 631.231,660.181 631.231,660.181 C631.232,659.715 632.569,659.431 632.867,659.666 C633.166,659.901 633.306,658.155 633.111,657.797 C635.767,659.286 629.346,665.116 633.212,672.042 Z " fill="#FFFFFF" />
  <path d="M557.925,536.706 C555.53,542.69 555.722,549.2 555.536,555.501 C555.536,555.501 555.078,571.074 555.078,571.074 C555.047,572.11 555.071,572.843 553.999,573.013 C553.999,573.013 554.515,549.409 554.515,549.409 C554.515,549.409 555.492,538.842 555.492,538.842 C555.535,538.37 556.072,536.587 556.382,536.153 C556.654,535.773 557.591,536.729 557.925,536.706 Z " fill="#FFFFFF" />
  <path d="M559.692,526.905 C559.692,526.905 558.925,504.914 558.925,504.914 C558.925,504.914 557.859,502.003 557.859,502.003 C558.694,502.206 558.107,500.59 559.699,499.997 C559.699,499.997 560.304,514.91 560.304,514.91 C560.47,519.001 561.878,523.496 559.692,526.905 Z " fill="#FFFFFF" />
  <path d="M581.245,416.22 C580.303,416.23 580.102,416.175 578.915,417.393 C580.901,411.593 571.774,413.374 573.62,410.762 C588.059,416.606 597.836,412.229 592.465,416.095 C592.465,416.095 581.245,416.22 581.245,416.22 Z " fill="#FFFFFF" />
  <path d="M559.987,528.814 C559.987,528.814 558.78,532.122 558.78,532.122 C557.958,531.832 557.843,531.142 557.91,529.566 C557.959,528.418 558.369,527.587 559.987,528.814 Z " fill="#FFFFFF" />
  <path d="M542.284,401.948 C542.284,401.948 553.851,406.671 553.851,406.671 C553.851,406.671 563.103,408.468 563.103,408.468 C566.495,409.126 570.731,409.592 573.62,410.762 C571.774,413.374 580.901,411.593 578.915,417.393 C580.102,416.175 580.303,416.23 581.245,416.22 C578.416,417.95 583.275,419.499 582.785,423.028 C582.561,424.64 582.456,427.354 584.148,428.048 C584.171,428.423 583.993,428.677 583.985,429.044 C582.924,428.838 581.769,429.14 581.021,429.748 C580.048,430.539 578.942,429.553 578.453,429.14 C578.127,428.865 577.641,430.736 578.031,431.048 C575.217,429.905 577.38,433.285 575.131,438.175 C575.131,438.175 567.204,455.41 567.204,455.41 C567.037,455.775 567.656,456.271 567.841,456.519 C568.026,456.767 567.123,457.643 566.384,457.766 C566.159,459.312 567.554,460.871 566.104,462.817 C567.688,462.498 568.552,464.067 568.324,464.95 C565.268,468.071 564.003,471.222 563.055,474.983 C563.055,474.983 558.507,493.019 558.507,493.019 C558.507,493.019 557.859,502.003 557.859,502.003 C557.859,502.003 558.925,504.914 558.925,504.914 C558.925,504.914 559.692,526.905 559.692,526.905 C559.708,527.367 560.196,528.241 559.987,528.814 C558.369,527.587 557.959,528.418 557.91,529.566 C557.843,531.142 557.958,531.832 558.78,532.122 C558.78,532.122 557.925,536.706 557.925,536.706 C557.591,536.729 556.654,535.773 556.382,536.153 C556.072,536.587 555.535,538.37 555.492,538.842 C555.492,538.842 554.515,549.409 554.515,549.409 C554.515,549.409 553.999,573.013 553.999,573.013 C553.999,573.013 554.361,577.29 554.361,577.29 C553.25,575.208 552.232,577.118 552.916,577.899 C553.063,580.939 553.894,583.767 551.007,585.164 C551.007,585.164 551.313,554.429 551.313,554.429 C551.313,554.429 553.046,547.087 553.046,547.087 C552.616,540.84 553.3,535.507 556.337,530.261 C554.968,529.839 554.497,530.827 554.089,530.782 C554.089,530.782 556.423,525.092 556.423,525.092 C558.092,521.025 556.236,516.813 555.674,512.067 C555.096,512.593 554.56,512.858 553.946,512.822 C554.086,509.947 554.601,506.972 552.853,504.075 C551.529,501.881 552.24,498.351 552.747,495.794 C552.747,495.794 554.777,485.557 554.777,485.557 C554.777,485.557 556.545,479.191 556.545,479.191 C557.467,475.871 559.688,472.485 556.665,469.028 C555.524,467.722 557.057,464.86 557.895,463.059 C557.895,463.059 567.791,441.767 567.791,441.767 C571.624,433.52 574.867,425.591 569.407,418.353 C567.719,416.114 563.394,414.92 560.18,413.76 C560.258,411.995 559.315,412.186 558.052,411.466 C557.066,410.904 555.711,410.357 555.167,411.951 C554.373,411.665 553.533,411.703 553.044,411.338 C554.455,410.782 553.707,410.275 553.495,409.866 C553.397,409.678 534.127,406.372 530.757,391.087 C535.225,394.832 536.978,399.782 542.284,401.948 Z M579.727,420.71 C579.82,419.233 579.215,418.065 578.372,416.795 C578.533,417.529 577.209,418.403 576.611,418.162 C576.255,418.018 576.28,417.172 574.933,417.273 C575.714,419.588 575.618,422.233 577.564,423.913 C577.625,423.562 577.759,421.627 578.358,421.354 C578.77,421.166 579.616,422.486 579.727,420.71 Z " fill="#FFFFFF" />
  <path d="M459.409,350.899 C456.617,351.87 453.039,352.861 450.949,350.046 C450.255,349.112 450.035,347.841 449.439,347.673 C448.238,347.336 447.992,348.857 447.573,349.279 C446.312,350.553 444.961,354.209 441.338,354.117 C442.798,347.67 450.181,337.659 455.517,337.837 C460.045,337.988 461.408,346.551 459.409,350.899 Z " fill="#FFFFFF" />
  <path d="M459.409,350.899 C458.389,353.118 454.627,354.711 452.869,353.487 C450.754,352.015 449.884,349.758 447.573,349.279 C447.992,348.857 448.238,347.336 449.439,347.673 C450.035,347.841 450.255,349.112 450.949,350.046 C453.039,352.861 456.617,351.87 459.409,350.899 Z " fill="#FFFFFF" />
  <path d="M607.122,338.045 C608.377,339.08 611.444,341.645 610.471,343.58 C607.844,345.22 603.725,337.917 602.73,340.359 C602.73,340.359 601.741,342.788 601.741,342.788 C598.366,345.637 593.894,344.023 590.914,340.93 C588.661,338.591 590.547,336.18 591.588,333.832 C592.626,335.653 593.632,334.137 593.049,333.443 C594.654,331.422 595.584,330.913 597.483,330.923 C598.844,330.931 599.769,331.982 600.948,332.955 C600.948,332.955 607.122,338.045 607.122,338.045 Z " fill="#FFFFFF" />
  <path d="M607.122,338.045 C607.122,338.045 600.948,332.955 600.948,332.955 C599.769,331.982 598.844,330.931 597.483,330.923 C595.584,330.913 594.654,331.422 593.049,333.443 C593.632,334.137 592.626,335.653 591.588,333.832 C592.64,331.462 596.073,327.162 599.04,329.987 C599.04,329.987 607.122,338.045 607.122,338.045 Z " fill="#FFFFFF" />
  <path d="M328.208,445.675 C328.108,448.317 324.976,446.933 326.924,445.245 C326.656,443.684 329.04,443.91 328.208,445.675 Z " fill="#FFFFFF" />
  <path d="M716.725,604.35 C717.74,603.343 718.589,604.171 718.533,604.656 C718.483,605.098 718.042,605.749 717.486,606.045 C716.711,606.456 715.441,605.624 716.725,604.35 Z " fill="#FFFFFF" />
</svg>