<svg xmlns="http://www.w3.org/2000/svg" viewBox="0 0 775 745" role="img" aria-hidden="true">
  <path d="M 545.84 719.03 C 559.37 716.27 567.94 713.15 579.93 706.63 C 585.63 703.53 590.68 701.00 591.15 701.00 C 591.62 701.00 592.00 700.56 592.00 700.03 C 592.00 699.50 593.14 698.47 594.54 697.73 C 598.90 695.45 616.89 676.94 621.43 670.06 C 626.86 661.84 631.09 653.38 633.97 645.00 C 635.20 641.42 636.59 637.60 637.06 636.50 C 638.69 632.70 641.00 612.91 641.00 602.79 C 641.00 590.00 639.33 575.98 637.04 569.50 C 636.07 566.75 634.70 562.02 634.00 559.00 C 632.26 551.47 618.39 523.06 612.27 514.50 C 604.91 504.21 599.08 497.86 564.02 462.00 C 546.55 444.12 530.54 427.48 528.46 425.00 C 524.35 420.13 509.00 397.14 509.00 395.87 C 509.00 395.44 507.65 392.79 505.99 389.99 C 504.34 387.18 501.37 381.87 499.39 378.19 C 485.27 351.91 470.58 334.05 456.13 325.58 C 449.36 321.61 433.87 315.52 425.50 313.54 C 412.98 310.57 370.01 311.43 352.19 315.01 C 319.07 321.65 302.31 336.00 267.47 387.50 C 240.87 426.82 229.48 440.71 198.57 471.50 C 175.10 494.87 166.55 505.15 154.85 524.00 C 144.06 541.40 142.00 544.97 142.00 546.29 C 142.00 546.99 141.39 548.44 140.64 549.53 C 139.89 550.61 137.65 555.65 135.65 560.72 C 125.40 586.76 129.23 630.41 144.61 662.67 C 154.66 683.76 175.67 703.31 196.06 710.53 C 206.69 714.29 223.57 716.93 243.32 717.90 C 254.23 718.44 263.68 718.70 264.32 718.48 C 264.97 718.26 272.02 717.62 280.00 717.05 C 293.12 716.11 314.14 712.35 333.00 707.55 C 359.74 700.76 372.18 698.90 395.00 698.30 C 416.46 697.73 414.54 697.49 448.50 705.05 C 461.15 707.87 476.55 711.25 482.73 712.55 C 488.90 713.86 496.55 715.69 499.73 716.63 C 504.76 718.11 522.91 720.42 532.84 720.86 C 534.68 720.93 540.53 720.11 545.84 719.03 Z M 531.50 702.98 C 538.28 699.98 549.44 696.00 551.08 696.00 C 552.13 696.00 553.00 695.60 553.00 695.11 C 553.00 694.62 556.49 692.41 560.75 690.19 C 570.86 684.93 582.78 675.27 593.36 663.76 C 612.20 643.25 619.71 627.22 622.67 601.14 C 624.36 586.30 624.24 584.34 620.44 564.95 C 620.17 563.60 621.04 565.20 622.37 568.50 C 626.63 579.11 629.31 595.12 628.71 606.50 C 628.16 617.13 624.27 631.57 619.32 641.34 C 616.48 646.96 605.64 661.55 599.64 667.84 C 589.92 678.02 568.57 694.04 558.86 698.43 C 552.63 701.26 539.98 704.03 533.79 703.93 C 530.43 703.88 529.93 703.67 531.50 702.98 Z M 240.00 700.52 C 212.70 695.41 183.32 677.91 169.49 658.50 C 163.52 650.12 156.27 635.63 154.48 628.50 C 146.35 596.06 153.98 559.09 175.27 527.77 C 188.16 508.82 199.49 495.75 230.09 464.54 C 260.24 433.79 266.23 426.24 280.99 400.50 C 291.12 382.82 304.06 365.09 312.92 356.75 C 319.56 350.51 334.88 340.00 337.35 340.00 C 337.72 340.00 339.93 339.14 342.26 338.09 C 351.41 333.97 369.88 329.33 382.32 328.05 C 397.09 326.52 412.43 329.69 430.54 338.02 C 455.13 349.32 477.09 372.70 496.77 408.50 C 507.61 428.23 519.82 448.33 526.22 456.99 C 529.68 461.66 541.50 474.71 552.50 486.00 C 585.29 519.63 592.87 529.03 601.89 547.20 C 609.11 561.76 612.04 573.99 612.14 590.00 C 612.18 598.27 611.64 605.04 610.54 610.00 C 608.82 617.71 603.38 631.79 599.72 638.00 C 585.91 661.42 559.06 682.67 532.00 691.58 C 524.22 694.14 522.19 694.38 508.00 694.44 C 490.58 694.51 494.14 695.33 459.16 683.11 C 425.39 671.30 414.41 669.29 392.50 670.89 C 371.45 672.43 355.07 676.28 320.00 687.95 C 293.85 696.65 287.41 698.52 277.14 700.44 C 267.41 702.26 249.50 702.29 240.00 700.52 Z M 193.29 695.56 C 181.47 690.05 167.63 678.02 161.09 667.55 C 156.44 660.12 157.37 659.87 162.85 667.10 C 170.54 677.27 176.24 682.57 186.95 689.51 C 192.44 693.08 197.40 696.00 197.97 696.00 C 198.54 696.00 199.00 696.45 199.00 697.00 C 199.00 698.29 199.34 698.37 193.29 695.56 Z M 436.00 689.95 C 425.70 687.42 412.25 686.00 398.63 686.00 C 387.02 686.00 363.39 688.29 357.00 690.03 C 350.37 691.84 349.51 690.84 356.00 688.86 C 366.38 685.69 392.58 681.00 399.84 681.01 C 409.34 681.02 427.00 684.32 437.50 688.06 C 442.45 689.82 446.69 691.43 446.92 691.63 C 447.81 692.42 443.17 691.71 436.00 689.95 Z M 551.70 469.20 C 544.72 462.20 539.00 456.10 539.00 455.64 C 539.00 455.18 544.86 460.76 552.01 468.05 C 559.17 475.34 564.89 481.45 564.72 481.62 C 564.54 481.79 558.69 476.20 551.70 469.20 Z M 658.23 451.64 C 668.97 448.92 668.71 449.04 683.44 440.12 C 698.74 430.86 711.98 417.37 723.48 399.32 C 734.19 382.51 734.27 382.35 739.09 367.77 C 748.05 340.63 751.07 322.87 749.90 304.00 C 748.58 282.48 748.06 280.31 739.31 259.65 C 729.05 235.44 720.28 223.72 708.30 218.22 C 700.28 214.54 689.96 212.68 682.70 213.61 C 673.39 214.80 655.09 222.31 645.38 228.91 C 632.32 237.80 612.99 255.09 603.34 266.50 C 580.81 293.14 562.01 329.43 556.97 356.00 C 553.81 372.70 554.47 382.67 559.86 399.00 C 564.32 412.55 566.36 416.12 575.50 426.42 C 596.60 450.22 627.16 459.53 658.23 451.64 Z M 155.50 446.56 C 170.35 441.60 186.21 430.56 197.23 417.51 C 205.50 407.71 213.51 391.31 216.03 379.00 C 219.70 361.08 218.20 342.95 211.54 324.53 C 207.40 313.11 205.75 309.82 195.89 293.37 C 186.68 278.00 179.57 267.90 169.63 256.06 C 165.67 251.35 161.72 246.38 160.85 245.00 C 157.09 239.08 142.64 223.94 135.86 218.82 C 118.20 205.47 107.55 201.52 91.00 202.20 C 81.94 202.58 81.07 202.82 72.27 207.39 C 53.34 217.22 39.38 237.23 29.16 269.17 C 24.76 282.91 23.59 292.92 24.38 309.97 C 25.22 328.20 26.68 336.28 31.97 352.00 C 40.82 378.30 55.03 402.15 71.94 419.08 C 88.10 435.26 101.04 443.56 116.00 447.33 C 125.72 449.79 126.67 449.89 137.50 449.54 C 145.05 449.31 149.46 448.58 155.50 446.56 Z M 625.40 442.02 C 619.99 441.25 612.00 438.70 612.00 437.74 C 612.00 437.55 614.93 437.83 618.50 438.36 C 623.99 439.18 626.69 438.98 635.75 437.05 C 662.15 431.46 671.81 426.87 690.29 411.15 C 703.97 399.52 714.84 384.64 726.20 362.00 C 733.25 347.94 733.86 348.30 728.77 363.50 C 716.14 401.19 686.96 432.24 656.46 440.43 C 649.16 442.39 633.63 443.18 625.40 442.02 Z M 120.50 435.18 C 105.84 431.43 97.26 426.19 82.63 412.04 C 71.19 400.98 66.52 394.74 58.14 379.36 C 43.09 351.72 34.89 320.89 36.37 297.50 C 36.98 287.82 39.11 276.41 40.90 273.21 C 41.43 272.27 41.75 277.80 41.72 287.07 C 41.62 311.92 45.86 342.13 51.74 358.50 C 54.79 366.98 62.16 381.90 66.26 387.87 C 75.78 401.73 92.35 415.67 108.59 423.48 C 124.10 430.94 131.84 432.98 144.98 433.08 C 155.38 433.16 155.46 433.18 152.00 434.73 C 146.58 437.15 129.18 437.40 120.50 435.18 Z M 608.00 425.07 C 601.12 422.89 595.01 419.78 592.81 417.34 C 591.88 416.31 589.73 412.51 588.04 408.89 C 579.67 391.02 579.66 368.91 588.00 337.28 C 591.72 323.18 593.77 317.68 600.26 304.50 C 610.01 284.71 625.85 264.17 640.62 252.19 C 647.25 246.81 660.88 240.31 668.50 238.90 C 676.67 237.39 687.28 238.29 694.47 241.10 C 702.40 244.22 713.52 254.52 715.04 260.17 C 715.63 262.33 716.80 264.37 717.65 264.70 C 721.50 266.17 727.76 287.15 728.64 301.50 C 729.55 316.35 725.84 336.74 719.86 349.81 C 708.50 374.61 702.00 384.37 686.88 399.25 C 680.32 405.71 674.51 411.00 673.97 411.00 C 673.43 411.00 671.16 412.32 668.94 413.93 C 663.80 417.65 652.03 422.56 642.27 425.06 C 632.43 427.58 615.91 427.58 608.00 425.07 Z M 136.76 422.02 C 125.71 420.04 107.92 412.21 97.73 404.86 C 90.24 399.46 80.63 389.22 74.82 380.46 C 69.93 373.10 59.00 348.35 59.00 344.67 C 59.00 343.47 57.89 338.44 56.52 333.49 C 51.56 315.45 50.79 281.72 54.95 264.40 C 58.42 249.98 60.96 243.79 65.23 239.35 C 70.09 234.30 80.56 229.28 89.11 227.90 C 110.39 224.48 144.71 244.27 161.24 269.51 C 172.90 287.30 185.55 316.09 189.81 334.50 C 192.78 347.33 193.45 353.82 193.26 368.00 C 193.07 382.48 190.93 392.35 185.49 403.83 C 181.84 411.56 179.85 413.80 173.77 417.03 C 166.08 421.13 146.50 423.77 136.76 422.02 Z M 568.39 388.28 C 565.16 377.15 568.12 349.63 573.58 340.11 C 574.65 338.24 574.94 338.07 574.60 339.50 C 570.92 355.17 570.51 359.05 570.75 376.25 C 570.89 386.01 570.79 394.00 570.53 394.00 C 570.27 394.00 569.31 391.43 568.39 388.28 Z M 205.09 365.00 C 205.04 360.32 204.32 352.04 203.49 346.59 C 201.79 335.26 201.72 333.91 202.94 336.00 C 204.74 339.07 207.00 353.17 206.90 360.71 C 206.76 372.06 205.23 375.69 205.09 365.00 Z M 458.20 341.83 C 454.73 339.18 448.43 334.99 444.20 332.52 C 436.18 327.85 435.72 326.67 443.17 329.86 C 447.31 331.63 463.27 343.02 464.58 345.12 C 465.94 347.34 464.22 346.45 458.20 341.83 Z M 302.28 296.45 C 317.71 293.37 335.43 280.74 344.73 266.21 C 354.08 251.60 365.47 220.01 367.33 203.55 C 368.87 189.96 368.76 161.26 367.14 152.00 C 363.91 133.55 357.13 114.00 347.02 94.00 C 344.38 88.78 338.38 76.62 333.69 67.00 C 323.68 46.48 317.71 38.52 307.49 32.07 C 298.24 26.23 292.43 24.59 281.00 24.59 C 266.36 24.60 252.77 29.33 235.50 40.45 C 216.46 52.71 203.82 66.99 193.88 87.50 C 179.62 116.93 177.53 149.44 187.40 188.16 C 192.60 208.55 208.75 244.42 219.60 259.68 C 222.02 263.08 224.00 266.30 224.00 266.84 C 224.00 267.38 227.92 271.49 232.72 275.98 C 253.33 295.26 275.52 301.79 302.28 296.45 Z M 515.00 296.51 C 521.48 294.52 532.70 288.99 538.92 284.71 C 550.89 276.48 565.78 259.74 575.22 243.92 C 581.07 234.12 591.00 209.97 591.00 205.55 C 591.00 204.19 591.88 199.30 592.96 194.68 C 595.17 185.18 599.00 150.17 598.99 139.53 C 598.98 130.19 597.45 117.32 595.00 105.85 C 593.90 100.71 592.47 94.03 591.83 91.00 C 591.19 87.97 588.07 80.10 584.89 73.50 C 580.07 63.46 577.99 60.35 572.19 54.46 C 563.04 45.16 556.26 41.64 542.19 38.86 C 531.57 36.77 530.63 36.73 521.78 38.17 C 513.68 39.48 512.13 39.48 509.59 38.23 C 507.12 37.00 505.25 36.97 497.09 38.05 C 488.89 39.13 486.05 40.05 477.50 44.41 C 469.11 48.68 465.95 51.02 457.89 59.00 C 446.97 69.80 442.17 76.53 434.05 92.40 C 427.17 105.85 424.12 113.66 419.52 129.63 C 409.35 164.97 407.28 208.64 414.48 236.00 C 415.90 241.40 419.39 250.33 422.56 256.70 C 427.68 266.97 428.98 268.69 438.09 277.44 C 450.89 289.72 457.72 293.31 475.50 297.06 C 486.66 299.41 506.43 299.14 515.00 296.51 Z M 272.50 283.52 C 262.90 281.40 255.44 278.19 249.13 273.44 C 241.98 268.06 231.61 257.14 229.46 252.73 L 227.89 249.50 L 230.69 252.64 C 234.01 256.36 244.50 265.21 251.83 270.48 C 256.84 274.08 275.25 282.99 277.69 283.00 C 278.35 283.00 279.16 283.45 279.50 284.00 C 280.24 285.20 280.09 285.19 272.50 283.52 Z M 481.01 282.45 C 470.49 279.51 462.45 272.97 454.45 260.83 C 446.84 249.28 442.09 237.59 438.67 222.00 C 431.47 189.18 432.80 166.59 443.55 138.89 C 445.55 133.73 447.85 127.72 448.66 125.53 C 451.48 117.95 461.10 100.15 468.14 89.49 C 481.34 69.51 494.61 58.14 509.20 54.32 C 517.60 52.12 524.05 53.22 534.95 58.72 C 543.67 63.12 557.97 76.12 564.23 85.34 C 569.97 93.79 577.54 110.21 579.91 119.34 C 586.67 145.34 584.75 174.59 574.57 200.95 C 563.88 228.63 546.06 253.94 526.41 269.35 C 512.22 280.48 493.41 285.91 481.01 282.45 Z M 281.50 272.61 C 265.27 267.27 251.59 258.53 239.37 245.68 C 217.39 222.58 209.05 196.65 210.28 155.16 C 211.35 118.63 220.32 85.19 234.74 63.91 C 240.84 54.92 242.91 52.95 250.00 49.38 C 257.18 45.77 269.24 44.98 279.99 47.43 C 311.95 54.70 332.54 83.20 342.91 134.50 C 351.35 176.28 352.04 201.64 345.40 227.00 C 342.36 238.64 339.33 245.39 333.59 253.38 C 327.53 261.80 322.71 266.17 314.51 270.64 C 307.95 274.21 306.93 274.46 298.01 274.68 C 290.34 274.87 287.15 274.47 281.50 272.61 Z M 438.76 260.82 C 428.97 247.52 423.59 229.51 422.67 207.00 C 422.35 198.92 422.45 196.44 422.96 200.00 C 425.94 220.85 430.52 237.48 437.64 253.31 C 440.09 258.77 441.90 263.44 441.65 263.68 C 441.40 263.93 440.10 262.64 438.76 260.82 Z M 709.55 234.08 C 708.50 232.38 699.70 227.96 694.58 226.56 C 691.33 225.68 690.40 225.15 692.00 225.10 C 696.28 224.95 702.30 227.01 707.25 230.32 C 711.77 233.35 713.12 235.00 711.06 235.00 C 710.54 235.00 709.86 234.59 709.55 234.08 Z M 106.50 216.77 C 99.60 215.04 97.26 214.90 89.50 215.71 C 84.55 216.23 80.32 216.51 80.10 216.34 C 79.87 216.17 81.45 215.28 83.60 214.37 C 89.27 211.97 100.05 212.26 107.50 215.02 C 110.80 216.25 113.93 217.64 114.45 218.12 C 114.97 218.61 115.20 218.95 114.95 218.89 C 114.70 218.83 110.90 217.88 106.50 216.77 Z M 198.08 181.75 C 194.35 163.23 193.79 157.25 194.27 141.00 C 194.69 126.92 195.21 122.80 197.77 112.93 C 199.42 106.57 202.42 97.80 204.43 93.43 C 207.92 85.89 215.92 72.59 216.58 73.25 C 216.75 73.42 215.28 77.58 213.31 82.48 C 208.55 94.33 203.60 114.95 200.95 134.00 C 199.18 146.69 198.86 152.90 199.18 168.25 C 199.40 178.56 199.48 187.00 199.36 187.00 C 199.24 187.00 198.67 184.64 198.08 181.75 Z M 430.53 138.68 C 431.50 132.41 438.76 111.47 443.37 101.66 C 451.72 83.89 465.29 66.84 477.41 58.88 C 480.65 56.75 483.80 55.00 484.41 55.00 C 485.01 55.01 484.13 55.84 482.47 56.86 C 470.29 64.28 447.96 99.46 433.49 134.00 C 430.87 140.27 430.09 141.50 430.53 138.68 Z M 573.26 80.05 C 566.88 70.64 557.82 60.61 550.99 55.40 C 544.93 50.77 545.94 49.91 553.41 53.33 C 559.89 56.30 566.76 62.39 570.91 68.85 C 573.67 73.16 579.47 86.89 578.79 87.52 C 578.63 87.67 576.14 84.30 573.26 80.05 Z M 296.45 41.15 C 292.02 39.14 287.07 36.95 285.45 36.28 C 282.70 35.14 282.84 35.09 287.50 35.58 C 293.09 36.18 301.73 39.94 304.50 43.00 C 306.92 45.68 305.91 45.44 296.45 41.15 Z" fill="#F15F2A" fill-rule="evenodd"/>
</svg>