<svg xmlns="http://www.w3.org/2000/svg" viewBox="0 0 100 80" role="img" aria-hidden="true">
  <path
    fill="#64B9DC"
    d="M10 58C6 52 5 44 8 36 11 28 18 20 28 15 34 12 42 11 48 13 50 9 56 5 64 5 74 5 82 11 85 20 87 27 86 33 82 38 92 40 97 46 96 54 95 61 88 66 79 65L73 69C66 73 56 74 46 71 38 69 32 64 28 58 22 55 16 56 10 58Z"
  />
  <path
    fill="none"
    stroke="#FFFFFF"
    stroke-width="2.5"
    stroke-linecap="round"
    stroke-linejoin="round"
    d="M46 14C50 24 49 34 45 42"
  />
  <path
    fill="none"
    stroke="#FFFFFF"
    stroke-width="2.2"
    stroke-linecap="round"
    d="M62 28C68 25 74 26 78 29"
  />
  <path
    fill="none"
    stroke="#FFFFFF"
    stroke-width="2"
    stroke-linecap="round"
    d="M60 32C66 31 72 32 76 34"
  />
  <path
    fill="none"
    stroke="#FFFFFF"
    stroke-width="2.6"
    stroke-linecap="round"
    d="M78 38C86 45 94 44 98 40"
  />
  <path
    fill="none"
    stroke="#FFFFFF"
    stroke-width="2.2"
    stroke-linecap="round"
    stroke-linejoin="round"
    d="M26 58L29 63 32 58 35 63"
  />
</svg>
