<svg xmlns="http://www.w3.org/2000/svg" viewBox="0 0 64 64" role="img" aria-label="paw">
  <rect width="64" height="64" rx="18" fill="#151b22"/>
  <g fill="none" stroke="#f26a21" stroke-width="4" stroke-linecap="round" stroke-linejoin="round">
    
      <path d="M21 36c-5 1-8 5-7 9 1 4 6 5 10 3 3-2 5-2 8-2s5 0 8 2c4 2 9 1 10-3 1-4-2-8-7-9-4-1-7 2-11 2s-7-3-11-2z"/>
      <ellipse cx="20" cy="24" rx="5" ry="7"/><ellipse cx="32" cy="19" rx="5" ry="7"/>
      <ellipse cx="44" cy="24" rx="5" ry="7"/><ellipse cx="52" cy="34" rx="4" ry="6"/><ellipse cx="12" cy="34" rx="4" ry="6"/>
    
  </g>
</svg>
