<svg xmlns="http://www.w3.org/2000/svg" viewBox="0 0 720 220" role="img" aria-label="Fitdog Health and Social Club placeholder logo">
  <rect width="720" height="220" fill="none"/>
  <g transform="translate(22 24)">
    <path d="M60 35c-28 0-50 22-50 50s22 50 50 50 50-22 50-50S88 35 60 35z" fill="none" stroke="#f26a21" stroke-width="10" stroke-linecap="round"/>
    <path d="M23 52L2 35c-2-2 0-5 3-5l30 2M96 52l21-17c2-2 0-5-3-5l-30 2" fill="none" stroke="#f26a21" stroke-width="10" stroke-linecap="round" stroke-linejoin="round"/>
    <circle cx="43" cy="79" r="5" fill="#f26a21"/><circle cx="77" cy="79" r="5" fill="#f26a21"/>
    <path d="M50 102c8 8 20 8 28 0" fill="none" stroke="#f26a21" stroke-width="8" stroke-linecap="round"/>
  </g>
  <text x="165" y="96" font-family="Inter, Arial, sans-serif" font-size="70" font-weight="900" fill="#f26a21">fit</text>
  <text x="270" y="96" font-family="Inter, Arial, sans-serif" font-size="70" font-weight="900" fill="#ffffff">dog</text>
  <text x="168" y="144" font-family="Inter, Arial, sans-serif" font-size="24" font-weight="700" letter-spacing="4" fill="#ffffff">HEALTH &amp; SOCIAL CLUB</text>
</svg>