<svg xmlns="http://www.w3.org/2000/svg" viewBox="0 0 900 120" fill="none">
  <defs>
    <linearGradient id="lineL" x1="0" y1="0" x2="1" y2="0">
      <stop stop-color="#FF8A00" stop-opacity="0"/>
      <stop offset=".68" stop-color="#FF8A00" stop-opacity=".7"/>
      <stop offset="1" stop-color="#FFB04A"/>
    </linearGradient>
    <linearGradient id="lineR" x1="0" y1="0" x2="1" y2="0">
      <stop stop-color="#FFB04A"/>
      <stop offset=".32" stop-color="#FF8A00" stop-opacity=".7"/>
      <stop offset="1" stop-color="#FF8A00" stop-opacity="0"/>
    </linearGradient>
    <filter id="glow" x="-80%" y="-80%" width="260%" height="260%">
      <feGaussianBlur stdDeviation="4" result="b"/>
      <feMerge><feMergeNode in="b"/><feMergeNode in="SourceGraphic"/></feMerge>
    </filter>
  </defs>
  <path d="M30 60H375" stroke="url(#lineL)" stroke-width="2"/>
  <path d="M525 60H870" stroke="url(#lineR)" stroke-width="2"/>
  <g transform="translate(408 20)" stroke="#FF8A00" stroke-width="4" fill="none" filter="url(#glow)">
    <ellipse cx="27" cy="19" rx="9" ry="13" transform="rotate(-18 27 19)"/>
    <ellipse cx="49" cy="14" rx="9" ry="13" transform="rotate(3 49 14)"/>
    <ellipse cx="71" cy="19" rx="9" ry="13" transform="rotate(18 71 19)"/>
    <ellipse cx="15" cy="39" rx="8" ry="11" transform="rotate(-35 15 39)"/>
    <ellipse cx="83" cy="39" rx="8" ry="11" transform="rotate(35 83 39)"/>
    <path d="M49 38c-17 0-30 12-30 27 0 10 8 17 18 14 8-2 16-2 24 0 10 3 18-4 18-14 0-15-13-27-30-27Z"/>
  </g>
</svg>
