<svg xmlns="http://www.w3.org/2000/svg" viewBox="0 0 800 240" fill="none">
  <defs>
    <filter id="g" x="-120%" y="-120%" width="340%" height="340%">
      <feGaussianBlur stdDeviation="3" result="b"/>
      <feMerge><feMergeNode in="b"/><feMergeNode in="SourceGraphic"/></feMerge>
    </filter>
  </defs>
  <g fill="#FF8A00" filter="url(#g)">
    <path d="M110 38c3 15 10 22 25 25-15 3-22 10-25 25-3-15-10-22-25-25 15-3 22-10 25-25Z"/>
    <path d="M560 70c2 10 7 15 17 17-10 2-15 7-17 17-2-10-7-15-17-17 10-2 15-7 17-17Z"/>
    <path d="M684 40c2 7 5 10 12 12-7 2-10 5-12 12-2-7-5-10-12-12 7-2 10-5 12-12Z"/>
    <circle cx="202" cy="108" r="3"/>
    <circle cx="402" cy="48" r="2.5"/>
    <circle cx="631" cy="145" r="3"/>
    <circle cx="316" cy="174" r="2"/>
    <circle cx="744" cy="188" r="2"/>
  </g>
</svg>
